<svg width="81" height="26" viewBox="0 0 81 26" fill="none" xmlns="http://www.w3.org/2000/svg">
<path d="M30.6484 19.0712V7.08419H34.7441C35.8317 7.01463 36.9192 7.29286 37.8448 7.89569C38.5853 8.47533 38.9786 9.37957 38.9092 10.3302C38.9092 10.8635 38.7704 11.3735 38.4696 11.8141C38.1456 12.2778 37.706 12.6256 37.1738 12.8342C37.7754 12.9733 38.3076 13.3211 38.6778 13.8312C39.0481 14.3413 39.2332 14.9441 39.21 15.5701C39.2795 16.5439 38.8861 17.5177 38.1456 18.1669C37.2432 18.8161 36.1556 19.1407 35.0449 19.0712H30.6484ZM32.731 12.1387H34.7673C35.3226 12.1618 35.8548 12.0227 36.2945 11.6981C36.6878 11.3735 36.873 10.8866 36.8267 10.3997C36.873 9.91284 36.6878 9.42594 36.3176 9.10134C35.8548 8.79993 35.2995 8.66081 34.7441 8.70718H32.731V12.1387ZM32.731 13.6689V17.425H35.0449C35.6003 17.4482 36.1556 17.2859 36.5953 16.9381C36.9424 16.6135 37.1506 16.1266 37.1275 15.6397C37.1969 15.1064 37.0118 14.5963 36.6416 14.2254C36.2713 13.8544 35.7391 13.6689 35.2301 13.7385L32.731 13.6689Z" fill="white"/>
<path d="M41.084 7.84925C41.0608 7.57102 41.1765 7.2928 41.3617 7.08412C41.5931 6.87545 41.8939 6.75953 42.1947 6.78271C42.4955 6.75953 42.8194 6.87545 43.0277 7.08412C43.2128 7.2928 43.3285 7.57102 43.3054 7.84925C43.3054 8.12748 43.2128 8.40571 43.0277 8.59119C42.7963 8.79986 42.4955 8.91579 42.1947 8.89261C41.8939 8.91579 41.5931 8.79986 41.3617 8.59119C41.1765 8.40571 41.0608 8.12748 41.084 7.84925ZM43.2128 19.0711H41.1997V10.1678H43.2128V19.0711Z" fill="white"/>
<path fill-rule="evenodd" clip-rule="evenodd" d="M47.8645 7.9884V10.1447H49.4379V11.6286H47.8645V16.6367C47.8413 16.8917 47.9107 17.1699 48.0727 17.3786C48.281 17.5409 48.5355 17.6336 48.79 17.6105C49.0214 17.6105 49.2528 17.5873 49.4842 17.5409V19.0943C49.0677 19.2103 48.6281 19.2798 48.1884 19.2798C46.6381 19.2798 45.8745 18.422 45.8745 16.683V11.6517H44.3936V10.1679H45.8745V8.01159H47.8645V7.9884Z" fill="white"/>
<path fill-rule="evenodd" clip-rule="evenodd" d="M54.6209 17.6335C55.0837 17.6567 55.5465 17.5176 55.9167 17.2162C56.2407 16.938 56.4258 16.567 56.449 16.1497H58.3464C58.3232 16.7061 58.1381 17.2394 57.8142 17.7031C57.4902 18.19 57.0506 18.5841 56.5184 18.8392C55.963 19.1174 55.3383 19.2797 54.7135 19.2565C53.6028 19.3029 52.5153 18.8624 51.7517 18.0277C50.9881 17.1003 50.5947 15.8946 50.6641 14.689V14.4803C50.5947 13.2978 50.9881 12.1385 51.7517 11.2343C52.5153 10.3996 53.6028 9.95909 54.7135 10.0055C55.6622 9.95909 56.5878 10.2837 57.3051 10.9329C57.9762 11.5589 58.3695 12.44 58.3695 13.3674H56.4027C56.4027 12.8805 56.2176 12.4168 55.8936 12.069C55.5465 11.7212 55.0837 11.5357 54.5978 11.5821C54.0193 11.5589 53.464 11.8139 53.1169 12.2777C52.7235 12.9037 52.5153 13.6688 52.5847 14.4107V14.7353C52.5384 15.5005 52.7235 16.2424 53.1169 16.8916C53.4177 17.4017 54.0193 17.6799 54.6209 17.6335Z" fill="white"/>
<path d="M59.4108 14.55C59.4108 13.7385 59.5728 12.927 59.9199 12.185C60.2438 11.5126 60.7529 10.933 61.4008 10.562C62.0487 10.191 62.7892 9.98238 63.5528 10.0056C64.6403 9.95919 65.7047 10.3765 66.4683 11.1648C67.2319 11.9995 67.6716 13.1124 67.6947 14.2485V14.7123C67.7178 15.5238 67.5327 16.3353 67.1856 17.0772C66.8617 17.7496 66.3758 18.306 65.7279 18.677C65.08 19.0712 64.3164 19.2566 63.5528 19.2566C62.3958 19.303 61.3082 18.8161 60.5446 17.9582C59.7579 17.0308 59.3414 15.8252 59.4108 14.5963V14.55ZM61.4239 14.7354C61.3777 15.5006 61.5859 16.2425 62.0024 16.8917C62.3495 17.4018 62.9511 17.7032 63.5759 17.68C64.2007 17.7032 64.8023 17.4018 65.1494 16.8917C65.5659 16.1961 65.7741 15.3846 65.7279 14.5731C65.7741 13.808 65.5659 13.0661 65.1494 12.4401C64.7791 11.9532 64.2007 11.6517 63.5759 11.6517C62.9511 11.6517 62.3726 11.9532 62.0024 12.4401C61.5628 13.1124 61.3545 13.9008 61.4239 14.7354Z" fill="white"/>
<path d="M69.3834 7.84925C69.3602 7.57102 69.4759 7.2928 69.661 7.08412C69.8693 6.87545 70.1701 6.75953 70.4709 6.78271C70.7717 6.75953 71.0957 6.87545 71.3039 7.08412C71.5122 7.2928 71.6048 7.57102 71.6048 7.84925C71.6048 8.12748 71.5122 8.40571 71.3039 8.59119C71.0726 8.79986 70.7717 8.91579 70.4709 8.89261C70.1701 8.91579 69.8693 8.79986 69.6379 8.59119C69.4528 8.40571 69.3602 8.12748 69.3834 7.84925ZM71.5122 19.0711H69.4991V10.1678H71.5122V19.0711Z" fill="white"/>
<path fill-rule="evenodd" clip-rule="evenodd" d="M75.5159 10.1678L75.5853 11.2112C76.2101 10.4229 77.1588 9.98235 78.1769 10.0287C80.0281 10.0287 80.9768 11.0953 80.9999 13.2283V19.1175H78.9868V13.2515C79.0331 12.7878 78.8943 12.3241 78.6166 11.9531C78.2926 11.6517 77.853 11.4894 77.4133 11.5358C76.6266 11.5358 75.9093 11.9995 75.6085 12.7183V19.0479H73.6416V10.1678H75.5159Z" fill="white"/>
<path fill-rule="evenodd" clip-rule="evenodd" d="M9.44893 25.1158C16.1062 26.8074 22.859 22.754 24.5472 16.0834C25.3754 12.8279 24.8657 9.41288 23.1457 6.57231C21.4256 3.69982 18.6544 1.65716 15.4373 0.859251C8.74816 -0.768492 2.0272 3.28491 0.370846 9.98738C-1.2855 16.6898 2.75981 23.4242 9.44893 25.1158ZM13.9587 7.36628C15.8035 7.54615 17.2506 8.11709 17.3895 9.7905L17.4354 9.84512C17.6114 10.8531 17.0923 11.8314 16.1768 12.2486C16.8557 12.3478 17.4703 12.7252 17.8358 13.2937C18.2013 13.8623 18.334 14.5525 18.1655 15.2166C17.929 17.3742 16.2701 17.9702 13.8741 18.0871L13.8755 20.4172L12.4309 20.4037L12.5137 18.1518L11.3937 18.1258L11.3641 20.4633L9.95052 20.4423L9.97264 18.0737L8.953 18.0564L7.11442 18.0392L7.40049 16.362L8.34455 16.2006C8.47587 16.2018 8.59976 16.172 8.70878 16.0801C8.8178 15.9883 8.88841 15.8728 8.88964 15.7412L8.95503 12.0493L8.97962 9.41746C8.92136 9.03759 8.56081 8.76327 8.17426 8.79061C8.1978 8.75212 7.15462 8.77331 7.15462 8.77331L7.15327 7.26375L9.13805 7.3443L10.0189 7.32933L10.0249 5.03024L11.4386 5.05124L11.4251 7.3193L12.5687 7.3068L12.5821 5.03874L13.9957 5.05974L13.9587 7.36628ZM11.6083 16.3402C12.7554 16.3937 15.3311 16.5137 15.3184 14.8184C15.3408 13.1717 12.8443 13.2162 11.6764 13.237C11.5596 13.2391 11.4562 13.2409 11.3698 13.2408L11.3564 16.3295C11.4292 16.3319 11.5139 16.3358 11.6083 16.3402ZM11.6216 11.8048C12.6167 11.8253 14.6808 11.8679 14.6875 10.4077L14.7494 10.3928C14.7425 8.8733 12.6796 8.93253 11.6652 8.96166C11.5632 8.96458 11.4719 8.96721 11.3943 8.96789L11.3524 11.8008C11.4286 11.8008 11.5195 11.8027 11.6216 11.8048Z" fill="white"/>
</svg>
