<svg width="86" height="26" viewBox="0 0 86 26" fill="none" xmlns="http://www.w3.org/2000/svg">
<path d="M44.8252 11.0687V1.32163H48.1712C49.0561 1.26625 49.941 1.48778 50.6876 2.0139C51.2959 2.48464 51.6001 3.23228 51.5448 4.00762C51.5448 4.42298 51.4066 4.86602 51.1853 5.19831C50.9088 5.58598 50.5493 5.86288 50.1345 6.02903C50.6323 6.13979 51.0471 6.4167 51.3512 6.83205C51.6554 7.24741 51.7937 7.77353 51.7937 8.27196C51.849 9.07499 51.5172 9.85032 50.9088 10.3764C50.1898 10.9026 49.2773 11.1795 48.3924 11.1241L44.8252 11.0687ZM46.5673 5.39215H48.2265C48.6689 5.41984 49.1114 5.28138 49.4709 5.03217C49.775 4.78295 49.941 4.39529 49.9133 4.00762C49.941 3.61995 49.8027 3.23228 49.4985 2.95538C49.139 2.70616 48.6689 2.5954 48.2265 2.62309H46.5673V5.39215ZM46.5673 6.63822V9.71187H48.4477C48.8902 9.73956 49.3602 9.60111 49.6921 9.3242C49.9963 9.0473 50.1622 8.63194 50.1345 8.21658C50.1898 7.77353 50.0516 7.35817 49.7474 7.05358C49.4432 6.74898 49.0008 6.61053 48.586 6.66591H46.5673V6.63822Z" fill="white"/>
<path d="M53.2363 1.95433C53.2363 1.73281 53.3193 1.4836 53.4852 1.31745C53.8723 0.985166 54.453 0.985166 54.8402 1.31745C55.172 1.67743 55.172 2.23124 54.8402 2.56353C54.453 2.89581 53.8723 2.89581 53.4852 2.56353C53.3193 2.42507 53.2363 2.20355 53.2363 1.95433ZM54.9784 11.1476H53.3469V3.86498H54.9784V11.1476Z" fill="white"/>
<path fill-rule="evenodd" clip-rule="evenodd" d="M58.9007 2.09705V3.84155H60.2003V5.03224H58.9007V9.10275C58.873 9.32428 58.956 9.51811 59.0666 9.68426C59.2325 9.82271 59.4261 9.90578 59.6473 9.87809C59.8408 9.90578 60.0344 9.90578 60.228 9.87809V11.0688C59.8685 11.1795 59.509 11.2349 59.1495 11.2349C57.9052 11.2349 57.2691 10.5427 57.2691 9.15813V5.05993H56.0801V3.86924H57.2691V2.12474L58.9007 2.09705Z" fill="white"/>
<path fill-rule="evenodd" clip-rule="evenodd" d="M64.4311 9.96115C64.7906 9.98884 65.1501 9.85039 65.4542 9.60117C65.7308 9.37965 65.869 9.04736 65.8967 8.71507H67.4452C67.4176 9.15812 67.2793 9.60117 67.0028 9.98884C66.7263 10.3765 66.3668 10.7088 65.9243 10.9303C65.4819 11.1518 64.9565 11.2626 64.4588 11.2626C63.5462 11.2903 62.6613 10.958 62.053 10.2934C61.4446 9.54579 61.1128 8.57662 61.1681 7.57976V7.41362C61.1128 6.44445 61.4446 5.50297 62.053 4.75533C62.689 4.03537 63.6015 3.67539 64.5694 3.73077C65.3436 3.70308 66.0903 3.97999 66.671 4.50611C67.224 5.00454 67.5559 5.72449 67.5282 6.49983H65.9797C65.9797 6.11216 65.8137 5.75218 65.5649 5.47528C65.2883 5.19837 64.9288 5.03223 64.5417 5.05992C64.0716 5.03223 63.6015 5.25375 63.325 5.64142C62.9932 6.16754 62.8549 6.77674 62.8825 7.38593V7.63514C62.8549 8.24433 62.9932 8.85353 63.2973 9.37965C63.5462 9.71193 63.961 9.93346 64.4311 9.96115Z" fill="white"/>
<path d="M68.3297 7.44126C68.3297 6.77669 68.468 6.11211 68.7445 5.50292C68.9934 4.94911 69.4082 4.50606 69.9336 4.20146C70.459 3.89687 71.0673 3.73073 71.6757 3.73073C72.5606 3.70303 73.4455 4.03532 74.0538 4.69989C74.6898 5.39216 75.0493 6.27826 75.0493 7.21973V7.6074C75.0493 8.27198 74.9111 8.93655 74.6345 9.51805C74.3857 10.0719 73.9709 10.5426 73.4731 10.8472C72.9477 11.1518 72.3394 11.3179 71.731 11.2902C70.7908 11.3456 69.9059 10.958 69.2699 10.2657C68.6339 9.51805 68.3021 8.57657 68.3297 7.6074V7.44126ZM69.9612 7.57971C69.9336 8.1889 70.0995 8.7981 70.4037 9.32422C70.7079 9.73957 71.178 9.9611 71.7034 9.9611C72.2288 9.98879 72.6988 9.73957 73.003 9.32422C73.3625 8.77041 73.5284 8.10583 73.4731 7.44126C73.5008 6.83207 73.3349 6.22287 73.003 5.69675C72.6988 5.2814 72.2288 5.03218 71.7034 5.05987C71.2056 5.05987 70.7355 5.2814 70.4313 5.69675C70.0995 6.25057 69.9336 6.91514 69.9612 7.57971Z" fill="white"/>
<path d="M76.4873 1.95858C76.4873 1.73705 76.5703 1.51553 76.7085 1.32169C76.9021 1.15555 77.151 1.07248 77.3998 1.07248C77.6487 1.04479 77.8976 1.15555 78.0912 1.32169C78.423 1.68167 78.423 2.23548 78.0912 2.56777C77.8976 2.73391 77.6487 2.81698 77.3998 2.81698C77.151 2.81698 76.9021 2.73391 76.7085 2.56777C76.5703 2.42931 76.4873 2.1801 76.4873 1.95858ZM78.2294 11.1518H76.5979V3.86922H78.2294V11.1518Z" fill="white"/>
<path fill-rule="evenodd" clip-rule="evenodd" d="M81.5205 3.86919V4.69991C82.0459 4.06302 82.8479 3.70305 83.6775 3.73074C85.1984 3.73074 85.945 4.58914 86.0003 6.33365V11.0687H84.3411V6.41672C84.3688 6.05674 84.2582 5.69677 84.0369 5.39217C83.7881 5.14295 83.4286 5.03219 83.0691 5.05988C82.4331 5.03219 81.8524 5.39217 81.5758 5.94598V11.1795H79.9443V3.86919H81.5205Z" fill="white"/>
<path fill-rule="evenodd" clip-rule="evenodd" d="M52.4145 21.6525C52.3875 22.5717 51.9825 23.4368 51.2806 24.0316C50.5516 24.6263 49.6067 24.9237 48.6618 24.8696C47.9598 24.8967 47.2579 24.7074 46.6369 24.329C46.043 23.9775 45.584 23.4368 45.314 22.788C44.9631 22.058 44.8011 21.274 44.8281 20.463V19.5709C44.8011 18.7598 44.9631 17.9488 45.314 17.1918C45.611 16.543 46.07 15.9752 46.6909 15.5968C47.3119 15.2183 48.0138 15.029 48.7428 15.0561C49.6607 15.002 50.5786 15.2994 51.2806 15.8941C51.9555 16.5159 52.3605 17.4081 52.4145 18.3273H50.7136C50.6866 17.7866 50.4706 17.2459 50.1196 16.8404C49.7147 16.5159 49.2017 16.3537 48.6888 16.3808C48.0138 16.3267 47.3659 16.6241 46.9879 17.1918C46.5829 17.9217 46.394 18.7598 46.5019 19.5979V20.436C46.448 21.274 46.6369 22.0851 47.0419 22.815C47.4199 23.3827 48.0678 23.6801 48.7428 23.6261C49.2557 23.6531 49.7957 23.5179 50.2006 23.1935C50.5786 22.788 50.8216 22.2473 50.8216 21.7066L52.4145 21.6525Z" fill="white"/>
<path d="M57.9763 24.6804C57.8954 24.4641 57.8144 24.2479 57.7874 24.0045C57.3014 24.5182 56.6265 24.7885 55.9245 24.7885C55.3036 24.8156 54.6826 24.5723 54.2237 24.1667C53.7917 23.7883 53.5217 23.2476 53.5487 22.6798C53.5217 22.004 53.8457 21.3822 54.3857 20.9767C55.1146 20.5171 55.9515 20.3008 56.7885 20.3549H57.7604V19.8953C57.7874 19.5709 57.6794 19.2464 57.4634 19.0031C57.2204 18.7598 56.8694 18.6246 56.5185 18.6517C56.1945 18.6517 55.8705 18.7328 55.6275 18.9491C55.4116 19.1113 55.2766 19.3546 55.2766 19.6249H53.6837C53.6837 19.2194 53.8187 18.8409 54.0617 18.5435C54.3317 18.1921 54.7096 17.9217 55.1146 17.7325C55.5736 17.5433 56.0865 17.4351 56.5995 17.4351C57.3284 17.4081 58.0303 17.6244 58.5973 18.0569C59.0833 18.4895 59.3532 19.1113 59.3532 19.7601V22.9502C59.3262 23.4638 59.4072 24.0045 59.6232 24.4912V24.6804H57.9763ZM56.3025 23.545C56.5995 23.545 56.9234 23.4638 57.1934 23.3287C57.4634 23.1935 57.6794 22.9772 57.8144 22.7069V21.3551H56.9774C56.5185 21.3281 56.0325 21.4362 55.6275 21.6796C55.3306 21.8688 55.1686 22.1932 55.1956 22.5447C55.1956 22.815 55.3036 23.0854 55.4926 23.2746C55.7085 23.4909 55.9785 23.599 56.2485 23.6261L56.3025 23.545Z" fill="white"/>
<path fill-rule="evenodd" clip-rule="evenodd" d="M64.9418 22.815C64.9688 22.5447 64.8338 22.3014 64.5908 22.1662C64.2398 21.9769 63.8349 21.8418 63.4299 21.7877C62.9709 21.6796 62.512 21.5444 62.08 21.3552C61.3511 21.1118 60.8651 20.436 60.8921 19.652C60.8921 19.0302 61.1891 18.4624 61.675 18.111C62.242 17.6784 62.9169 17.4622 63.6189 17.4892C64.3478 17.4622 65.0768 17.6784 65.6707 18.111C66.2107 18.5165 66.5076 19.1383 66.4807 19.8142H64.9418C64.9418 19.5168 64.8338 19.2464 64.5908 19.0572C64.3478 18.8409 63.9969 18.7328 63.6729 18.7598C63.3759 18.7598 63.0789 18.8409 62.8359 19.0031C62.62 19.1383 62.512 19.3816 62.512 19.652C62.512 19.8682 62.62 20.0845 62.8089 20.2197C63.1869 20.4089 63.6189 20.5711 64.0508 20.6523C64.5638 20.7334 65.0498 20.9226 65.5357 21.1389C65.8597 21.3011 66.1297 21.5174 66.3187 21.8147C66.5076 22.1121 66.5886 22.4365 66.5886 22.788C66.5886 23.4098 66.2917 23.9775 65.7787 24.329C65.1848 24.7615 64.4558 24.9778 63.6999 24.9237C63.1599 24.9237 62.62 24.8426 62.134 24.6263C61.702 24.4371 61.3511 24.1397 61.0811 23.7612C60.8381 23.4098 60.7031 23.0043 60.7031 22.5717H62.242C62.242 22.8961 62.404 23.2205 62.674 23.4368C63.2949 23.7883 64.0508 23.7883 64.6718 23.4368C64.8608 23.2746 64.9418 23.0313 64.9418 22.815Z" fill="white"/>
<path fill-rule="evenodd" clip-rule="evenodd" d="M69.6124 18.4354C70.0984 17.8406 70.8273 17.5162 71.5832 17.5432C73.0951 17.5432 73.8511 18.4083 73.905 20.1386V24.7074H72.3122V20.1115C72.3662 19.733 72.2312 19.3546 71.9882 19.0842C71.7182 18.8679 71.3942 18.7598 71.0433 18.7868C70.4493 18.7598 69.8824 19.0842 69.6124 19.6249V24.7344H68.0195V14.7046H69.6124V18.4354Z" fill="white"/>
<path fill-rule="evenodd" clip-rule="evenodd" d="M28.9717 25.5C32.2639 23.1923 34.5136 19.6209 35.2269 15.6648C35.9402 11.6538 35.0074 7.58791 32.7028 4.29121C31.6603 2.80769 30.3983 1.54396 28.9717 0.5H40.4395V25.5H28.9717Z" fill="white"/>
<path fill-rule="evenodd" clip-rule="evenodd" d="M4.99317 12.8626C4.9383 17.9176 7.35258 22.5879 11.4678 25.5H0V0.5H11.4678C7.40745 3.3022 4.99317 7.91758 4.99317 12.8626Z" fill="white"/>
<path fill-rule="evenodd" clip-rule="evenodd" d="M32.8544 12.9725C32.8544 19.8609 27.2778 25.4451 20.3989 25.4451C13.5199 25.4451 7.94336 19.8609 7.94336 12.9725C7.94336 6.08414 13.5199 0.5 20.3989 0.5C27.2778 0.5 32.8544 6.08414 32.8544 12.9725ZM21.5069 7.35988C23.3557 7.50746 24.8135 8.05301 24.9816 9.72374L25.0284 9.77754C25.2221 10.7823 24.7198 11.7695 23.8111 12.2027C24.4921 12.29 25.1135 12.6566 25.4891 13.2186C25.8647 13.7807 26.0095 14.4685 25.8525 15.1355C25.6535 17.2969 24.0042 17.9218 21.609 18.0805L21.6511 20.4103L20.2055 20.422L20.2492 18.169L19.1282 18.1626L19.1393 20.5003L17.7247 20.504L17.7055 18.1354L16.6851 18.1359L14.8453 18.1509L15.1023 16.4689L16.044 16.291C16.1754 16.2899 16.2989 16.258 16.4063 16.1642C16.5138 16.0704 16.5824 15.9538 16.5814 15.8222L16.5824 12.1296L16.5612 9.49782C16.4963 9.11903 16.1308 8.85106 15.7445 8.88515C15.7674 8.84626 14.7241 8.88568 14.7241 8.88568L14.6964 7.37638L16.6835 7.4222L17.5646 7.39184L17.5305 5.09299L18.9452 5.08927L18.9713 7.35721L20.1151 7.32472L20.0891 5.05677L21.5037 5.05305L21.5069 7.35988ZM19.3117 16.3736C20.4604 16.407 23.0394 16.4819 22.9971 14.787C22.9908 13.1403 20.4939 13.2284 19.3258 13.2696C19.209 13.2737 19.1055 13.2774 19.0191 13.2788L19.0596 16.3672C19.1324 16.3684 19.2172 16.3708 19.3117 16.3736ZM19.246 11.8386C20.2419 11.8417 22.3078 11.8482 22.289 10.3881L22.3507 10.3721C22.3174 8.85297 20.2544 8.94826 19.2401 8.99512C19.1381 8.99983 19.0468 9.00405 18.9691 9.00609L18.9766 11.8393C19.0528 11.838 19.1438 11.8382 19.246 11.8386Z" fill="white"/>
</svg>
