<svg width="86" height="26" viewBox="0 0 86 26" fill="none" xmlns="http://www.w3.org/2000/svg">
<path fill-rule="evenodd" clip-rule="evenodd" d="M27.6787 14.0995H23.1747V17.516H28.4765V19.0689H21.2188V7.93945H28.4765V9.4924H23.1747V12.5724H27.6787V14.0995Z" fill="white"/>
<path fill-rule="evenodd" clip-rule="evenodd" d="M32.1826 8.79358V10.8124H33.6238V12.1842H32.1826V16.7913C32.1568 17.0242 32.234 17.283 32.3627 17.4901C32.5429 17.6454 32.8002 17.723 33.0319 17.6972C33.2378 17.6972 33.4694 17.6713 33.6753 17.6195V19.0689C33.2892 19.1725 32.8774 19.2501 32.4657 19.2501C31.0501 19.2501 30.3295 18.4736 30.3295 16.8948V12.1583H28.9912V10.7865H30.3295V8.7677H32.1826V8.79358Z" fill="white"/>
<path fill-rule="evenodd" clip-rule="evenodd" d="M36.841 11.6924C37.4072 10.9936 38.2566 10.5794 39.1316 10.6053C40.8817 10.6053 41.7825 11.5888 41.7825 13.6077V19.0171H39.9294V13.7371C39.9809 13.2971 39.8522 12.8571 39.5691 12.5206C39.2603 12.2618 38.8742 12.1324 38.4882 12.1583C37.7933 12.1324 37.1499 12.5206 36.841 13.1418V18.9912H34.9365V7.31824H36.7896L36.841 11.6924Z" fill="white"/>
<path d="M47.2896 19.2242C46.2087 19.2759 45.1535 18.8618 44.3814 18.1112C43.635 17.3347 43.249 16.2736 43.3005 15.1865V14.9794C43.2747 14.2288 43.4549 13.4524 43.7895 12.7794C44.0983 12.1841 44.5616 11.6665 45.1278 11.33C45.694 10.89 46.3889 10.6312 47.1095 10.6053C48.0875 10.5535 49.0397 10.9418 49.6831 11.6665C50.3523 12.5465 50.6611 13.6335 50.6097 14.7206V15.4712H45.2307C45.2564 16.0665 45.4881 16.6618 45.9256 17.1018C46.3116 17.49 46.8264 17.6971 47.3668 17.6971C48.1904 17.7489 48.9883 17.3606 49.4773 16.7136L50.4552 17.6712C50.1207 18.163 49.6832 18.5512 49.1427 18.8359C48.5765 19.0947 47.9331 19.2242 47.2896 19.2242ZM47.0837 12.1324C46.6205 12.1065 46.183 12.3135 45.8741 12.65C45.5395 13.0641 45.3337 13.5818 45.2564 14.0994H48.7824V13.97C48.7824 13.4524 48.6279 12.9347 48.2934 12.5206C47.9588 12.2359 47.5213 12.1065 47.0837 12.1324Z" fill="white"/>
<path fill-rule="evenodd" clip-rule="evenodd" d="M56.3234 12.4948C56.066 12.4689 55.8087 12.4689 55.577 12.4948C54.8564 12.4171 54.1873 12.8054 53.8784 13.4783V19.1207H52.0254V10.7865H53.827V11.7183C54.1873 11.0195 54.9079 10.6053 55.68 10.6053C55.9116 10.6053 56.1175 10.6312 56.3234 10.7089V12.4948Z" fill="white"/>
<path d="M60.982 19.2242C59.9011 19.2759 58.8459 18.8618 58.0738 18.1112C57.3274 17.3347 56.9414 16.2736 56.9928 15.1865V14.9794C56.9671 14.2288 57.1473 13.4524 57.4818 12.7794C58.0223 11.4335 59.3349 10.5794 60.7761 10.6053C61.7541 10.5535 62.7064 10.9418 63.3755 11.6665C64.0447 12.5465 64.3535 13.6335 64.3021 14.7206V15.4712H58.9231C58.9488 16.0924 59.2062 16.6877 59.6695 17.1277C60.0555 17.5159 60.5702 17.723 61.1107 17.723C61.9343 17.7489 62.7064 17.3606 63.1696 16.6877L64.1734 17.6453C63.8388 18.1371 63.3755 18.5253 62.8608 18.81C62.2431 19.0947 61.6254 19.2242 60.982 19.2242ZM60.7504 12.1324C60.2871 12.1065 59.8239 12.3135 59.515 12.65C59.1805 13.0641 58.9746 13.5818 58.9231 14.0994H62.449V13.97C62.4748 13.4265 62.2946 12.9088 61.96 12.5206C61.6254 12.2359 61.1879 12.1065 60.7504 12.1324Z" fill="white"/>
<path fill-rule="evenodd" clip-rule="evenodd" d="M70.6843 18.2665C70.0924 18.9136 69.2431 19.276 68.368 19.2242C67.6216 19.276 66.8753 18.9912 66.3605 18.4477C65.8716 17.8007 65.6142 16.9983 65.6657 16.1701V10.7865H67.5187V16.1183C67.5187 17.1795 67.9562 17.6971 68.8055 17.6971C69.5519 17.7748 70.2725 17.4124 70.6328 16.7395V10.7865H72.4859V19.043H70.7615L70.6843 18.2665Z" fill="white"/>
<path fill-rule="evenodd" clip-rule="evenodd" d="M76.0632 10.7865V11.6406C76.6552 10.9159 77.5559 10.5277 78.5082 10.5794C79.4605 10.5018 80.3355 10.9935 80.773 11.8477C81.3392 11.0194 82.2915 10.5535 83.2695 10.5794C84.0158 10.5277 84.7622 10.7865 85.3027 11.33C85.7917 11.9771 86.0233 12.7535 85.9976 13.5559V18.9912H84.1445V13.6853C84.196 13.2712 84.0673 12.8571 83.8099 12.5206C83.1665 12.0547 82.2915 12.0547 81.6481 12.5206C81.3907 12.7535 81.1848 13.0641 81.1076 13.4006V19.0689H79.2546V13.6336C79.306 13.2453 79.1516 12.8312 78.8685 12.5465C78.5854 12.2618 78.1994 12.1324 77.7876 12.1583C77.1184 12.1065 76.5007 12.4688 76.2176 13.0641V19.043H74.3389V10.7865H76.0632Z" fill="white"/>
<path fill-rule="evenodd" clip-rule="evenodd" d="M7.64681 0.5L7.45801 1.06962V17.5886L7.64681 17.7785L15.2619 13.2532L7.64681 0.5Z" fill="white"/>
<path fill-rule="evenodd" clip-rule="evenodd" d="M7.64655 0.5L0 13.2532L7.64655 17.7785V9.74051V0.5Z" fill="white"/>
<path fill-rule="evenodd" clip-rule="evenodd" d="M7.64638 19.2342L7.52051 19.3291V25.2152L7.64638 25.5L15.2615 14.6772L7.64638 19.2342Z" fill="white"/>
<path fill-rule="evenodd" clip-rule="evenodd" d="M7.64655 25.5V19.2342L0 14.6772L7.64655 25.5Z" fill="white"/>
<path fill-rule="evenodd" clip-rule="evenodd" d="M7.64648 17.7785L15.2616 13.2531L7.64648 9.74048V17.7785Z" fill="white"/>
<path fill-rule="evenodd" clip-rule="evenodd" d="M0 13.2531L7.64655 17.7785V9.74048L0 13.2531Z" fill="white"/>
</svg>
