<svg width="146" height="25" viewBox="0 0 146 25" fill="none" xmlns="http://www.w3.org/2000/svg">
<path fill-rule="evenodd" clip-rule="evenodd" d="M71.1358 10.7484V7.29971H69.9053V6.59752H73.2009V7.29971H71.9732V10.7484H71.1358ZM74.4966 10.7484H73.7016V7.74142H74.44V8.16896C74.5663 7.96699 74.68 7.83391 74.7809 7.76973C74.8818 7.70555 74.9963 7.67346 75.1246 7.67346C75.3056 7.67346 75.4801 7.72348 75.6479 7.82353L75.4018 8.51723C75.2679 8.4304 75.1434 8.38698 75.0284 8.38698C74.9171 8.38698 74.8228 8.41765 74.7455 8.479C74.6682 8.54035 74.6073 8.65125 74.563 8.8117C74.5187 8.97214 74.4966 9.30814 74.4966 9.81968V10.7484ZM76.5843 8.6588L75.8629 8.52855C75.944 8.23786 76.0836 8.02267 76.2816 7.88299C76.4796 7.7433 76.7738 7.67346 77.1642 7.67346C77.5187 7.67346 77.7828 7.71546 77.9563 7.79946C78.1298 7.88346 78.2519 7.99011 78.3226 8.11941C78.3933 8.24871 78.4287 8.48608 78.4287 8.83152L78.4202 9.76022C78.4202 10.0245 78.4329 10.2194 78.4584 10.3449C78.4839 10.4704 78.5315 10.6049 78.6013 10.7484H77.8148C77.7941 10.6955 77.7686 10.6172 77.7384 10.5134C77.7252 10.4662 77.7158 10.435 77.7102 10.4199C77.5744 10.5521 77.4292 10.6512 77.2745 10.7172C77.1199 10.7833 76.9548 10.8163 76.7795 10.8163C76.4702 10.8163 76.2264 10.7323 76.0482 10.5644C75.87 10.3964 75.7809 10.184 75.7809 9.92728C75.7809 9.75739 75.8214 9.60591 75.9025 9.47283C75.9836 9.33976 76.0972 9.23783 76.2434 9.16704C76.3895 9.09625 76.6003 9.03443 76.8756 8.98158C77.2472 8.91174 77.5046 8.84662 77.6479 8.78621V8.70693C77.6479 8.55403 77.6102 8.44503 77.5348 8.3799C77.4593 8.31478 77.3169 8.28222 77.1076 8.28222C76.9662 8.28222 76.8558 8.31006 76.7766 8.36575C76.6974 8.42143 76.6333 8.51911 76.5843 8.6588ZM77.6479 9.30436C77.5461 9.33834 77.3848 9.37892 77.1642 9.42612C76.9435 9.47331 76.7993 9.51955 76.7314 9.56486C76.6276 9.63847 76.5758 9.73191 76.5758 9.84517C76.5758 9.95654 76.6173 10.0528 76.7002 10.134C76.7832 10.2151 76.8888 10.2557 77.0171 10.2557C77.1604 10.2557 77.2971 10.2085 77.4273 10.1142C77.5235 10.0424 77.5866 9.95465 77.6168 9.85083C77.6376 9.78288 77.6479 9.65357 77.6479 9.46292V9.30436ZM81.9676 10.7484H81.2293V10.3067C81.1067 10.4785 80.962 10.6063 80.7951 10.6903C80.6281 10.7743 80.4598 10.8163 80.2901 10.8163C79.945 10.8163 79.6494 10.6771 79.4032 10.3987C79.1571 10.1203 79.0341 9.73191 79.0341 9.23358C79.0341 8.72392 79.1538 8.33649 79.3933 8.07128C79.6329 7.80607 79.9355 7.67346 80.3014 7.67346C80.6371 7.67346 80.9275 7.81314 81.1727 8.09251V6.59752H81.9676V10.7484ZM79.846 9.17978C79.846 9.50068 79.8903 9.73285 79.9789 9.87631C80.1072 10.084 80.2863 10.1878 80.5164 10.1878C80.6993 10.1878 80.8549 10.1099 80.9832 9.95418C81.1114 9.79845 81.1755 9.5658 81.1755 9.25623C81.1755 8.91079 81.1133 8.6621 80.9888 8.51015C80.8644 8.35819 80.705 8.28222 80.5108 8.28222C80.3222 8.28222 80.1642 8.35725 80.0369 8.50732C79.9096 8.65738 79.846 8.88154 79.846 9.17978ZM84.491 9.79137L85.2831 9.92445C85.1812 10.2151 85.0205 10.4365 84.8007 10.5884C84.581 10.7404 84.3062 10.8163 83.9761 10.8163C83.4537 10.8163 83.0671 10.6455 82.8163 10.3039C82.6183 10.0302 82.5193 9.68472 82.5193 9.26756C82.5193 8.76922 82.6494 8.37896 82.9096 8.09676C83.1699 7.81456 83.499 7.67346 83.8969 7.67346C84.3439 7.67346 84.6965 7.82117 84.9549 8.11658C85.2133 8.41199 85.3368 8.86455 85.3255 9.47425H83.334C83.3396 9.7102 83.4038 9.89377 83.5263 10.025C83.6489 10.1562 83.8017 10.2217 83.9846 10.2217C84.1091 10.2217 84.2138 10.1878 84.2986 10.1198C84.3835 10.0519 84.4476 9.94238 84.491 9.79137ZM84.5362 8.98724C84.5306 8.75695 84.4712 8.58188 84.358 8.46201C84.2449 8.34215 84.1072 8.28222 83.945 8.28222C83.7715 8.28222 83.6282 8.34545 83.515 8.47192C83.4019 8.5984 83.3462 8.77017 83.3481 8.98724H84.5362ZM85.8828 9.6413V8.84567H87.4443V9.6413H85.8828ZM87.8432 7.74142H88.5759V8.15197C88.838 7.83296 89.1501 7.67346 89.5122 7.67346C89.7046 7.67346 89.8715 7.7131 90.013 7.79238C90.1544 7.87166 90.2704 7.99152 90.3609 8.15197C90.4929 7.99152 90.6353 7.87166 90.7881 7.79238C90.9408 7.7131 91.104 7.67346 91.2775 7.67346C91.4981 7.67346 91.6848 7.71829 91.8376 7.80795C91.9903 7.89762 92.1044 8.02928 92.1799 8.20294C92.2346 8.3313 92.2619 8.53893 92.2619 8.82585V10.7484H91.467V9.02972C91.467 8.73147 91.4397 8.53894 91.385 8.4521C91.3114 8.33885 91.1983 8.28222 91.0455 8.28222C90.9342 8.28222 90.8296 8.3162 90.7315 8.38415C90.6334 8.4521 90.5627 8.55168 90.5193 8.68287C90.476 8.81406 90.4543 9.02122 90.4543 9.30436V10.7484H89.6593V9.1005C89.6593 8.80792 89.6452 8.61916 89.6169 8.53422C89.5886 8.44927 89.5448 8.38604 89.4854 8.34451C89.426 8.30298 89.3453 8.28222 89.2435 8.28222C89.1209 8.28222 89.0106 8.31525 88.9125 8.38132C88.8145 8.44739 88.7442 8.54271 88.7018 8.66729C88.6593 8.79188 88.6381 8.99857 88.6381 9.28738V10.7484H87.8432V7.74142ZM93.6481 8.6588L92.9267 8.52855C93.0078 8.23786 93.1474 8.02267 93.3454 7.88299C93.5434 7.7433 93.8376 7.67346 94.228 7.67346C94.5825 7.67346 94.8466 7.71546 95.0201 7.79946C95.1936 7.88346 95.3157 7.99011 95.3864 8.11941C95.4571 8.24871 95.4925 8.48608 95.4925 8.83152L95.484 9.76022C95.484 10.0245 95.4967 10.2194 95.5222 10.3449C95.5477 10.4704 95.5953 10.6049 95.6651 10.7484H94.8786C94.8579 10.6955 94.8324 10.6172 94.8023 10.5134C94.7891 10.4662 94.7796 10.435 94.774 10.4199C94.6382 10.5521 94.493 10.6512 94.3383 10.7172C94.1837 10.7833 94.0187 10.8163 93.8433 10.8163C93.534 10.8163 93.2902 10.7323 93.112 10.5644C92.9338 10.3964 92.8447 10.184 92.8447 9.92728C92.8447 9.75739 92.8852 9.60591 92.9663 9.47283C93.0474 9.33976 93.161 9.23783 93.3072 9.16704C93.4534 9.09625 93.6641 9.03443 93.9394 8.98158C94.311 8.91174 94.5684 8.84662 94.7117 8.78621V8.70693C94.7117 8.55403 94.674 8.44503 94.5986 8.3799C94.5231 8.31478 94.3808 8.28222 94.1714 8.28222C94.03 8.28222 93.9196 8.31006 93.8404 8.36575C93.7612 8.42143 93.6971 8.51911 93.6481 8.6588ZM94.7117 9.30436C94.6099 9.33834 94.4486 9.37892 94.228 9.42612C94.0073 9.47331 93.8631 9.51955 93.7952 9.56486C93.6914 9.63847 93.6396 9.73191 93.6396 9.84517C93.6396 9.95654 93.6811 10.0528 93.7641 10.134C93.847 10.2151 93.9526 10.2557 94.0809 10.2557C94.2242 10.2557 94.3609 10.2085 94.4911 10.1142C94.5873 10.0424 94.6504 9.95465 94.6806 9.85083C94.7014 9.78288 94.7117 9.65357 94.7117 9.46292V9.30436ZM97.0371 10.7484H96.2422V7.74142H96.9805V8.16896C97.1068 7.96699 97.2205 7.83391 97.3214 7.76973C97.4223 7.70555 97.5368 7.67346 97.6651 7.67346C97.8461 7.67346 98.0206 7.72348 98.1884 7.82353L97.9423 8.51723C97.8084 8.4304 97.6839 8.38698 97.5689 8.38698C97.4576 8.38698 97.3633 8.41765 97.286 8.479C97.2087 8.54035 97.1479 8.65125 97.1035 8.8117C97.0592 8.97214 97.0371 9.30814 97.0371 9.81968V10.7484ZM98.5024 10.7484V6.59752H99.2973V8.80037L100.228 7.74142H101.207L100.18 8.84001L101.28 10.7484H100.423L99.6679 9.3978L99.2973 9.78571V10.7484H98.5024ZM103.179 9.20243C103.179 8.93816 103.244 8.6824 103.374 8.43512C103.504 8.18784 103.688 7.99908 103.927 7.86883C104.165 7.73858 104.432 7.67346 104.726 7.67346C105.18 7.67346 105.553 7.82117 105.843 8.11658C106.134 8.41199 106.279 8.78527 106.279 9.23641C106.279 9.69133 106.132 10.0684 105.839 10.3676C105.546 10.6668 105.177 10.8163 104.732 10.8163C104.456 10.8163 104.194 10.7541 103.944 10.6295C103.694 10.5049 103.504 10.3223 103.374 10.0816C103.244 9.84092 103.179 9.54787 103.179 9.20243ZM103.993 9.2449C103.993 9.54315 104.064 9.77155 104.205 9.93011C104.347 10.0887 104.521 10.1679 104.729 10.1679C104.936 10.1679 105.11 10.0887 105.251 9.93011C105.391 9.77155 105.461 9.54126 105.461 9.23924C105.461 8.94477 105.391 8.71826 105.251 8.5597C105.11 8.40114 104.936 8.32186 104.729 8.32186C104.521 8.32186 104.347 8.40114 104.205 8.5597C104.064 8.71826 103.993 8.94666 103.993 9.2449ZM106.553 7.74142H106.995V7.5149C106.995 7.26196 107.022 7.0732 107.075 6.94862C107.129 6.82403 107.228 6.72257 107.372 6.64424C107.517 6.5659 107.699 6.52673 107.92 6.52673C108.146 6.52673 108.368 6.56071 108.585 6.62866L108.477 7.18362C108.351 7.15342 108.229 7.13832 108.112 7.13832C107.997 7.13832 107.915 7.16522 107.865 7.21902C107.815 7.27281 107.79 7.37616 107.79 7.52906V7.74142H108.384V8.36716H107.79V10.7484H106.995V8.36716H106.553V7.74142ZM110.421 10.7484V6.59752H111.258V10.7484H110.421ZM114.783 10.7484H113.988V9.21376C113.988 8.88909 113.971 8.67909 113.937 8.58377C113.903 8.48844 113.848 8.41435 113.771 8.3615C113.695 8.30865 113.603 8.28222 113.495 8.28222C113.358 8.28222 113.234 8.31997 113.125 8.39548C113.016 8.47098 112.941 8.57102 112.9 8.69561C112.859 8.82019 112.839 9.05048 112.839 9.38648V10.7484H112.044V7.74142H112.783V8.18312C113.045 7.84335 113.375 7.67346 113.773 7.67346C113.948 7.67346 114.108 7.70508 114.254 7.76831C114.399 7.83155 114.509 7.91224 114.583 8.0104C114.658 8.10856 114.71 8.21993 114.739 8.34451C114.768 8.46909 114.783 8.64747 114.783 8.87965V10.7484ZM116.967 7.74142V8.37566H116.423V9.58751C116.423 9.8329 116.429 9.97588 116.439 10.0165C116.449 10.0571 116.473 10.0906 116.51 10.117C116.546 10.1434 116.591 10.1566 116.644 10.1566C116.718 10.1566 116.824 10.1311 116.964 10.0802L117.032 10.6974C116.847 10.7767 116.637 10.8163 116.404 10.8163C116.26 10.8163 116.131 10.7923 116.016 10.7441C115.901 10.696 115.817 10.6337 115.763 10.5573C115.709 10.4808 115.672 10.3775 115.651 10.2472C115.634 10.1547 115.626 9.96786 115.626 9.68661V8.37566H115.261V7.74142H115.626V7.14398L116.423 6.67963V7.74142H116.967ZM119.258 9.79137L120.05 9.92445C119.948 10.2151 119.787 10.4365 119.568 10.5884C119.348 10.7404 119.073 10.8163 118.743 10.8163C118.221 10.8163 117.834 10.6455 117.583 10.3039C117.385 10.0302 117.286 9.68472 117.286 9.26756C117.286 8.76922 117.416 8.37896 117.677 8.09676C117.937 7.81456 118.266 7.67346 118.664 7.67346C119.111 7.67346 119.463 7.82117 119.722 8.11658C119.98 8.41199 120.104 8.86455 120.092 9.47425H118.101C118.107 9.7102 118.171 9.89377 118.293 10.025C118.416 10.1562 118.569 10.2217 118.752 10.2217C118.876 10.2217 118.981 10.1878 119.066 10.1198C119.15 10.0519 119.215 9.94238 119.258 9.79137ZM119.303 8.98724C119.298 8.75695 119.238 8.58188 119.125 8.46201C119.012 8.34215 118.874 8.28222 118.712 8.28222C118.538 8.28222 118.395 8.34545 118.282 8.47192C118.169 8.5984 118.113 8.77017 118.115 8.98724H119.303ZM121.501 10.7484H120.706V7.74142H121.445V8.16896C121.571 7.96699 121.685 7.83391 121.786 7.76973C121.886 7.70555 122.001 7.67346 122.129 7.67346C122.31 7.67346 122.485 7.72348 122.653 7.82353L122.406 8.51723C122.273 8.4304 122.148 8.38698 122.033 8.38698C121.922 8.38698 121.827 8.41765 121.75 8.479C121.673 8.54035 121.612 8.65125 121.568 8.8117C121.523 8.97214 121.501 9.30814 121.501 9.81968V10.7484ZM123.589 8.6588L122.868 8.52855C122.949 8.23786 123.088 8.02267 123.286 7.88299C123.484 7.7433 123.778 7.67346 124.169 7.67346C124.523 7.67346 124.787 7.71546 124.961 7.79946C125.134 7.88346 125.257 7.99011 125.327 8.11941C125.398 8.24871 125.433 8.48608 125.433 8.83152L125.425 9.76022C125.425 10.0245 125.438 10.2194 125.463 10.3449C125.489 10.4704 125.536 10.6049 125.606 10.7484H124.82C124.799 10.6955 124.773 10.6172 124.743 10.5134C124.73 10.4662 124.72 10.435 124.715 10.4199C124.579 10.5521 124.434 10.6512 124.279 10.7172C124.125 10.7833 123.96 10.8163 123.784 10.8163C123.475 10.8163 123.231 10.7323 123.053 10.5644C122.875 10.3964 122.786 10.184 122.786 9.92728C122.786 9.75739 122.826 9.60591 122.907 9.47283C122.988 9.33976 123.102 9.23783 123.248 9.16704C123.394 9.09625 123.605 9.03443 123.88 8.98158C124.252 8.91174 124.509 8.84662 124.653 8.78621V8.70693C124.653 8.55403 124.615 8.44503 124.539 8.3799C124.464 8.31478 124.322 8.28222 124.112 8.28222C123.971 8.28222 123.861 8.31006 123.781 8.36575C123.702 8.42143 123.638 8.51911 123.589 8.6588ZM124.653 9.30436C124.551 9.33834 124.39 9.37892 124.169 9.42612C123.948 9.47331 123.804 9.51955 123.736 9.56486C123.632 9.63847 123.58 9.73191 123.58 9.84517C123.58 9.95654 123.622 10.0528 123.705 10.134C123.788 10.2151 123.894 10.2557 124.022 10.2557C124.165 10.2557 124.302 10.2085 124.432 10.1142C124.528 10.0424 124.591 9.95465 124.621 9.85083C124.642 9.78288 124.653 9.65357 124.653 9.46292V9.30436ZM128.837 8.63048L128.053 8.77206C128.027 8.61538 127.967 8.49741 127.873 8.41813C127.78 8.33885 127.659 8.29921 127.51 8.29921C127.312 8.29921 127.154 8.36763 127.036 8.50449C126.918 8.64134 126.859 8.87021 126.859 9.19111C126.859 9.54787 126.919 9.79986 127.039 9.9471C127.159 10.0943 127.319 10.1679 127.521 10.1679C127.672 10.1679 127.795 10.125 127.892 10.0391C127.988 9.95323 128.056 9.80553 128.095 9.596L128.876 9.72908C128.795 10.0877 128.639 10.3586 128.409 10.5417C128.179 10.7248 127.871 10.8163 127.484 10.8163C127.045 10.8163 126.695 10.6776 126.433 10.4001C126.172 10.1226 126.042 9.73852 126.042 9.24774C126.042 8.75129 126.173 8.3648 126.435 8.08827C126.697 7.81173 127.051 7.67346 127.498 7.67346C127.864 7.67346 128.155 7.75227 128.371 7.90989C128.587 8.0675 128.742 8.3077 128.837 8.63048ZM133.708 9.22225L134.52 9.47991C134.395 9.93294 134.188 10.2694 133.899 10.4893C133.609 10.7092 133.242 10.8192 132.797 10.8192C132.246 10.8192 131.794 10.6309 131.439 10.2543C131.085 9.87773 130.907 9.36288 130.907 8.70976C130.907 8.01889 131.085 7.48234 131.442 7.1001C131.798 6.71785 132.267 6.52673 132.848 6.52673C133.355 6.52673 133.767 6.6768 134.084 6.97693C134.273 7.15437 134.414 7.40919 134.508 7.74142L133.68 7.93962C133.631 7.72443 133.528 7.55454 133.373 7.42996C133.217 7.30538 133.028 7.24308 132.805 7.24308C132.498 7.24308 132.249 7.35351 132.057 7.57436C131.866 7.79521 131.77 8.15291 131.77 8.64747C131.77 9.17223 131.864 9.54598 132.053 9.76872C132.242 9.99146 132.487 10.1028 132.788 10.1028C133.011 10.1028 133.202 10.032 133.363 9.89047C133.523 9.7489 133.638 9.52616 133.708 9.22225ZM135.049 9.20243C135.049 8.93816 135.114 8.6824 135.244 8.43512C135.374 8.18784 135.558 7.99908 135.797 7.86883C136.036 7.73858 136.302 7.67346 136.596 7.67346C137.051 7.67346 137.423 7.82117 137.714 8.11658C138.004 8.41199 138.149 8.78527 138.149 9.23641C138.149 9.69133 138.003 10.0684 137.709 10.3676C137.416 10.6668 137.047 10.8163 136.602 10.8163C136.326 10.8163 136.064 10.7541 135.814 10.6295C135.564 10.5049 135.374 10.3223 135.244 10.0816C135.114 9.84092 135.049 9.54787 135.049 9.20243ZM135.863 9.2449C135.863 9.54315 135.934 9.77155 136.076 9.93011C136.217 10.0887 136.392 10.1679 136.599 10.1679C136.806 10.1679 136.98 10.0887 137.121 9.93011C137.261 9.77155 137.332 9.54126 137.332 9.23924C137.332 8.94477 137.261 8.71826 137.121 8.5597C136.98 8.40114 136.806 8.32186 136.599 8.32186C136.392 8.32186 136.217 8.40114 136.076 8.5597C135.934 8.71826 135.863 8.94666 135.863 9.2449ZM139.533 10.7484H138.738V7.74142H139.476V8.16896C139.602 7.96699 139.716 7.83391 139.817 7.76973C139.918 7.70555 140.032 7.67346 140.161 7.67346C140.342 7.67346 140.516 7.72348 140.684 7.82353L140.438 8.51723C140.304 8.4304 140.179 8.38698 140.064 8.38698C139.953 8.38698 139.859 8.41765 139.781 8.479C139.704 8.54035 139.643 8.65125 139.599 8.8117C139.555 8.97214 139.533 9.30814 139.533 9.81968V10.7484ZM141.004 7.74142H141.745V8.18312C141.841 8.03211 141.971 7.90941 142.135 7.81503C142.299 7.72065 142.481 7.67346 142.681 7.67346C143.03 7.67346 143.326 7.81031 143.569 8.08402C143.813 8.35772 143.934 8.73902 143.934 9.22792C143.934 9.73002 143.812 10.1203 143.566 10.3987C143.321 10.6771 143.024 10.8163 142.675 10.8163C142.509 10.8163 142.359 10.7833 142.224 10.7172C142.089 10.6512 141.947 10.5379 141.798 10.3775V11.8923H141.004V7.74142ZM141.79 9.19394C141.79 9.53182 141.857 9.78146 141.991 9.94285C142.125 10.1042 142.288 10.1849 142.48 10.1849C142.665 10.1849 142.819 10.1108 142.941 9.96267C143.064 9.81449 143.125 9.57146 143.125 9.23358C143.125 8.91834 143.062 8.68428 142.936 8.53138C142.809 8.37849 142.653 8.30204 142.466 8.30204C142.272 8.30204 142.111 8.37707 141.982 8.52714C141.854 8.6772 141.79 8.89947 141.79 9.19394ZM144.565 10.7484V9.95276H145.36V10.7484H144.565ZM70.1966 13.556H71.034V15.8042C71.034 16.161 71.0444 16.3922 71.0651 16.4979C71.1009 16.6678 71.1863 16.8042 71.3211 16.907C71.456 17.0099 71.6403 17.0613 71.8742 17.0613C72.1118 17.0613 72.291 17.0127 72.4117 16.9155C72.5324 16.8183 72.605 16.6989 72.6295 16.5573C72.654 16.4158 72.6663 16.1808 72.6663 15.8523V13.556H73.5036V15.7362C73.5036 16.2346 73.481 16.5866 73.4357 16.7924C73.3905 16.9981 73.307 17.1718 73.1854 17.3133C73.0637 17.4549 72.9011 17.5677 72.6974 17.6517C72.4937 17.7357 72.2278 17.7777 71.8996 17.7777C71.5036 17.7777 71.2033 17.7319 70.9986 17.6404C70.794 17.5488 70.6323 17.4299 70.5135 17.2836C70.3947 17.1373 70.3164 16.984 70.2787 16.8235C70.224 16.5857 70.1966 16.2346 70.1966 15.7702V13.556ZM74.1005 16.849L74.8983 16.7272C74.9322 16.882 75.001 16.9995 75.1048 17.0797C75.2085 17.16 75.3537 17.2001 75.5404 17.2001C75.746 17.2001 75.9006 17.1623 76.0043 17.0868C76.0741 17.034 76.109 16.9632 76.109 16.8745C76.109 16.8141 76.0902 16.764 76.0524 16.7244C76.0128 16.6867 75.9242 16.6517 75.7865 16.6196C75.1453 16.4781 74.7389 16.3488 74.5673 16.2317C74.3296 16.0694 74.2108 15.8438 74.2108 15.555C74.2108 15.2945 74.3136 15.0756 74.5192 14.8981C74.7247 14.7207 75.0435 14.632 75.4753 14.632C75.8865 14.632 76.192 14.699 76.3919 14.833C76.5918 14.967 76.7295 15.1652 76.8049 15.4276L76.0553 15.5664C76.0232 15.4493 75.9624 15.3597 75.8728 15.2974C75.7832 15.2351 75.6554 15.2039 75.4895 15.2039C75.2801 15.2039 75.1302 15.2332 75.0397 15.2917C74.9793 15.3332 74.9492 15.387 74.9492 15.4531C74.9492 15.5097 74.9756 15.5579 75.0284 15.5975C75.1 15.6503 75.3476 15.7249 75.771 15.8212C76.1944 15.9174 76.49 16.0354 76.6578 16.1751C76.8238 16.3167 76.9068 16.5139 76.9068 16.7669C76.9068 17.0425 76.7917 17.2794 76.5616 17.4776C76.3315 17.6758 75.9911 17.7749 75.5404 17.7749C75.1312 17.7749 74.8073 17.6918 74.5687 17.5257C74.3301 17.3596 74.1741 17.134 74.1005 16.849ZM79.3424 16.7499L80.1345 16.883C80.0327 17.1737 79.8719 17.395 79.6522 17.5469C79.4325 17.6989 79.1576 17.7749 78.8276 17.7749C78.3052 17.7749 77.9186 17.604 77.6677 17.2624C77.4697 16.9887 77.3707 16.6432 77.3707 16.2261C77.3707 15.7277 77.5008 15.3375 77.7611 15.0553C78.0213 14.7731 78.3504 14.632 78.7484 14.632C79.1953 14.632 79.548 14.7797 79.8064 15.0751C80.0647 15.3705 80.1883 15.8231 80.1769 16.4328H78.1854C78.1911 16.6687 78.2552 16.8523 78.3778 16.9835C78.5004 17.1147 78.6531 17.1803 78.8361 17.1803C78.9605 17.1803 79.0652 17.1463 79.1501 17.0783C79.2349 17.0104 79.299 16.9009 79.3424 16.7499ZM79.3877 15.9458C79.382 15.7155 79.3226 15.5404 79.2095 15.4205C79.0963 15.3007 78.9586 15.2407 78.7964 15.2407C78.6229 15.2407 78.4796 15.304 78.3665 15.4304C78.2533 15.5569 78.1977 15.7287 78.1996 15.9458H79.3877ZM83.5801 17.7069H82.8417V17.2652C82.7192 17.437 82.5744 17.5649 82.4075 17.6489C82.2406 17.7329 82.0723 17.7749 81.9026 17.7749C81.5574 17.7749 81.2618 17.6357 81.0157 17.3572C80.7696 17.0788 80.6465 16.6904 80.6465 16.1921C80.6465 15.6824 80.7663 15.295 81.0058 15.0298C81.2453 14.7646 81.548 14.632 81.9139 14.632C82.2496 14.632 82.54 14.7717 82.7852 15.051V13.556H83.5801V17.7069ZM81.4584 16.1383C81.4584 16.4592 81.5027 16.6914 81.5914 16.8348C81.7196 17.0425 81.8988 17.1463 82.1289 17.1463C82.3118 17.1463 82.4674 17.0684 82.5956 16.9127C82.7239 16.757 82.788 16.5243 82.788 16.2147C82.788 15.8693 82.7258 15.6206 82.6013 15.4687C82.4768 15.3167 82.3175 15.2407 82.1232 15.2407C81.9346 15.2407 81.7767 15.3158 81.6494 15.4658C81.5221 15.6159 81.4584 15.8401 81.4584 16.1383ZM87.9507 17.7069V17.2567C87.8413 17.4172 87.6975 17.5436 87.5193 17.6361C87.3411 17.7286 87.153 17.7749 86.9549 17.7749C86.7531 17.7749 86.5721 17.7305 86.4118 17.6418C86.2515 17.5531 86.1355 17.4285 86.0638 17.268C85.9922 17.1076 85.9563 16.8858 85.9563 16.6027V14.6999H86.7513V16.0817C86.7513 16.5045 86.7659 16.7636 86.7951 16.8589C86.8243 16.9542 86.8776 17.0297 86.9549 17.0854C87.0323 17.1411 87.1303 17.1689 87.2491 17.1689C87.3849 17.1689 87.5066 17.1317 87.6141 17.0571C87.7216 16.9825 87.7951 16.89 87.8347 16.7796C87.8743 16.6692 87.8941 16.3988 87.8941 15.9684V14.6999H88.689V17.7069H87.9507ZM92.2449 17.7069H91.45V16.1723C91.45 15.8476 91.4331 15.6376 91.3991 15.5423C91.3652 15.447 91.31 15.3729 91.2336 15.32C91.1572 15.2672 91.0653 15.2407 90.9578 15.2407C90.8201 15.2407 90.6966 15.2785 90.5872 15.354C90.4778 15.4295 90.4029 15.5295 90.3623 15.6541C90.3218 15.7787 90.3015 16.009 90.3015 16.345V17.7069H89.5066V14.6999H90.2449V15.1416C90.5071 14.8019 90.8371 14.632 91.235 14.632C91.4104 14.632 91.5707 14.6636 91.7159 14.7268C91.8612 14.7901 91.971 14.8708 92.0455 14.9689C92.12 15.0671 92.1719 15.1784 92.2011 15.303C92.2303 15.4276 92.2449 15.606 92.2449 15.8382V17.7069ZM95.8065 17.7069H95.0682V17.2652C94.9456 17.437 94.8008 17.5649 94.6339 17.6489C94.467 17.7329 94.2987 17.7749 94.129 17.7749C93.7839 17.7749 93.4882 17.6357 93.2421 17.3572C92.996 17.0788 92.873 16.6904 92.873 16.1921C92.873 15.6824 92.9927 15.295 93.2322 15.0298C93.4717 14.7646 93.7744 14.632 94.1403 14.632C94.476 14.632 94.7664 14.7717 95.0116 15.051V13.556H95.8065V17.7069ZM93.6848 16.1383C93.6848 16.4592 93.7292 16.6914 93.8178 16.8348C93.946 17.0425 94.1252 17.1463 94.3553 17.1463C94.5382 17.1463 94.6938 17.0684 94.8221 16.9127C94.9503 16.757 95.0144 16.5243 95.0144 16.2147C95.0144 15.8693 94.9522 15.6206 94.8277 15.4687C94.7032 15.3167 94.5439 15.2407 94.3496 15.2407C94.161 15.2407 94.0031 15.3158 93.8758 15.4658C93.7485 15.6159 93.6848 15.8401 93.6848 16.1383ZM98.3299 16.7499L99.122 16.883C99.0201 17.1737 98.8593 17.395 98.6396 17.5469C98.4199 17.6989 98.145 17.7749 97.815 17.7749C97.2926 17.7749 96.906 17.604 96.6552 17.2624C96.4571 16.9887 96.3581 16.6432 96.3581 16.2261C96.3581 15.7277 96.4883 15.3375 96.7485 15.0553C97.0088 14.7731 97.3379 14.632 97.7358 14.632C98.1828 14.632 98.5354 14.7797 98.7938 15.0751C99.0522 15.3705 99.1757 15.8231 99.1644 16.4328H97.1729C97.1785 16.6687 97.2426 16.8523 97.3652 16.9835C97.4878 17.1147 97.6406 17.1803 97.8235 17.1803C97.948 17.1803 98.0526 17.1463 98.1375 17.0783C98.2224 17.0104 98.2865 16.9009 98.3299 16.7499ZM98.3751 15.9458C98.3695 15.7155 98.3101 15.5404 98.1969 15.4205C98.0838 15.3007 97.9461 15.2407 97.7839 15.2407C97.6104 15.2407 97.4671 15.304 97.3539 15.4304C97.2407 15.5569 97.1851 15.7287 97.187 15.9458H98.3751ZM100.573 17.7069H99.7783V14.6999H100.517V15.1275C100.643 14.9255 100.757 14.7924 100.857 14.7282C100.958 14.6641 101.073 14.632 101.201 14.632C101.382 14.632 101.557 14.682 101.725 14.782L101.478 15.4757C101.345 15.3889 101.22 15.3455 101.105 15.3455C100.994 15.3455 100.899 15.3762 100.822 15.4375C100.745 15.4989 100.684 15.6098 100.64 15.7702C100.595 15.9307 100.573 16.2667 100.573 16.7782V17.7069ZM103.676 17.7069V13.556H104.471V17.7069H103.676ZM105.286 14.2922V13.556H106.081V14.2922H105.286ZM105.286 17.7069V14.6999H106.081V17.7069H105.286ZM109.515 15.589L108.732 15.7306C108.705 15.5739 108.645 15.4559 108.552 15.3766C108.459 15.2974 108.338 15.2577 108.189 15.2577C107.99 15.2577 107.833 15.3262 107.715 15.463C107.597 15.5999 107.538 15.8287 107.538 16.1496C107.538 16.5064 107.598 16.7584 107.718 16.9056C107.837 17.0529 107.998 17.1265 108.2 17.1265C108.351 17.1265 108.474 17.0835 108.57 16.9976C108.667 16.9117 108.734 16.764 108.774 16.5545L109.555 16.6876C109.474 17.0462 109.318 17.3171 109.088 17.5002C108.858 17.6833 108.55 17.7749 108.163 17.7749C107.724 17.7749 107.373 17.6361 107.112 17.3586C106.851 17.0812 106.72 16.697 106.72 16.2063C106.72 15.7098 106.851 15.3233 107.114 15.0468C107.376 14.7702 107.73 14.632 108.177 14.632C108.543 14.632 108.834 14.7108 109.05 14.8684C109.266 15.026 109.421 15.2662 109.515 15.589ZM111.858 16.7499L112.65 16.883C112.548 17.1737 112.387 17.395 112.167 17.5469C111.948 17.6989 111.673 17.7749 111.343 17.7749C110.82 17.7749 110.434 17.604 110.183 17.2624C109.985 16.9887 109.886 16.6432 109.886 16.2261C109.886 15.7277 110.016 15.3375 110.276 15.0553C110.536 14.7731 110.866 14.632 111.264 14.632C111.71 14.632 112.063 14.7797 112.322 15.0751C112.58 15.3705 112.703 15.8231 112.692 16.4328H110.701C110.706 16.6687 110.77 16.8523 110.893 16.9835C111.016 17.1147 111.168 17.1803 111.351 17.1803C111.476 17.1803 111.58 17.1463 111.665 17.0783C111.75 17.0104 111.814 16.9009 111.858 16.7499ZM111.903 15.9458C111.897 15.7155 111.838 15.5404 111.725 15.4205C111.611 15.3007 111.474 15.2407 111.312 15.2407C111.138 15.2407 110.995 15.304 110.882 15.4304C110.768 15.5569 110.713 15.7287 110.715 15.9458H111.903ZM116.073 17.7069H115.278V16.1723C115.278 15.8476 115.261 15.6376 115.227 15.5423C115.193 15.447 115.138 15.3729 115.061 15.32C114.985 15.2672 114.893 15.2407 114.785 15.2407C114.648 15.2407 114.524 15.2785 114.415 15.354C114.305 15.4295 114.231 15.5295 114.19 15.6541C114.149 15.7787 114.129 16.009 114.129 16.345V17.7069H113.334V14.6999H114.073V15.1416C114.335 14.8019 114.665 14.632 115.063 14.632C115.238 14.632 115.398 14.6636 115.544 14.7268C115.689 14.7901 115.799 14.8708 115.873 14.9689C115.948 15.0671 116 15.1784 116.029 15.303C116.058 15.4276 116.073 15.606 116.073 15.8382V17.7069ZM116.599 16.849L117.397 16.7272C117.43 16.882 117.499 16.9995 117.603 17.0797C117.707 17.16 117.852 17.2001 118.039 17.2001C118.244 17.2001 118.399 17.1623 118.503 17.0868C118.572 17.034 118.607 16.9632 118.607 16.8745C118.607 16.8141 118.588 16.764 118.551 16.7244C118.511 16.6867 118.422 16.6517 118.285 16.6196C117.644 16.4781 117.237 16.3488 117.066 16.2317C116.828 16.0694 116.709 15.8438 116.709 15.555C116.709 15.2945 116.812 15.0756 117.017 14.8981C117.223 14.7207 117.542 14.632 117.974 14.632C118.385 14.632 118.69 14.699 118.89 14.833C119.09 14.967 119.228 15.1652 119.303 15.4276L118.554 15.5664C118.521 15.4493 118.461 15.3597 118.371 15.2974C118.281 15.2351 118.154 15.2039 117.988 15.2039C117.778 15.2039 117.628 15.2332 117.538 15.2917C117.478 15.3332 117.447 15.387 117.447 15.4531C117.447 15.5097 117.474 15.5579 117.527 15.5975C117.598 15.6503 117.846 15.7249 118.269 15.8212C118.693 15.9174 118.988 16.0354 119.156 16.1751C119.322 16.3167 119.405 16.5139 119.405 16.7669C119.405 17.0425 119.29 17.2794 119.06 17.4776C118.83 17.6758 118.489 17.7749 118.039 17.7749C117.629 17.7749 117.306 17.6918 117.067 17.5257C116.828 17.3596 116.672 17.134 116.599 16.849ZM121.841 16.7499L122.633 16.883C122.531 17.1737 122.37 17.395 122.15 17.5469C121.931 17.6989 121.656 17.7749 121.326 17.7749C120.803 17.7749 120.417 17.604 120.166 17.2624C119.968 16.9887 119.869 16.6432 119.869 16.2261C119.869 15.7277 119.999 15.3375 120.259 15.0553C120.52 14.7731 120.849 14.632 121.247 14.632C121.694 14.632 122.046 14.7797 122.305 15.0751C122.563 15.3705 122.687 15.8231 122.675 16.4328H120.684C120.689 16.6687 120.753 16.8523 120.876 16.9835C120.999 17.1147 121.151 17.1803 121.334 17.1803C121.459 17.1803 121.563 17.1463 121.648 17.0783C121.733 17.0104 121.797 16.9009 121.841 16.7499ZM121.886 15.9458C121.88 15.7155 121.821 15.5404 121.708 15.4205C121.595 15.3007 121.457 15.2407 121.295 15.2407C121.121 15.2407 120.978 15.304 120.865 15.4304C120.752 15.5569 120.696 15.7287 120.698 15.9458H121.886Z" fill="white"/>
<path d="M23.1743 23.9246C23.6688 23.5637 23.9884 22.9921 23.9884 22.3482V2.57639C23.9884 1.93249 23.6688 1.36086 23.1743 1H56.9687C58.0634 1 58.9524 1.85457 58.9524 2.91014V22.0144C58.9524 23.07 58.0634 23.9246 56.9687 23.9246H23.1743ZM28.3625 13.1784H30.1886V12.9709C30.1886 12.6942 30.1707 12.4431 30.135 12.2177C30.0994 11.9923 30.0325 11.8004 29.9344 11.642C29.8363 11.4835 29.7014 11.3608 29.5297 11.2738C29.358 11.1867 29.1384 11.1432 28.8709 11.1432C28.5587 11.1432 28.309 11.1946 28.1217 11.2972C27.9345 11.3999 27.7907 11.5382 27.6903 11.7123C27.59 11.8863 27.5231 12.085 27.4897 12.3081C27.4562 12.5313 27.4395 12.7633 27.4395 13.0044C27.4395 13.232 27.4495 13.4596 27.4696 13.6872C27.4897 13.9148 27.5443 14.1201 27.6335 14.3031C27.7227 14.4861 27.8609 14.6334 28.0482 14.745C28.2355 14.8566 28.4963 14.9123 28.8307 14.9123C29.2722 14.9123 29.5955 14.803 29.8006 14.5843C30.0057 14.3656 30.1172 14.0465 30.135 13.627H29.3056C29.2789 13.8546 29.2298 14.0242 29.1585 14.1358C29.0871 14.2473 28.9734 14.3031 28.8174 14.3031C28.7326 14.3031 28.6613 14.2797 28.6033 14.2328C28.5454 14.186 28.4985 14.1235 28.4629 14.0454C28.4272 13.9673 28.4016 13.878 28.386 13.7776C28.3703 13.6772 28.3625 13.5734 28.3625 13.4663V13.1784ZM32.543 12.5089H30.6568V13.2989H32.543V12.5089ZM35.9676 10.0587H32.9175V10.8487H33.961V14.8387H34.9241V10.8487H35.9676V10.0587ZM35.8605 11.237V14.8387H36.7836V12.6763C36.7836 12.5558 36.8037 12.4543 36.8438 12.3717C36.8839 12.2891 36.9374 12.2222 37.0043 12.1709C37.0712 12.1195 37.1448 12.0827 37.225 12.0604C37.3053 12.0381 37.3856 12.0269 37.4658 12.0269C37.5149 12.0269 37.5628 12.028 37.6096 12.0303C37.6565 12.0325 37.7044 12.0359 37.7534 12.0403V11.1566C37.7267 11.1522 37.6988 11.1488 37.6698 11.1466C37.6408 11.1443 37.613 11.1432 37.5862 11.1432C37.3945 11.1432 37.2317 11.1957 37.098 11.3006C36.9642 11.4054 36.8505 11.5449 36.7568 11.719H36.7435V11.237H35.8605ZM38.0812 12.3416H38.9106V12.2412C38.9106 12.0983 38.9463 11.9845 39.0176 11.8997C39.089 11.8149 39.196 11.7725 39.3387 11.7725C39.4947 11.7725 39.6051 11.8116 39.6698 11.8897C39.7344 11.9678 39.7667 12.076 39.7667 12.2144C39.7667 12.3349 39.74 12.4264 39.6865 12.4889C39.633 12.5513 39.5371 12.6004 39.3989 12.6361L38.8771 12.7767C38.7166 12.8214 38.5795 12.8727 38.4658 12.9307C38.3521 12.9887 38.2584 13.0613 38.1849 13.1483C38.1113 13.2353 38.0567 13.3402 38.021 13.4629C37.9853 13.5857 37.9675 13.7318 37.9675 13.9014C37.9675 14.022 37.9831 14.1436 38.0143 14.2663C38.0455 14.389 38.0946 14.4995 38.1615 14.5977C38.2283 14.6959 38.3175 14.7729 38.429 14.8287C38.5405 14.8845 38.6765 14.9123 38.837 14.9123C39.06 14.9123 39.2417 14.8845 39.3821 14.8287C39.5226 14.7729 39.6463 14.6513 39.7534 14.4638H39.7667C39.7801 14.5263 39.7946 14.5899 39.8102 14.6546C39.8258 14.7193 39.8492 14.7807 39.8804 14.8387H40.7633C40.7188 14.7316 40.6887 14.6312 40.6731 14.5374C40.6574 14.4437 40.6496 14.3121 40.6496 14.1425V12.2479C40.6496 12.0872 40.6329 11.9388 40.5995 11.8027C40.566 11.6665 40.5025 11.5494 40.4088 11.4512C40.3152 11.353 40.1837 11.2771 40.0142 11.2236C39.8448 11.17 39.6218 11.1432 39.3453 11.1432C39.1714 11.1432 39.0076 11.1622 38.8537 11.2001C38.6999 11.2381 38.5661 11.3006 38.4524 11.3876C38.3387 11.4746 38.2484 11.5884 38.1815 11.729C38.1146 11.8696 38.0812 12.0448 38.0812 12.2546V12.3416ZM39.7667 13.0378V13.7475C39.7667 13.8457 39.7489 13.9305 39.7132 14.0019C39.6776 14.0733 39.6318 14.1313 39.5761 14.1759C39.5204 14.2206 39.4591 14.2529 39.3922 14.273C39.3253 14.2931 39.2606 14.3031 39.1982 14.3031C39.0733 14.3031 38.9842 14.254 38.9307 14.1558C38.8771 14.0577 38.8504 13.9394 38.8504 13.801C38.8504 13.6404 38.8905 13.5132 38.9708 13.4194C39.051 13.3257 39.1848 13.2588 39.3721 13.2186C39.4301 13.2052 39.4947 13.184 39.5661 13.155C39.6374 13.126 39.7043 13.0869 39.7667 13.0378ZM41.3051 11.237V14.8387H42.2282V12.4487C42.2282 12.0515 42.3909 11.8529 42.7164 11.8529C42.8547 11.8529 42.955 11.8897 43.0174 11.9633C43.0799 12.037 43.1111 12.1675 43.1111 12.355V14.8387H44.0341V12.1675C44.0341 11.806 43.955 11.5449 43.7967 11.3842C43.6384 11.2236 43.4121 11.1432 43.1178 11.1432C42.9171 11.1432 42.7387 11.1845 42.5827 11.2671C42.4266 11.3497 42.2995 11.4802 42.2014 11.6587H42.188V11.237H41.3051ZM45.325 13.6604H44.4956V13.7876C44.4956 13.9617 44.5157 14.119 44.5558 14.2596C44.596 14.4002 44.6662 14.5196 44.7665 14.6178C44.8669 14.716 45.0029 14.7896 45.1745 14.8387C45.3462 14.8878 45.5614 14.9123 45.82 14.9123C46.0162 14.9123 46.1957 14.8923 46.3584 14.8521C46.5212 14.8119 46.6616 14.745 46.7798 14.6513C46.898 14.5575 46.9905 14.4404 47.0574 14.2998C47.1243 14.1592 47.1577 13.9929 47.1577 13.801C47.1577 13.5288 47.0975 13.3134 46.9771 13.155C46.8567 12.9965 46.6516 12.8682 46.3618 12.77L45.8066 12.5826C45.6505 12.5335 45.5446 12.4732 45.4889 12.4018C45.4332 12.3304 45.4053 12.2501 45.4053 12.1608C45.4053 12.0314 45.4488 11.9343 45.5357 11.8696C45.6227 11.8049 45.7241 11.7725 45.8401 11.7725C45.9917 11.7725 46.0976 11.816 46.1578 11.9031C46.218 11.9901 46.2481 12.1274 46.2481 12.3148H47.0775V12.1675C47.0775 11.8417 46.9771 11.5895 46.7765 11.411C46.5758 11.2325 46.2659 11.1432 45.8467 11.1432C45.6104 11.1432 45.4086 11.1722 45.2414 11.2303C45.0742 11.2883 44.9371 11.3664 44.8301 11.4646C44.723 11.5628 44.645 11.6777 44.596 11.8094C44.5469 11.941 44.5224 12.0805 44.5224 12.2278C44.5224 12.4822 44.587 12.6908 44.7164 12.8537C44.8457 13.0166 45.0374 13.1427 45.2916 13.232L45.9404 13.4663C46.0296 13.502 46.1076 13.55 46.1745 13.6102C46.2414 13.6705 46.2748 13.7586 46.2748 13.8747C46.2748 14.0175 46.2325 14.1246 46.1477 14.196C46.063 14.2674 45.9493 14.3031 45.8066 14.3031C45.6505 14.3031 45.5313 14.2552 45.4488 14.1592C45.3663 14.0632 45.325 13.9372 45.325 13.7809V13.6604ZM47.8199 11.8663V14.8387H48.7429V11.8663H49.278V11.237H48.7429V10.9223C48.7429 10.8197 48.7697 10.746 48.8232 10.7014C48.8767 10.6567 48.9681 10.6344 49.0974 10.6344H49.1844C49.2245 10.6344 49.2557 10.6367 49.278 10.6411V9.98505C49.113 9.97166 48.9481 9.96496 48.7831 9.96496C48.6359 9.96496 48.5021 9.97947 48.3818 10.0085C48.2614 10.0375 48.1599 10.0855 48.0774 10.1524C47.9949 10.2194 47.9314 10.3086 47.8868 10.4202C47.8422 10.5318 47.8199 10.6679 47.8199 10.8286V11.237H47.3517V11.8663H47.8199ZM29.3056 12.6295H28.3625V12.4889C28.3625 12.4041 28.3703 12.3193 28.386 12.2345C28.4016 12.1497 28.4272 12.0727 28.4629 12.0035C28.4985 11.9343 28.5465 11.8785 28.6067 11.8361C28.6669 11.7937 28.7438 11.7725 28.8374 11.7725C28.9311 11.7725 29.008 11.7915 29.0682 11.8294C29.1284 11.8674 29.1752 11.9232 29.2087 11.9968C29.2421 12.0704 29.2655 12.1597 29.2789 12.2646C29.2923 12.3695 29.3012 12.4911 29.3056 12.6295ZM50.3884 13.1784H52.2144V12.9709C52.2144 12.6942 52.1965 12.4431 52.1609 12.2177C52.1252 11.9923 52.0583 11.8004 51.9602 11.642C51.8621 11.4835 51.7272 11.3608 51.5555 11.2738C51.3839 11.1867 51.1642 11.1432 50.8967 11.1432C50.5846 11.1432 50.3348 11.1946 50.1476 11.2972C49.9603 11.3999 49.8165 11.5382 49.7161 11.7123C49.6158 11.8863 49.5489 12.085 49.5155 12.3081C49.482 12.5313 49.4653 12.7633 49.4653 13.0044C49.4653 13.232 49.4753 13.4596 49.4954 13.6872C49.5155 13.9148 49.5701 14.1201 49.6593 14.3031C49.7485 14.4861 49.8867 14.6334 50.074 14.745C50.2613 14.8566 50.5221 14.9123 50.8566 14.9123C51.298 14.9123 51.6213 14.803 51.8264 14.5843C52.0315 14.3656 52.143 14.0465 52.1609 13.627H51.3315C51.3047 13.8546 51.2557 14.0242 51.1843 14.1358C51.113 14.2473 50.9993 14.3031 50.8432 14.3031C50.7585 14.3031 50.6871 14.2797 50.6291 14.2328C50.5712 14.186 50.5244 14.1235 50.4887 14.0454C50.453 13.9673 50.4274 13.878 50.4118 13.7776C50.3962 13.6772 50.3884 13.5734 50.3884 13.4663V13.1784ZM51.3315 12.6295H50.3884V12.4889C50.3884 12.4041 50.3962 12.3193 50.4118 12.2345C50.4274 12.1497 50.453 12.0727 50.4887 12.0035C50.5244 11.9343 50.5723 11.8785 50.6325 11.8361C50.6927 11.7937 50.7696 11.7725 50.8633 11.7725C50.9569 11.7725 51.0338 11.7915 51.094 11.8294C51.1542 11.8674 51.201 11.9232 51.2345 11.9968C51.2679 12.0704 51.2913 12.1597 51.3047 12.2646C51.3181 12.3695 51.327 12.4911 51.3315 12.6295ZM52.6959 11.237V14.8387H53.619V12.6763C53.619 12.5558 53.6391 12.4543 53.6792 12.3717C53.7193 12.2891 53.7728 12.2222 53.8397 12.1709C53.9066 12.1195 53.9802 12.0827 54.0604 12.0604C54.1407 12.0381 54.221 12.0269 54.3012 12.0269C54.3503 12.0269 54.3982 12.028 54.445 12.0303C54.4919 12.0325 54.5398 12.0359 54.5888 12.0403V11.1566C54.5621 11.1522 54.5342 11.1488 54.5052 11.1466C54.4763 11.1443 54.4484 11.1432 54.4216 11.1432C54.2299 11.1432 54.0671 11.1957 53.9334 11.3006C53.7996 11.4054 53.6859 11.5449 53.5922 11.719H53.5789V11.237H52.6959Z" fill="white"/>
<path d="M22.9793 22.0835C22.9793 23.1426 22.1212 24 21.0646 24H1.91545C0.857332 24 0 23.1426 0 22.0835V2.91643C0 1.85738 0.857332 1 1.91545 1H21.0646C22.1212 1 22.9793 1.85738 22.9793 2.91643V22.0835ZM12.81 12.7639L13.9284 12.498L13.9273 10.2178C13.9273 9.69394 14.1242 9.35112 14.5146 9.19356C14.8285 9.06555 15.0684 9.07577 15.0684 9.07577V8.02199C15.0684 8.02199 14.97 7.99209 14.7742 8.04206C14.139 8.2076 13.8656 8.91935 13.8656 8.91935V8.37843L12.8081 8.63374L12.81 12.7639ZM7.12614 14.1213L8.33887 13.831C8.33887 13.831 8.08885 13.6487 8.08885 12.6986C8.08773 12.2899 8.08885 10.6086 8.08885 10.6086L8.89035 10.4165V9.57231L8.08885 9.76399V8.84262L6.95404 9.11254V10.0339L6.40407 10.1651V11.0105L6.95331 10.8789V12.9315C6.95331 13.8589 7.12614 14.1213 7.12614 14.1213ZM9.04104 11.6696C9.04104 12.8656 9.40026 13.6951 10.7459 13.3726C12.1665 13.0343 12.2799 12.0569 12.2892 11.6629C12.2903 11.5688 12.2881 11.4841 12.2881 11.4841L11.2656 11.7313C11.2656 11.7313 11.2637 11.8514 11.2585 11.8996C11.229 12.1928 11.1245 12.4306 10.7485 12.5104C10.3135 12.6037 10.1691 12.2752 10.1691 11.582V11.5462L12.3511 11.0291C12.3511 11.0291 12.3496 10.856 12.3556 10.5015C12.3731 9.51024 11.9266 8.77069 10.688 9.05484C10.0595 9.19898 9.62782 9.51471 9.36523 9.99946C9.14399 10.4082 9.04104 10.9399 9.04104 11.6696ZM10.7332 9.81881C11.1346 9.72662 11.2719 9.96256 11.2737 10.4097C11.2737 10.5022 11.2737 10.5617 11.2719 10.5884L10.174 10.8522C10.1822 10.2591 10.3717 9.90159 10.7332 9.81881ZM18.9898 9.24447C19.0331 10.5397 19.3102 11.3651 20.7238 11.0302C21.7508 10.7893 22.2982 10.128 22.3012 9.07931C22.3012 8.98948 22.3001 8.90766 22.3001 8.90766L21.209 9.16753C21.209 9.16753 21.2067 9.32892 21.2059 9.37956C21.1992 9.70028 21.1426 10.0667 20.7294 10.1527C20.2536 10.2535 20.145 9.88714 20.145 9.08725C20.145 9.04959 20.1434 8.99974 20.1434 8.72005C20.1434 7.93278 20.3105 7.53705 20.7238 7.43239C21.0714 7.34448 21.2037 7.52793 21.2033 8.01113C21.2033 8.01574 21.2037 8.1649 21.2037 8.1649L22.2975 7.90275L22.2964 7.82738C22.2964 7.42025 22.2326 7.12951 22.0682 6.91376C21.8971 6.68813 21.5593 6.45449 20.6679 6.65885C19.2714 6.97768 18.9471 7.98071 18.9898 9.24447ZM15.1437 11.0211C15.1437 11.7258 15.5824 12.2386 16.4097 12.0434C17.1974 11.8577 17.4256 11.2815 17.4256 11.2815C17.4684 11.4551 17.566 11.6572 17.566 11.6572L18.6095 11.4096C18.6095 11.4096 18.4456 11.2804 18.4456 10.3948V8.56431C18.4437 7.79105 18.0664 7.29448 16.9362 7.55528C16.0665 7.75694 15.562 8.14204 15.392 8.71447C15.3016 9.01541 15.3186 9.34369 15.3186 9.34369L16.3814 9.09237C16.3814 9.09237 16.378 8.98811 16.3882 8.8801C16.4067 8.67918 16.4987 8.42712 16.8454 8.3392C17.2227 8.24289 17.3287 8.43966 17.3245 8.66896C17.3211 8.94229 17.3052 9.09809 16.5475 9.41191C15.7046 9.76107 15.1437 10.0639 15.1437 11.0211ZM17.3177 9.71403V10.2899C17.3177 10.728 17.0831 11.0438 16.7451 11.1287C16.4306 11.2072 16.2568 11.0229 16.2568 10.7428C16.2568 10.4199 16.4147 10.2099 16.7621 10.0393C17.1005 9.87437 17.3177 9.71403 17.3177 9.71403ZM1.17811 16.9869C1.22318 16.9869 1.26901 16.9823 1.31184 16.9718C1.39789 16.9537 1.81316 16.8551 2.16071 16.7681L2.18492 16.7623V15.5541L0.651812 15.9295L0.639538 15.9326L0.632456 15.9419C0.563531 16.0529 0.527394 16.1793 0.527394 16.3104C0.527394 16.6838 0.819406 16.9869 1.17811 16.9869ZM1.17811 18.5705C1.22318 18.5705 1.26901 18.5663 1.31184 18.5574C1.39789 18.54 1.81316 18.4398 2.16071 18.3531L2.18492 18.3466V17.1377L0.651812 17.5136L0.639538 17.5163L0.632456 17.5283C0.563531 17.6365 0.527394 17.763 0.527394 17.8957C0.527394 18.2685 0.819406 18.5705 1.17811 18.5705ZM1.17811 20.0787C1.22318 20.0787 1.26901 20.0737 1.31184 20.0652C1.38592 20.0478 1.79381 19.9523 2.16071 19.8603L2.18492 19.8541V18.6459L0.639538 19.0235L0.632456 19.0359C0.563531 19.1437 0.527394 19.2708 0.527394 19.4031C0.527394 19.776 0.819406 20.0787 1.17811 20.0787ZM0.979838 15.5541L2.18492 15.2701V8.6918L0.979446 8.97542L0.979838 15.5541ZM3.98236 15.0125C3.98236 14.6045 3.64701 14.2721 3.23491 14.2721C2.82049 14.2721 2.48629 14.6045 2.48629 15.0125L2.48703 21.1655C2.48703 22.2698 3.39569 23.1705 4.5116 23.1705C5.07768 23.1705 6.62852 23.1678 6.62852 23.1678L6.62931 20.601C6.6297 19.1985 6.63009 17.7709 6.63009 17.7386C6.63009 17.4137 6.46809 17.1127 6.19513 16.9316L4.30781 15.6628C4.30781 15.6628 4.30741 18.4179 4.30741 18.544C4.30741 18.6325 4.23552 18.7047 4.1462 18.7047C4.05762 18.7047 3.98617 18.6325 3.98617 18.544C3.98617 18.5132 3.98236 15.393 3.98236 15.0125ZM5.03587 10.3957C4.2522 10.5757 3.95531 11.2273 3.95531 11.2273V10.7615L2.863 11.0188L2.86414 13.9946C2.99127 13.9442 3.13055 13.9166 3.27636 13.9166C3.55913 13.9166 3.81677 14.0211 4.01434 14.1948V12.2734C4.01434 11.8133 4.24496 11.4456 4.57303 11.3736C4.82041 11.3194 5.0267 11.4077 5.0267 11.8459L5.02745 14.6492L6.17804 14.3801V11.415C6.17804 10.6959 5.90093 10.1941 5.03587 10.3957ZM21.5855 6.20328C21.9798 6.20328 22.3012 5.88175 22.3012 5.48742C22.3012 5.09237 21.9798 4.77049 21.5855 4.77049C21.1912 4.77049 20.8697 5.09237 20.8697 5.48742C20.8697 5.88175 21.1912 6.20328 21.5855 6.20328Z" fill="white"/>
<path d="M64.7065 9.00408C64.825 9.00408 64.933 8.96593 65.0304 8.88963C65.1278 8.81333 65.1765 8.7116 65.1765 8.58443C65.1765 8.44879 65.1215 8.3513 65.0114 8.29195C64.9013 8.23261 64.7996 8.20294 64.7065 8.20294H64.1093V9.00408H64.7065ZM65.2655 10.8226L64.5667 9.56361H64.1093V10.8226H63.3343V7.56711H64.7319C64.8843 7.56711 65.0326 7.58406 65.1765 7.61797C65.3205 7.65188 65.4518 7.70699 65.5704 7.78329C65.689 7.85959 65.7843 7.96344 65.8563 8.09484C65.9283 8.22625 65.9643 8.38945 65.9643 8.58443C65.9643 8.80486 65.9029 8.98713 65.78 9.13125C65.6572 9.27537 65.5026 9.38134 65.3163 9.44916L66.1803 10.8226H65.2655ZM61.6699 9.23298C61.6699 8.83452 61.7462 8.45939 61.8986 8.10756C62.0511 7.75573 62.2586 7.45054 62.5212 7.19197C62.7837 6.9334 63.0908 6.72781 63.4423 6.57521C63.7938 6.42261 64.1686 6.34631 64.5667 6.34631C64.9648 6.34631 65.3396 6.42261 65.6911 6.57521C66.0426 6.72781 66.3497 6.9334 66.6122 7.19197C66.8748 7.45054 67.0823 7.75573 67.2348 8.10756C67.3872 8.45939 67.4635 8.83452 67.4635 9.23298C67.4635 9.63143 67.3872 10.0045 67.2348 10.352C67.0823 10.6996 66.8748 11.0027 66.6122 11.2613C66.3497 11.5198 66.0426 11.7233 65.6911 11.8717C65.3396 12.02 64.9648 12.0942 64.5667 12.0942C64.1686 12.0942 63.7938 12.02 63.4423 11.8717C63.0908 11.7233 62.7837 11.5198 62.5212 11.2613C62.2586 11.0027 62.0511 10.6996 61.8986 10.352C61.7462 10.0045 61.6699 9.63143 61.6699 9.23298ZM62.1273 9.23298C62.1273 9.56361 62.1908 9.87729 62.3179 10.174C62.4449 10.4707 62.6186 10.7314 62.8388 10.9561C63.059 11.1807 63.3174 11.3566 63.6138 11.4838C63.9103 11.611 64.2279 11.6746 64.5667 11.6746C64.9055 11.6746 65.2231 11.611 65.5196 11.4838C65.816 11.3566 66.0744 11.1807 66.2946 10.9561C66.5148 10.7314 66.6885 10.4707 66.8155 10.174C66.9426 9.87729 67.0061 9.56361 67.0061 9.23298C67.0061 8.89387 66.9426 8.57596 66.8155 8.27924C66.6885 7.98251 66.5148 7.72395 66.2946 7.50352C66.0744 7.2831 65.816 7.10931 65.5196 6.98214C65.2231 6.85498 64.9055 6.79139 64.5667 6.79139C64.2279 6.79139 63.9103 6.85498 63.6138 6.98214C63.3174 7.10931 63.059 7.2831 62.8388 7.50352C62.6186 7.72395 62.4449 7.98251 62.3179 8.27924C62.1908 8.57596 62.1273 8.89387 62.1273 9.23298Z" fill="white"/>
</svg>
