<svg width="40" height="25" viewBox="0 0 40 25" fill="none" xmlns="http://www.w3.org/2000/svg">
<path d="M2.96059 0C4.20569 0.00184392 5.45082 0.00110534 6.6959 0.000366548C6.76166 0.0058922 6.81148 -0.0158379 6.85269 0.0486199C6.86161 0.146592 6.85642 0.24678 6.85715 0.345491C6.85715 1.5175 6.85715 2.68951 6.85715 3.8615C6.20506 3.87591 5.55151 3.86297 4.89905 3.86743C4.25216 3.86523 3.60526 3.86999 2.95835 3.86486C2.95241 2.87035 2.95761 1.87588 2.95575 0.881772C2.95761 0.587844 2.94944 0.293556 2.96059 0Z" fill="white"/>
<path d="M1.00149 0.883674C1.65321 0.880358 2.30493 0.884046 2.95629 0.881836C2.95814 1.87594 2.95294 2.87042 2.95889 3.86489C3.60576 3.87008 4.25266 3.86525 4.89955 3.86745C4.89845 4.16028 4.89992 4.45274 4.89809 4.74521C3.59874 4.74484 2.29936 4.7485 1 4.74338C1.00335 3.45678 1.00037 2.17023 1.00149 0.883674Z" fill="white"/>
<path d="M1.75732 5.66238C2.54281 5.66202 3.32826 5.66202 4.11376 5.66238C4.1134 10.1843 4.11303 14.7062 4.11376 19.2281C3.32869 19.2292 2.54318 19.2289 1.7577 19.2281C1.75695 14.7062 1.75806 10.1843 1.75732 5.66238Z" fill="white"/>
<path d="M7.13464 5.67243C7.9718 5.67053 8.80895 5.67279 9.64604 5.67126C12.581 8.99655 15.5204 12.321 18.4566 15.6452C18.4592 12.321 18.4569 8.99581 18.4577 5.67126C19.2465 5.67242 20.035 5.6709 20.8234 5.67206C20.8234 10.1892 20.8238 14.7063 20.8234 19.223C20.0454 19.2235 19.2673 19.2242 18.4893 19.223C15.5324 15.8802 12.571 12.5313 9.61148 9.19175C9.61075 12.5358 9.61148 15.8798 9.61111 19.2238C8.7855 19.2219 7.95989 19.226 7.13428 19.2216C7.13501 14.7052 7.13464 10.1888 7.13464 5.67243Z" fill="white"/>
<path fill-rule="evenodd" clip-rule="evenodd" d="M23.8324 5.66449C24.8213 5.66083 25.8151 5.66138 26.8083 5.66193C27.4371 5.66229 28.0655 5.6626 28.6921 5.66186C29.5612 5.65307 30.4322 5.80333 31.2496 6.09543C31.7368 6.26853 32.2179 6.48949 32.6523 6.76944C33.048 7.02875 33.4188 7.35247 33.6533 7.7665C34.0062 8.41181 34.1719 9.11048 34.2396 9.83724C34.9188 10.1282 35.5498 10.4796 36.093 10.9831C36.599 11.4523 37.0348 12.0391 37.2705 12.6888C37.4216 13.0954 37.4774 13.5459 37.4841 13.9772C37.4915 14.3728 37.4737 14.7816 37.3927 15.1698C37.2961 15.6162 37.1021 16.0435 36.8491 16.4236C36.3679 17.1514 35.6924 17.7205 34.9207 18.1275C34.1772 18.5179 33.378 18.8096 32.5575 18.9919C31.9106 19.1293 31.2489 19.2133 30.5875 19.2284C28.3366 19.2288 26.0853 19.2288 23.8343 19.228C23.8341 17.4546 23.8342 15.6813 23.8342 13.908L23.8343 11.2479C23.8273 9.39079 23.8269 7.52154 23.8324 5.66449ZM26.2849 7.41878C26.5687 7.41982 26.8525 7.41951 27.1363 7.41914C27.5559 7.41865 27.9754 7.41817 28.395 7.42213C28.9229 7.42104 29.4517 7.50059 29.9611 7.63461C30.5207 7.78604 31.1015 7.99595 31.5298 8.39819C31.7546 8.60481 31.9873 8.88585 32.034 9.19486C31.544 9.11237 31.0468 9.06597 30.5501 9.06005C29.9649 9.05974 29.3798 9.05986 28.7948 9.06005H28.7937H28.7936C27.9573 9.06023 27.1211 9.06041 26.2849 9.05932C26.285 8.78633 26.285 8.51322 26.2849 8.24005V8.23914C26.2848 7.96572 26.2847 7.69225 26.2849 7.41878ZM28.7226 11.3878C27.8808 11.3876 27.0389 11.3875 26.1969 11.3883C26.1967 12.6119 26.1968 13.8356 26.1969 15.0593C26.1969 15.6711 26.1969 16.283 26.1969 16.8947C26.9322 16.896 27.6676 16.8959 28.4029 16.8957C28.8709 16.8956 29.3388 16.8955 29.8067 16.8958C30.4049 16.8943 30.9979 16.8498 31.5828 16.719C32.2694 16.5574 32.9965 16.3407 33.5977 15.9654C33.9262 15.7507 34.2376 15.4859 34.4694 15.1691C34.8956 14.5879 34.903 13.7496 34.4954 13.1577C34.2822 12.8483 34.0068 12.6111 33.7025 12.3938C33.3198 12.1319 32.9021 11.9584 32.463 11.814C31.5864 11.5219 30.6572 11.3735 29.7324 11.3879C29.3958 11.3879 29.0592 11.3878 28.7226 11.3878Z" fill="white"/>
<path d="M1.51418 20.0798C1.68064 20.0724 1.84747 20.0794 2.01393 20.0772C6.22078 20.0776 10.4276 20.0765 14.6341 20.0779C14.6333 20.2378 14.6352 20.3976 14.6304 20.5578C14.4992 20.5707 14.3707 20.5792 14.2383 20.5748C9.99697 20.5741 5.75595 20.5741 1.51455 20.5748C1.50712 20.4102 1.50192 20.244 1.51418 20.0798Z" fill="white"/>
<path d="M14.6341 20.0781C22.2485 20.0804 29.863 20.0774 37.4771 20.0797C37.4812 20.2395 37.4804 20.399 37.4796 20.5588C29.9558 20.5621 22.4309 20.5588 14.9071 20.5603C14.815 20.5607 14.7225 20.5577 14.6304 20.5581C14.6352 20.3979 14.6333 20.238 14.6341 20.0781Z" fill="white"/>
<path d="M2.16699 21.4689C2.16811 22.348 2.16662 23.2276 2.16773 24.1071C2.03732 24.1064 1.9069 24.1068 1.77647 24.1071C1.7761 23.2276 1.77685 22.3484 1.77647 21.4689C1.90653 21.4689 2.03694 21.4692 2.16699 21.4689Z" fill="white"/>
<path d="M30.7778 21.4689C30.8941 21.4692 31.0104 21.4692 31.1267 21.4692C31.1245 22.0291 31.1334 22.5893 31.1223 23.1488C31.139 23.165 31.1557 23.1812 31.1728 23.197C31.2627 23.0578 31.382 22.9558 31.4942 22.8276C31.632 22.6707 31.7755 22.5189 31.9163 22.3643C32.0571 22.3646 32.1976 22.3643 32.338 22.3654C32.0887 22.6504 31.8375 22.9337 31.5882 23.2184C31.8903 23.5142 32.1927 23.8092 32.493 24.1064C32.3369 24.1009 32.1671 24.1193 32.0144 24.0987C31.7112 23.8147 31.4355 23.4994 31.1278 23.2202C31.1267 23.5156 31.1275 23.811 31.1271 24.1068C31.0108 24.1071 30.8941 24.1068 30.7774 24.1068C30.7774 23.2276 30.7771 22.3484 30.7778 21.4689Z" fill="white"/>
<path d="M14.9893 21.4686C15.0907 21.469 15.1921 21.469 15.2936 21.4686C15.8917 22.1497 16.4967 22.8256 17.0927 23.5088C17.0982 22.8292 17.0934 22.1497 17.0952 21.4705C17.2164 21.469 17.3375 21.469 17.4586 21.4683C17.4597 22.3475 17.4597 23.227 17.4586 24.1062C17.3494 24.1066 17.2398 24.1066 17.1302 24.1073C16.5327 23.4347 15.9423 22.753 15.3463 22.0786C15.3452 22.7544 15.3467 23.4307 15.3456 24.107C15.227 24.107 15.1085 24.1066 14.99 24.1066C14.9889 23.227 14.9896 22.3478 14.9893 21.4686Z" fill="white"/>
<path d="M8.03232 21.6479C8.15791 21.6549 8.20248 21.7488 8.23551 21.8549C8.2095 21.9116 8.19912 21.9676 8.14936 22.0085C8.04343 22.1031 7.86435 22.0582 7.81532 21.9245C7.75439 21.7856 7.88254 21.6269 8.03232 21.6479Z" fill="white"/>
<path d="M33.1672 21.6543C33.2315 21.6425 33.3058 21.6421 33.3593 21.6852C33.457 21.7537 33.4712 21.8985 33.3939 21.9872C33.3084 22.0922 33.1133 22.0785 33.0513 21.9545C32.9822 21.8418 33.0438 21.6941 33.1672 21.6543Z" fill="white"/>
<path d="M21.0449 22.0022C21.0467 22.123 21.0464 22.2434 21.0453 22.3639C21.2303 22.365 21.4153 22.3643 21.6004 22.3646C21.6008 22.4696 21.6011 22.5746 21.6011 22.6796C21.4161 22.6792 21.2311 22.6792 21.0456 22.6796C21.049 22.9934 21.0408 23.3086 21.0494 23.6225C21.0512 23.7352 21.1515 23.8243 21.2608 23.8346C21.4246 23.8483 21.5488 23.7801 21.6888 23.7087C21.6888 23.818 21.6888 23.9274 21.6896 24.0372C21.4618 24.1414 21.2087 24.1956 20.9702 24.0917C20.787 24.007 20.6949 23.8184 20.6923 23.6243C20.6901 23.3094 20.6927 22.9945 20.6916 22.6796C20.586 22.6796 20.4805 22.6803 20.375 22.6759C20.427 22.5768 20.5095 22.5164 20.5879 22.4402C20.7402 22.295 20.8874 22.1421 21.0449 22.0022Z" fill="white"/>
<path d="M3.80429 22.3549C4.04467 22.2787 4.33298 22.3774 4.46639 22.5921C4.55743 22.7409 4.57007 22.9004 4.5719 23.0709C4.57227 23.4164 4.57227 23.7615 4.57153 24.107C4.45449 24.107 4.33707 24.107 4.22003 24.107C4.21966 23.7619 4.22076 23.4164 4.22003 23.0713C4.22003 22.9346 4.19964 22.8002 4.09706 22.7008C3.99974 22.608 3.85589 22.5995 3.73365 22.6433C3.61404 22.6861 3.52746 22.7836 3.43862 22.8695C3.43716 23.282 3.43862 23.6945 3.43789 24.1074C3.32086 24.1074 3.20344 24.107 3.0864 24.1067C3.08566 23.5262 3.08603 22.9453 3.08603 22.3648C3.20344 22.3648 3.32086 22.3645 3.43826 22.3645C3.43826 22.4393 3.43826 22.514 3.43752 22.5892C3.54419 22.4842 3.65562 22.3936 3.80429 22.3549Z" fill="white"/>
<path d="M11.8303 22.3518C12.0558 22.2855 12.3145 22.3699 12.4575 22.5547C12.5612 22.6903 12.5849 22.8722 12.5879 23.0373C12.5894 23.3938 12.5883 23.75 12.5883 24.1065C12.4709 24.1069 12.3538 24.1072 12.2364 24.1069C12.2368 23.7861 12.2368 23.4652 12.2368 23.1448C12.2309 22.982 12.2391 22.8314 12.1194 22.7046C11.976 22.5725 11.7616 22.6015 11.6182 22.7187C11.5665 22.7651 11.4773 22.8225 11.4576 22.8892C11.4498 23.294 11.4573 23.7013 11.4547 24.1065C11.3372 24.1069 11.2198 24.1072 11.1024 24.1072C11.1024 23.5264 11.1028 22.9456 11.1021 22.3647C11.2198 22.3643 11.3376 22.3647 11.455 22.365C11.455 22.4409 11.4547 22.5168 11.4528 22.5923C11.5583 22.4807 11.6787 22.3905 11.8303 22.3518Z" fill="white"/>
<path d="M29.1549 22.3563C29.3623 22.2903 29.5975 22.3497 29.7513 22.501C29.8798 22.6285 29.9251 22.8222 29.9285 22.9968C29.9304 23.3666 29.9281 23.7368 29.9296 24.1066C29.8118 24.1069 29.6944 24.1073 29.5766 24.1069C29.5781 23.7857 29.577 23.4649 29.5774 23.1441C29.5741 23.0034 29.5815 22.869 29.4945 22.7486C29.4154 22.6329 29.2701 22.5957 29.1371 22.6288C28.9918 22.6634 28.8944 22.7707 28.7938 22.8716C28.7971 23.2833 28.7949 23.6951 28.7945 24.1066C28.6775 24.1069 28.5604 24.1069 28.4437 24.1073C28.4434 23.526 28.4437 22.9452 28.4434 22.364C28.5604 22.3647 28.6775 22.3647 28.7941 22.3644C28.7952 22.4406 28.7952 22.5168 28.7952 22.5935C28.8955 22.4856 29.0108 22.3972 29.1549 22.3563Z" fill="white"/>
<path d="M35.0146 22.3523C35.2476 22.2827 35.5199 22.3758 35.6585 22.5744C35.7559 22.7165 35.7741 22.9026 35.7749 23.0701C35.7752 23.4156 35.7752 23.7611 35.7749 24.1066C35.6578 24.1073 35.5408 24.1073 35.4237 24.1073C35.4223 23.7618 35.4237 23.4164 35.4233 23.0712C35.4204 22.9442 35.4052 22.8245 35.3219 22.7228C35.2327 22.6149 35.0704 22.5946 34.9437 22.641C34.8188 22.6845 34.7382 22.7792 34.6434 22.8657C34.6382 23.2794 34.6423 23.6933 34.6416 24.107C34.5242 24.107 34.4067 24.107 34.2893 24.107C34.289 23.5261 34.289 22.9456 34.2893 22.3648C34.4067 22.3648 34.5242 22.3648 34.6416 22.3648C34.6416 22.4403 34.6408 22.5158 34.6393 22.5913C34.7463 22.4815 34.8634 22.3913 35.0146 22.3523Z" fill="white"/>
<path d="M7.83691 22.3652C7.95469 22.3649 8.07211 22.3649 8.18988 22.3645C8.18915 22.9453 8.18952 23.5262 8.18952 24.107C8.0721 24.107 7.95433 24.107 7.83691 24.107C7.83765 23.5265 7.83765 22.9457 7.83691 22.3652Z" fill="white"/>
<path d="M33.0582 22.3649C33.1749 22.3649 33.2919 22.3649 33.409 22.3645C33.4093 22.9453 33.4101 23.5262 33.4086 24.107C33.2915 24.107 33.1745 24.107 33.0575 24.107C33.0575 23.5262 33.0564 22.9453 33.0582 22.3649Z" fill="white"/>
<path fill-rule="evenodd" clip-rule="evenodd" d="M6.96191 23.1647C6.96233 22.5993 6.9627 22.0341 6.96032 21.4686C6.84327 21.469 6.72586 21.4694 6.60881 21.4701C6.60881 21.5147 6.60888 21.5594 6.60894 21.6041C6.6093 21.8717 6.60967 22.1394 6.60845 22.4068C6.36355 22.3268 6.09233 22.3135 5.85378 22.4204C5.60113 22.5324 5.4179 22.7685 5.37888 23.041C5.34475 23.3301 5.3856 23.6469 5.59667 23.8657C5.74529 24.0263 5.95593 24.1021 6.1733 24.1066C6.33497 24.1075 6.49678 24.1073 6.65858 24.1071C6.75969 24.107 6.86074 24.1068 6.96178 24.107C6.96154 23.7928 6.96172 23.4787 6.96191 23.1647ZM6.6093 23.8164V22.7173C6.44317 22.6628 6.28045 22.6293 6.10876 22.6831C5.91448 22.7405 5.77026 22.9103 5.74205 23.1084C5.71641 23.2933 5.72905 23.5015 5.84646 23.6554C5.91704 23.7497 6.02261 23.7898 6.13593 23.8057C6.2443 23.8198 6.35525 23.8183 6.46557 23.8169C6.51369 23.8163 6.56168 23.8157 6.6093 23.8164Z" fill="white"/>
<path fill-rule="evenodd" clip-rule="evenodd" d="M19.6447 22.5386C19.4467 22.3453 19.1673 22.3129 18.9046 22.3663C18.6831 22.4197 18.4966 22.57 18.397 22.7729C18.2035 23.1667 18.293 23.6941 18.6322 23.9836C18.8429 24.1534 19.106 24.1648 19.3646 24.1353C19.547 24.1177 19.7116 24.0433 19.861 23.9412C19.8584 23.8293 19.8584 23.7173 19.8591 23.6054C19.6633 23.7295 19.4556 23.8238 19.2178 23.8178C19.0573 23.8153 18.9012 23.7626 18.7957 23.6378C18.7137 23.5431 18.6842 23.4351 18.6524 23.3189C18.6507 23.313 18.6491 23.307 18.6475 23.3011C18.9086 23.2978 19.1696 23.2984 19.4307 23.299C19.5813 23.2993 19.7319 23.2997 19.8825 23.2993C19.8918 23.0308 19.8458 22.7357 19.6447 22.5386ZM19.5452 23.0598C19.524 22.9375 19.5017 22.8259 19.4059 22.7386C19.2922 22.6244 19.0993 22.6203 18.9544 22.6649C18.7779 22.7286 18.6947 22.8859 18.659 23.0594C18.9544 23.0627 19.2502 23.0631 19.5452 23.0598Z" fill="white"/>
<path fill-rule="evenodd" clip-rule="evenodd" d="M25.1093 21.5759C25.3512 21.7185 25.4943 22.0043 25.436 22.2816C25.4014 22.4934 25.2413 22.6386 25.0451 22.7104C25.1922 22.7531 25.3304 22.7969 25.449 22.8971C25.6113 23.0304 25.6916 23.2326 25.6782 23.44C25.6749 23.661 25.537 23.843 25.3635 23.9689C25.1971 24.0794 24.9864 24.1056 24.7906 24.1074C24.477 24.107 24.163 24.107 23.8494 24.107C23.8488 23.6275 23.8488 23.148 23.8489 22.6685C23.8489 22.2688 23.849 21.8691 23.8486 21.4695C23.9464 21.4699 24.0443 21.4697 24.142 21.4695C24.3049 21.4691 24.4677 21.4688 24.6308 21.4713C24.792 21.4724 24.9663 21.4997 25.1093 21.5759ZM24.4342 21.807C24.5725 21.8035 24.7141 21.7999 24.8374 21.8445C25.1142 21.9543 25.115 22.4176 24.8467 22.5377C24.7062 22.6074 24.5287 22.6046 24.3644 22.602C24.3211 22.6014 24.2787 22.6007 24.2381 22.6014C24.2382 22.5178 24.2381 22.4341 24.238 22.3505C24.2377 22.1693 24.2375 21.988 24.2395 21.8066C24.3021 21.8103 24.3677 21.8086 24.4342 21.807ZM24.4743 22.9493C24.3959 22.9498 24.3175 22.9502 24.2392 22.9491C24.2373 23.1705 24.2377 23.3923 24.2382 23.6138C24.2383 23.6631 24.2384 23.7124 24.2384 23.7616C24.3222 23.7584 24.4073 23.7602 24.4927 23.7619C24.6521 23.7651 24.8124 23.7683 24.9663 23.7395C25.2049 23.6887 25.3528 23.4261 25.248 23.2011C25.1673 23.0221 24.9734 22.9642 24.7914 22.9513C24.6857 22.9482 24.58 22.9487 24.4743 22.9493Z" fill="white"/>
<path fill-rule="evenodd" clip-rule="evenodd" d="M10.1726 22.8551C10.1696 22.6831 10.0953 22.5214 9.94336 22.4311C9.64351 22.2544 9.19242 22.2901 8.95167 22.5531C8.95241 22.6823 8.95204 22.812 8.95167 22.9413C9.06683 22.8227 9.18796 22.721 9.35221 22.6783C9.47634 22.6444 9.64943 22.64 9.74828 22.7347C9.81612 22.8047 9.82106 22.9037 9.82564 22.9965C9.8265 23.0135 9.82735 23.0303 9.82857 23.0466C9.75744 23.0757 9.68259 23.1023 9.60675 23.1293C9.40484 23.2011 9.19651 23.2751 9.03715 23.4032C8.82681 23.598 8.88964 23.9862 9.15231 24.107C9.37303 24.205 9.62751 24.1148 9.81477 23.9858C9.85122 24.0573 9.88615 24.1163 9.97083 24.1361C10.1466 24.1788 10.2819 24.1085 10.4242 24.0179C10.4235 23.9465 10.4235 23.8754 10.4235 23.8044V23.8043C10.3562 23.8459 10.2885 23.8794 10.2146 23.9081C10.1864 23.8639 10.1726 23.8186 10.1741 23.7718C10.1734 23.6457 10.1738 23.5196 10.1742 23.3934C10.1748 23.214 10.1754 23.0346 10.1726 22.8551ZM9.82528 23.4494C9.8246 23.3848 9.82393 23.3203 9.82467 23.2558C9.80458 23.2632 9.78406 23.2707 9.7633 23.2782C9.61774 23.3309 9.45954 23.3883 9.34573 23.4882C9.23095 23.5906 9.25061 23.7876 9.38139 23.8672C9.51963 23.9552 9.73363 23.8709 9.8232 23.7479C9.82723 23.6484 9.82625 23.5489 9.82528 23.4494Z" fill="white"/>
<path fill-rule="evenodd" clip-rule="evenodd" d="M27.3633 22.5092C27.2254 22.374 27.0252 22.3165 26.8342 22.3243C26.6183 22.3228 26.418 22.3946 26.272 22.5556C26.2742 22.6852 26.2735 22.8144 26.2727 22.944V22.9442C26.447 22.7446 26.7305 22.584 26.9991 22.6882C27.1348 22.7493 27.1395 22.872 27.1444 22.9976C27.145 23.0144 27.1457 23.0313 27.1467 23.0481C27.0751 23.077 27.0013 23.1033 26.9274 23.1297C26.7499 23.1931 26.5714 23.2568 26.4198 23.3574C26.2069 23.4779 26.1802 23.7991 26.3225 23.9817C26.3972 24.0871 26.5169 24.1439 26.6454 24.1468C26.8275 24.1556 26.9883 24.0871 27.1336 23.9843C27.1381 23.992 27.1424 23.9995 27.1467 24.007C27.1799 24.0655 27.2087 24.116 27.2845 24.132C27.4624 24.1825 27.5999 24.1111 27.7441 24.0182C27.7441 23.946 27.7441 23.8742 27.7448 23.802C27.675 23.8484 27.6067 23.8834 27.5253 23.9066C27.49 23.8258 27.4916 23.7481 27.4932 23.6663C27.4938 23.6403 27.4943 23.6139 27.4937 23.5869C27.4938 23.5402 27.4938 23.4935 27.4939 23.4468C27.4943 23.2599 27.4946 23.0728 27.4941 22.886C27.4933 22.7512 27.4602 22.6086 27.3633 22.5092ZM27.1429 23.7659C27.1432 23.5954 27.1436 23.4255 27.1429 23.255C27.1087 23.2691 27.0722 23.2828 27.0348 23.2967C26.8941 23.3493 26.7401 23.4068 26.645 23.5121C26.5276 23.6521 26.6116 23.8756 26.7936 23.9007C26.9334 23.9206 27.0284 23.8507 27.1323 23.774C27.1358 23.7715 27.1393 23.7688 27.1429 23.7663V23.7659Z" fill="white"/>
<path fill-rule="evenodd" clip-rule="evenodd" d="M37.3131 22.3646C37.4205 22.3641 37.5278 22.3643 37.6351 22.3645C37.7664 22.3647 37.8975 22.3649 38.0287 22.3639C38.0291 22.456 38.0291 22.5484 38.0291 22.6405C37.9124 22.6397 37.7962 22.6405 37.6795 22.6424C37.69 22.655 37.7008 22.6674 37.7115 22.6798C37.7654 22.7421 37.8185 22.8035 37.8393 22.8862C37.8946 23.1094 37.7876 23.3657 37.5903 23.4865C37.486 23.5447 37.3725 23.5658 37.256 23.5874C37.1711 23.6032 37.0847 23.6192 36.9991 23.6501C36.9981 23.6631 36.9954 23.6766 36.9928 23.69C36.9844 23.7325 36.976 23.775 37.0199 23.8018C37.1345 23.8762 37.2794 23.9055 37.4244 23.9349C37.5796 23.9663 37.7348 23.9977 37.853 24.0844C38.0763 24.2582 38.0782 24.6155 37.8694 24.8011C37.7214 24.9293 37.5074 24.9871 37.315 24.9967C37.0274 25.0122 36.739 24.979 36.5165 24.7808C36.3474 24.6291 36.3381 24.3613 36.4641 24.1812C36.5514 24.0696 36.6792 24.0258 36.8104 23.9864C36.7954 23.973 36.7796 23.9607 36.7639 23.9484C36.7045 23.902 36.6476 23.8576 36.6491 23.7716C36.6391 23.6356 36.7631 23.5786 36.8694 23.5297C36.8808 23.5245 36.8921 23.5193 36.9029 23.5141C36.8746 23.4921 36.8442 23.4735 36.8137 23.4549C36.7832 23.4363 36.7527 23.4177 36.7245 23.3956C36.4663 23.1934 36.4704 22.7304 36.7331 22.533C36.8973 22.3981 37.1069 22.3702 37.3131 22.3646ZM37.0744 22.6924C37.21 22.649 37.3568 22.6781 37.4548 22.7834C37.5697 22.8914 37.5581 23.0976 37.4475 23.2037C37.2828 23.372 36.9246 23.3131 36.8641 23.0718C36.8154 22.9046 36.9183 22.7514 37.0744 22.6924ZM37.5916 24.3042C37.4125 24.1886 37.1654 24.1694 36.9596 24.2026C36.8686 24.225 36.7601 24.2832 36.727 24.376C36.685 24.4803 36.7359 24.597 36.8329 24.6508C36.9403 24.709 37.0815 24.719 37.2015 24.7204C37.3379 24.7179 37.4995 24.7068 37.6098 24.6173C37.709 24.5407 37.7023 24.3694 37.5916 24.3042Z" fill="white"/>
</svg>
