<svg width="144" height="25" viewBox="0 0 144 25" fill="none" xmlns="http://www.w3.org/2000/svg">
<g clip-path="url(#clip0_3_17659)">
<path fill-rule="evenodd" clip-rule="evenodd" d="M20.4232 2.67708C20.2605 2.80382 20.1013 2.93437 19.9456 3.0684C17.2858 5.36042 15.6022 8.73437 15.6022 12.5C15.6022 16.2653 17.2858 19.6392 19.9456 21.9312C20.1013 22.0653 20.2605 22.1955 20.4232 22.3226C20.5859 22.1955 20.745 22.0653 20.9007 21.9312C23.5605 19.6392 25.2442 16.2653 25.2442 12.5C25.2442 8.73437 23.5605 5.36042 20.9007 3.0684C20.745 2.93437 20.5859 2.80382 20.4232 2.67708ZM28.2241 0C25.6397 0 23.2372 0.769444 21.2366 2.08889C21.339 2.17187 21.4424 2.25382 21.5416 2.33924C24.5152 4.90104 26.2206 8.60451 26.2206 12.5C26.2206 16.3948 24.5152 20.0983 21.542 22.6604C21.4431 22.7451 21.339 22.8274 21.2366 22.9108C23.2372 24.2302 25.6397 24.9997 28.2241 24.9997C35.1951 24.9997 40.8463 19.4031 40.8463 12.5C40.8463 5.59618 35.1951 0 28.2241 0ZM19.3047 22.6604C19.4032 22.7451 19.5074 22.8274 19.6097 22.9108C17.6091 24.2306 15.2067 25 12.6223 25C5.65092 25 0 19.4031 0 12.5C0 5.59653 5.65092 0 12.6223 0C15.2063 0 17.6088 0.769444 19.6097 2.08889C19.5074 2.17187 19.4039 2.25382 19.3047 2.33889C16.3311 4.90104 14.6257 8.60451 14.6257 12.5C14.6257 16.3951 16.3311 20.0986 19.3047 22.6604ZM66.0554 12.5538C66.0554 11.0931 67.021 9.89306 68.6016 9.89306C70.1121 9.89306 71.1306 11.041 71.1306 12.5538C71.1306 14.0667 70.1121 15.2146 68.6016 15.2146C67.021 15.2146 66.0554 14.0149 66.0554 12.5538ZM72.8515 12.5538V8.39757H71.0251V9.4059C70.4455 8.65833 69.5676 8.18889 68.3734 8.18889C66.02 8.18889 64.1765 10.0149 64.1765 12.5538C64.1765 15.0931 66.02 16.9191 68.3734 16.9191C69.5676 16.9191 70.4455 16.4497 71.0251 15.7017V16.7108H72.8515V12.5538ZM134.527 12.5538C134.527 11.0931 135.493 9.89306 137.074 9.89306C138.584 9.89306 139.602 11.041 139.602 12.5538C139.602 14.0667 138.584 15.2146 137.074 15.2146C135.493 15.2146 134.527 14.0149 134.527 12.5538ZM143.366 16.316V16.4465H143.488C143.516 16.4465 143.538 16.441 143.554 16.4302C143.571 16.4194 143.579 16.4028 143.579 16.3802C143.579 16.359 143.571 16.3427 143.554 16.3319C143.538 16.3208 143.516 16.316 143.488 16.316H143.366ZM143.489 16.224C143.553 16.224 143.602 16.2378 143.636 16.266C143.67 16.2937 143.688 16.3323 143.688 16.3802C143.688 16.4212 143.674 16.4542 143.647 16.4806C143.619 16.5069 143.58 16.5229 143.53 16.5292L143.692 16.7139H143.565L143.415 16.5302H143.366V16.7139H143.261V16.224H143.489ZM143.458 16.8823C143.515 16.8823 143.569 16.8712 143.619 16.85C143.668 16.8281 143.711 16.7986 143.749 16.7618C143.786 16.725 143.816 16.6812 143.837 16.6312C143.858 16.5812 143.869 16.5278 143.869 16.4708C143.869 16.4139 143.858 16.3608 143.837 16.3104C143.816 16.2608 143.786 16.2174 143.749 16.1799C143.711 16.1431 143.668 16.1139 143.619 16.0927C143.569 16.0715 143.515 16.0608 143.458 16.0608C143.399 16.0608 143.345 16.0715 143.294 16.0927C143.243 16.1139 143.198 16.1431 143.161 16.1799C143.124 16.2174 143.095 16.2608 143.073 16.3104C143.052 16.3608 143.041 16.4139 143.041 16.4708C143.041 16.5278 143.052 16.5812 143.073 16.6312C143.095 16.6812 143.124 16.725 143.161 16.7618C143.198 16.7986 143.243 16.8281 143.294 16.85C143.345 16.8712 143.399 16.8823 143.458 16.8823ZM143.458 15.9434C143.533 15.9434 143.603 15.9573 143.669 15.9847C143.735 16.0125 143.792 16.05 143.841 16.0979C143.89 16.1458 143.929 16.2017 143.957 16.266C143.986 16.3302 144 16.3983 144 16.4708C144 16.5434 143.986 16.6115 143.957 16.6753C143.929 16.7392 143.89 16.7948 143.841 16.8424C143.792 16.8906 143.735 16.9281 143.669 16.9566C143.603 16.9847 143.533 16.9986 143.458 16.9986C143.381 16.9986 143.31 16.9847 143.243 16.9566C143.176 16.9281 143.119 16.8906 143.07 16.8424C143.021 16.7948 142.983 16.7392 142.954 16.6753C142.926 16.6115 142.912 16.5434 142.912 16.4708C142.912 16.3983 142.926 16.3302 142.954 16.266C142.983 16.2017 143.021 16.1458 143.07 16.0979C143.119 16.05 143.176 16.0125 143.243 15.9847C143.31 15.9573 143.381 15.9434 143.458 15.9434ZM141.323 12.5538V5.05833H139.497V9.4059C138.917 8.65833 138.039 8.18889 136.845 8.18889C134.492 8.18889 132.648 10.0149 132.648 12.5538C132.648 15.0931 134.492 16.9191 136.845 16.9191C138.039 16.9191 138.917 16.4497 139.497 15.7017V16.7108H141.323V12.5538ZM95.5056 9.80625C96.6823 9.80625 97.4375 10.5365 97.6307 11.8236H93.2753C93.4685 10.6236 94.2062 9.80625 95.5056 9.80625ZM95.541 8.18889C93.0822 8.18889 91.3613 9.9625 91.3613 12.5538C91.3613 15.1976 93.1523 16.9191 95.6638 16.9191C96.9284 16.9191 98.0872 16.6062 99.1061 15.7542L98.2103 14.4146C97.5077 14.9715 96.6122 15.2844 95.7689 15.2844C94.5926 15.2844 93.5211 14.7451 93.2578 13.2497H99.4922C99.5097 13.0233 99.5272 12.7976 99.5272 12.5538C99.5097 9.9625 97.8944 8.18889 95.541 8.18889ZM117.58 12.5538C117.58 11.0931 118.546 9.89306 120.127 9.89306C121.637 9.89306 122.656 11.041 122.656 12.5538C122.656 14.0667 121.637 15.2146 120.127 15.2146C118.546 15.2146 117.58 14.0149 117.58 12.5538ZM124.377 12.5538V8.39757H122.55V9.4059C121.971 8.65833 121.093 8.18889 119.898 8.18889C117.545 8.18889 115.701 10.0149 115.701 12.5538C115.701 15.0931 117.545 16.9191 119.898 16.9191C121.093 16.9191 121.971 16.4497 122.55 15.7017V16.7108H124.377V12.5538ZM107.272 12.5538C107.272 15.0757 109.045 16.9191 111.75 16.9191C113.014 16.9191 113.857 16.6406 114.77 15.9278L113.892 14.467C113.207 14.9542 112.487 15.2146 111.697 15.2146C110.24 15.1976 109.169 14.1538 109.169 12.5538C109.169 10.9538 110.24 9.91042 111.697 9.89306C112.487 9.89306 113.207 10.1538 113.892 10.641L114.77 9.18021C113.857 8.46701 113.014 8.18889 111.75 8.18889C109.045 8.18889 107.272 10.0323 107.272 12.5538ZM130.804 8.18889C129.75 8.18889 129.065 8.67569 128.591 9.4059V8.39757H126.783V16.7108H128.609V12.0497C128.609 10.6757 129.206 9.91042 130.4 9.91042C130.769 9.91042 131.155 9.9625 131.541 10.1191L132.104 8.41493C131.7 8.25833 131.173 8.18889 130.804 8.18889ZM81.8781 9.05833C80.9998 8.48437 79.7881 8.18889 78.4537 8.18889C76.3286 8.18889 74.9587 9.19722 74.9587 10.8497C74.9587 12.2062 75.9776 13.041 77.8562 13.3017L78.717 13.4236C79.718 13.5625 80.192 13.8233 80.192 14.2931C80.192 14.9365 79.5248 15.3017 78.278 15.3017C77.0137 15.3017 76.1003 14.9017 75.4853 14.4323L74.6249 15.841C75.6263 16.5712 76.8906 16.9191 78.2605 16.9191C80.6839 16.9191 82.0885 15.7885 82.0885 14.2062C82.0885 12.7451 80.9823 11.9799 79.1559 11.7191L78.2955 11.5972C77.5052 11.4931 76.8731 11.3365 76.8731 10.7802C76.8731 10.1712 77.4702 9.80625 78.4712 9.80625C79.5423 9.80625 80.5784 10.2062 81.0879 10.5191L81.8781 9.05833ZM105.428 8.18889C104.374 8.18889 103.689 8.67569 103.215 9.4059V8.39757H101.406V16.7108H103.233V12.0497C103.233 10.6757 103.83 9.91042 105.024 9.91042C105.393 9.91042 105.779 9.9625 106.165 10.1191L106.728 8.41493C106.324 8.25833 105.797 8.18889 105.428 8.18889ZM89.8509 8.39757H86.8653V5.87569H85.0218V8.39757H83.3181V10.0497H85.0218V13.841C85.0218 15.7712 85.7767 16.9191 87.9365 16.9191C88.7271 16.9191 89.6401 16.6757 90.2197 16.2757L89.6931 14.7281C89.1482 15.041 88.5511 15.1976 88.0774 15.1976C87.1641 15.1976 86.8653 14.641 86.8653 13.8059V10.0497H89.8509V8.39757ZM62.5605 16.7108V11.4931C62.5605 9.52778 61.2961 8.20625 59.2591 8.18889C58.1879 8.17153 57.0814 8.50174 56.309 9.66701C55.7294 8.74549 54.816 8.18889 53.5342 8.18889C52.6383 8.18889 51.7604 8.44965 51.0756 9.42361V8.39757H49.2489V16.7108H51.0932V12.1017C51.0932 10.6583 51.901 9.89306 53.1478 9.89306C54.3595 9.89306 54.9742 10.6757 54.9742 12.0844V16.7108H56.818V12.1017C56.818 10.6583 57.6609 9.89306 58.8727 9.89306C60.1195 9.89306 60.7166 10.6757 60.7166 12.0844V16.7108H62.5605ZM40.4519 20.2455V19.7604H40.3243L40.177 20.0941L40.0297 19.7604H39.9021V20.2455H39.9922V19.8795L40.1304 20.1951H40.224L40.3618 19.8788V20.2455H40.4519ZM39.642 20.2455V19.8431H39.8057V19.7615H39.3885V19.8431H39.5526V20.2455H39.642Z" fill="#FEFEFE"/>
</g>
<defs>
<clipPath id="clip0_3_17659">
<rect width="144" height="25" fill="white"/>
</clipPath>
</defs>
</svg>
