<svg width="74" height="25" viewBox="0 0 74 25" fill="none" xmlns="http://www.w3.org/2000/svg">
<path d="M73.1349 6.78403C72.4688 4.87954 70.6535 3.51194 68.5214 3.51194H68.4768C67.0907 3.51194 65.8416 4.08881 64.9524 5.01489C64.0617 4.08881 62.8125 3.51194 61.428 3.51194H61.3834C60.165 3.51194 59.0513 3.95803 58.1959 4.69648V4.32111C58.1667 3.94726 57.859 3.65348 57.479 3.65348H54.2085C53.8085 3.65348 53.4855 3.97652 53.4855 4.37801V22.1384C53.4855 22.5399 53.8085 22.8629 54.2085 22.8629H57.479C57.8436 22.8629 58.1436 22.5907 58.1913 22.2384L58.1898 9.48845C58.1894 9.44581 58.1915 9.40318 58.1959 9.36077C58.2482 8.79157 58.6651 8.32393 59.3235 8.26545H59.9265C60.2019 8.29004 60.4342 8.38698 60.6172 8.53311C60.9018 8.75926 61.0603 9.10693 61.0603 9.48845L61.0726 22.1753C61.0726 22.5768 61.3971 22.9014 61.7956 22.9014H65.0661C65.4523 22.9014 65.7661 22.5937 65.7846 22.2107L65.7831 9.47153C65.7815 9.05308 65.9754 8.67466 66.3153 8.45004C66.483 8.34233 66.6845 8.27007 66.9168 8.24853H67.5198C68.2275 8.31006 68.6551 8.84695 68.6536 9.47153L68.6659 22.1415C68.6659 22.543 68.9905 22.866 69.3889 22.866H72.6595C73.0579 22.866 73.3825 22.543 73.3825 22.1415V8.51466C73.3825 7.58548 73.2779 7.19014 73.1349 6.78403H73.1349ZM50.9939 3.69975H49.1233V0.659949C49.1233 0.29535 48.8279 0 48.4633 0C48.4202 0 48.3787 0.00610498 48.3387 0.0138234C46.265 0.583026 46.6803 3.45516 42.8945 3.69975H42.5268C42.4714 3.69975 42.4191 3.70743 42.3684 3.7182H42.3653L42.3684 3.71972C42.0453 3.79207 41.8022 4.07817 41.8022 4.4228V7.69333C41.8022 8.09176 42.1268 8.41633 42.5268 8.41633H44.5005L44.4975 22.2847C44.4975 22.68 44.8174 23 45.2128 23H48.4464C48.8402 23 49.1602 22.68 49.1602 22.2847L49.1617 8.41633H50.9939C51.3923 8.41633 51.7169 8.09176 51.7169 7.69333V4.4228C51.7169 4.02436 51.3923 3.69979 50.9939 3.69979" fill="white"/>
<path d="M39.2269 3.69976H35.9564C35.558 3.69976 35.2349 4.02437 35.2349 4.42276V11.1854C35.2272 11.6038 34.8888 11.9392 34.4688 11.9392H33.0996C32.675 11.9392 32.332 11.5977 32.332 11.1731L32.3197 4.42281C32.3197 4.02437 31.9951 3.6998 31.5967 3.6998H28.3261C27.9262 3.6998 27.6031 4.02437 27.6031 4.42281V11.8346C27.6031 14.6498 29.6107 16.6574 32.4274 16.6574C32.4274 16.6574 34.5411 16.6574 34.6057 16.6697C34.9872 16.7127 35.2841 17.0327 35.2841 17.4265C35.2841 17.8157 34.9934 18.1342 34.6165 18.1819C34.598 18.1849 34.5811 18.1895 34.5611 18.1926L29.7783 18.2096C29.3784 18.2096 29.0553 18.5341 29.0553 18.9326V22.2016C29.0553 22.6016 29.3784 22.9246 29.7783 22.9246H35.1257C37.9439 22.9246 39.9499 20.9186 39.9499 18.1019V4.42281C39.9499 4.02437 39.6269 3.6998 39.2269 3.6998V3.69976ZM7.57027 9.69246V11.7108C7.57027 12.1338 7.22721 12.4784 6.80418 12.4784L4.72892 12.4799V8.43561H6.80418C7.22721 8.43561 7.57027 8.7771 7.57027 9.2017V9.69246ZM7.85794 3.69897H0.709181C0.316892 3.69897 0 4.01744 0 4.40816V7.61257C0 7.61872 0.00152625 7.62487 0.00152625 7.63102C0.00152625 7.64641 0 7.66181 0 7.67563V22.1793C0 22.5731 0.29535 22.8947 0.661519 22.9039H3.99353C4.39197 22.9039 4.71654 22.5808 4.71654 22.1809L4.72888 17.2104H7.8579C10.4762 17.2104 12.3007 15.3936 12.3007 12.7645V8.15103C12.3007 5.52197 10.4762 3.69902 7.8579 3.69902L7.85794 3.69897ZM21.1402 17.3707V17.8814C21.1402 17.923 21.1341 17.963 21.128 18.0014C21.1203 18.0375 21.11 18.073 21.0972 18.1076C20.9956 18.3937 20.7095 18.6014 20.3695 18.6014H19.0081C18.5835 18.6014 18.2374 18.2783 18.2374 17.8814V17.2646C18.2374 17.2569 18.2358 17.2492 18.2358 17.2415L18.2374 15.6001V15.0862L18.2389 15.0816C18.2405 14.6862 18.5835 14.3663 19.0081 14.3663H20.3695C20.7957 14.3663 21.1403 14.6878 21.1403 15.0863L21.1402 17.3707ZM20.6204 3.71777H16.0822C15.6807 3.71777 15.3561 4.02236 15.3561 4.39616V5.6684C15.3561 5.67607 15.3577 5.68532 15.3577 5.69299C15.3577 5.70224 15.3561 5.71144 15.3561 5.72068V7.46366C15.3561 7.85904 15.7007 8.18208 16.1253 8.18208H20.4465C20.788 8.23594 21.0588 8.48515 21.0973 8.87434V9.29585C21.0588 9.6666 20.7911 9.93731 20.4649 9.9681H18.3252C15.4792 9.9681 13.4516 11.8588 13.4516 14.514V18.3168C13.4516 20.9566 15.1946 22.8349 18.0205 22.8349H23.9509C25.0154 22.8349 25.8785 22.0288 25.8785 21.0366V8.62666C25.8785 5.61764 24.3278 3.71777 20.6203 3.71777H20.6204Z" fill="white"/>
</svg>
