<svg width="66" height="25" viewBox="0 0 66 25" fill="none" xmlns="http://www.w3.org/2000/svg">
<g clip-path="url(#clip0_3_17932)">
<path d="M21.5373 16.8658C21.5373 17.0046 21.4925 17.1188 21.4027 17.2086C21.3131 17.2984 21.1989 17.3433 21.0604 17.3433C20.9218 17.3433 20.8077 17.2984 20.718 17.2086C20.6283 17.1188 20.5835 17.0046 20.5835 16.8658V8.25946C20.5835 8.12071 20.6283 8.00643 20.718 7.91667C20.8077 7.82686 20.9218 7.78198 21.0604 7.78198H23.5059C24.101 7.78198 24.6309 7.91667 25.0956 8.18599C25.5683 8.44717 25.9352 8.81444 26.196 9.2878C26.4569 9.75302 26.5873 10.2876 26.5873 10.8916C26.5873 11.4874 26.4569 12.0179 26.196 12.4831C25.9352 12.9482 25.5683 13.3114 25.0956 13.5726C24.6309 13.8338 24.101 13.9644 23.5059 13.9644H21.5373V16.8658ZM23.5059 13.0462C23.9217 13.0462 24.2926 12.9564 24.6187 12.7769C24.9447 12.5892 25.1974 12.3321 25.3768 12.0056C25.5643 11.6791 25.658 11.3078 25.658 10.8916C25.658 10.4672 25.5643 10.0917 25.3768 9.76523C25.1974 9.43063 24.9447 9.16945 24.6187 8.98174C24.2926 8.79404 23.9217 8.70016 23.5059 8.70016H21.5373V13.0462H23.5059Z" fill="white"/>
<path d="M28.1439 11.1242C28.1439 10.9855 28.1887 10.8713 28.2784 10.7815C28.3681 10.6917 28.4822 10.6468 28.6208 10.6468C28.7593 10.6468 28.8694 10.6917 28.9509 10.7815C29.0406 10.8713 29.0854 10.9855 29.0854 11.1242V16.8659C29.0854 17.0046 29.0406 17.1189 28.9509 17.2087C28.8694 17.2985 28.7593 17.3434 28.6208 17.3434C28.4822 17.3434 28.3681 17.2985 28.2784 17.2087C28.1887 17.1189 28.1439 17.0046 28.1439 16.8659V11.1242ZM28.6208 8.03918C28.8001 8.03918 28.955 8.1004 29.0854 8.22282C29.2159 8.34524 29.2811 8.5044 29.2811 8.70025C29.2811 8.88796 29.2159 9.04712 29.0854 9.17773C28.955 9.3083 28.796 9.37358 28.6086 9.37358C28.4211 9.37358 28.2621 9.3083 28.1317 9.17773C28.0094 9.04712 27.9482 8.88796 27.9482 8.70025C27.9482 8.5044 28.0135 8.34524 28.1439 8.22282C28.2743 8.1004 28.4333 8.03918 28.6208 8.03918Z" fill="white"/>
<path d="M34.5272 10.5854C35.1631 10.5854 35.7378 10.7365 36.2514 11.0384C36.7731 11.3323 37.1807 11.7403 37.4741 12.2627C37.7758 12.785 37.9266 13.3645 37.9266 14.0011V16.878C37.9266 17.0086 37.8817 17.1188 37.7921 17.2086C37.7024 17.2983 37.5883 17.3432 37.4497 17.3432C37.3111 17.3432 37.197 17.3024 37.1073 17.2208C37.0176 17.131 36.9728 17.0168 36.9728 16.878V16.1435C36.6875 16.5353 36.3247 16.8454 35.8845 17.0739C35.4443 17.2943 34.9593 17.4044 34.4294 17.4044C33.8099 17.4044 33.2474 17.2575 32.742 16.9637C32.2447 16.6617 31.8494 16.2537 31.5559 15.7395C31.2706 15.2171 31.1279 14.6377 31.1279 14.0011C31.1279 13.3645 31.2747 12.785 31.5681 12.2627C31.8698 11.7403 32.2774 11.3323 32.7909 11.0384C33.3126 10.7365 33.8914 10.5854 34.5272 10.5854ZM34.5272 16.5475C34.9919 16.5475 35.4117 16.4373 35.7867 16.2169C36.1617 15.9966 36.4552 15.6946 36.6671 15.311C36.8872 14.9193 36.9973 14.4826 36.9973 14.0011C36.9973 13.5195 36.8872 13.087 36.6671 12.7034C36.4552 12.3116 36.1617 12.0056 35.7867 11.7852C35.4117 11.5567 34.9919 11.4424 34.5272 11.4424C34.0626 11.4424 33.6387 11.5567 33.2556 11.7852C32.8806 12.0056 32.583 12.3116 32.363 12.7034C32.151 13.087 32.045 13.5195 32.045 14.0011C32.045 14.4826 32.151 14.9193 32.363 15.311C32.583 15.6946 32.8806 15.9966 33.2556 16.2169C33.6387 16.4373 34.0626 16.5475 34.5272 16.5475Z" fill="white"/>
<path d="M42.069 10.5854C42.607 10.5854 43.0758 10.6793 43.4752 10.867C43.8746 11.0466 44.1966 11.2996 44.4412 11.626C44.5064 11.7321 44.539 11.826 44.539 11.9076C44.539 12.0464 44.4738 12.1566 44.3434 12.2382C44.2863 12.279 44.2089 12.2994 44.111 12.2994C43.9399 12.2994 43.7972 12.2382 43.6831 12.1157C43.2837 11.6587 42.7375 11.4302 42.0446 11.4302C41.5962 11.4302 41.2375 11.524 40.9685 11.7117C40.6995 11.8913 40.565 12.1199 40.565 12.3973C40.565 12.6912 40.6914 12.9278 40.9441 13.1074C41.1968 13.2788 41.6451 13.4175 42.2891 13.5236C43.1614 13.6705 43.785 13.9113 44.1599 14.2459C44.535 14.5724 44.7224 14.9805 44.7224 15.4702C44.7224 15.8456 44.6083 16.1802 44.3801 16.474C44.1599 16.7678 43.8502 16.9964 43.4508 17.1596C43.0513 17.3228 42.5989 17.4044 42.0935 17.4044C41.5881 17.4044 41.103 17.3187 40.6384 17.1474C40.1737 16.9759 39.7987 16.7352 39.5134 16.425C39.4319 16.3271 39.3911 16.2333 39.3911 16.1435C39.3911 16.0047 39.4563 15.8823 39.5868 15.7762C39.6846 15.7028 39.7865 15.666 39.8925 15.666C40.031 15.666 40.1492 15.7232 40.2471 15.8374C40.4427 16.066 40.6995 16.2415 41.0174 16.3639C41.3435 16.4863 41.7022 16.5475 42.0935 16.5475C42.6641 16.5475 43.0921 16.4496 43.3774 16.2537C43.6627 16.0578 43.8094 15.8007 43.8176 15.4824C43.8176 15.1886 43.6749 14.9437 43.3896 14.7478C43.1043 14.552 42.6519 14.4051 42.0323 14.3072C41.2335 14.1765 40.6343 13.9521 40.2348 13.6338C39.8436 13.3074 39.6479 12.9156 39.6479 12.4585C39.6479 11.8628 39.8761 11.4016 40.3327 11.0751C40.7973 10.7487 41.3761 10.5854 42.069 10.5854Z" fill="white"/>
<path d="M49.2967 16.4007C49.4271 16.4007 49.5331 16.4456 49.6145 16.5353C49.6959 16.6251 49.7366 16.7394 49.7366 16.8781C49.7366 17.0087 49.6876 17.1189 49.59 17.2087C49.4919 17.2984 49.3697 17.3434 49.2231 17.3434H48.9663C48.5343 17.3434 48.1471 17.2413 47.8047 17.0373C47.4623 16.8251 47.1933 16.5435 46.9977 16.1925C46.8102 15.8335 46.7164 15.4295 46.7164 14.9806V11.7119H45.9216C45.7912 11.7119 45.6852 11.6751 45.6037 11.6017C45.5303 11.52 45.4937 11.4221 45.4937 11.3079C45.4937 11.1854 45.5303 11.0875 45.6037 11.014C45.6852 10.9324 45.7912 10.8916 45.9216 10.8916H46.7164V8.99403C46.7164 8.85533 46.7572 8.74105 46.8387 8.65129C46.9283 8.56148 47.0425 8.5166 47.1811 8.5166C47.3197 8.5166 47.4338 8.56148 47.5234 8.65129C47.6131 8.74105 47.6579 8.85533 47.6579 8.99403V10.8916H49.0397C49.1701 10.8916 49.2721 10.9324 49.3452 11.014C49.4271 11.0875 49.4678 11.1854 49.4678 11.3079C49.4678 11.4221 49.4271 11.52 49.3452 11.6017C49.2721 11.6751 49.1701 11.7119 49.0397 11.7119H47.6579V14.9806C47.6579 15.3968 47.7802 15.7396 48.0248 16.0089C48.2694 16.2701 48.5832 16.4007 48.9663 16.4007H49.2967Z" fill="white"/>
<path d="M54.2894 10.5734C54.6318 10.5734 54.901 10.6182 55.0962 10.708C55.3003 10.7978 55.4023 10.9243 55.4023 11.0875C55.4023 11.1365 55.3979 11.1733 55.39 11.1977C55.3572 11.312 55.3042 11.3895 55.2311 11.4303C55.1659 11.4711 55.0722 11.4915 54.9496 11.4915C54.8765 11.4915 54.75 11.4834 54.5705 11.4671C54.5052 11.4589 54.4076 11.4548 54.2772 11.4548C53.666 11.4548 53.1643 11.618 52.7733 11.9445C52.3903 12.271 52.1985 12.6954 52.1985 13.2177V16.8782C52.1985 17.0251 52.1578 17.1394 52.0764 17.221C51.9945 17.3026 51.8807 17.3434 51.734 17.3434C51.5869 17.3434 51.4731 17.3026 51.3917 17.221C51.3098 17.1394 51.269 17.0251 51.269 16.8782V11.1121C51.269 10.9651 51.3098 10.8509 51.3917 10.7693C51.4731 10.6876 51.5869 10.6468 51.734 10.6468C51.8807 10.6468 51.9945 10.6876 52.0764 10.7693C52.1578 10.8509 52.1985 10.9651 52.1985 11.1121V11.6507C52.4349 11.3079 52.7366 11.0427 53.1034 10.8549C53.4703 10.6672 53.8656 10.5734 54.2894 10.5734Z" fill="white"/>
<path d="M57.0653 11.1242C57.0653 10.9855 57.1105 10.8713 57.2002 10.7815C57.2895 10.6917 57.4038 10.6468 57.5426 10.6468C57.6809 10.6468 57.7907 10.6917 57.8727 10.7815C57.9619 10.8713 58.0071 10.9855 58.0071 11.1242V16.8659C58.0071 17.0046 57.9619 17.1189 57.8727 17.2087C57.7907 17.2985 57.6809 17.3434 57.5426 17.3434C57.4038 17.3434 57.2895 17.2985 57.2002 17.2087C57.1105 17.1189 57.0653 17.0046 57.0653 16.8659V11.1242ZM57.5426 8.03918C57.7216 8.03918 57.8766 8.1004 58.0071 8.22282C58.1375 8.34524 58.2028 8.5044 58.2028 8.70025C58.2028 8.88796 58.1375 9.04712 58.0071 9.17773C57.8766 9.3083 57.7177 9.37358 57.5303 9.37358C57.3425 9.37358 57.1835 9.3083 57.0531 9.17773C56.9309 9.04712 56.8696 8.88796 56.8696 8.70025C56.8696 8.5044 56.9349 8.34524 57.0653 8.22282C57.1958 8.1004 57.3547 8.03918 57.5426 8.03918Z" fill="white"/>
<path d="M65.3564 16.6087C65.4462 16.723 65.4908 16.8332 65.4908 16.9393C65.4908 17.0536 65.4462 17.1515 65.3564 17.2331C65.275 17.3065 65.1813 17.3433 65.0754 17.3433C64.9773 17.3433 64.8959 17.327 64.8306 17.2943C64.7654 17.2617 64.7041 17.2045 64.6472 17.1229L62.6416 14.5643L60.563 17.1964C60.4899 17.2943 60.3795 17.3433 60.2329 17.3433C60.1024 17.3433 59.9965 17.3025 59.915 17.2209C59.8415 17.1392 59.8052 17.0413 59.8052 16.9271C59.8052 16.7964 59.8459 16.6863 59.9273 16.5965L62.0427 13.9522L60.0372 11.4057C59.9558 11.316 59.915 11.2058 59.915 11.0752C59.915 10.9528 59.9518 10.8508 60.0249 10.7692C60.0985 10.6875 60.2044 10.6467 60.3432 10.6467C60.4815 10.6467 60.5998 10.6957 60.6978 10.7936L62.6661 13.3278L64.6104 10.8671C64.7247 10.7202 64.8591 10.6467 65.0141 10.6467C65.1445 10.6467 65.2466 10.6875 65.3196 10.7692C65.4011 10.8508 65.4418 10.9487 65.4418 11.0629C65.4418 11.1854 65.3971 11.3037 65.3074 11.418L63.2778 13.9399L65.3564 16.6087Z" fill="white"/>
<path d="M11.5626 10.2507C11.5225 10.2642 11.4803 10.2747 11.4412 10.2924C10.9485 10.496 10.5402 10.8653 10.285 11.3379C10.0298 11.8107 9.94329 12.3579 10.0401 12.8877C10.0524 12.9575 10.0648 13.0273 10.0822 13.0961C10.0997 13.1649 10.1214 13.2348 10.1451 13.3046C10.3132 13.7716 10.6163 14.1765 11.015 14.4667C11.0489 14.4897 11.0819 14.5126 11.1179 14.5345C11.193 14.5816 11.2707 14.6243 11.3506 14.6626C11.4061 14.6908 11.4627 14.7179 11.5215 14.7419C11.7967 14.8528 12.09 14.9104 12.3862 14.9118C12.414 14.9118 12.4397 14.9044 12.4665 14.9034V14.8951C12.7793 14.8807 13.0871 14.8102 13.3755 14.6866C13.9116 14.4499 14.3421 14.0206 14.5841 13.4816C14.8262 12.9426 14.8627 12.3319 14.6865 11.7672C14.5103 11.2026 14.134 10.724 13.63 10.4236C13.126 10.1232 12.53 10.0223 11.9569 10.1402C11.9229 10.1475 11.8899 10.1527 11.8539 10.1611C11.7551 10.1845 11.6577 10.2144 11.5626 10.2507Z" fill="white"/>
<mask id="mask0_3_17932" style="mask-type:alpha" maskUnits="userSpaceOnUse" x="0" y="0" width="16" height="25">
<path d="M10.2459 10.1351C9.40925 8.79827 8.92196 7.4113 8.78399 5.97439C7.56721 4.97381 5.62702 4.48254 2.96345 4.5006C2.89778 5.59329 3.05983 6.68774 3.43907 7.71289H3.4123C3.68848 8.37283 4.0735 8.98048 4.55088 9.50976C4.55163 9.52001 4.55439 9.52997 4.55898 9.53909C4.56357 9.54821 4.56992 9.55631 4.57764 9.56298C4.74622 9.75029 4.93241 9.92068 5.13355 10.0716C6.30511 10.9804 7.69317 11.5432 9.29772 11.76C9.44574 11.1345 9.77608 10.5683 10.2459 10.1351Z" fill="url(#paint0_linear_3_17932)"/>
<path d="M5.13283 16.4482H5.106C4.34768 17.6093 3.86246 19.2703 3.65039 21.4313C4.81711 21.6099 5.89322 21.5563 6.87879 21.2708C7.72791 21.0133 8.51277 20.5747 9.18061 19.9847V19.9575L9.33918 19.797H9.36802C10.4228 18.6672 11.1263 17.2615 11.4784 15.58C10.9961 15.4344 10.555 15.1747 10.1915 14.8223C8.57398 15.8902 6.88772 16.4322 5.13283 16.4482Z" fill="url(#paint1_linear_3_17932)"/>
<path d="M4.60374 10.7427C4.4281 10.6004 4.26038 10.4484 4.10136 10.2872C2.86602 10.6263 1.49889 11.4032 0 12.6177C0.611892 13.5271 1.41661 14.2866 2.3554 14.8409C3.13183 15.2899 4.00198 15.5471 4.89508 15.5914H5.13291C6.71142 15.5761 8.22126 15.0963 9.66253 14.152C9.38654 13.6879 9.23204 13.1602 9.21364 12.6188C7.44915 12.3804 5.91253 11.7551 4.60374 10.7427Z" fill="url(#paint2_linear_3_17932)"/>
<path d="M14.064 9.78696C14.8978 8.48621 15.3693 7.14377 15.4784 5.75959V5.70648C15.4966 5.53751 15.5056 5.36775 15.5052 5.19785C15.4942 4.20842 15.23 3.2388 14.7383 2.38368C14.2462 1.49288 13.5159 0.698324 12.5475 0H12.5414C11.571 0.694851 10.839 1.48976 10.3455 2.38472C9.85383 3.23984 9.58961 4.20946 9.57863 5.19888C9.57823 5.36878 9.58721 5.53858 9.60536 5.70751V5.76062C9.71037 7.09546 10.1537 8.3917 10.9354 9.64939C11.4236 9.3936 11.9694 9.27181 12.5185 9.29614C13.0676 9.32047 13.6008 9.49008 14.065 9.78799L14.064 9.78696Z" fill="url(#paint3_linear_3_17932)"/>
<path d="M15.1871 19.2612V19.2341C15.0224 17.918 14.5656 16.6274 13.8169 15.3621C13.371 15.594 12.8769 15.7148 12.3756 15.7143C12.355 15.7143 12.3345 15.7143 12.3138 15.7143C11.9282 17.562 11.1486 19.1104 9.97495 20.3598C9.97132 20.3592 9.96759 20.3595 9.96416 20.3607C9.96063 20.3619 9.95744 20.3639 9.95489 20.3666C9.95229 20.3692 9.95033 20.3724 9.94915 20.3759C9.94797 20.3794 9.94768 20.3832 9.94817 20.3869C9.94871 20.3905 9.94836 20.3943 9.94719 20.3978C9.94606 20.4013 9.94405 20.4046 9.94145 20.4072C9.93885 20.4098 9.93571 20.4117 9.93223 20.413C9.92879 20.4141 9.92507 20.4144 9.92139 20.4139C10.1863 21.789 11.0065 23.3177 12.3818 25C13.2655 24.3609 14.0052 23.5392 14.5519 22.5892C14.9396 21.8965 15.1828 21.1306 15.2663 20.3389C15.2334 20.2919 15.2151 20.236 15.2138 20.1784C15.2497 19.873 15.2406 19.5639 15.1871 19.2612Z" fill="url(#paint4_linear_3_17932)"/>
</mask>
<g mask="url(#mask0_3_17932)">
<path d="M15.7942 0H0V24.9948H15.7942V0Z" fill="white"/>
</g>
</g>
<defs>
<linearGradient id="paint0_linear_3_17932" x1="3.0566" y1="4.59088" x2="9.17775" y2="10.7048" gradientUnits="userSpaceOnUse">
<stop stop-color="#FF4081"/>
<stop offset="1" stop-color="#FFA73F"/>
</linearGradient>
<linearGradient id="paint1_linear_3_17932" x1="11.7183" y1="14.7928" x2="3.55876" y2="21.4145" gradientUnits="userSpaceOnUse">
<stop stop-color="#FFA73F"/>
<stop offset="1" stop-color="#FF4081"/>
</linearGradient>
<linearGradient id="paint2_linear_3_17932" x1="9.68029" y1="14.0277" x2="-0.000393328" y2="12.7555" gradientUnits="userSpaceOnUse">
<stop stop-color="#FFA73F"/>
<stop offset="1" stop-color="#FF4081"/>
</linearGradient>
<linearGradient id="paint3_linear_3_17932" x1="12.5419" y1="0" x2="12.5419" y2="9.78799" gradientUnits="userSpaceOnUse">
<stop stop-color="#FF4081"/>
<stop offset="1" stop-color="#FFA73F"/>
</linearGradient>
<linearGradient id="paint4_linear_3_17932" x1="12.5939" y1="15.3621" x2="12.5939" y2="25" gradientUnits="userSpaceOnUse">
<stop stop-color="#FFA73F"/>
<stop offset="1" stop-color="#FF4081"/>
</linearGradient>
<clipPath id="clip0_3_17932">
<rect width="66" height="25" fill="white"/>
</clipPath>
</defs>
</svg>
