<svg width="62" height="25" viewBox="0 0 62 25" fill="none" xmlns="http://www.w3.org/2000/svg">
<g clip-path="url(#clip0_3_17992)">
<path d="M1.48254 21.039H1.9275L1.51402 22.766C1.45266 23.0223 1.46422 23.2152 1.54904 23.3439C1.63354 23.4727 1.7908 23.5371 2.02067 23.5371C2.2491 23.5371 2.43641 23.4727 2.58275 23.3439C2.72925 23.2152 2.83319 23.0223 2.89455 22.766L3.30787 21.039H3.75862L3.33502 22.8088C3.24297 23.1933 3.07896 23.4812 2.84411 23.672C2.60909 23.8632 2.30099 23.9586 1.91979 23.9586C1.53828 23.9586 1.2766 23.8634 1.13411 23.673C0.991463 23.4828 0.966564 23.1946 1.05893 22.8088L1.48254 21.039Z" fill="white"/>
<path d="M3.69873 23.883L4.4065 20.9265L5.75137 22.6651C5.78735 22.7141 5.82366 22.7666 5.85948 22.8224C5.8953 22.8781 5.93193 22.9407 5.96952 23.0108L6.44163 21.0391H6.85817L6.15088 23.9934L4.77774 22.2238C4.74095 22.1761 4.70674 22.1257 4.67477 22.0725C4.64248 22.0193 4.61341 21.9636 4.58674 21.9054L4.11334 23.883H3.69873Z" fill="white"/>
<path d="M6.82129 23.8831L7.50208 21.0391H7.95251L7.27188 23.8831H6.82129Z" fill="white"/>
<path d="M7.91992 23.8831L8.60071 21.0391H10.1477L10.0537 21.4314H8.95733L8.78753 22.1404H9.88389L9.78686 22.5464H8.69034L8.37051 23.8831H7.91992Z" fill="white"/>
<path d="M9.96289 23.8831L10.6437 21.0391H11.0941L10.4135 23.8831H9.96289Z" fill="white"/>
<path d="M11.061 23.8831L11.7418 21.0391H13.2888L13.1948 21.4314H12.0984L11.9277 22.1443H13.024L12.927 22.5504H11.8307L11.6106 23.4693H12.7069L12.608 23.8831H11.061Z" fill="white"/>
<path d="M13.676 23.4652H14.0548C14.263 23.4652 14.4226 23.4509 14.5336 23.4225C14.6446 23.3941 14.7465 23.346 14.8398 23.2787C14.9666 23.187 15.0724 23.0726 15.1576 22.9359C15.2425 22.7994 15.307 22.6402 15.3503 22.4588C15.3935 22.2775 15.4054 22.1188 15.3858 21.9824C15.3661 21.8455 15.315 21.7313 15.2323 21.6393C15.1701 21.5721 15.088 21.5239 14.9855 21.4953C14.8829 21.4671 14.7158 21.4528 14.4835 21.4528H14.3206H14.1578L13.676 23.4652ZM13.1255 23.8831L13.8063 21.0389H14.414C14.8091 21.0389 15.0822 21.0592 15.2335 21.1C15.3845 21.141 15.5094 21.2094 15.6075 21.3051C15.7378 21.4307 15.8207 21.592 15.8563 21.7887C15.8918 21.9856 15.8793 22.2103 15.8189 22.4629C15.7585 22.7154 15.6636 22.9391 15.5341 23.134C15.4049 23.329 15.2448 23.4898 15.0543 23.6167C14.9102 23.7126 14.7556 23.7809 14.5915 23.8219C14.4268 23.8625 14.1814 23.8831 13.8543 23.8831H13.733H13.1255Z" fill="white"/>
<path d="M18.0127 22.228H18.1284C18.3782 22.228 18.5515 22.1999 18.6482 22.1443C18.7451 22.0887 18.8102 21.9902 18.8439 21.849C18.8802 21.6976 18.8614 21.5906 18.7872 21.5286C18.713 21.4664 18.5568 21.4351 18.3183 21.4351H18.2026L18.0127 22.228ZM17.8937 22.6065L17.5882 23.8831H17.166L17.847 21.0391H18.5286C18.7305 21.0391 18.8765 21.0504 18.9665 21.073C19.0561 21.0955 19.1301 21.1329 19.1886 21.1848C19.2598 21.2508 19.3065 21.3398 19.329 21.4518C19.3513 21.5639 19.3465 21.6873 19.3144 21.8217C19.2819 21.9565 19.2277 22.0808 19.1512 22.1949C19.0747 22.3088 18.9851 22.3983 18.8826 22.4628C18.7994 22.5147 18.7077 22.5517 18.6071 22.5735C18.5064 22.5957 18.3552 22.6065 18.1533 22.6065H18.0645H17.8937Z" fill="white"/>
<path d="M19.8708 22.766H20.6433L20.5143 22.117C20.5082 22.0758 20.5024 22.0282 20.4975 21.9744C20.4928 21.9206 20.4896 21.8607 20.4875 21.7946C20.4576 21.8568 20.4276 21.9148 20.3975 21.9686C20.3677 22.0223 20.3386 22.0717 20.31 22.117L19.8708 22.766ZM20.8494 23.8829L20.7101 23.1506H19.6119L19.1147 23.8829H18.6416L20.6915 20.9264L21.3246 23.8829H20.8494Z" fill="white"/>
<path d="M21.9701 23.8831L22.2814 22.5814L21.7173 21.0391H22.1907L22.5409 22.0045C22.5489 22.0293 22.5586 22.0616 22.5696 22.1017C22.5809 22.1419 22.5918 22.1851 22.6021 22.2319C22.6304 22.1866 22.6594 22.1435 22.6885 22.1035C22.7176 22.0633 22.747 22.0266 22.7767 21.9928L23.6013 21.0391H24.052L22.7283 22.5814L22.4169 23.8831H21.9701Z" fill="white"/>
<path d="M26.2698 22.4784C26.2699 22.4564 26.2764 22.3956 26.2889 22.2959C26.2985 22.213 26.3061 22.1442 26.3116 22.0898C26.2847 22.1547 26.2531 22.2196 26.2168 22.2841C26.1803 22.3489 26.1385 22.4149 26.0908 22.4824L25.0028 23.9977L24.6478 22.4514C24.6327 22.3878 24.6212 22.3262 24.6134 22.2668C24.6057 22.2072 24.6004 22.1482 24.5979 22.0898C24.5824 22.1495 24.5628 22.2119 24.5389 22.2774C24.515 22.3428 24.4864 22.4112 24.4528 22.4824L23.8202 23.883H23.4058L24.7704 20.9184L25.1588 22.7135C25.1644 22.742 25.1726 22.7894 25.1826 22.8554C25.1925 22.9214 25.2043 23.003 25.2179 23.1C25.2639 23.0184 25.3301 22.915 25.4171 22.7894C25.4402 22.7556 25.4579 22.7298 25.4698 22.7116L26.6982 20.9184L26.6589 23.883H26.2402L26.2698 22.4784Z" fill="white"/>
<path d="M27.0186 23.8831L27.6995 21.0391H29.2465L29.1525 21.4314H28.056L27.8854 22.1443H28.9817L28.8847 22.5504H27.7882L27.5683 23.4693H28.6646L28.5653 23.8831H27.0186Z" fill="white"/>
<path d="M29.0825 23.883L29.7903 20.9265L31.1352 22.6651C31.1711 22.7141 31.2074 22.7666 31.2433 22.8224C31.2791 22.8781 31.3157 22.9407 31.3533 23.0108L31.8254 21.0391H32.2421L31.5347 23.9934L30.1615 22.2238C30.1247 22.1761 30.0905 22.1257 30.0586 22.0725C30.0263 22.0193 29.9972 21.9636 29.9705 21.9054L29.4971 23.883H29.0825Z" fill="white"/>
<path d="M33.68 21.4314L33.0931 23.8831H32.6426L33.2292 21.4314H32.4927L32.5866 21.0391H34.5066L34.4128 21.4314H33.68Z" fill="white"/>
<path d="M34.1476 23.3137L34.5482 23.1429C34.5522 23.2696 34.5914 23.3665 34.6663 23.4332C34.7411 23.5 34.8492 23.5332 34.9909 23.5332C35.1246 23.5332 35.2402 23.495 35.3373 23.4186C35.4344 23.3422 35.4985 23.2399 35.5292 23.1117C35.5692 22.9445 35.4695 22.7956 35.2309 22.665C35.1975 22.6456 35.1718 22.6313 35.1541 22.6221C34.8851 22.4693 34.7145 22.331 34.6425 22.2073C34.5707 22.0836 34.5559 21.9325 34.5986 21.7539C34.6541 21.5221 34.7758 21.3343 34.9636 21.1905C35.1514 21.0467 35.3695 20.9748 35.6184 20.9748C35.8229 20.9748 35.9843 21.0152 36.1024 21.0962C36.2206 21.1773 36.2881 21.2935 36.3048 21.4449L35.9082 21.6314C35.8738 21.5421 35.8285 21.4768 35.7723 21.4351C35.7159 21.3937 35.6446 21.373 35.5589 21.373C35.4378 21.373 35.3337 21.4056 35.2468 21.47C35.1604 21.5349 35.1037 21.6216 35.0775 21.7306C35.0367 21.9015 35.1551 22.0607 35.4328 22.2083C35.4542 22.2199 35.4709 22.2292 35.4829 22.2356C35.726 22.3649 35.8841 22.4917 35.9565 22.6154C36.0291 22.7392 36.0434 22.8936 35.9989 23.0786C35.9345 23.3482 35.8007 23.5622 35.5973 23.7207C35.394 23.8793 35.1514 23.9586 34.8701 23.9586C34.6338 23.9586 34.4537 23.903 34.3297 23.7916C34.2054 23.6802 34.1447 23.521 34.1476 23.3137Z" fill="white"/>
<path d="M37.4766 23.8831L38.1573 21.0391H38.6079L37.9272 23.8831H37.4766Z" fill="white"/>
<path d="M38.5752 23.883L39.283 20.9265L40.6278 22.6651C40.6638 22.7141 40.7001 22.7666 40.7359 22.8224C40.7718 22.8781 40.8084 22.9407 40.846 23.0108L41.3181 21.0391H41.7346L41.0273 23.9934L39.6542 22.2238C39.6174 22.1761 39.583 22.1257 39.5511 22.0725C39.5189 22.0193 39.4897 21.9636 39.463 21.9054L38.9898 23.883H38.5752Z" fill="white"/>
<path d="M43.1721 21.4314L42.5852 23.8831H42.1347L42.7214 21.4314H41.9849L42.0788 21.0391H43.9988L43.905 21.4314H43.1721Z" fill="white"/>
<path d="M43.6631 23.8831L44.3439 21.0391H45.8908L45.797 21.4314H44.7007L44.5299 22.1443H45.6263L45.5291 22.5504H44.4327L44.2128 23.4693H45.3092L45.21 23.8831H43.6631Z" fill="white"/>
<path d="M46.5683 22.251H46.6499C46.8883 22.251 47.0536 22.2227 47.1455 22.1657C47.2374 22.1087 47.301 22.0078 47.3354 21.8626C47.3729 21.706 47.3575 21.5954 47.2886 21.5315C47.2203 21.4671 47.0724 21.4351 46.8453 21.4351H46.7636L46.5683 22.251ZM46.4539 22.6104L46.1492 23.8829H45.7271L46.408 21.039H47.0366C47.2208 21.039 47.3609 21.0512 47.4565 21.0759C47.5522 21.1005 47.6293 21.1412 47.6876 21.1983C47.757 21.2668 47.802 21.3558 47.8229 21.4645C47.8433 21.5731 47.838 21.6923 47.8072 21.8216C47.7527 22.0496 47.6563 22.228 47.5182 22.357C47.38 22.4857 47.203 22.5633 46.9873 22.589L47.6321 23.8829H47.1225L46.505 22.6104H46.4539Z" fill="white"/>
<path d="M47.8989 23.8831L48.5797 21.0391H50.1267L50.0329 21.4314H48.9363L48.7665 22.1404H49.8631L49.7659 22.5464H48.6695L48.3495 23.8831H47.8989Z" fill="white"/>
<path d="M50.6491 22.766H51.4218L51.2928 22.117C51.2865 22.0758 51.2809 22.0282 51.2759 21.9744C51.2713 21.9206 51.2681 21.8607 51.266 21.7946C51.2359 21.8568 51.2059 21.9148 51.176 21.9686C51.1461 22.0223 51.1169 22.0717 51.0883 22.117L50.6491 22.766ZM51.6279 23.8829L51.4886 23.1506H50.3903L49.8932 23.8829H49.4199L51.4698 20.9264L52.1031 23.8829H51.6279Z" fill="white"/>
<path d="M55.0362 21.7306C54.9355 21.6192 54.8208 21.5357 54.692 21.48C54.5635 21.4245 54.4208 21.3964 54.2642 21.3964C53.9614 21.3964 53.6909 21.4962 53.4533 21.6955C53.2154 21.8951 53.0586 22.1534 52.9826 22.4708C52.9092 22.7778 52.9412 23.0308 53.0784 23.2301C53.2155 23.4296 53.425 23.5296 53.7063 23.5296C53.8706 23.5296 54.0338 23.4997 54.1964 23.4401C54.359 23.3805 54.523 23.2905 54.688 23.1699L54.5628 23.6926C54.4203 23.7819 54.2724 23.8487 54.1193 23.8926C53.966 23.9366 53.8062 23.9586 53.6396 23.9586C53.4276 23.9586 53.24 23.9231 53.0772 23.8518C52.9143 23.7806 52.7812 23.6759 52.6782 23.5371C52.5757 23.4012 52.51 23.241 52.4819 23.0563C52.4533 22.8719 52.4641 22.6753 52.5139 22.4666C52.5638 22.2583 52.6472 22.0624 52.7637 21.8792C52.88 21.6959 53.0237 21.5349 53.1943 21.3964C53.3656 21.2565 53.5487 21.1508 53.7437 21.0787C53.9389 21.007 54.1402 20.9709 54.3472 20.9709C54.5101 20.9709 54.6595 20.9953 54.7956 21.044C54.9316 21.0923 55.0573 21.1658 55.1728 21.2645L55.0362 21.7306Z" fill="white"/>
<path d="M55.0796 23.8831L55.7604 21.0391H57.3073L57.2133 21.4314H56.1172L55.9464 22.1443H57.0427L56.9456 22.5504H55.8492L55.6293 23.4693H56.7257L56.6265 23.8831H55.0796Z" fill="white"/>
<path d="M46.8608 18.5608H43.7632L48.0712 3.00213H51.1689L46.8608 18.5608Z" fill="white"/>
<path d="M45.2524 3.49394C45.0376 3.19788 44.7064 3.04849 44.2564 3.04849H27.223L26.3793 6.09581H29.4786V6.09404H41.875L40.9731 9.35051H28.5765L28.5776 9.34376H25.4795L22.9082 18.6266H26.0079L27.7335 12.3961H41.6682C42.1034 12.3961 42.513 12.2476 42.8982 11.9508C43.2826 11.6536 43.5356 11.2872 43.6569 10.8496L45.3823 4.61777C45.5083 4.16557 45.4648 3.79032 45.2524 3.49394Z" fill="white"/>
<path d="M21.1034 17.5895C20.9323 18.2055 20.3714 18.6317 19.7319 18.6317H3.74976C3.31427 18.6317 2.99059 18.4833 2.77774 18.1867C2.56505 17.8899 2.51943 17.5227 2.64104 17.0852L6.5407 3.04751H9.64119L6.15806 15.5854H18.5603L22.0434 3.04751H25.1433L21.1034 17.5895Z" fill="white"/>
<path d="M56.5188 3.03116L60.4406 10.8307L52.1963 18.6281L56.5188 3.03116Z" fill="white"/>
<path d="M53.7696 3.03116L57.6886 10.8307L49.4409 18.6281L53.7696 3.03116Z" fill="white"/>
</g>
<defs>
<clipPath id="clip0_3_17992">
<rect width="59.4419" height="21" fill="white" transform="translate(1 3)"/>
</clipPath>
</defs>
</svg>
