<svg width="58" height="25" viewBox="0 0 58 25" fill="none" xmlns="http://www.w3.org/2000/svg">
<g clip-path="url(#clip0_3_18059)">
<path d="M27.3922 13.2367V19.9785H25.2534V3.32912H30.9259C31.603 3.31498 32.2762 3.43507 32.9066 3.68245C33.537 3.92984 34.1123 4.29963 34.599 4.77048C35.0907 5.21275 35.482 5.75514 35.7467 6.36121C36.0113 6.96727 36.1432 7.62297 36.1334 8.28422C36.1475 8.94901 36.0176 9.60899 35.7528 10.2189C35.488 10.8288 35.0944 11.3743 34.599 11.8179C33.6071 12.7637 32.3827 13.2362 30.9259 13.2353H27.3922V13.2367ZM27.3922 5.37891V11.1909H30.979C31.3722 11.2025 31.7636 11.132 32.128 10.9837C32.4924 10.8355 32.8218 10.6129 33.0952 10.33C33.3672 10.0656 33.5834 9.74928 33.7311 9.39983C33.8787 9.05038 33.9548 8.67487 33.9548 8.29551C33.9548 7.91615 33.8787 7.54065 33.7311 7.19119C33.5834 6.84174 33.3672 6.52544 33.0952 6.261C32.8252 5.97221 32.4969 5.7441 32.1321 5.5918C31.7673 5.43949 31.3742 5.36648 30.979 5.37758H27.3922V5.37891ZM41.0619 8.21514C42.6428 8.21514 43.8906 8.63759 44.8055 9.48248C45.7203 10.3274 46.1773 11.4858 46.1764 12.9577V19.9785H44.1306V18.3977H44.0376C43.152 19.6996 41.9741 20.3505 40.504 20.3505C39.249 20.3505 38.1991 19.9785 37.3542 19.2346C36.9488 18.8932 36.6246 18.4655 36.4053 17.9829C36.1861 17.5003 36.0773 16.9749 36.0869 16.4449C36.0869 15.2661 36.5324 14.3286 37.4233 13.6325C38.3143 12.9364 39.5036 12.5875 40.9915 12.5857C42.2615 12.5857 43.3074 12.8182 44.1293 13.2832V12.7943C44.1317 12.433 44.0537 12.0757 43.9009 11.7482C43.7481 11.4208 43.5244 11.1315 43.2459 10.9013C42.6803 10.391 41.9432 10.1125 41.1815 10.1215C39.9868 10.1215 39.0414 10.6254 38.3452 11.6332L36.4615 10.4469C37.4977 8.95907 39.0312 8.21514 41.0619 8.21514V8.21514ZM38.2948 16.4914C38.2933 16.7636 38.357 17.0322 38.4804 17.2748C38.6038 17.5174 38.7833 17.7271 39.0042 17.8862C39.4772 18.2583 40.0643 18.4554 40.666 18.4442C41.5686 18.4427 42.4337 18.0834 43.0719 17.4452C43.7804 16.7783 44.1346 15.9958 44.1346 15.0978C43.4677 14.5664 42.5378 14.3008 41.3449 14.3008C40.4761 14.3008 39.7516 14.5102 39.1715 14.9291C38.5857 15.3542 38.2948 15.871 38.2948 16.4914V16.4914ZM57.9199 8.58711L50.7782 25H48.5703L51.2205 19.2572L46.5245 8.58711H48.8493L52.2434 16.7703H52.2899L55.5911 8.58711H57.9199Z" fill="white"/>
<path d="M18.7493 11.7833C18.7501 11.1315 18.695 10.4809 18.5846 9.8385H9.56445V13.5223H14.7308C14.6251 14.1106 14.4013 14.6715 14.073 15.171C13.7447 15.6706 13.3186 16.0985 12.8205 16.4289V18.8201H15.9038C17.7092 17.1556 18.7493 14.694 18.7493 11.7833Z" fill="white"/>
<path d="M9.56444 21.1302C12.1456 21.1302 14.319 20.2827 15.9038 18.8214L12.8205 16.4302C11.9623 17.012 10.857 17.3441 9.56444 17.3441C7.06962 17.3441 4.95208 15.6623 4.19487 13.396H1.01855V15.8603C1.81465 17.4444 3.03537 18.7761 4.54444 19.7067C6.0535 20.6373 7.79152 21.1301 9.56444 21.1302V21.1302Z" fill="white"/>
<path d="M4.19479 13.3961C3.79448 12.2085 3.79448 10.9225 4.19479 9.7349V7.27063H1.01848C0.34878 8.60326 0 10.074 0 11.5655C0 13.0569 0.34878 14.5277 1.01848 15.8604L4.19479 13.3961Z" fill="white"/>
<path d="M9.56444 5.7867C10.9285 5.76441 12.2465 6.27978 13.2336 7.22142L15.9636 4.49146C14.2325 2.86555 11.9392 1.97289 9.56444 2.00063C7.79152 2.00071 6.0535 2.49355 4.54444 3.42414C3.03537 4.35473 1.81465 5.68643 1.01855 7.27057L4.19487 9.73483C4.95208 7.46851 7.06962 5.7867 9.56444 5.7867V5.7867Z" fill="white"/>
</g>
<defs>
<clipPath id="clip0_3_18059">
<rect width="58" height="25" fill="white"/>
</clipPath>
</defs>
</svg>
