<svg width="23" height="25" viewBox="0 0 23 25" fill="none" xmlns="http://www.w3.org/2000/svg">
<path d="M2.0884 1.00058C8.35305 1.00058 14.6179 1.00035 20.8826 1.00058C21.0227 1.00291 21.1642 0.995223 21.3038 1.0078C21.5172 1.03457 21.7205 1.07066 21.9143 1.16822C22.1034 1.25972 22.282 1.36519 22.4265 1.51979C22.7434 1.81502 22.9486 2.22248 22.9932 2.65298C23.0004 2.74914 22.9985 2.84646 22.999 2.94309C22.999 9.33802 22.999 15.733 22.999 22.1279C23.0226 22.8006 22.6257 23.455 22.032 23.7684C21.7098 23.95 21.3183 24.0099 20.9526 23.9987C14.6021 23.9985 8.25174 23.9987 1.90117 23.9987C1.57804 23.988 1.26403 23.9256 0.977099 23.7721C0.722383 23.6413 0.508994 23.4488 0.345101 23.215C0.101593 22.8804 -0.0102377 22.4695 0.000734469 22.0583C0.00190239 15.671 0.00073448 9.28354 0.00143428 2.89629C-0.000433438 2.63412 0.0509287 2.37079 0.150154 2.12795C0.221127 1.95123 0.33833 1.78568 0.452494 1.63411C0.555455 1.49697 0.688531 1.41059 0.827678 1.31397C1.07259 1.14703 1.36045 1.04761 1.65486 1.01711C1.79937 0.995224 1.94296 1.00058 2.0884 1.00058Z" fill="white"/>
<path d="M21.5663 5.16266C21.6597 5.13293 21.7653 5.13269 21.8623 5.14158C22.1108 5.17179 22.3267 5.34604 22.4206 5.5765C22.4724 5.69617 22.4712 5.83786 22.4588 5.96572C22.4082 6.29663 22.1012 6.55239 21.7672 6.54817C21.4166 6.55685 21.1014 6.27181 21.0651 5.92451C21.0215 5.58632 21.24 5.25799 21.5663 5.16266Z" fill="black"/>
<path d="M21.6368 5.23262C21.7846 5.19446 21.9513 5.23145 22.082 5.30615C22.2541 5.40476 22.363 5.58766 22.3843 5.78299C22.404 5.97011 22.3258 6.17059 22.1881 6.29846C21.9953 6.47925 21.6824 6.51533 21.4557 6.37807C21.2047 6.23617 21.0806 5.91342 21.1796 5.64082C21.2492 5.43426 21.4244 5.2797 21.6368 5.23262Z" fill="white"/>
<path d="M21.5165 5.44008C21.6285 5.41759 21.7859 5.42041 21.8967 5.44945C21.9948 5.47897 22.0271 5.57075 22.0233 5.66539C22.0243 5.7478 21.9805 5.8019 21.9353 5.86491C22.0367 5.97124 22.0161 6.08787 22.0343 6.22299C22.0341 6.24408 22.0435 6.27709 22.0224 6.29068C21.9725 6.29209 21.9224 6.28929 21.8725 6.28787C21.8615 6.16844 21.8608 6.05344 21.829 5.93681C21.7777 5.93446 21.7266 5.93236 21.6756 5.93025C21.666 6.0497 21.6685 6.16796 21.6681 6.28763C21.6161 6.28787 21.5643 6.28763 21.5123 6.28694C21.4969 6.10519 21.5072 5.92042 21.5041 5.73774C21.5055 5.64033 21.4955 5.53563 21.5165 5.44008Z" fill="black"/>
<path d="M21.6802 5.5615C21.7278 5.55963 21.7765 5.56267 21.8242 5.56454C21.8476 5.62849 21.883 5.67767 21.8479 5.74629C21.8237 5.81701 21.7334 5.79593 21.6746 5.8081C21.669 5.72849 21.6608 5.63948 21.6802 5.5615Z" fill="white"/>
<path d="M21.2525 7.02021C21.498 6.9956 21.7657 7.01599 21.987 7.13355C22.1748 7.23027 22.3135 7.41832 22.383 7.61435C22.4568 7.83707 22.472 8.08204 22.461 8.31508C22.4378 8.34551 22.3833 8.34903 22.3484 8.36075C22.087 8.41789 21.8256 8.47596 21.5657 8.53943C21.5045 8.55443 21.4425 8.56379 21.3802 8.57223C21.3788 8.47268 21.38 8.37409 21.3657 8.27526C21.3509 8.16026 21.3319 8.0242 21.2603 7.92935C21.1975 7.84926 21.0947 7.82559 20.9975 7.8345C20.7624 7.85908 20.5647 8.01273 20.4542 8.21764C20.3492 8.41132 20.3226 8.66027 20.3059 8.8769C20.294 9.20339 20.2921 9.53219 20.3083 9.85843C20.3336 10.0474 20.3474 10.2678 20.4408 10.4371C20.5057 10.5547 20.6345 10.5919 20.761 10.5908C20.9024 10.5776 21.0521 10.5449 21.1591 10.4451C21.2685 10.3486 21.3331 10.2132 21.3535 10.0699C21.3703 9.91135 21.3795 9.75234 21.3825 9.59285C21.6437 9.52517 21.9097 9.47387 22.1718 9.40947C22.2673 9.38559 22.3634 9.36426 22.4603 9.34694C22.4713 9.77903 22.4205 10.25 22.1835 10.6226C21.9685 10.9652 21.6151 11.2093 21.2385 11.3458C20.9593 11.4474 20.6598 11.5114 20.3631 11.5268C20.1884 11.5276 19.9975 11.5163 19.838 11.4388C19.5937 11.3219 19.4125 11.1067 19.3216 10.8528C19.1239 10.3153 19.1139 9.72237 19.1408 9.15676C19.1612 8.7919 19.2443 8.43475 19.4045 8.10547C19.5989 7.70287 19.9745 7.39046 20.3886 7.23238C20.664 7.1216 20.9582 7.05439 21.2525 7.02021Z" fill="black"/>
<path d="M17.4586 7.92153C17.6345 7.90047 17.8092 7.89695 17.9842 7.92857C18.2495 7.96978 18.4816 8.17939 18.5551 8.43678C18.6137 8.63163 18.6441 8.83631 18.639 9.03983C18.6357 9.49277 18.6429 9.94546 18.6418 10.3982C18.6429 10.6464 18.6383 10.8954 18.6469 11.1436C18.6706 11.3891 18.6682 11.6122 18.8064 11.8275C18.5191 11.9015 18.2265 11.9603 17.9392 12.0338C17.8814 12.0472 17.8115 12.0654 17.7528 12.0509C17.6902 11.9425 17.6628 11.8057 17.6261 11.6858C17.5265 11.8446 17.4275 11.998 17.2851 12.1226C17.0869 12.3062 16.8225 12.3977 16.5647 12.461C16.3567 12.5137 16.1298 12.5172 15.9249 12.4493C15.7504 12.3926 15.6153 12.2551 15.511 12.1094C15.4063 11.9621 15.3593 11.7706 15.3394 11.5935C15.3277 11.3197 15.3312 11.0396 15.4537 10.7881C15.5904 10.4932 15.8499 10.2768 16.1265 10.1176C16.4396 9.92299 16.815 9.80262 17.1471 9.64219C17.2762 9.5731 17.4076 9.47216 17.4799 9.34264C17.534 9.22649 17.5467 9.07472 17.5174 8.95059C17.4919 8.84429 17.4223 8.74943 17.3108 8.72648C17.2111 8.71453 17.1019 8.72248 17.0054 8.7513C16.798 8.81522 16.6263 8.99604 16.5879 9.21173C16.5734 9.30704 16.5757 9.40448 16.5649 9.5005C16.3619 9.55412 16.157 9.59909 15.9527 9.64804C15.8082 9.68199 15.6715 9.72907 15.5225 9.74265C15.5199 9.61783 15.5176 9.49207 15.5291 9.3677C15.5541 9.13936 15.6597 8.91453 15.782 8.72248C15.8705 8.58103 15.9918 8.48244 16.1211 8.38079C16.3075 8.23443 16.5321 8.13584 16.756 8.06253C16.9841 7.98734 17.2197 7.94331 17.4586 7.92153Z" fill="black"/>
<path d="M15.2438 8.44531C15.2496 8.7999 15.2527 9.15752 15.2463 9.51184C15.0648 9.52099 14.8883 9.53879 14.7194 9.61069C14.543 9.67555 14.3864 9.77907 14.2784 9.93528C14.1243 10.1568 14.0894 10.4154 14.0765 10.6789C14.0721 11.4306 14.0798 12.1829 14.0725 12.9346C13.8107 13.0016 13.5463 13.059 13.2835 13.1218C13.1728 13.1487 13.0617 13.1735 12.9491 13.1909C12.9461 13.111 12.9451 13.0311 12.9453 12.9513C12.9468 11.6599 12.9442 10.3683 12.9465 9.07695C13.0919 9.02942 13.2388 9.00036 13.3875 8.9636C13.5957 8.91629 13.8018 8.86195 14.0107 8.81863C14.0154 8.99686 14.0044 9.17554 14.0149 9.35331C14.0768 9.26102 14.1234 9.16056 14.1828 9.06689C14.2974 8.88303 14.4559 8.72613 14.6363 8.60667C14.8192 8.48817 15.0283 8.44766 15.2438 8.44531Z" fill="black"/>
<path d="M2.24043 9.09473C2.24441 9.23265 2.24278 9.37037 2.24278 9.50832C2.24254 11.421 2.24278 13.3335 2.24254 15.2461C2.23974 15.3953 2.25308 15.5506 2.2292 15.6963C1.83692 15.7801 1.44862 15.886 1.05564 15.9663C1.05001 15.7888 1.05446 15.611 1.05353 15.4335C1.05376 13.4023 1.05259 11.3709 1.054 9.33992C1.22355 9.29495 1.39592 9.26802 1.56712 9.23055C1.79148 9.18606 2.01443 9.13148 2.24043 9.09473Z" fill="black"/>
<path d="M8.21461 9.25806C8.22048 9.55948 8.2125 9.86135 8.2165 10.163C8.48581 10.1246 8.74883 10.0365 9.01862 10C9.02095 10.2777 9.02188 10.556 9.01767 10.834C8.75233 10.9035 8.48347 10.959 8.21765 11.0281C8.21298 11.7548 8.21789 12.4818 8.21695 13.2087C8.21367 13.4336 8.23219 13.66 8.28651 13.8788C8.31765 14.0048 8.37316 14.1188 8.42891 14.2352C8.02397 14.3258 7.62164 14.4298 7.21576 14.5155C7.12256 14.2776 7.10711 13.9954 7.08133 13.7427C7.06307 13.5481 7.07196 13.3525 7.05627 13.1574C7.04458 12.8237 7.05557 12.4888 7.05371 12.1548C7.07033 11.8687 7.07314 11.5808 7.0619 11.2944C6.87454 11.3286 6.69584 11.3937 6.50779 11.4253C6.50357 11.1424 6.50427 10.8583 6.50779 10.5752C6.69397 10.529 6.88343 10.4995 7.06916 10.4503C7.07268 10.1405 7.06377 9.8309 7.06892 9.52107C7.45206 9.44002 7.83029 9.333 8.21461 9.25806Z" fill="black"/>
<path d="M11.3222 9.39767C11.5602 9.39089 11.8225 9.4431 12.0185 9.58433C12.2049 9.71922 12.3246 9.91642 12.393 10.1333C12.5229 10.5431 12.511 10.937 12.5096 11.3602C12.5051 11.3952 12.5183 11.4401 12.4763 11.4549C12.3904 11.4886 12.2948 11.5003 12.2051 11.5221C11.5698 11.6663 10.9351 11.8127 10.2997 11.9567C10.2763 12.1509 10.2868 12.3495 10.3231 12.5413C10.3557 12.6895 10.4203 12.8446 10.5655 12.9132C10.8122 13.0287 11.1297 12.9177 11.2754 12.6935C11.3901 12.535 11.4196 12.3511 11.4079 12.1591C11.5688 12.1078 11.7318 12.079 11.8955 12.0382C12.0768 11.9935 12.2588 11.9509 12.4407 11.9073C12.4464 12.208 12.4126 12.5214 12.2951 12.8005C12.152 13.1116 11.8951 13.3657 11.5988 13.5327C11.4114 13.6294 11.2133 13.7076 11.0098 13.7631C10.7496 13.8413 10.4695 13.8914 10.1971 13.8786C9.94515 13.8664 9.70815 13.7491 9.53414 13.5685C9.38237 13.3987 9.2901 13.1685 9.23062 12.9514C9.15989 12.6961 9.15194 12.4413 9.14772 12.1788C9.12874 11.894 9.15709 11.5998 9.18917 11.3164C9.23646 10.9551 9.34466 10.5724 9.55592 10.271C9.66014 10.1213 9.77373 9.97217 9.91705 9.85835C10.1199 9.69112 10.3569 9.59792 10.6028 9.51361C10.8342 9.44101 11.0791 9.39557 11.3222 9.39767Z" fill="black"/>
<path d="M17.5166 10.1228C17.5162 10.2928 17.5129 10.4626 17.5117 10.6326C17.5129 10.7673 17.5143 10.8931 17.4691 11.0221C17.4143 11.1706 17.334 11.3116 17.2056 11.4081C17.0812 11.5043 16.9199 11.5739 16.7599 11.5573C16.6552 11.5444 16.5541 11.4966 16.5044 11.3987C16.448 11.2987 16.4569 11.1872 16.4585 11.0762C16.4602 10.9284 16.5354 10.7809 16.6325 10.6727C16.7503 10.5486 16.9157 10.4596 17.0707 10.3912C17.2279 10.3207 17.3707 10.2144 17.5166 10.1228Z" fill="white"/>
<path d="M11.1616 10.2266C11.2786 10.2673 11.347 10.3704 11.3801 10.4851C11.4243 10.6533 11.4314 10.8352 11.4206 11.0083C11.1171 11.079 10.8135 11.1505 10.5103 11.2224C10.4398 11.2395 10.3693 11.2528 10.2976 11.2634C10.2918 11.0812 10.3217 10.9018 10.3695 10.7266C10.4299 10.5158 10.5894 10.3202 10.8007 10.2483C10.9196 10.2085 11.0395 10.1809 11.1616 10.2266Z" fill="white"/>
<path d="M5.66994 10.8012C5.84371 10.8501 5.98914 10.974 6.07089 11.134C6.17463 11.3295 6.1936 11.5626 6.19923 11.7801C6.19969 12.6542 6.19923 13.5289 6.19945 14.4032C6.19945 14.5242 6.20556 14.6432 6.18728 14.7636C5.81326 14.8502 5.43973 14.9385 5.06595 15.0268C5.06008 14.1085 5.06689 13.1893 5.06243 12.271C5.06008 12.1303 5.02963 11.9542 4.92963 11.8483C4.83713 11.7513 4.69709 11.7542 4.5767 11.7869C4.41371 11.8401 4.265 11.9605 4.18045 12.1099C4.09777 12.2502 4.05398 12.4136 4.04976 12.5759C4.04765 13.2486 4.05187 13.9214 4.04765 14.594C3.90527 14.5158 3.77997 14.4305 3.62213 14.3828C3.38089 14.3083 3.13218 14.3326 2.89844 14.4207C2.89823 13.5094 2.90477 12.598 2.90501 11.6865C2.90477 11.6014 2.90594 11.5167 2.91109 11.4317C3.26802 11.3497 3.62282 11.2548 3.98184 11.1844C3.98512 11.3323 3.97762 11.479 3.98771 11.626C4.0713 11.5303 4.12916 11.4185 4.21464 11.3244C4.40784 11.1075 4.65914 10.9286 4.93785 10.8422C5.17554 10.7715 5.42708 10.726 5.66994 10.8012Z" fill="black"/>
<path d="M3.20238 14.7077C3.52651 14.6515 3.85392 14.8424 3.9867 15.1386C4.08014 15.3288 4.05908 15.5756 4.06634 15.7848C4.05228 16.3703 4.05532 16.9564 4.03215 17.5412C4.03119 18.0246 4.01622 18.496 4.06071 18.9785C4.07077 19.0523 4.0914 19.1188 4.16752 19.1474C4.25228 19.1942 4.3633 19.1272 4.37313 19.0338C4.39656 18.6605 4.4106 18.2897 4.38343 17.9162C4.37921 17.308 4.36352 16.6986 4.37921 16.0906C4.53472 16.1867 4.68343 16.2918 4.83449 16.3944C5.12091 16.593 5.41296 16.7829 5.70197 16.9775C5.90524 17.1162 6.10665 17.237 6.30314 17.3834C6.42025 17.4714 6.51814 17.582 6.58067 17.7152C6.66661 17.9052 6.68793 18.1303 6.69495 18.3363C6.69567 18.9769 6.69284 19.6174 6.69145 20.2579C6.69167 20.3598 6.67856 20.4605 6.67856 20.5624C6.67808 21.5867 6.67576 22.6114 6.67272 23.6357C6.53594 23.6456 6.40058 23.6416 6.26356 23.6416C5.7015 23.6418 5.13943 23.6416 4.57735 23.6418C4.44526 23.6409 4.32348 23.6538 4.19397 23.6196C3.86447 23.5365 3.55109 23.402 3.28036 23.194C3.06023 23.0179 2.8874 22.7816 2.77896 22.5219C2.61243 22.1263 2.56607 21.6671 2.56959 21.2416C2.56863 19.3603 2.56981 17.4787 2.56887 15.5974C2.57074 15.4625 2.5567 15.3328 2.60565 15.2049C2.69465 14.9477 2.93141 14.7454 3.20238 14.7077Z" fill="black"/>
<path d="M2.24977 16.067C2.25282 16.4516 2.25399 16.8375 2.24906 17.2221C1.9973 17.2926 1.74039 17.3443 1.48652 17.4071C1.27106 17.457 1.03522 17.4734 0.84693 17.3368C0.601491 17.1546 0.491185 16.7778 0.633107 16.5008C0.681117 16.4092 0.766365 16.3982 0.857234 16.3745C1.14998 16.3092 1.44226 16.2434 1.7336 16.1726C1.9055 16.1364 2.0767 16.082 2.24977 16.067Z" fill="black"/>
<path d="M2.24971 17.5887C2.25486 17.9749 2.25064 18.3616 2.25206 18.748C2.08365 18.804 1.91246 18.8309 1.7408 18.8747C1.59466 18.9084 1.44782 18.9487 1.2991 18.9689C1.10542 19.0012 0.891833 18.929 0.759279 18.7839C0.578479 18.5899 0.508689 18.2672 0.633279 18.0272C0.686443 17.9239 0.807756 17.9164 0.907758 17.889C1.35601 17.7948 1.79982 17.6719 2.24971 17.5887Z" fill="black"/>
<path d="M2.25027 19.095C2.25283 19.4875 2.25144 19.8802 2.25075 20.2727C1.99662 20.3374 1.74019 20.3908 1.48585 20.4545C1.30388 20.4987 1.07718 20.5149 0.909727 20.4154C0.620025 20.2538 0.489344 19.865 0.6226 19.5612C0.653047 19.494 0.702696 19.4591 0.773658 19.4425C1.26664 19.3266 1.75682 19.2132 2.25027 19.095Z" fill="black"/>
</svg>
