<svg width="80" height="25" viewBox="0 0 80 25" fill="none" xmlns="http://www.w3.org/2000/svg">
<path d="M7.20688 16.2617C7.31873 16.2617 7.42973 16.2782 7.5415 16.2819C8.1214 16.3379 8.68674 16.5628 9.15207 16.9149C9.5557 17.2193 9.88456 17.6182 10.1099 18.072C10.2786 18.4317 10.3956 18.8123 10.4234 19.2106C10.4434 19.3845 10.4487 19.5588 10.4261 19.7326C10.3787 20.4323 10.0815 21.1137 9.61381 21.6321C9.15144 22.1449 8.52543 22.5019 7.85026 22.6363C7.71123 22.6606 7.57749 22.6873 7.43588 22.6859C7.43308 21.9814 7.4365 21.2764 7.43448 20.5719C7.43385 20.4903 7.4337 20.4087 7.43829 20.3269C7.56993 20.2779 7.69471 20.2254 7.79815 20.1266C8.05161 19.9049 8.15061 19.5321 8.04266 19.2124C7.93462 18.8699 7.60335 18.6232 7.24707 18.6134C7.06149 18.6056 6.87847 18.6624 6.72509 18.7666C6.45434 18.9458 6.30117 19.2885 6.35667 19.6109C6.38373 19.8077 6.49115 19.993 6.63518 20.1268C6.73623 20.22 6.85659 20.2718 6.98211 20.3222C7.00201 20.5093 6.98092 20.7032 6.98549 20.892C6.9851 21.4887 6.9843 22.0851 6.9837 22.6818C6.84763 22.6858 6.71913 22.6611 6.58624 22.6355C6.3312 22.5861 6.0897 22.4998 5.85318 22.393C5.06361 22.0247 4.43777 21.3274 4.16304 20.4957C4.07014 20.201 4.00848 19.9013 4.00091 19.5915C3.99972 19.4043 3.99514 19.22 4.02757 19.0346C4.0779 18.7233 4.1517 18.4235 4.28996 18.1388C4.44672 17.7995 4.66256 17.4826 4.92834 17.2201C5.24603 16.8915 5.63693 16.6408 6.06265 16.479C6.42809 16.3325 6.81521 16.2707 7.20688 16.2617Z" fill="white"/>
<path d="M12.5435 16.3811C12.7594 16.3473 12.9945 16.3651 13.2046 16.4249C13.2052 16.6624 13.2054 16.8999 13.2026 17.1374C13.0857 17.0825 12.9927 17.0145 12.8567 17.0188C12.754 17.0139 12.6516 17.0756 12.616 17.174C12.5978 17.2286 12.6146 17.2812 12.643 17.3285C12.7622 17.5109 12.9377 17.6202 13.0739 17.7739C13.2062 17.9275 13.2263 18.1372 13.2251 18.3323C13.2293 18.4935 13.1817 18.6529 13.0862 18.783C12.9627 18.9503 12.7841 19.0671 12.5851 19.123C12.3349 19.2 12.0725 19.1934 11.8195 19.1325C11.8141 18.8923 11.8173 18.6514 11.8181 18.4109C11.9207 18.4365 12.0126 18.4741 12.1211 18.4664C12.2189 18.4695 12.3144 18.4235 12.3659 18.3384C12.3981 18.2886 12.3977 18.218 12.3888 18.1616C12.3667 18.0919 12.3017 18.0321 12.2537 17.9789C12.1097 17.8243 11.9422 17.669 11.8692 17.4651C11.8184 17.3368 11.8205 17.1912 11.8378 17.0566C11.868 16.8903 11.936 16.7277 12.0591 16.6094C12.1908 16.4763 12.3619 16.4103 12.5435 16.3811Z" fill="white"/>
<path d="M26.6764 16.4675C26.8875 16.4624 27.1019 16.4714 27.314 16.4647C27.3351 16.5688 27.322 16.6658 27.3258 16.7721C27.3234 16.9253 27.3283 17.079 27.3219 17.2323C27.309 17.3397 27.3281 17.4447 27.3163 17.5524C27.3321 17.7144 27.3184 17.8761 27.3273 18.0383C27.4071 17.9355 27.4564 17.8088 27.5209 17.6958C27.6041 17.5456 27.679 17.3911 27.7626 17.2413C27.9747 17.2435 28.1867 17.239 28.3986 17.2439C28.3867 17.276 28.3749 17.3079 28.359 17.3383C28.2179 17.6042 28.0685 17.8683 27.9299 18.135C27.9593 18.2286 28.0218 18.3138 28.0634 18.403C28.2062 18.6609 28.3407 18.9232 28.4835 19.1811C28.2697 19.1864 28.0554 19.1826 27.8416 19.1829C27.7852 19.1035 27.7433 19.0169 27.6973 18.9315C27.5822 18.7188 27.463 18.5083 27.3476 18.2958C27.3152 18.3258 27.3248 18.3732 27.3223 18.4133C27.3244 18.669 27.3237 18.9246 27.3227 19.1804C27.1069 19.1833 26.8909 19.1811 26.6751 19.1797C26.671 18.4973 26.6752 17.8147 26.6738 17.1322C26.6764 16.9135 26.6687 16.6842 26.6764 16.4675Z" fill="white"/>
<path d="M33.1242 16.485C33.1429 16.6879 33.1322 16.8937 33.1371 17.0971C33.055 17.1049 32.9543 17.0899 32.8897 17.1525C32.8559 17.1823 32.8636 17.2164 32.8596 17.257C32.9519 17.2606 33.0442 17.2578 33.1365 17.2614C33.1342 17.4481 33.1368 17.6347 33.136 17.8212C33.045 17.8226 32.9541 17.82 32.8632 17.8246C32.857 18.282 32.8636 18.7401 32.8595 19.1975C32.6466 19.1989 32.4331 19.2009 32.2203 19.1955C32.219 18.7389 32.2235 18.282 32.2185 17.8254C32.1682 17.8228 32.1178 17.8194 32.0675 17.8172C32.0669 17.6327 32.0695 17.4482 32.0699 17.2636C32.1184 17.2594 32.1665 17.2538 32.2149 17.2484C32.2264 17.1543 32.2189 17.0623 32.2415 16.9725C32.2672 16.8694 32.3022 16.7736 32.3742 16.6937C32.462 16.5969 32.5795 16.5451 32.706 16.5221C32.8429 16.4971 32.9849 16.4813 33.1242 16.485Z" fill="white"/>
<path d="M34.8493 16.4982C34.8845 16.487 34.9201 16.4861 34.9567 16.4864C35.1319 16.4879 35.3074 16.4857 35.4827 16.487C35.4895 16.9621 35.4817 17.4379 35.4845 17.9131C35.4832 18.3452 35.4859 18.7777 35.4819 19.2096C35.2704 19.2043 35.0586 19.2061 34.8469 19.2024C34.8435 18.6125 34.8465 18.0225 34.8457 17.4329C34.8467 17.1218 34.8425 16.8089 34.8493 16.4982Z" fill="white"/>
<path d="M39.9628 16.5007C40.1756 16.4973 40.3895 16.4997 40.6025 16.5003C40.5971 16.715 40.6087 16.9305 40.5975 17.1447C40.3851 17.1429 40.172 17.1471 39.9596 17.1403C39.9594 16.9272 39.9572 16.7135 39.9628 16.5007Z" fill="white"/>
<path d="M14.0856 16.6085C14.0926 16.7964 14.0747 16.9869 14.0926 17.1739C14.1738 17.1787 14.2547 17.1772 14.3359 17.1786C14.3412 17.3679 14.3379 17.5577 14.338 17.7474C14.2527 17.7458 14.1688 17.7422 14.0846 17.7598C14.0862 17.9244 14.083 18.0893 14.0848 18.2539C14.0884 18.3118 14.0886 18.3876 14.1359 18.4288C14.1946 18.4854 14.3014 18.4792 14.3768 18.4872C14.3347 18.6999 14.2845 18.9108 14.2392 19.1227C14.1015 19.1659 13.9589 19.1717 13.8159 19.1621C13.6931 19.1505 13.5748 19.0827 13.5217 18.9674C13.4721 18.8582 13.4542 18.7329 13.4486 18.6139C13.4482 18.3306 13.4495 18.0471 13.4498 17.7636C13.4089 17.753 13.3673 17.7445 13.3257 17.7355C13.329 17.5513 13.3253 17.3666 13.3322 17.1826C13.3709 17.1769 13.4097 17.1714 13.4482 17.165C13.4508 17.1057 13.4427 17.0379 13.4633 16.9821C13.4952 16.9533 13.5346 16.9317 13.5714 16.91C13.7444 16.8124 13.9131 16.707 14.0856 16.6085Z" fill="white"/>
<path d="M17.005 16.6176C17.0205 16.8054 16.9988 16.9955 17.0135 17.184C17.0963 17.1834 17.1789 17.1826 17.2614 17.1866C17.2566 17.3785 17.2721 17.5734 17.2534 17.7642C17.1723 17.7618 17.0911 17.7606 17.0102 17.7638C17.0067 17.9472 17.0081 18.1311 17.0089 18.3144C17.0052 18.3907 17.0519 18.4602 17.1259 18.4791C17.1811 18.4881 17.2383 18.4867 17.2939 18.4897C17.2632 18.707 17.2008 18.9203 17.1586 19.1357C17.0074 19.1697 16.8528 19.1801 16.699 19.1619C16.588 19.1467 16.486 19.0801 16.4359 18.9779C16.3841 18.8738 16.3688 18.7476 16.3674 18.6326C16.3678 18.3721 16.3682 18.1117 16.3696 17.8511C16.3666 17.8258 16.3732 17.7857 16.3531 17.7672C16.3201 17.7564 16.2855 17.7496 16.2517 17.742C16.25 17.5562 16.2518 17.3702 16.2518 17.1846C16.2898 17.1826 16.328 17.1812 16.366 17.1788C16.3682 17.1187 16.3696 17.0586 16.3704 16.9983C16.4336 16.9547 16.4993 16.9157 16.5661 16.8779C16.7133 16.7927 16.8572 16.7014 17.005 16.6176Z" fill="white"/>
<path d="M24.7655 17.2264C24.9781 17.2228 25.1922 17.2267 25.4051 17.226C25.4158 17.2882 25.416 17.3509 25.4192 17.4137C25.4805 17.3615 25.529 17.3071 25.6063 17.2774C25.7218 17.2309 25.8401 17.2303 25.9621 17.2426C26.1423 17.2652 26.3283 17.3797 26.4043 17.5497C26.4858 17.7281 26.4652 17.9421 26.4675 18.1324C26.4721 18.2404 26.4501 18.3448 26.4649 18.4525C26.4691 18.598 26.4687 18.747 26.4648 18.8925C26.4544 18.9889 26.4592 19.0848 26.4603 19.1812C26.2465 19.1774 26.0325 19.183 25.8188 19.1778C25.816 18.809 25.819 18.4395 25.818 18.0712C25.8238 17.9588 25.7428 17.8427 25.6259 17.8391C25.5033 17.8305 25.414 17.9575 25.4142 18.071C25.4135 18.4395 25.4166 18.8085 25.4124 19.1769C25.1954 19.181 24.9783 19.1768 24.7613 19.1786C24.761 18.5495 24.7617 17.9203 24.7617 17.2913C24.7619 17.2695 24.7631 17.2479 24.7655 17.2264Z" fill="white"/>
<path d="M35.8267 17.2679C36.0426 17.2612 36.2604 17.2661 36.4767 17.2671C36.4763 17.3271 36.4759 17.387 36.4791 17.447C36.5728 17.3699 36.6605 17.3009 36.7852 17.2849C36.9356 17.2721 37.084 17.2681 37.2208 17.3415C37.3867 17.4148 37.4948 17.58 37.5187 17.7579C37.5386 17.9014 37.5246 18.05 37.5284 18.1947C37.5248 18.5362 37.532 18.8783 37.525 19.2198C37.3114 19.2189 37.0955 19.229 36.8825 19.2126C36.8748 18.8403 36.8827 18.4671 36.8791 18.0947C36.8809 18.0086 36.8276 17.9282 36.751 17.8915C36.7096 17.8779 36.6599 17.8781 36.6175 17.8875C36.5184 17.9262 36.4749 18.0326 36.4765 18.1336C36.4737 18.4922 36.4765 18.8509 36.4751 19.2094C36.3796 19.2265 36.2861 19.2186 36.1896 19.2194C36.0662 19.2182 35.9455 19.2266 35.8228 19.2072C35.8234 18.643 35.8244 18.0786 35.8235 17.5144C35.8256 17.4326 35.8198 17.3497 35.8267 17.2679Z" fill="white"/>
<path d="M39.9611 17.2984C40.1735 17.2922 40.3878 17.2956 40.6005 17.2989C40.5997 17.9398 40.5998 18.5813 40.5991 19.2223C40.3822 19.2249 40.1654 19.2227 39.9486 19.2224C39.9476 18.8594 39.949 18.496 39.95 18.1329C39.9671 17.8553 39.9532 17.5761 39.9611 17.2984Z" fill="white"/>
<path fill-rule="evenodd" clip-rule="evenodd" d="M19.2297 17.8328C19.1354 17.5815 18.9434 17.3652 18.6915 17.2676C18.3028 17.1075 17.8216 17.2225 17.5518 17.5481C17.309 17.8396 17.2676 18.2764 17.4311 18.6163C17.5707 18.9182 17.8606 19.1369 18.1905 19.1779C18.387 19.1965 18.5861 19.1817 18.7749 19.1216C18.8779 19.0923 18.9744 19.0446 19.0602 18.98C19.0809 18.9693 19.0806 18.9389 19.0803 18.9139C19.0802 18.9064 19.0801 18.8993 19.0807 18.8934C19.08 18.7698 19.0724 18.6472 19.0649 18.5244C19.0615 18.4697 19.0582 18.415 19.0554 18.3602C18.8919 18.4873 18.7087 18.5807 18.5044 18.6186C18.4974 18.6191 18.4904 18.6197 18.4834 18.6201C18.3965 18.6262 18.2986 18.6331 18.2179 18.6017C18.2045 18.5714 18.2183 18.5606 18.2364 18.5464C18.2415 18.5424 18.247 18.5381 18.2523 18.533C18.4428 18.3981 18.6336 18.2619 18.824 18.1259C18.8861 18.0815 18.9481 18.0373 19.01 17.993C19.0252 17.9823 19.0406 17.9717 19.0558 17.9611C19.1149 17.92 19.174 17.8789 19.2297 17.8328ZM18.3658 17.8857C18.422 17.848 18.479 17.8099 18.5155 17.7563C18.4236 17.6987 18.3293 17.6609 18.2202 17.6941C18.0426 17.7412 17.925 17.9108 17.9199 18.0915C17.9195 18.1258 17.9216 18.1596 17.9238 18.1937V18.1941C18.003 18.1519 18.0754 18.0974 18.1477 18.0428C18.1925 18.009 18.2373 17.9753 18.2837 17.9444C18.309 17.9237 18.3373 17.9047 18.3658 17.8857Z" fill="white"/>
<path fill-rule="evenodd" clip-rule="evenodd" d="M31.7899 17.5996C31.5783 17.3176 31.2208 17.1698 30.8727 17.2097C30.6584 17.2454 30.4565 17.3329 30.301 17.4883C30.0411 17.736 29.9305 18.1346 30.0378 18.4799C30.1042 18.711 30.2577 18.9069 30.4557 19.0397C30.658 19.1648 30.9151 19.2302 31.1508 19.1865C31.3503 19.1574 31.5433 19.0653 31.6875 18.9227C31.8771 18.7412 31.9936 18.4767 31.9904 18.2126C31.9967 17.9941 31.9216 17.7728 31.7899 17.5996ZM31.3347 18.1011C31.2799 17.9235 31.071 17.7958 30.8911 17.8635C30.7827 17.9003 30.6921 17.9831 30.6572 18.0943C30.6296 18.2176 30.6438 18.3465 30.7342 18.4411C30.8649 18.5882 31.1042 18.5959 31.2424 18.4555C31.3378 18.3638 31.3749 18.2284 31.3347 18.1011Z" fill="white"/>
<path fill-rule="evenodd" clip-rule="evenodd" d="M39.4508 16.5068C39.329 16.506 39.2072 16.5053 39.089 16.5083C39.0655 16.5778 39.0704 16.64 39.0755 16.703C39.0793 16.7513 39.0833 16.8001 39.0745 16.8532C39.0676 16.8998 39.0715 16.9444 39.0755 16.9894C39.078 17.017 39.0804 17.0447 39.0804 17.0731C39.0804 17.099 39.0803 17.1249 39.0803 17.1509C39.0803 17.2027 39.0803 17.2546 39.0799 17.3066C39.0531 17.2992 39.0267 17.2915 39.0006 17.2838C38.9079 17.2565 38.8174 17.2299 38.7178 17.2255C38.531 17.2191 38.3466 17.2671 38.1835 17.358C37.9117 17.5132 37.7263 17.7999 37.6928 18.1122C37.6813 18.2753 37.6867 18.4352 37.749 18.5884C37.8898 18.9684 38.2744 19.2309 38.6772 19.2252C38.8065 19.2323 38.9241 19.1957 39.0458 19.1576C39.0536 19.1654 39.0602 19.1741 39.0666 19.1825C39.0844 19.2058 39.1007 19.2271 39.1361 19.2224C39.2829 19.2219 39.4295 19.2223 39.5763 19.2227C39.6253 19.2228 39.6742 19.223 39.7232 19.2231C39.7252 18.8234 39.725 18.4239 39.7247 18.0243C39.7245 17.6338 39.7243 17.2433 39.7262 16.853C39.726 16.8155 39.7263 16.7781 39.7266 16.7407C39.7272 16.6627 39.7278 16.5848 39.724 16.5069C39.6341 16.5079 39.5425 16.5073 39.4508 16.5068ZM38.7678 17.879C38.7001 17.8546 38.6342 17.8664 38.5676 17.8869C38.3919 17.9478 38.2873 18.1477 38.3424 18.3277C38.3851 18.491 38.5493 18.6022 38.7156 18.5842C38.9069 18.5684 39.0562 18.3867 39.0398 18.1951C39.0144 18.047 38.9147 17.9188 38.7678 17.879Z" fill="white"/>
<path fill-rule="evenodd" clip-rule="evenodd" d="M21.7673 16.4475C21.4818 16.4468 21.1924 16.4467 20.9068 16.4468C20.8782 16.455 20.8796 16.4808 20.881 16.5058C20.8814 16.5147 20.8819 16.5234 20.8811 16.5313C20.8821 17.408 20.8825 18.2849 20.8799 19.1617C21.0819 19.1677 21.2844 19.1661 21.4869 19.1644C21.6268 19.1633 21.7668 19.1621 21.9066 19.1635C22.0478 19.1676 22.1886 19.1485 22.3196 19.0932C22.4934 19.0214 22.6323 18.8676 22.6943 18.6899C22.7831 18.4394 22.756 18.1401 22.5895 17.928C22.5348 17.8587 22.4622 17.824 22.3851 17.7872C22.3825 17.786 22.38 17.7847 22.3774 17.7836C22.3763 17.7789 22.3752 17.7741 22.3742 17.7693C22.3731 17.7646 22.372 17.7599 22.3709 17.7552C22.5641 17.7061 22.7104 17.5411 22.7514 17.347C22.8199 17.0757 22.7001 16.783 22.4743 16.6241C22.2579 16.4727 22.0229 16.455 21.7673 16.4475ZM21.8819 17.0455C21.9593 17.0511 22.0212 17.1203 22.0365 17.1936C22.047 17.2724 22.0455 17.358 21.9957 17.4242C21.9633 17.4681 21.9171 17.4929 21.8634 17.4989C21.7913 17.5044 21.7182 17.5023 21.6457 17.5001H21.6456C21.6314 17.4997 21.617 17.4992 21.6028 17.4989C21.5994 17.3486 21.5972 17.1965 21.6036 17.0463C21.6947 17.0385 21.7906 17.0397 21.8819 17.0455ZM21.5986 18.0439C21.7009 18.0379 21.8115 18.0319 21.9121 18.0507C22.0319 18.1135 22.0565 18.2588 22.0261 18.3808C22.005 18.4584 21.9553 18.5366 21.8686 18.5456C21.8196 18.5485 21.7703 18.5481 21.721 18.5477C21.6809 18.5474 21.6408 18.547 21.6008 18.5485C21.5909 18.382 21.5936 18.2105 21.5986 18.0439Z" fill="white"/>
<path fill-rule="evenodd" clip-rule="evenodd" d="M15.0469 17.1969C14.9582 17.1974 14.8696 17.1979 14.781 17.1976C14.7773 17.1985 14.771 17.1985 14.7636 17.1984C14.7436 17.1983 14.7167 17.1983 14.7184 17.2154C14.716 17.2454 14.7136 17.2753 14.7111 17.3052C14.7016 17.4191 14.6921 17.5326 14.69 17.6472C14.7749 17.6455 14.86 17.6453 14.945 17.6451C15.0244 17.645 15.1039 17.6448 15.1832 17.6434C15.2487 17.643 15.3308 17.647 15.3874 17.684C15.456 17.7354 15.4675 17.8263 15.4714 17.9061C15.3185 17.8516 15.1624 17.8533 15.0031 17.8647C14.6983 17.9043 14.4474 18.179 14.4518 18.4913C14.4317 18.8057 14.6766 19.0975 14.9834 19.1434C15.1379 19.1568 15.2865 19.157 15.4214 19.0681C15.4255 19.0663 15.4307 19.0629 15.4365 19.059C15.4525 19.0484 15.4728 19.0349 15.4848 19.0459C15.4933 19.0681 15.4982 19.0917 15.5031 19.1153C15.5053 19.1261 15.5076 19.137 15.5102 19.1475C15.576 19.1463 15.6421 19.1464 15.7082 19.1464C15.8241 19.1466 15.94 19.1467 16.0554 19.1394C16.0507 18.8407 16.0506 18.542 16.0505 18.2431C16.0504 18.0589 16.0503 17.8746 16.0492 17.6904C16.0503 17.5494 15.9887 17.3829 15.8654 17.3051C15.7278 17.2181 15.5605 17.2006 15.4015 17.1969C15.2833 17.1954 15.165 17.1961 15.0469 17.1969ZM15.5075 18.4905C15.5181 18.3297 15.3466 18.1832 15.1928 18.263C15.0806 18.3144 15.0132 18.4739 15.0945 18.5801C15.1566 18.6769 15.2575 18.7084 15.3653 18.6736C15.4373 18.6395 15.4918 18.5687 15.5075 18.4905Z" fill="white"/>
<path fill-rule="evenodd" clip-rule="evenodd" d="M23.3329 17.2253C23.2813 17.2249 23.2294 17.2245 23.1784 17.2299C23.1633 17.2363 23.1551 17.2455 23.1541 17.2577C23.1414 17.3981 23.1281 17.5381 23.113 17.6783C23.2139 17.6823 23.3152 17.6813 23.4164 17.6804C23.5295 17.6793 23.6427 17.6783 23.7555 17.6841C23.8748 17.7007 23.9124 17.8288 23.9049 17.9345C23.8832 17.9291 23.8616 17.9222 23.8399 17.9154C23.7932 17.9006 23.7465 17.8858 23.699 17.8845C23.6258 17.882 23.5522 17.8808 23.4787 17.8838C23.1615 17.9047 22.8869 18.1905 22.8892 18.5128C22.8766 18.8143 23.0972 19.0982 23.3891 19.1642C23.5816 19.2128 23.7549 19.1538 23.9232 19.0628C23.9278 19.0976 23.9315 19.1324 23.9351 19.1672C24.0755 19.1696 24.216 19.1687 24.3565 19.1677C24.4034 19.1674 24.4503 19.1671 24.4971 19.1668C24.5009 19.0023 24.5019 18.8373 24.4907 18.6732C24.4867 18.3663 24.4844 18.0598 24.4846 17.7529C24.4846 17.6148 24.4525 17.458 24.3436 17.3642C24.2367 17.2773 24.0893 17.2479 23.9558 17.2379C23.8165 17.2203 23.6743 17.2223 23.533 17.2243C23.4818 17.225 23.4307 17.2257 23.3799 17.2255C23.3642 17.2255 23.3486 17.2255 23.3329 17.2253ZM23.8962 18.3551C23.8444 18.2875 23.7472 18.2479 23.6642 18.2737C23.4995 18.3152 23.4491 18.5308 23.5609 18.6511C23.6445 18.7457 23.7921 18.7451 23.8784 18.6547C23.9602 18.5712 23.9689 18.4478 23.8962 18.3551Z" fill="white"/>
<path fill-rule="evenodd" clip-rule="evenodd" d="M41.3231 17.282C41.2345 17.283 41.1458 17.284 41.0571 17.2833C41.0265 17.2797 41.0165 17.3061 41.0165 17.3319C41.0137 17.3927 41.0077 17.4531 41.0018 17.5136C40.9949 17.584 40.9879 17.6544 40.9859 17.7255C41.0876 17.7265 41.1894 17.7265 41.2911 17.7264C41.361 17.7264 41.431 17.7263 41.5009 17.7266C41.5083 17.7272 41.516 17.7277 41.5237 17.7282C41.5927 17.7326 41.6714 17.7376 41.7188 17.7921C41.7694 17.8517 41.7694 17.9185 41.7687 17.993C41.7528 17.9877 41.7373 17.982 41.7219 17.9765C41.6699 17.9575 41.62 17.9393 41.5612 17.9391C41.5422 17.9389 41.5231 17.9385 41.5041 17.9381C41.3944 17.9355 41.2835 17.933 41.181 17.9736C41.0027 18.0406 40.8506 18.1928 40.7892 18.3751C40.7445 18.5022 40.741 18.6466 40.7826 18.7751C40.8433 18.9763 41.0108 19.146 41.2125 19.2038C41.3042 19.234 41.4081 19.2334 41.5031 19.2232C41.602 19.2121 41.6817 19.1705 41.7672 19.1259C41.7727 19.123 41.7782 19.1201 41.7838 19.1172C41.7942 19.1528 41.8037 19.1888 41.813 19.2246C41.8306 19.2246 41.848 19.2245 41.8655 19.2244C42.0315 19.2237 42.1976 19.223 42.3634 19.2192C42.3634 18.9257 42.3628 18.6325 42.3622 18.3393C42.3618 18.1633 42.3613 17.9871 42.3612 17.8109C42.3556 17.672 42.3192 17.5134 42.2073 17.4211C42.0981 17.3235 41.9201 17.3001 41.78 17.2857C41.628 17.2786 41.4755 17.2803 41.3231 17.282ZM41.7979 18.4713C41.7599 18.3835 41.6625 18.3169 41.566 18.3273C41.4528 18.3413 41.3603 18.4374 41.3547 18.5524C41.3629 18.6404 41.4223 18.7198 41.5021 18.7558C41.5785 18.7774 41.6661 18.7773 41.7287 18.7214C41.8041 18.662 41.8307 18.5614 41.7979 18.4713Z" fill="white"/>
<path d="M11.8164 20.1042C13.2963 20.101 14.7789 20.1089 16.2592 20.1079C16.3324 20.1067 16.4048 20.1165 16.478 20.1168C18.3768 20.1229 20.288 20.1255 22.1874 20.1278C22.2473 20.1282 22.3065 20.1362 22.3664 20.1369C24.4795 20.1404 26.5983 20.1458 28.7124 20.1477C28.786 20.148 28.8574 20.161 28.9311 20.1534C29.0118 20.1444 29.0895 20.1592 29.1699 20.1574C31.0764 20.1608 32.983 20.1648 34.8894 20.1678C35.0716 20.182 35.2536 20.1761 35.4363 20.1779C37.3341 20.1792 39.2275 20.1846 41.1256 20.1876C41.5393 20.2064 41.956 20.192 42.3704 20.2008C42.3668 20.2276 42.3635 20.2544 42.3603 20.2814C42.3136 20.2824 42.2668 20.2832 42.2201 20.2836C40.7943 20.2802 39.3686 20.2787 37.9428 20.2762C37.7902 20.2664 37.638 20.2684 37.4853 20.2686C35.6776 20.2624 33.8442 20.2604 32.0345 20.257C31.7831 20.2428 31.5304 20.251 31.2786 20.2474C29.4068 20.246 27.5414 20.239 25.6687 20.2376C25.5423 20.2302 25.4175 20.2246 25.2907 20.2274C23.1635 20.2266 21.0336 20.219 18.9049 20.2178C18.8316 20.2192 18.7591 20.2086 18.6859 20.2076C16.7102 20.205 14.7338 20.201 12.758 20.1976C12.4462 20.1778 12.1325 20.191 11.8204 20.1868C11.8198 20.1592 11.8184 20.1315 11.8164 20.1042Z" fill="white"/>
<path d="M11.8189 21.1403C11.8577 21.1223 11.8997 21.1273 11.9418 21.1261C12.2361 21.1279 12.5303 21.1239 12.8245 21.1273C12.8251 21.1737 12.8245 21.2203 12.8239 21.2668C12.6843 21.2683 12.544 21.2625 12.4043 21.2697C12.3888 21.3642 12.3942 21.4578 12.3944 21.5528C12.3934 21.8352 12.3942 22.1176 12.3946 22.4C12.3453 22.4004 12.2961 22.4003 12.247 22.4006C12.2398 22.3381 12.2333 22.2763 12.2379 22.2133C12.256 22.042 12.243 21.8656 12.2468 21.6929C12.2436 21.5517 12.2526 21.4092 12.2402 21.2689C12.099 21.2603 11.9578 21.2692 11.8165 21.2632C11.8167 21.2223 11.8153 21.1809 11.8189 21.1403Z" fill="white"/>
<path d="M13.1252 21.142C13.1728 21.1263 13.2195 21.132 13.2687 21.1334C13.2738 21.2292 13.2858 21.3198 13.2768 21.4161C13.2685 21.4985 13.2705 21.5793 13.2804 21.6616C13.5038 21.669 13.7316 21.6676 13.9552 21.6616C13.9643 21.4891 13.9558 21.3155 13.9601 21.1428C14.0115 21.1425 14.063 21.142 14.1144 21.142C14.1189 21.4467 14.1141 21.7518 14.1162 22.0565C14.1151 22.1729 14.1207 22.2878 14.1076 22.4038C14.0582 22.4059 14.0089 22.4081 13.9596 22.4081C13.956 22.2072 13.9609 22.0065 13.958 21.8056C13.7306 21.8006 13.5024 21.8026 13.275 21.8046C13.2637 22.0037 13.2777 22.204 13.2691 22.4034C13.2197 22.4048 13.1706 22.4055 13.1212 22.4052C13.123 22.0623 13.1209 21.7194 13.1225 21.3763C13.1237 21.2986 13.1171 21.2192 13.1252 21.142Z" fill="white"/>
<path d="M14.5195 21.1418C14.8214 21.1372 15.1264 21.1446 15.429 21.142C15.4294 21.187 15.4299 21.2323 15.4294 21.2773C15.1777 21.2848 14.9254 21.2747 14.6736 21.2802C14.6721 21.4137 14.6717 21.5471 14.6732 21.6806C14.9074 21.688 15.1421 21.6814 15.3767 21.6856C15.377 21.7304 15.3774 21.7752 15.3778 21.8198C15.1433 21.8263 14.9085 21.8162 14.674 21.8221C14.6704 21.9703 14.6718 22.1192 14.6736 22.2674C14.9336 22.2736 15.1956 22.2594 15.4553 22.2754C15.456 22.3191 15.4568 22.3627 15.4574 22.4063C15.1437 22.4069 14.8298 22.4071 14.516 22.4045C14.5155 22.0677 14.5149 21.7306 14.516 21.3939C14.5165 21.3103 14.5121 21.2251 14.5195 21.1418Z" fill="white"/>
<path d="M19.1781 21.1624C19.228 21.141 19.2869 21.149 19.3406 21.1486C19.5178 21.4069 19.6893 21.6692 19.864 21.9293C19.9141 22.0015 19.9575 22.0902 20.0265 22.1438C20.0345 21.8126 20.0236 21.4809 20.0317 21.1498C20.079 21.1494 20.1262 21.15 20.1735 21.1508C20.1946 21.2672 20.1652 21.3781 20.173 21.4952C20.1672 21.6166 20.1926 21.7341 20.1757 21.855C20.1692 22.0438 20.1734 22.2332 20.173 22.4219C20.1216 22.4239 20.0703 22.4241 20.0187 22.4235C19.9547 22.3377 19.897 22.2475 19.8371 22.1584C19.6999 21.9493 19.5582 21.7435 19.4222 21.5337C19.3963 21.4931 19.3684 21.4589 19.3331 21.4263C19.3211 21.7575 19.3349 22.0902 19.3264 22.4212C19.2764 22.4229 19.2264 22.4223 19.1763 22.4167C19.1781 21.9991 19.1755 21.5794 19.1781 21.1624Z" fill="white"/>
<path d="M20.5754 21.1681C20.608 21.1345 20.6844 21.1539 20.7279 21.1475C20.7325 21.3588 20.7258 21.5702 20.7301 21.7814C20.804 21.7423 20.8487 21.6819 20.9074 21.6249C21.0408 21.4926 21.1736 21.3596 21.3062 21.2265C21.3283 21.2049 21.3506 21.1831 21.3759 21.1655C21.4417 21.1555 21.5108 21.1613 21.5772 21.1629C21.415 21.3414 21.2243 21.492 21.0622 21.6711C21.2455 21.9226 21.4326 22.1719 21.6152 22.4238C21.546 22.4257 21.4771 22.4262 21.4079 22.4234C21.2549 22.2097 21.1073 21.992 20.953 21.7793C20.8742 21.8411 20.7886 21.9118 20.7333 21.996C20.7226 22.1377 20.7329 22.2813 20.7276 22.4236C20.6758 22.4234 20.6241 22.4234 20.5724 22.423C20.5708 22.0192 20.5752 21.6153 20.571 21.2115C20.5702 21.1965 20.5718 21.1821 20.5754 21.1681Z" fill="white"/>
<path d="M21.8872 21.1617C22.1911 21.1632 22.4953 21.1597 22.7992 21.1639C22.7983 21.2066 22.7974 21.2494 22.7966 21.292C22.6444 21.315 22.501 21.2836 22.3491 21.2892C22.245 21.2882 22.1423 21.2858 22.0393 21.3034C22.0403 21.4348 22.0379 21.5661 22.0407 21.6974C22.2765 21.7132 22.5151 21.701 22.7517 21.7039C22.7523 21.7493 22.7533 21.7945 22.7533 21.84C22.5211 21.8466 22.2872 21.835 22.0554 21.8456L22.0427 21.8574C22.0367 21.9891 22.0389 22.1225 22.0401 22.2546C22.0353 22.2952 22.0852 22.2849 22.1105 22.2888C22.3505 22.291 22.5907 22.2857 22.8304 22.2911C22.8318 22.3358 22.8327 22.3804 22.8331 22.4248C22.5164 22.4278 22.1993 22.4264 21.8823 22.4252C21.8877 22.0043 21.88 21.5827 21.8872 21.1617Z" fill="white"/>
<path d="M25.2247 21.1686C25.5576 21.1678 25.891 21.165 26.2238 21.1708C26.2232 21.2158 26.2226 21.261 26.2218 21.3063C26.0825 21.3093 25.9437 21.3015 25.8045 21.3066C25.8 21.6826 25.8028 22.0592 25.8018 22.4353C25.751 22.4413 25.7006 22.4409 25.6495 22.4375C25.6376 22.0602 25.6506 21.6816 25.6439 21.3041C25.5043 21.3047 25.3644 21.3039 25.2247 21.3047C25.2246 21.2595 25.2246 21.214 25.2247 21.1686Z" fill="white"/>
<path d="M28.7638 21.1811C29.0671 21.1747 29.3717 21.1799 29.6752 21.1809C29.6755 21.2232 29.6752 21.2653 29.6746 21.3077C29.5515 21.3298 29.4338 21.3027 29.31 21.3081C29.1803 21.3112 29.0476 21.2986 28.9191 21.3153C28.9181 21.4504 28.9151 21.5861 28.9207 21.7211C29.1549 21.7251 29.3896 21.7175 29.6238 21.7254C29.6231 21.7696 29.6225 21.8138 29.6217 21.8578C29.3878 21.8616 29.1535 21.8562 28.9195 21.8602C28.9165 22.008 28.9164 22.1571 28.9197 22.305C29.1797 22.3105 29.4397 22.3021 29.6996 22.3101C29.7007 22.3539 29.7017 22.3978 29.7029 22.4418C29.4395 22.448 29.1756 22.4422 28.912 22.444C28.8614 22.4448 28.8113 22.4418 28.761 22.4382C28.7631 22.0201 28.7576 21.5989 28.7638 21.1811Z" fill="white"/>
<path d="M29.9473 21.1819C29.997 21.1805 30.047 21.1831 30.0969 21.1835C30.2039 21.4672 30.2988 21.7556 30.405 22.0396C30.4411 22.1331 30.4558 22.2223 30.5037 22.3064C30.5547 22.2103 30.5749 22.1095 30.6163 22.0071C30.7225 21.7335 30.8171 21.4549 30.9278 21.1831C30.9785 21.1835 31.0293 21.1831 31.08 21.184C30.9551 21.5176 30.8164 21.8464 30.6899 22.1795C30.6541 22.2648 30.6276 22.3552 30.5853 22.4372C30.5389 22.4588 30.4687 22.4444 30.4176 22.4448C30.2598 22.0382 30.0985 21.6125 29.9374 21.2101C29.9339 21.1973 29.9371 21.188 29.9473 21.1819Z" fill="white"/>
<path d="M31.356 21.1889C31.4623 21.1777 31.5708 21.1873 31.6777 21.1848C31.878 21.1873 32.0785 21.1823 32.2786 21.1889C32.2786 21.2333 32.2786 21.2778 32.2785 21.3222C32.0239 21.326 31.7686 21.3168 31.514 21.3246C31.5122 21.4578 31.5076 21.5927 31.5181 21.7255C31.754 21.7312 31.9908 21.7222 32.2265 21.732C32.2245 21.7768 32.2223 21.8215 32.2202 21.8662C31.9842 21.8672 31.7481 21.8602 31.5124 21.8664C31.5106 22.0134 31.512 22.1605 31.5124 22.3076C31.7754 22.315 32.039 22.3096 32.3019 22.3109C32.303 22.3608 32.3031 22.4104 32.3015 22.4602C31.9855 22.441 31.6693 22.4524 31.3521 22.4486C31.3584 22.0295 31.3486 21.6077 31.356 21.1889Z" fill="white"/>
<path d="M36.2404 21.1887C36.2415 21.6133 36.2429 22.0379 36.2394 22.4622C36.1879 22.4629 36.1363 22.463 36.085 22.4629C36.0868 22.0394 36.0825 21.6147 36.0878 21.1915C36.1383 21.1886 36.1897 21.1891 36.2404 21.1887Z" fill="white"/>
<path d="M33.9234 21.1906C33.961 21.1814 34.041 21.1843 34.0784 21.1964C34.1094 21.2268 34.1325 21.2664 34.157 21.3022C34.2387 21.4268 34.3212 21.5507 34.3948 21.6805C34.4177 21.7216 34.4422 21.7536 34.477 21.785C34.5616 21.6575 34.6366 21.5243 34.7243 21.3987C34.7717 21.3334 34.8096 21.255 34.8672 21.1988C34.9169 21.1782 34.9865 21.1922 35.0404 21.1906C34.8898 21.4246 34.7207 21.6471 34.5667 21.879C34.548 21.9082 34.5347 21.9376 34.5351 21.9733C34.5329 22.1351 34.5361 22.2974 34.5354 22.4594C34.4826 22.4603 34.43 22.4599 34.3774 22.4582C34.374 22.2904 34.3793 22.1226 34.376 21.9546C34.3783 21.9068 34.3467 21.8732 34.3235 21.8344C34.1918 21.6386 34.0612 21.4421 33.9292 21.2466C33.9202 21.2302 33.8958 21.203 33.9234 21.1906Z" fill="white"/>
<path d="M36.6634 21.1997C36.7169 21.196 36.7712 21.1986 36.8249 21.1996C36.9822 21.4228 37.1281 21.6547 37.2824 21.8802C37.3532 21.981 37.4137 22.0911 37.4925 22.1853C37.5235 22.1005 37.5098 22.021 37.512 21.933C37.5138 21.6885 37.5102 21.4439 37.5138 21.1993C37.5615 21.1993 37.6093 21.1993 37.657 21.1997C37.6568 21.6211 37.6564 22.0425 37.6568 22.4638C37.6029 22.4638 37.549 22.4636 37.4951 22.4638C37.2826 22.1563 37.0795 21.842 36.8706 21.5321C36.8525 21.5069 36.8294 21.4882 36.806 21.4684C36.8032 21.8008 36.8079 22.1333 36.8025 22.4654C36.755 22.464 36.7077 22.4612 36.6602 22.4586C36.6649 22.0394 36.6572 21.6185 36.6634 21.1997Z" fill="white"/>
<path d="M39.6388 21.2031C39.6476 21.3198 39.6413 21.4374 39.6431 21.5547C39.641 21.8594 39.6453 22.1643 39.6406 22.4688C39.5893 22.4698 39.5379 22.4706 39.4866 22.4714C39.4832 22.0514 39.4858 21.6313 39.4862 21.2113C39.5367 21.2031 39.5877 21.2031 39.6388 21.2031Z" fill="white"/>
<path d="M41.3536 21.2103C41.4019 21.2077 41.4538 21.2035 41.5019 21.2105C41.5375 21.2337 41.5626 21.2764 41.5871 21.3107C41.7626 21.5807 41.9448 21.8459 42.121 22.1153C42.1425 22.1499 42.1699 22.1761 42.202 22.2009C42.2133 21.8721 42.2018 21.5419 42.2078 21.2129C42.2545 21.2101 42.301 21.2081 42.3479 21.2069C42.3512 21.6315 42.3494 22.0562 42.3482 22.4808C42.2997 22.4814 42.2502 22.4844 42.2018 22.4794C42.1628 22.4531 42.136 22.4049 42.1097 22.3665C41.9268 22.0898 41.7403 21.8153 41.5583 21.538C41.5438 21.5144 41.5213 21.5048 41.4988 21.4902C41.4944 21.8207 41.5012 22.1517 41.4946 22.4822C41.4477 22.4808 41.4007 22.4786 41.3537 22.476C41.3529 22.0542 41.3547 21.6321 41.3536 21.2103Z" fill="white"/>
<path fill-rule="evenodd" clip-rule="evenodd" d="M27.5041 21.3638C27.3755 21.1973 27.1446 21.1232 26.9422 21.1544C26.8054 21.1753 26.6771 21.2317 26.5856 21.3387C26.4588 21.4786 26.4197 21.6907 26.4304 21.8741C26.4437 22.0262 26.4957 22.1783 26.6064 22.2869C26.8118 22.498 27.1719 22.5152 27.4056 22.3427C27.5536 22.229 27.623 22.0562 27.6419 21.8741C27.6538 21.6948 27.6143 21.5082 27.5041 21.3638ZM27.2788 21.3505C27.18 21.2809 27.064 21.2703 26.947 21.2855C26.8173 21.3133 26.6882 21.4031 26.6377 21.5298C26.5903 21.6477 26.5838 21.7689 26.5911 21.8945C26.6009 22.011 26.6437 22.1224 26.728 22.2046C26.8891 22.3761 27.2007 22.3707 27.3551 22.1928C27.4643 22.071 27.4947 21.893 27.4812 21.734C27.464 21.5851 27.4087 21.4361 27.2788 21.3505Z" fill="white"/>
<path fill-rule="evenodd" clip-rule="evenodd" d="M18.3715 21.1466C18.335 21.1456 18.2983 21.1448 18.2619 21.1473C18.2277 21.1538 18.2166 21.1809 18.2052 21.2089C18.2026 21.2153 18.2 21.2217 18.1971 21.2279C18.0841 21.5262 17.9705 21.8243 17.8547 22.1216C17.8452 22.1463 17.8352 22.1711 17.8252 22.196C17.796 22.2687 17.7665 22.3422 17.7461 22.4163C17.7592 22.4154 17.7765 22.4171 17.7952 22.4189C17.8345 22.4227 17.8791 22.4271 17.8988 22.4077C17.9352 22.3491 17.957 22.2814 17.9789 22.2137C17.9973 22.1565 18.0158 22.0993 18.0429 22.0478C18.0614 22.0262 18.0901 22.0262 18.1176 22.0264C18.1267 22.0265 18.1357 22.0265 18.1441 22.0258C18.1969 22.0264 18.2496 22.0263 18.3023 22.0262C18.3894 22.0262 18.4765 22.0261 18.5635 22.029C18.5884 22.0254 18.6025 22.0536 18.6128 22.0741C18.6139 22.0764 18.615 22.0786 18.616 22.0806C18.6346 22.1241 18.6503 22.1694 18.6659 22.2146C18.688 22.2782 18.71 22.342 18.7404 22.4011C18.7651 22.4281 18.816 22.4244 18.8615 22.4209C18.883 22.4194 18.9033 22.4179 18.919 22.4197C18.8954 22.3415 18.8627 22.2663 18.8299 22.191C18.8109 22.1476 18.7919 22.1041 18.7747 22.06C18.6733 21.8079 18.5703 21.5568 18.4674 21.3054C18.4458 21.2527 18.4241 21.2 18.4026 21.1473C18.3922 21.147 18.3818 21.1468 18.3715 21.1466ZM18.3672 21.4353C18.3505 21.3859 18.3339 21.3364 18.3103 21.2911C18.2994 21.3244 18.2901 21.3582 18.2807 21.3918C18.2683 21.4366 18.2559 21.4812 18.24 21.525C18.2238 21.5726 18.2052 21.6197 18.1865 21.6668C18.1564 21.7427 18.1264 21.8187 18.1063 21.8971C18.2494 21.9042 18.3928 21.9023 18.5358 21.9C18.5115 21.8213 18.482 21.7451 18.4524 21.6687C18.4291 21.6087 18.4058 21.5487 18.385 21.4874C18.3789 21.4701 18.373 21.4528 18.3672 21.4353Z" fill="white"/>
<path fill-rule="evenodd" clip-rule="evenodd" d="M23.5657 21.1629C23.4382 21.1616 23.3106 21.1604 23.1835 21.1653C23.1715 21.2097 23.1725 21.2589 23.1734 21.3064C23.1737 21.3226 23.174 21.3384 23.1738 21.3539C23.1738 21.4565 23.1736 21.5591 23.1735 21.6617C23.1732 21.8258 23.173 21.99 23.1734 22.154C23.1735 22.1769 23.1733 22.1995 23.1732 22.222C23.1725 22.2918 23.1719 22.3606 23.1816 22.4307C23.2313 22.4315 23.2806 22.4318 23.3301 22.427C23.3318 22.3283 23.3313 22.2296 23.3307 22.1308C23.3303 22.0419 23.3298 21.953 23.331 21.8641C23.3491 21.8637 23.3673 21.8633 23.3854 21.8629C23.4563 21.8612 23.5273 21.8594 23.5979 21.8622C23.6777 21.8635 23.7422 21.9216 23.7901 21.98C23.8601 22.0682 23.9201 22.1627 23.98 22.2569C24.0164 22.3142 24.0527 22.3715 24.0913 22.4271C24.1539 22.4285 24.2164 22.4288 24.2788 22.4257C24.2518 22.371 24.2189 22.3201 24.1858 22.2691C24.1745 22.2515 24.1631 22.2339 24.1519 22.2161C24.1426 22.2015 24.1333 22.1868 24.1241 22.1722C24.0848 22.1098 24.0453 22.047 23.9962 21.9926C23.9579 21.949 23.915 21.9123 23.8715 21.8752C23.8621 21.8672 23.8526 21.8591 23.8432 21.8509C23.8583 21.8462 23.8736 21.8417 23.889 21.8373C23.9592 21.8169 24.0303 21.7964 24.086 21.7463C24.2359 21.6248 24.2174 21.3536 24.0694 21.2383C23.9808 21.1769 23.8617 21.1617 23.7566 21.1641C23.6931 21.1642 23.6294 21.1636 23.5657 21.1629ZM23.8219 21.2819C23.6646 21.2776 23.5064 21.2783 23.3489 21.2801C23.3488 21.3137 23.3486 21.3473 23.3485 21.3809C23.3479 21.4876 23.3474 21.5942 23.3508 21.7011C23.4246 21.7022 23.4983 21.7024 23.572 21.7025C23.615 21.7026 23.658 21.7028 23.701 21.703C23.7674 21.7035 23.8391 21.6967 23.9015 21.6728C23.9976 21.634 24.0576 21.516 24.017 21.4165C23.9876 21.3355 23.9071 21.2823 23.8219 21.2819Z" fill="white"/>
<path fill-rule="evenodd" clip-rule="evenodd" d="M32.9136 21.186C32.8294 21.185 32.7451 21.1841 32.6613 21.1883C32.6578 21.2165 32.6571 21.2444 32.657 21.2728C32.6583 21.5443 32.6578 21.816 32.6573 22.0876C32.657 22.2098 32.6568 22.332 32.6567 22.4542C32.7057 22.4584 32.7543 22.4592 32.8032 22.4572C32.8043 22.3844 32.804 22.3114 32.8036 22.2384C32.8031 22.1502 32.8027 22.0618 32.805 21.9736C32.8062 21.9672 32.8068 21.9591 32.8075 21.9503C32.8095 21.925 32.8118 21.8945 32.8316 21.8858C32.9134 21.8814 33.0061 21.8816 33.088 21.8868C33.1821 21.901 33.2458 21.9686 33.2981 22.043C33.3619 22.1319 33.4208 22.224 33.4797 22.3162C33.4903 22.3329 33.501 22.3496 33.5118 22.3664C33.5153 22.3716 33.5189 22.3771 33.5226 22.3827C33.5406 22.4105 33.5604 22.4409 33.5874 22.4576C33.6336 22.463 33.6812 22.4607 33.7279 22.4586C33.7383 22.4581 33.7486 22.4576 33.7588 22.4572C33.7232 22.3823 33.6771 22.3127 33.6311 22.2433C33.6079 22.2082 33.5847 22.1733 33.5629 22.1376C33.4969 22.033 33.4252 21.9553 33.3226 21.8858C33.3557 21.8663 33.3902 21.8544 33.4244 21.8426C33.4647 21.8288 33.5047 21.8151 33.5418 21.7891C33.6309 21.7263 33.6691 21.6207 33.6615 21.5135C33.6682 21.3848 33.5882 21.2595 33.4654 21.2193C33.3627 21.1849 33.2665 21.1857 33.1647 21.1867C33.1331 21.187 33.101 21.1873 33.0679 21.1865C33.0166 21.1872 32.9651 21.1865 32.9136 21.186ZM33.0225 21.3214C32.9694 21.321 32.9163 21.3207 32.8631 21.3212C32.8215 21.324 32.8151 21.3532 32.8161 21.3892C32.8168 21.4379 32.8169 21.4866 32.8169 21.5353C32.817 21.6048 32.817 21.6743 32.8191 21.7437C32.9554 21.7462 33.0916 21.7463 33.2279 21.7449C33.3025 21.7452 33.3743 21.7282 33.434 21.6817C33.5183 21.6069 33.5233 21.4595 33.4374 21.3836C33.3719 21.3229 33.2953 21.3222 33.2118 21.3214C33.2102 21.3214 33.2088 21.3214 33.2072 21.3214C33.1456 21.3222 33.0841 21.3218 33.0225 21.3214Z" fill="white"/>
<path fill-rule="evenodd" clip-rule="evenodd" d="M38.3863 21.2039C38.2894 21.2031 38.1925 21.2024 38.0958 21.2047C38.056 21.2086 38.0546 21.2389 38.0542 21.2718C38.0548 21.4558 38.0547 21.6396 38.0546 21.8235C38.0544 22.038 38.0544 22.2526 38.0554 22.467C38.2006 22.4699 38.3463 22.469 38.4917 22.4681C38.5141 22.4679 38.5363 22.4678 38.5587 22.4676C38.6999 22.4682 38.8569 22.4242 38.9528 22.3141C39.0705 22.1769 39.1071 21.9718 39.1046 21.796C39.0927 21.6283 39.056 21.4612 38.9351 21.3378C38.8283 21.233 38.6834 21.2068 38.5396 21.2046C38.4885 21.2047 38.4374 21.2043 38.3863 21.2039ZM38.2467 21.3432C38.2354 21.3434 38.224 21.3435 38.2127 21.3438C38.2087 21.6104 38.2097 21.8771 38.2108 22.1437C38.2112 22.2053 38.2114 22.2668 38.2115 22.3284C38.3341 22.3332 38.4571 22.3328 38.5798 22.3292C38.6802 22.3275 38.7845 22.2883 38.8451 22.2045C38.9118 22.1135 38.9376 21.9878 38.9444 21.8772C38.9522 21.737 38.9291 21.5691 38.8336 21.4597C38.7797 21.393 38.7055 21.3526 38.6199 21.3466C38.496 21.3381 38.371 21.3406 38.2467 21.3432Z" fill="white"/>
<path fill-rule="evenodd" clip-rule="evenodd" d="M40.6022 21.2567C40.5936 21.2361 40.5835 21.2117 40.5644 21.2042C40.5121 21.2015 40.4591 21.204 40.407 21.2094C40.3129 21.4479 40.2206 21.6876 40.1283 21.9271C40.0836 22.0429 40.0391 22.1586 39.9943 22.2742C39.9668 22.3416 39.9403 22.4093 39.9194 22.479C39.9747 22.4789 40.0295 22.4736 40.0843 22.4671C40.1014 22.4226 40.1173 22.3779 40.1331 22.3333C40.1628 22.2497 40.1924 22.1663 40.2296 22.0853C40.3015 22.0857 40.3735 22.0856 40.4454 22.0855C40.5533 22.0853 40.6613 22.0851 40.7693 22.0867C40.7979 22.1487 40.8216 22.2128 40.8453 22.277C40.8686 22.3404 40.892 22.4038 40.9201 22.4649C40.9573 22.4824 41.004 22.4805 41.0478 22.4787C41.0634 22.478 41.0786 22.4774 41.0929 22.4776C41.0718 22.4031 41.0422 22.3337 41.0123 22.2635C40.9954 22.2238 40.9783 22.1837 40.9626 22.1425C40.9103 22.0099 40.8558 21.8783 40.8012 21.7466C40.7358 21.589 40.6704 21.4314 40.6089 21.2722C40.6067 21.2676 40.6045 21.2623 40.6022 21.2567ZM40.5484 21.5084C40.5303 21.4563 40.512 21.4042 40.491 21.3533C40.4753 21.3965 40.4619 21.4404 40.4485 21.4842C40.4306 21.5423 40.4129 21.6004 40.3899 21.657C40.3502 21.7558 40.3112 21.8549 40.2823 21.9577C40.3077 21.9581 40.3332 21.9586 40.3587 21.9591C40.4753 21.9615 40.5925 21.9639 40.7084 21.9541C40.6893 21.8778 40.6617 21.8079 40.6333 21.7364C40.6201 21.7028 40.6066 21.6689 40.5938 21.6337C40.5777 21.5923 40.5631 21.5504 40.5484 21.5084Z" fill="white"/>
<path fill-rule="evenodd" clip-rule="evenodd" d="M16.8388 21.1425C16.7598 21.1421 16.6809 21.1417 16.6023 21.1428C16.5724 21.1479 16.5724 21.178 16.5724 21.2025C16.5724 21.2047 16.5724 21.2067 16.5724 21.2087C16.572 21.3553 16.5724 21.5019 16.5727 21.6484C16.5732 21.9005 16.5737 22.1526 16.5708 22.4047C16.6558 22.4082 16.7408 22.4078 16.8259 22.4074C16.8827 22.4071 16.9394 22.4068 16.9962 22.4077C17.0159 22.4074 17.0363 22.4074 17.0569 22.4074C17.14 22.4074 17.2282 22.4074 17.3037 22.3811C17.4193 22.3437 17.5152 22.2336 17.5257 22.1104C17.5322 22.0282 17.534 21.9508 17.4871 21.8791C17.4491 21.8171 17.3944 21.787 17.335 21.7542C17.3259 21.7492 17.3167 21.7441 17.3075 21.7389C17.3188 21.7278 17.3303 21.7171 17.3418 21.7065C17.3848 21.6667 17.4266 21.628 17.4503 21.5714C17.5034 21.4284 17.4401 21.2554 17.3009 21.19C17.2171 21.1493 17.1282 21.1404 17.0363 21.1425C16.9705 21.143 16.9047 21.1427 16.8388 21.1425ZM17.0544 21.2822C17.1157 21.2831 17.1778 21.2839 17.2315 21.3171C17.3212 21.3725 17.3489 21.501 17.2891 21.589C17.237 21.6646 17.142 21.6821 17.0564 21.6826C17.0266 21.6822 16.9964 21.6827 16.9661 21.6831C16.887 21.6843 16.8068 21.6853 16.7302 21.672C16.7314 21.6161 16.731 21.5601 16.7307 21.5043C16.7302 21.431 16.7297 21.3577 16.733 21.2845C16.7974 21.2792 16.8623 21.28 16.9272 21.2808C16.956 21.2811 16.9847 21.2815 17.0135 21.2813C17.0269 21.2818 17.0406 21.282 17.0544 21.2822ZM16.732 21.8245C16.8533 21.8195 16.9748 21.8211 17.0962 21.8241C17.164 21.8253 17.234 21.8359 17.2896 21.8781C17.3926 21.9549 17.3944 22.1332 17.2969 22.215C17.2571 22.2515 17.2074 22.2669 17.1543 22.2674C17.0142 22.2699 16.8738 22.2699 16.7338 22.2667C16.7295 22.1194 16.7295 21.9717 16.732 21.8245Z" fill="white"/>
<path d="M50.9827 16.0676C51.3921 16.7751 51.8051 17.4805 52.2102 18.1906C51.5555 19.3521 50.9103 20.5192 50.2334 21.668C49.9737 22.1089 49.7211 22.554 49.4644 22.9965C48.6318 23.0015 47.7993 23.0012 46.9668 23C46.9922 22.9427 47.0173 22.885 47.048 22.8303C48.3589 20.5757 49.6748 18.324 50.9827 16.0676Z" fill="white"/>
<path d="M69.0998 17.8052C69.5601 18.668 70.0201 19.5307 70.4798 20.3938C70.3176 20.3971 70.1555 20.3887 69.9935 20.3944C69.8848 20.2042 69.7906 20.0061 69.6842 19.8147C69.2753 19.8025 68.8661 19.8109 68.457 19.8099C68.3583 20.007 68.2508 20.1989 68.1462 20.3923C67.9864 20.3908 67.8265 20.3956 67.667 20.3941C68.1379 19.5274 68.6103 18.6612 69.0998 17.8052ZM68.6617 19.4409C68.9406 19.4448 69.2198 19.4442 69.499 19.4465C69.3593 19.1851 69.2334 18.9162 69.0836 18.6604C68.94 18.9191 68.7994 19.1792 68.6617 19.4409Z" fill="white"/>
<path d="M70.7485 17.7963C71.4434 18.4036 72.1383 19.0112 72.8246 19.6287C72.8434 19.0716 72.8222 18.5144 72.839 17.9574C72.9876 17.9604 73.1362 17.9627 73.2848 17.9654C73.2801 18.8235 73.2825 19.6819 73.2816 20.54C72.8251 20.1582 72.3867 19.755 71.9358 19.366C71.685 19.1504 71.4365 18.9322 71.1969 18.7043C71.1911 19.2686 71.1997 19.8332 71.1875 20.3974C71.0398 20.398 70.8921 20.3941 70.7446 20.3953C70.7459 19.5289 70.7385 18.6627 70.7485 17.7963Z" fill="white"/>
<path d="M56.0591 20.3914C56.5391 19.5294 57.0069 18.6606 57.4978 17.8052C57.9552 18.6689 58.4151 19.5315 58.8778 20.3923C58.7132 20.3962 58.549 20.3959 58.3845 20.3926C58.2846 20.1998 58.1824 20.0081 58.0869 19.8129C57.6766 19.8075 57.2666 19.812 56.8561 19.812C56.7492 20.0066 56.6526 20.2075 56.5371 20.3973C56.3776 20.3929 56.2183 20.3962 56.0591 20.3914ZM57.0555 19.4441C57.336 19.4429 57.6166 19.4468 57.8972 19.4459C57.756 19.186 57.6319 18.9167 57.4804 18.6624C57.3378 18.9227 57.1968 19.1832 57.0555 19.4441Z" fill="white"/>
<path d="M62.8936 18.0283C63.1282 17.9121 63.4029 17.8969 63.6567 17.9483C63.8765 17.995 64.0532 18.1522 64.1873 18.3263C64.0683 18.3869 63.95 18.4484 63.833 18.5129C63.6753 18.2648 63.2998 18.1857 63.0709 18.3792C62.9494 18.4666 62.9592 18.6817 63.0963 18.7483C63.4035 18.9185 63.7773 18.9551 64.0497 19.1907C64.3273 19.4275 64.3167 19.9008 64.0594 20.1492C63.7831 20.4309 63.3456 20.4921 62.9784 20.3867C62.6708 20.3085 62.4395 20.0241 62.3984 19.7115C62.5471 19.6789 62.6972 19.6518 62.8475 19.6283C62.8656 19.7748 62.9208 19.9362 63.0582 20.0099C63.2756 20.1273 63.5908 20.0978 63.7409 19.8859C63.8467 19.7419 63.8154 19.5205 63.6709 19.415C63.369 19.2115 62.9681 19.199 62.6972 18.9426C62.5541 18.8202 62.4948 18.6157 62.5435 18.4342C62.5822 18.249 62.7326 18.1121 62.8936 18.0283Z" fill="white"/>
<path d="M59.0201 17.9735C59.1888 17.9512 59.3593 17.959 59.5289 17.9607C59.7103 18.2323 59.8914 18.5039 60.073 18.7752C60.2642 18.5072 60.45 18.2353 60.6385 17.9655C60.8125 17.9598 60.9865 17.9569 61.1605 17.9622C60.8846 18.3482 60.6069 18.7333 60.3304 19.119C60.6119 19.5483 60.9192 19.9608 61.1942 20.3946C61.0285 20.3954 60.8628 20.3939 60.697 20.3925C60.4861 20.0873 60.2766 19.7809 60.0656 19.4758C59.8476 19.7822 59.6278 20.0871 59.4124 20.3951C59.2446 20.3984 59.0765 20.3961 58.9087 20.3964C59.2006 19.9661 59.5078 19.5468 59.8113 19.1246C59.5504 18.7389 59.2845 18.3568 59.0201 17.9735Z" fill="white"/>
<path d="M61.5713 17.9631C61.7208 17.9586 61.8699 17.9589 62.0195 17.9622C62.0204 18.7731 62.0197 19.584 62.0197 20.3948C61.8679 20.3951 61.7163 20.3948 61.5645 20.3948C61.5701 19.5843 61.5674 18.7737 61.5713 17.9631Z" fill="white"/>
<path d="M65.9329 17.9597C66.3164 17.9763 66.73 17.9065 67.0834 18.0955C67.4278 18.2809 67.5073 18.8309 67.1897 19.0799C67.3897 19.1592 67.5832 19.3087 67.6358 19.5289C67.72 19.799 67.5715 20.0979 67.3365 20.2378C66.9084 20.4743 66.4042 20.3641 65.9394 20.3962C65.925 19.5842 65.9341 18.7721 65.9329 17.9597ZM66.3778 18.3097C66.3788 18.5415 66.3782 18.773 66.3767 19.0044C66.5433 18.9976 66.728 19.0077 66.87 18.9043C67.0151 18.7744 67.0098 18.5055 66.8496 18.3899C66.7097 18.3008 66.5368 18.3109 66.3778 18.3097ZM66.3805 19.3227C66.3788 19.5589 66.3796 19.7954 66.3841 20.0316C66.6077 20.0197 66.8485 20.0613 67.0547 19.9499C67.2376 19.8596 67.2713 19.5642 67.1014 19.4436C66.8967 19.2837 66.6219 19.3277 66.3805 19.3227Z" fill="white"/>
<path d="M73.7989 17.9601C73.9478 17.9589 74.0967 17.9595 74.2459 17.9598C74.2464 18.2802 74.2429 18.6007 74.2497 18.9213C74.6167 18.5966 74.9907 18.2802 75.3597 17.958C75.5635 17.9593 75.7674 17.9601 75.9712 17.9595C75.531 18.3226 75.0944 18.6896 74.6618 19.0616C75.0873 19.5132 75.5281 19.9497 75.9632 20.3919C75.7612 20.3898 75.5588 20.4058 75.3576 20.3823C75.0113 20.027 74.6674 19.6696 74.3245 19.3112C74.2993 19.3444 74.2746 19.3778 74.25 19.411C74.2411 19.7387 74.2491 20.0662 74.2435 20.3939C74.0937 20.393 73.9439 20.3969 73.7944 20.396C73.7956 19.5843 73.7977 18.7722 73.7989 17.9601Z" fill="white"/>
<path d="M50.981 20.3781C51.8164 20.3778 52.652 20.3719 53.4874 20.3858C53.985 21.2582 54.4985 22.121 54.9915 22.9958C54.1561 23 53.3208 22.9967 52.4854 22.9961C51.9881 22.1208 51.4687 21.2588 50.981 20.3781Z" fill="white"/>
<path d="M76.2454 9.47668H42.665V10.3208H76.2454V9.47668Z" fill="#FAA61A"/>
<path d="M50.2364 6.96176C50.2364 6.96176 49.6585 6.99956 49.5049 6.97945L49.7931 4.42051L50.2501 4.41168C50.2501 4.41168 50.9046 4.41169 51.0924 5.2553C51.0938 5.26046 51.0948 5.26571 51.0952 5.27103C51.2777 6.13091 50.7383 6.89118 50.2364 6.96176Z" fill="white"/>
<path d="M55.5653 4.6753C55.4853 4.30252 54.8771 4.41435 54.8771 4.41435L54.7591 5.46005L55.0708 5.46303C55.7048 5.37085 55.5653 4.6753 55.5653 4.6753Z" fill="white"/>
<path d="M57.717 6.16612L58.2163 5.20569L58.4602 6.17105L57.717 6.16612Z" fill="white"/>
<path d="M66.6134 5.20569L66.1135 6.16612L66.8549 6.17105L66.6134 5.20569Z" fill="white"/>
<path d="M64.0951 4.5465C63.9581 4.32283 63.5786 4.3503 63.5786 4.3503L63.566 4.41161L63.4572 5.33866L63.7903 5.31902C64.3623 5.07332 64.0951 4.5465 64.0951 4.5465Z" fill="white"/>
<path d="M63.2806 6.98276C63.9024 7.06469 64.0639 6.82532 64.0639 6.82532C64.4306 6.08031 63.8215 5.93164 63.8215 5.93164C63.7386 5.87866 63.4948 5.89197 63.3909 5.90026L63.2626 6.98276H63.2806Z" fill="white"/>
<path fill-rule="evenodd" clip-rule="evenodd" d="M42.665 1.87952H76.2454V10.3229H42.665V1.87952ZM46.6454 4.41643L46.7034 3.79939L44.995 3.794L44.5542 7.5782H45.1789L45.3867 5.89623H46.4757L46.5483 5.27336H45.4598L45.5612 4.41643H46.6454ZM47.0171 3.79939L46.5904 7.56196C46.5904 7.56196 48.4329 7.59929 48.4329 7.55656C48.4329 7.51392 48.4958 6.96062 48.4958 6.96062H47.2625L47.3873 5.88398H48.6251L48.7021 5.25564H47.4717L47.5722 4.40613H48.806L48.8777 3.794L47.0171 3.79939ZM51.6407 7.56196L52.0679 3.79939L53.93 3.794L53.8573 4.40613H52.6239L52.5234 5.25564H53.7519L53.6753 5.88398H52.4371L52.3122 6.96062H53.5461C53.5461 6.96062 53.4832 7.51392 53.4832 7.55656C53.4832 7.59929 51.6407 7.56196 51.6407 7.56196ZM50.0862 3.81033L49.2488 3.80592L48.826 7.56898H49.4371V7.56608C49.5673 7.57884 50.3028 7.63572 50.7612 7.36694C50.7612 7.36694 51.7049 6.97749 51.6961 5.41767C51.6961 5.41767 51.6415 3.98446 50.0862 3.81033ZM55.4151 5.95991L56.2057 7.57858L55.557 7.57904L54.7767 6.03198L54.6938 6.02658L54.5212 7.57803H53.8906L54.3183 3.81545H55.2196C56.1837 3.87088 56.1695 4.85187 56.1695 4.85187C56.1042 5.83236 55.4151 5.95991 55.4151 5.95991ZM58.8108 7.57774H59.4585L58.3705 3.79161L56.2733 7.57289H56.9854L57.4013 6.77287H58.6084L58.8108 7.57774ZM67.8576 7.57774H67.2074L67.0046 6.77287H65.7975L65.3815 7.57289H64.6699L66.7671 3.79161L67.8576 7.57774ZM60.0296 3.83088L59.5911 7.57878H61.2766L61.3405 6.98425H60.2964L60.6285 3.82499L60.0296 3.83088ZM64.7106 4.6083C64.8408 5.17583 64.3379 5.60596 64.3379 5.60596C65.1583 6.27844 64.6116 7.10397 64.6116 7.10397C64.3312 7.57581 63.5045 7.56893 63.5045 7.56893H62.553L62.9758 3.8083H63.7961C64.6486 3.88334 64.7106 4.6083 64.7106 4.6083ZM68.6335 3.77731L68.0922 7.57132H68.6915L69.0153 5.12321L71.05 7.55606L71.5646 3.79448H70.9208L70.6574 6.05563L68.6335 3.77731ZM73.6413 3.79371H74.3542L72.8966 5.4354L74.2796 7.56222H73.5476L72.4323 5.95826L72.3309 6.07259L72.1592 7.57646H71.5144L71.9461 3.78684L72.5908 3.79371L72.4401 5.11466L73.6413 3.79371Z" fill="white"/>
<path d="M43.1493 11.7545C43.0898 11.6563 43.0181 11.5382 42.9328 11.4037L42.8084 11.213L42.6894 11.0344C42.667 11.0035 42.6528 10.9853 42.647 10.9771C42.6878 10.9812 42.7288 10.9832 42.7699 10.9829C42.8102 10.9831 42.8507 10.9811 42.8908 10.9771C42.9035 11.0105 42.918 11.0432 42.9342 11.0751C42.9493 11.1065 42.9757 11.1516 43.0108 11.211L43.0859 11.3434C43.1522 11.4537 43.2103 11.5499 43.2625 11.6299C43.3112 11.5543 43.3663 11.4645 43.4253 11.3611L43.5092 11.2139C43.5399 11.162 43.5638 11.1192 43.5789 11.0879C43.5962 11.0522 43.6113 11.0155 43.6243 10.978C43.6534 10.9821 43.6827 10.9841 43.7121 10.9839C43.7414 10.9841 43.7708 10.9821 43.7998 10.978C43.7931 10.9849 43.7794 11.0045 43.7575 11.0354C43.7355 11.0663 43.696 11.1266 43.6385 11.2139L43.5248 11.3895C43.4458 11.5127 43.3785 11.621 43.3225 11.7152V11.8241C43.3225 11.9713 43.3225 12.0762 43.3225 12.139C43.3232 12.1916 43.3274 12.2439 43.3346 12.2959C43.3023 12.292 43.2697 12.29 43.2371 12.2901C43.2035 12.2898 43.1699 12.2918 43.1366 12.2959C43.1434 12.2439 43.1475 12.1915 43.1488 12.139C43.1488 12.0762 43.1517 11.9707 43.1517 11.8241L43.1493 11.7545Z" fill="white"/>
<path d="M44.6972 12.3163C44.9215 12.3163 45.1032 12.2509 45.242 12.1201C45.3112 12.0557 45.3658 11.977 45.402 11.8894C45.4381 11.8017 45.4548 11.7073 45.4512 11.6125C45.4542 11.5233 45.4376 11.4344 45.4027 11.3524C45.3677 11.2703 45.3151 11.197 45.2488 11.1376C45.1138 11.017 44.9372 10.9565 44.7187 10.9562C44.5187 10.9482 44.3234 11.0185 44.1739 11.1523C44.1046 11.2168 44.0499 11.2955 44.0135 11.3831C43.977 11.4707 43.9597 11.5651 43.9628 11.66C43.9597 11.7494 43.9764 11.8383 44.0116 11.9204C44.0467 12.0025 44.0995 12.0757 44.1661 12.1348C44.3017 12.2558 44.4781 12.3163 44.6952 12.3163M44.706 12.2334C44.6335 12.2367 44.561 12.2244 44.4937 12.197C44.4264 12.1697 44.3657 12.128 44.3158 12.075C44.2145 11.9586 44.1621 11.8072 44.1696 11.6527C44.1617 11.4912 44.2138 11.3327 44.3158 11.2078C44.3644 11.1524 44.4246 11.1087 44.4921 11.0797C44.5596 11.0508 44.6327 11.0374 44.706 11.0405C44.7785 11.0375 44.8508 11.05 44.9181 11.0773C44.9854 11.1046 45.0461 11.1461 45.0962 11.199C45.1973 11.3155 45.2497 11.4668 45.2424 11.6213C45.2501 11.7828 45.198 11.9416 45.0962 12.0667C45.0474 12.1218 44.9872 12.1653 44.9197 12.1942C44.8522 12.223 44.7792 12.2364 44.706 12.2334Z" fill="white"/>
<path d="M46.9336 11.7196C46.9336 11.9158 46.8849 12.063 46.7874 12.1635C46.6898 12.2641 46.5479 12.3156 46.3606 12.3156C46.1733 12.3156 46.029 12.2724 45.9378 12.1861C45.8466 12.0998 45.8007 11.9653 45.7998 11.7849V11.6495L45.7968 11.2124C45.7968 11.1354 45.7939 11.081 45.792 11.0496C45.7915 11.0253 45.789 11.001 45.7847 10.9771C45.8189 10.9814 45.8534 10.9835 45.888 10.9834C45.9225 10.9835 45.9568 10.9814 45.9909 10.9771C45.9864 11.0015 45.9836 11.0262 45.9827 11.0511C45.9827 11.082 45.9788 11.136 45.9763 11.2124C45.9718 11.3413 45.9697 11.4865 45.97 11.648V11.726C45.97 11.8918 46.0056 12.0154 46.0748 12.0953C46.1441 12.1753 46.2499 12.2155 46.3918 12.2155C46.5421 12.2155 46.6508 12.1733 46.7201 12.0885C46.7893 12.0036 46.823 11.8697 46.8225 11.6863V11.649L46.8195 11.2124C46.8195 11.133 46.8195 11.0771 46.8195 11.0457C46.8195 11.0143 46.8195 10.9912 46.8161 10.9771C46.8396 10.9813 46.8635 10.9835 46.8873 10.9834C46.9114 10.9835 46.9354 10.9814 46.959 10.9771C46.954 11.0034 46.9507 11.0301 46.9493 11.0569C46.9463 11.0889 46.9439 11.1408 46.941 11.2124C46.9377 11.3413 46.9359 11.4866 46.9356 11.6485L46.9336 11.7196Z" fill="white"/>
<path d="M47.3565 12.2297C47.3553 12.2517 47.353 12.2737 47.3496 12.2955C47.3835 12.2917 47.4174 12.2899 47.4516 12.2901C47.4854 12.2899 47.5193 12.2917 47.553 12.2955C47.5499 12.2736 47.5479 12.2517 47.5471 12.2297C47.5471 12.1988 47.5437 12.1419 47.5413 12.06C47.5413 11.9384 47.5379 11.801 47.5379 11.649H47.6028C47.6713 11.7265 47.7487 11.8179 47.8349 11.9232L47.9466 12.06C47.9997 12.1233 48.0378 12.1704 48.0611 12.2018C48.0837 12.2315 48.1041 12.2628 48.1221 12.2955C48.1582 12.292 48.2006 12.2901 48.247 12.2901C48.2933 12.2901 48.3357 12.2901 48.3718 12.2955C48.364 12.2891 48.3465 12.27 48.3182 12.2386C48.2899 12.2072 48.2387 12.1478 48.1631 12.06L48.0548 11.9325C47.9607 11.8207 47.8797 11.7231 47.811 11.6382C47.8991 11.6261 47.9839 11.5966 48.0607 11.5514C48.1089 11.5268 48.1495 11.4893 48.1781 11.4432C48.2067 11.397 48.2223 11.3439 48.2231 11.2895C48.2259 11.2444 48.2173 11.1994 48.198 11.1586C48.1787 11.1178 48.1494 11.0827 48.1129 11.0565C48.0397 11.004 47.9295 10.9785 47.7822 10.9785H47.7018C47.672 10.9785 47.6384 10.9785 47.6013 10.9834H47.5037C47.4613 10.9834 47.4096 10.9799 47.3477 10.9771C47.351 10.9984 47.353 11.0201 47.3535 11.0418C47.3535 11.0736 47.3569 11.1306 47.3598 11.2124C47.3618 11.3374 47.3628 11.4788 47.3628 11.6368C47.3628 11.7927 47.3628 11.9311 47.3598 12.06C47.3569 12.1419 47.3554 12.1988 47.3545 12.2297M47.534 11.0727C47.5827 11.0692 47.6398 11.0663 47.7003 11.0658C47.7848 11.0605 47.8688 11.0814 47.9412 11.1256C47.9685 11.1447 47.9905 11.1706 48.0051 11.2006C48.0196 11.2307 48.0264 11.2639 48.0245 11.2973C48.0248 11.3363 48.015 11.3746 47.9959 11.4085C47.9768 11.4425 47.9491 11.4707 47.9158 11.4906C47.8276 11.5433 47.7257 11.5685 47.6232 11.5627C47.5915 11.5627 47.5608 11.5627 47.532 11.5656L47.534 11.0727Z" fill="white"/>
<path d="M49.2046 12.2291C49.2046 12.261 49.2007 12.2831 49.1987 12.2958C49.2324 12.2917 49.2663 12.2897 49.3001 12.2899C49.3343 12.2897 49.3683 12.2917 49.4021 12.2958C49.3984 12.2743 49.3965 12.2525 49.3963 12.2306C49.3963 12.1992 49.3918 12.1423 49.3899 12.0599C49.3865 11.9476 49.3855 11.822 49.386 11.6837C49.4439 11.6909 49.5023 11.6938 49.5606 11.6925C49.7284 11.6925 49.8584 11.6598 49.9508 11.5944C49.9956 11.5626 50.0316 11.52 50.0558 11.4704C50.0799 11.4208 50.0912 11.366 50.0888 11.3109C50.0921 11.2626 50.0832 11.2143 50.0628 11.1704C50.0424 11.1265 50.0112 11.0887 49.9722 11.0603C49.8942 11.0058 49.7772 10.9789 49.6137 10.9789H49.5328C49.5031 10.9789 49.4709 10.9789 49.4353 10.9833C49.4084 10.9833 49.3753 10.9833 49.3377 10.9833C49.3001 10.9833 49.2538 10.9833 49.2031 10.9833C49.2031 10.9955 49.207 11.0176 49.2089 11.049C49.211 11.0804 49.2124 11.1373 49.2149 11.2182C49.2149 11.3438 49.2182 11.4841 49.2177 11.6381C49.2173 11.7921 49.2177 11.9323 49.2149 12.0604C49.2124 12.1418 49.2104 12.1987 49.2089 12.2296M49.3885 11.0794C49.4397 11.0745 49.4967 11.0715 49.5606 11.0715C49.6475 11.0659 49.734 11.0878 49.8078 11.1344C49.8359 11.156 49.8582 11.1842 49.8728 11.2165C49.8875 11.2488 49.8939 11.2843 49.8917 11.3197C49.8931 11.3598 49.8846 11.3995 49.867 11.4355C49.8495 11.4715 49.8235 11.5027 49.7913 11.5262C49.7121 11.5816 49.6169 11.6088 49.5206 11.6038C49.4718 11.6038 49.4295 11.6038 49.3885 11.5984V11.0794Z" fill="white"/>
<path d="M50.3198 12.3048C50.3237 12.2832 50.3258 12.2612 50.3262 12.2391C50.3262 12.2073 50.3291 12.1513 50.3321 12.0694C50.3321 11.9414 50.3321 11.7972 50.3321 11.6363C50.3321 11.4754 50.3321 11.3313 50.3321 11.2042C50.3291 11.1227 50.3271 11.0664 50.3262 11.0349C50.3257 11.0128 50.3236 10.9906 50.3198 10.9687C50.3586 10.9746 50.3977 10.9782 50.4369 10.9795C50.492 10.9825 50.5471 10.984 50.6027 10.984H50.7544C50.8149 10.984 50.869 10.9825 50.9168 10.9795C50.9586 10.9773 51.0003 10.9729 51.0416 10.9663C51.0339 11.0099 51.0339 11.0546 51.0416 11.0982C51.002 11.091 50.9619 11.0867 50.9217 11.085C50.8646 11.0825 50.8085 11.0806 50.7544 11.0806H50.6837C50.6222 11.0806 50.5652 11.0806 50.5115 11.0831L50.5061 11.5618H50.6827C50.7412 11.5618 50.8017 11.5618 50.8637 11.5569C50.9063 11.5554 50.9488 11.5514 50.9909 11.5446C50.987 11.5664 50.9852 11.5886 50.9856 11.6108C50.9852 11.6327 50.987 11.6545 50.9909 11.676C50.9488 11.6692 50.9063 11.6652 50.8637 11.6637C50.8017 11.6609 50.7412 11.6589 50.6827 11.6589H50.5066C50.5066 11.8634 50.5066 12.0415 50.5115 12.1921H50.6461H50.7129C50.7739 12.1921 50.8373 12.1921 50.9027 12.1861C50.9492 12.1842 50.9956 12.1796 51.0416 12.1724C51.0375 12.1947 51.0356 12.2174 51.0358 12.2401C51.0356 12.2624 51.0375 12.2845 51.0416 12.3063C51.0138 12.3019 50.9714 12.298 50.9134 12.2946C50.8553 12.2911 50.8027 12.2897 50.7544 12.2897H50.6027C50.554 12.2897 50.4988 12.2897 50.4438 12.2936C50.3886 12.2975 50.3462 12.3 50.3198 12.3039" fill="white"/>
<path d="M51.3955 12.2297C51.3955 12.2621 51.3911 12.2842 51.3892 12.2955C51.4228 12.2917 51.4567 12.2899 51.4906 12.2901C51.5248 12.2899 51.559 12.2917 51.593 12.2955C51.5892 12.2738 51.5871 12.2518 51.5867 12.2297C51.5867 12.1988 51.5828 12.1419 51.5808 12.06C51.5808 11.9384 51.577 11.801 51.577 11.649H51.6423C51.711 11.7265 51.7886 11.8178 51.8744 11.9232L51.9861 12.06C52.0392 12.1233 52.0778 12.1704 52.1007 12.2018C52.123 12.2316 52.1431 12.2629 52.1611 12.2955C52.1977 12.292 52.2397 12.2901 52.2865 12.2901C52.3334 12.2901 52.3748 12.2901 52.4119 12.2955C52.3926 12.2777 52.3745 12.2587 52.3577 12.2386C52.3299 12.2067 52.2777 12.1478 52.2021 12.06L52.0938 11.9325C51.9997 11.8207 51.9188 11.7231 51.85 11.6382C51.938 11.6261 52.0226 11.5966 52.0992 11.5514C52.2078 11.486 52.2622 11.3987 52.2622 11.2895C52.2649 11.2444 52.2562 11.1993 52.2368 11.1585C52.2175 11.1177 52.188 11.0827 52.1514 11.0565C52.0783 11.004 51.968 10.9785 51.8208 10.9785H51.7408C51.7105 10.9785 51.6779 10.9785 51.6403 10.9834H51.5428C51.5009 10.9834 51.4491 10.9799 51.3872 10.9771C51.3903 10.9985 51.3921 11.0201 51.3926 11.0418C51.3926 11.0736 51.3969 11.1306 51.3989 11.2124C51.4015 11.3374 51.4026 11.4788 51.4023 11.6368C51.4023 11.7927 51.4023 11.9311 51.3989 12.06C51.3989 12.1419 51.3945 12.1988 51.3935 12.2297M51.573 11.0727C51.6218 11.0692 51.6788 11.0663 51.7403 11.0658C51.8245 11.0605 51.9083 11.0814 51.9803 11.1256C52.0076 11.1447 52.0297 11.1705 52.0444 11.2005C52.0591 11.2306 52.0659 11.2639 52.0641 11.2973C52.0646 11.3364 52.0547 11.3749 52.0356 11.4088C52.0165 11.4429 51.9888 11.4712 51.9553 11.4911C51.867 11.5436 51.7652 11.5687 51.6627 11.5631C51.6311 11.5631 51.6008 11.5631 51.5716 11.5661L51.573 11.0727Z" fill="white"/>
<path d="M52.6357 12.0606C52.6357 11.9346 52.6382 11.7918 52.6382 11.6329C52.6382 11.474 52.6382 11.3313 52.6357 11.2047C52.6328 11.1227 52.6309 11.0664 52.6294 11.0349C52.6279 11.0036 52.6255 10.9815 52.6235 10.9687C52.6672 10.9748 52.7112 10.9784 52.7552 10.9795C52.8202 10.9825 52.8875 10.984 52.9571 10.984H53.0785C53.1395 10.984 53.1936 10.984 53.2415 10.9795C53.2892 10.9752 53.3307 10.9722 53.3663 10.9663C53.3623 10.9881 53.3605 11.0103 53.3609 11.0325C53.3605 11.0546 53.3623 11.0766 53.3663 11.0982C53.327 11.091 53.2872 11.0867 53.2473 11.085C53.1893 11.0825 53.1336 11.0806 53.0785 11.0806H52.9986C52.9332 11.0806 52.8737 11.0806 52.8171 11.0831C52.8139 11.2165 52.8118 11.3726 52.8108 11.5515H53.0131C53.0737 11.5515 53.1351 11.5515 53.1971 11.5471C53.2387 11.5455 53.2802 11.5414 53.3214 11.5348C53.313 11.5782 53.313 11.6228 53.3214 11.6662C53.2828 11.6606 53.2439 11.6572 53.2048 11.6559C53.1429 11.6525 53.079 11.6505 53.0131 11.649L52.8108 11.6461C52.8108 11.8008 52.8123 11.9396 52.8152 12.0626C52.8178 12.145 52.8197 12.2019 52.8211 12.2332C52.8215 12.2549 52.8235 12.2766 52.8269 12.298C52.7593 12.2908 52.6911 12.2908 52.6235 12.298C52.6235 12.2858 52.6284 12.2637 52.6303 12.2318C52.6323 12.1999 52.6303 12.1444 52.6357 12.0626" fill="white"/>
<path d="M53.6582 12.3048C53.6582 12.2926 53.6622 12.2705 53.6636 12.2391C53.6651 12.2077 53.6675 12.1513 53.6694 12.0694C53.6721 11.9415 53.6732 11.7972 53.6728 11.6363C53.6725 11.4754 53.6714 11.3314 53.6694 11.2042C53.6675 11.1227 53.6655 11.0664 53.6636 11.0349C53.6636 11.0036 53.6602 10.9815 53.6582 10.9687C53.697 10.9746 53.7361 10.9783 53.7753 10.9795C53.8299 10.9825 53.885 10.984 53.9411 10.984H54.0928C54.1533 10.984 54.2074 10.9825 54.2552 10.9795C54.297 10.9773 54.3387 10.9728 54.38 10.9663C54.3722 11.0099 54.3722 11.0546 54.38 11.0982C54.3401 11.0911 54.2996 11.0867 54.2591 11.085C54.202 11.0825 54.1464 11.0806 54.0928 11.0806H54.022C53.9606 11.0806 53.9031 11.0806 53.8499 11.0831L53.8441 11.5618H54.0206C54.0796 11.5618 54.1396 11.5618 54.2015 11.5569C54.2443 11.5554 54.287 11.5514 54.3293 11.5446C54.3248 11.5663 54.3226 11.5885 54.3229 11.6108C54.3227 11.6328 54.3248 11.6546 54.3293 11.676C54.287 11.6693 54.2443 11.6652 54.2015 11.6637C54.1396 11.6609 54.0796 11.6589 54.0206 11.6589H53.8445C53.8445 11.8634 53.8445 12.0415 53.8499 12.1921H53.9845H54.0513C54.1118 12.1921 54.1752 12.1921 54.2411 12.1861C54.2876 12.1841 54.334 12.1795 54.38 12.1724C54.3759 12.1947 54.3739 12.2174 54.3742 12.2401C54.3739 12.2624 54.3759 12.2845 54.38 12.3063C54.3517 12.3021 54.3088 12.2982 54.2513 12.2946C54.1932 12.2911 54.1401 12.2897 54.0928 12.2897H53.9411C53.8894 12.2897 53.8363 12.2897 53.7821 12.2936C53.728 12.2975 53.6846 12.3 53.6582 12.3039" fill="white"/>
<path d="M55.8008 12.0991C55.7963 12.1206 55.792 12.1393 55.79 12.155C55.7881 12.1707 55.7856 12.1903 55.7842 12.2119C55.7169 12.2475 55.6455 12.2742 55.5715 12.2914C55.4914 12.3087 55.4096 12.3171 55.3276 12.3164C55.1428 12.3242 54.9622 12.2591 54.8244 12.1349C54.76 12.0742 54.7094 12.0004 54.6758 11.9184C54.6421 11.8365 54.6263 11.7482 54.6293 11.6596C54.6262 11.565 54.6432 11.4707 54.6794 11.3833C54.7154 11.2958 54.7697 11.2171 54.8385 11.1524C54.9837 11.0186 55.1758 10.9481 55.3725 10.9562C55.4512 10.9556 55.5298 10.9626 55.6071 10.9773C55.6808 10.9912 55.7529 11.0125 55.8222 11.0411L55.7968 11.1196C55.7909 11.1421 55.7842 11.1686 55.7768 11.1995H55.7446C55.6985 11.1483 55.6417 11.108 55.5783 11.0813C55.4787 11.0373 55.3677 11.0258 55.2612 11.0486C55.1547 11.0714 55.058 11.1273 54.9848 11.2083C54.8826 11.3331 54.8305 11.4917 54.8385 11.6532C54.8326 11.8058 54.8849 11.9547 54.9848 12.0697C55.032 12.1228 55.0901 12.165 55.1551 12.1933C55.2201 12.2216 55.2905 12.2353 55.3613 12.2335C55.4405 12.2335 55.5191 12.2196 55.5935 12.1923C55.6625 12.167 55.7259 12.1283 55.7803 12.0785L55.8008 12.0991Z" fill="white"/>
<path d="M56.4008 12.0611C56.4008 11.9346 56.4038 11.7938 56.4038 11.6393C56.4038 11.422 56.4038 11.2356 56.3975 11.0791H56.2921C56.2267 11.0791 56.1614 11.0791 56.0971 11.0845C56.0517 11.0861 56.0066 11.0907 55.9619 11.0982C55.9698 11.0546 55.9698 11.0099 55.9619 10.9663C56.0346 10.9707 56.117 10.9752 56.2092 10.9786C56.3014 10.982 56.3716 10.984 56.4219 10.984H56.5267C56.5794 10.984 56.653 10.984 56.7452 10.9786C56.8373 10.9732 56.9169 10.9707 56.9861 10.9663C56.9783 11.0099 56.9783 11.0546 56.9861 11.0982C56.9417 11.0914 56.8969 11.0873 56.852 11.086C56.7866 11.0825 56.7213 11.0806 56.6569 11.0806H56.5818C56.5769 11.236 56.575 11.4239 56.575 11.6388C56.575 11.7952 56.575 11.9365 56.5784 12.0616C56.5813 12.1425 56.5833 12.1989 56.5843 12.2303C56.5846 12.2523 56.5868 12.2743 56.5906 12.296C56.5565 12.2923 56.5223 12.2905 56.4881 12.2906C56.4543 12.2905 56.4204 12.2923 56.3867 12.296C56.3901 12.2742 56.3922 12.2523 56.393 12.2303C56.393 12.1989 56.3965 12.1425 56.3989 12.0616" fill="white"/>
<path d="M58.0315 11.645H58.1647C58.2654 11.6384 58.3659 11.6609 58.4544 11.7097C58.4861 11.7303 58.5119 11.759 58.529 11.7928C58.5462 11.8267 58.554 11.8646 58.5519 11.9025C58.5546 11.9447 58.5469 11.9869 58.5292 12.0252C58.5116 12.0637 58.4847 12.097 58.451 12.1223C58.3846 12.1713 58.2851 12.1973 58.1544 12.1973C58.1132 12.1972 58.072 12.1943 58.0311 12.1885L58.0315 11.645ZM57.8521 12.2336C57.8514 12.2554 57.849 12.2773 57.8452 12.2988L57.9428 12.2929L58.1964 12.2988C58.3366 12.3051 58.4754 12.2688 58.5948 12.1948C58.6413 12.1669 58.6799 12.1273 58.7066 12.0799C58.7334 12.0326 58.7474 11.9791 58.7475 11.9246C58.7503 11.873 58.7396 11.8217 58.7166 11.7756C58.6935 11.7296 58.6587 11.6905 58.6158 11.6622C58.5438 11.6189 58.4632 11.5921 58.3798 11.5837C58.444 11.5703 58.5054 11.5453 58.5607 11.5096C58.6038 11.4851 58.6397 11.4494 58.6646 11.4063C58.6894 11.3632 58.7024 11.3142 58.7021 11.2643C58.704 11.2213 58.6941 11.1785 58.6734 11.1408C58.6526 11.1031 58.6219 11.0718 58.5846 11.0505C58.5059 11.0031 58.3876 10.9792 58.2295 10.9789L57.9428 10.9848L57.8452 10.9789C57.8492 11.0004 57.8511 11.0222 57.8511 11.0441C57.8511 11.0755 57.8555 11.1324 57.8574 11.2148C57.8574 11.3394 57.8613 11.4812 57.8609 11.6386C57.8604 11.796 57.8609 11.9329 57.8574 12.0619C57.8574 12.1438 57.8535 12.2012 57.8521 12.2326M58.0315 11.0902C58.0815 11.0818 58.1321 11.078 58.1827 11.079C58.2657 11.0746 58.3482 11.0955 58.4193 11.1388C58.4465 11.1549 58.469 11.1781 58.4846 11.2058C58.5001 11.2336 58.508 11.2649 58.5075 11.2967C58.508 11.333 58.4994 11.3689 58.4823 11.4009C58.4652 11.4329 58.4403 11.46 58.41 11.4797C58.3334 11.5287 58.2436 11.5528 58.153 11.5484H58.03L58.0315 11.0902Z" fill="white"/>
<path d="M58.98 12.2351C58.9693 12.2557 58.9575 12.2758 58.9448 12.2954C58.971 12.2916 58.9974 12.2898 59.0238 12.29C59.0508 12.2898 59.0776 12.2916 59.1043 12.2954C59.1135 12.2576 59.1233 12.2228 59.134 12.1914C59.1448 12.16 59.1633 12.1164 59.1872 12.0599C59.2199 11.98 59.2575 11.8946 59.2984 11.8039C59.3817 11.7887 59.4665 11.7833 59.5511 11.7877C59.634 11.7886 59.7169 11.794 59.7993 11.8039L59.9115 12.0599C59.9383 12.1207 59.9573 12.1674 59.9685 12.1988C59.9797 12.2301 59.9904 12.263 59.9992 12.2968C60.0355 12.2931 60.072 12.2913 60.1084 12.2914C60.1451 12.2913 60.1817 12.2931 60.2182 12.2968L60.1026 12.0614C60.0426 11.9373 59.9783 11.798 59.9076 11.6425C59.7881 11.3806 59.6915 11.1618 59.6179 10.9843H59.569C59.4956 11.1628 59.3969 11.3829 59.2731 11.6444C59.2004 11.7995 59.1326 11.9387 59.0701 12.0614C59.0263 12.1467 58.9955 12.2051 58.9789 12.2365M59.5511 11.2555L59.7237 11.6366L59.7432 11.6818C59.6827 11.6891 59.6173 11.6935 59.5481 11.695C59.4829 11.6962 59.4177 11.6925 59.3531 11.6837L59.3745 11.6347C59.4369 11.4949 59.4686 11.4257 59.4686 11.4257C59.4686 11.4257 59.4959 11.3688 59.5515 11.2555" fill="white"/>
<path d="M60.619 12.06C60.6219 12.14 60.6248 12.1954 60.6269 12.2273C60.628 12.2502 60.6305 12.2729 60.6341 12.2955C60.6104 12.2917 60.5864 12.2899 60.5624 12.2901C60.5383 12.2899 60.5141 12.2917 60.4902 12.2955C60.4941 12.2738 60.4962 12.2518 60.4966 12.2297C60.4966 12.1984 60.5 12.1419 60.5025 12.06C60.5025 11.934 60.5053 11.7927 60.5053 11.6372C60.5053 11.4818 60.5053 11.3429 60.5025 11.2184C60.5 11.1369 60.4976 11.0805 60.4966 11.0486C60.4962 11.0267 60.4941 11.0049 60.4902 10.9834H60.5527C60.7214 11.1668 60.9375 11.392 61.2008 11.6588L61.5276 11.985V11.649C61.5276 11.4876 61.5276 11.3425 61.5237 11.2124C61.5214 11.1303 61.5195 11.0735 61.5179 11.0418C61.5175 11.02 61.5154 10.9984 61.5115 10.9771C61.5348 10.9814 61.5585 10.9835 61.5822 10.9834C61.606 10.9835 61.6296 10.9814 61.6529 10.9771C61.6491 10.9984 61.647 11.02 61.6466 11.0418C61.6466 11.0736 61.6437 11.1306 61.6408 11.2124C61.6408 11.3415 61.6373 11.4866 61.6373 11.6485C61.6373 11.9149 61.6408 12.139 61.6461 12.3156H61.5886C61.4198 12.1318 61.2038 11.9067 60.9404 11.6401L60.6122 11.311V11.6377C60.6122 11.7951 60.6151 11.9359 60.6185 12.061" fill="white"/>
<path d="M62.2596 12.0596C62.262 12.1415 62.2645 12.1984 62.2664 12.2297C62.2661 12.252 62.2679 12.2741 62.2717 12.2959C62.204 12.2881 62.1356 12.2881 62.0679 12.2959C62.0715 12.2744 62.0735 12.2526 62.0737 12.2308C62.0737 12.1993 62.0771 12.1419 62.0801 12.06C62.0801 11.9335 62.0825 11.7923 62.0825 11.6368C62.0825 11.4812 62.0825 11.3375 62.0801 11.213C62.0771 11.1306 62.0752 11.0736 62.0737 11.0422C62.0735 11.0204 62.0715 10.9986 62.0679 10.9771C62.1356 10.9849 62.204 10.9849 62.2717 10.9771C62.2679 10.9989 62.2661 11.021 62.2664 11.0433C62.2664 11.0746 62.262 11.131 62.2596 11.2124C62.2566 11.3267 62.2561 11.4509 62.2566 11.5858H62.2596C62.3473 11.5131 62.4502 11.4195 62.5668 11.3052C62.6946 11.1806 62.796 11.0731 62.8731 10.9829H62.9774C63.0123 10.9832 63.0472 10.9812 63.0818 10.9771C63.0558 10.9949 63.0311 11.0146 63.0077 11.0359C62.9706 11.0673 62.9043 11.1261 62.8072 11.2124L62.6448 11.3596L62.4356 11.5588L62.6526 11.8089L62.8751 12.0576L63.0375 12.2381C63.0662 12.27 63.0862 12.2871 63.0911 12.294C63.0071 12.2862 62.9225 12.2862 62.8385 12.294C62.8188 12.2605 62.7966 12.2285 62.7721 12.1984C62.7468 12.167 62.7073 12.1204 62.6512 12.0576L62.5464 11.9418C62.4327 11.8148 62.3361 11.7099 62.2537 11.6254V11.6353C62.2537 11.7926 62.2552 11.934 62.2581 12.0596" fill="white"/>
<path d="M63.3345 12.06C63.3345 11.933 63.3379 11.7927 63.3379 11.6368C63.3379 11.4807 63.3379 11.3375 63.3345 11.213C63.3345 11.131 63.3306 11.0746 63.3291 11.0433C63.3284 11.021 63.326 10.9989 63.3223 10.9771C63.3564 10.9814 63.3907 10.9835 63.4252 10.9834C63.4594 10.9835 63.4936 10.9814 63.5275 10.9771C63.5242 10.999 63.5223 11.021 63.5216 11.0433C63.5216 11.0746 63.5183 11.131 63.5153 11.213C63.5153 11.339 63.5129 11.4803 63.5129 11.6358C63.5129 11.7912 63.5129 11.9344 63.5153 12.06C63.5183 12.1415 63.5202 12.1984 63.5216 12.2297C63.5222 12.2517 63.5242 12.2737 63.5275 12.2955C63.4936 12.2918 63.4594 12.29 63.4252 12.2901C63.3908 12.29 63.3565 12.2918 63.3223 12.2955C63.3263 12.2738 63.3286 12.2518 63.3291 12.2297C63.3291 12.1984 63.3326 12.1415 63.3345 12.06Z" fill="white"/>
<path d="M64.0653 12.06C64.0682 12.14 64.0706 12.1954 64.0726 12.2273C64.0738 12.2502 64.0763 12.2729 64.0798 12.2955C64.0562 12.2917 64.0322 12.2899 64.0082 12.2901C63.9842 12.2899 63.9602 12.2918 63.9365 12.2955C63.9399 12.2737 63.9418 12.2517 63.9424 12.2297C63.9424 12.1984 63.9463 12.1419 63.9482 12.06C63.9482 11.934 63.9511 11.7927 63.9511 11.6372C63.9511 11.4818 63.9511 11.3429 63.9482 11.2184C63.9482 11.1369 63.9443 11.0805 63.9424 11.0486C63.9418 11.0267 63.9399 11.005 63.9365 10.9834H63.9989C64.1676 11.1668 64.3835 11.392 64.6466 11.6588L64.9733 11.985V11.649C64.9733 11.4876 64.9733 11.3425 64.9684 11.2124C64.9665 11.1303 64.9645 11.0735 64.9626 11.0418C64.9624 11.0201 64.9606 10.9984 64.9572 10.9771C64.9803 10.9814 65.0036 10.9835 65.027 10.9834C65.0507 10.9835 65.0744 10.9814 65.0977 10.9771C65.0941 10.9984 65.0921 11.0201 65.0918 11.0418C65.0918 11.0736 65.0885 11.1306 65.0855 11.2124C65.0855 11.3415 65.0821 11.4866 65.0821 11.6485C65.0821 11.915 65.0853 12.1373 65.0918 12.3156H65.0338C64.8651 12.1318 64.649 11.9067 64.3856 11.6401L64.0584 11.311V11.6377C64.0584 11.7951 64.0614 11.9359 64.0653 12.061" fill="white"/>
<path d="M66.1456 12.3163C65.9537 12.3246 65.7658 12.2598 65.6193 12.1349C65.553 12.0755 65.5005 12.0023 65.4656 11.9202C65.4307 11.8381 65.4142 11.7492 65.4174 11.66C65.414 11.5654 65.4308 11.4711 65.4666 11.3836C65.5024 11.296 65.5565 11.2172 65.6252 11.1524C65.7733 11.0186 65.9676 10.9481 66.1665 10.9562C66.263 10.9556 66.3594 10.9653 66.4538 10.9851C66.5402 11.0046 66.6238 11.0346 66.703 11.0744C66.6928 11.1043 66.684 11.1303 66.6772 11.1529C66.6703 11.1754 66.664 11.202 66.6567 11.2338H66.6245C66.568 11.1733 66.4997 11.1249 66.424 11.0916C66.3505 11.0573 66.2705 11.0392 66.1895 11.0386C66.1132 11.0355 66.037 11.0488 65.9662 11.0776C65.8954 11.1064 65.8315 11.1502 65.7789 11.2059C65.6716 11.329 65.6161 11.4892 65.6242 11.6527C65.6206 11.7298 65.6324 11.8068 65.6591 11.8793C65.6857 11.9517 65.7266 12.0179 65.7793 12.0741C65.8334 12.1273 65.8979 12.1689 65.9688 12.196C66.0396 12.223 66.1153 12.2352 66.191 12.2315C66.3046 12.2309 66.4172 12.2094 66.523 12.1677V12.0353C66.523 11.9504 66.523 11.8838 66.5187 11.8391C66.5143 11.7945 66.5099 11.741 66.5021 11.6846C66.5369 11.6886 66.5719 11.6904 66.6069 11.69C66.6417 11.6904 66.6763 11.6886 66.7108 11.6846C66.7059 11.7109 66.7023 11.7374 66.7001 11.764C66.7001 11.796 66.6972 11.8474 66.6957 11.9195V11.9543C66.6957 12.0421 66.6957 12.1044 66.6957 12.1422C66.6968 12.1732 66.7004 12.204 66.7065 12.2345C66.5244 12.2921 66.3344 12.3198 66.1436 12.3163" fill="white"/>
<path d="M67.6987 12.2291C67.6977 12.2515 67.6954 12.2738 67.6919 12.2958C67.7257 12.2917 67.7597 12.2897 67.7938 12.2899C67.8277 12.2897 67.8616 12.2917 67.8953 12.2958C67.8953 12.2841 67.8914 12.262 67.8894 12.2306C67.8875 12.1992 67.886 12.1423 67.8835 12.0599C67.8803 11.9475 67.8791 11.822 67.8802 11.6837H67.8772C67.9353 11.6909 67.9938 11.6938 68.0523 11.6925C68.2195 11.6925 68.3493 11.6592 68.4425 11.5944C68.4872 11.5626 68.5233 11.52 68.5475 11.4704C68.5716 11.4208 68.5829 11.366 68.5805 11.3109C68.5838 11.2627 68.575 11.2144 68.5549 11.1706C68.5346 11.1268 68.5037 11.0888 68.4649 11.0603C68.3868 11.006 68.2672 10.9789 68.106 10.9789H68.0245C67.9958 10.9789 67.9635 10.9789 67.927 10.9833C67.9001 10.9833 67.8679 10.9833 67.8294 10.9833C67.7909 10.9833 67.7456 10.9833 67.6938 10.9833C67.6974 11.005 67.6994 11.027 67.6997 11.049C67.6997 11.0804 67.7031 11.1373 67.706 11.2182C67.706 11.3438 67.7094 11.4841 67.7094 11.6381C67.7094 11.7921 67.7094 11.9323 67.706 12.0604C67.7031 12.1418 67.7012 12.1987 67.7006 12.2296M67.8802 11.0794C67.9289 11.0745 67.9884 11.0715 68.0513 11.0715C68.1385 11.0661 68.2253 11.088 68.2995 11.1344C68.3276 11.156 68.3498 11.1842 68.3645 11.2165C68.3791 11.2488 68.3856 11.2843 68.3834 11.3197C68.3847 11.3599 68.376 11.3997 68.3583 11.4357C68.3407 11.4717 68.3144 11.5028 68.282 11.5262C68.2024 11.5819 68.1066 11.609 68.0098 11.6032C67.9611 11.6032 67.9186 11.6032 67.8777 11.5978L67.8802 11.0794Z" fill="white"/>
<path d="M68.7221 12.2351C68.7119 12.2559 68.7004 12.2761 68.6875 12.2954C68.7402 12.2882 68.7937 12.2882 68.8465 12.2954C68.8551 12.2602 68.8655 12.2254 68.8777 12.1914C68.8884 12.1595 68.9055 12.1164 68.9299 12.0599C68.9621 11.98 69.0001 11.8946 69.0415 11.8039C69.1247 11.7887 69.2093 11.7833 69.2937 11.7877C69.3768 11.7886 69.4599 11.794 69.5424 11.8039L69.6546 12.0599C69.6809 12.1207 69.7004 12.1674 69.7116 12.1988C69.7228 12.2301 69.7327 12.263 69.7414 12.2968C69.7778 12.2931 69.8145 12.2913 69.8511 12.2914C69.888 12.2913 69.9247 12.2931 69.9613 12.2968L69.8448 12.0614C69.7856 11.9372 69.7206 11.7975 69.6497 11.6425C69.5307 11.3806 69.4342 11.1618 69.36 10.9843H69.3113C69.2381 11.1628 69.1396 11.3829 69.0157 11.6444C68.9431 11.7995 68.8752 11.9387 68.8128 12.0614C68.7689 12.1467 68.7382 12.2051 68.7212 12.2365M69.2932 11.2555L69.4668 11.6366L69.4864 11.6818C69.4258 11.6891 69.36 11.6935 69.2912 11.695C69.226 11.6962 69.1609 11.6925 69.0962 11.6837L69.1176 11.6347L69.2118 11.4257C69.2118 11.4257 69.2391 11.3688 69.2942 11.2555" fill="white"/>
<path d="M70.2182 12.2297C70.2173 12.2518 70.2151 12.2737 70.2114 12.2955C70.2792 12.2883 70.3475 12.2883 70.4153 12.2955C70.4119 12.2737 70.4098 12.2517 70.4089 12.2297C70.4089 12.1988 70.4055 12.1419 70.403 12.06C70.403 11.9384 70.3987 11.801 70.3987 11.649H70.465C70.5333 11.7265 70.6113 11.8178 70.6976 11.9232L70.8089 12.06C70.8615 12.1233 70.8995 12.1704 70.9234 12.2018C70.9457 12.2316 70.9659 12.2629 70.9839 12.2955C71.02 12.292 71.0619 12.2901 71.1087 12.2901C71.1556 12.2901 71.1975 12.2901 71.2336 12.2955C71.2258 12.2891 71.2082 12.27 71.1799 12.2386C71.1517 12.2072 71.101 12.1478 71.0249 12.06L70.9156 11.9325C70.822 11.8207 70.7416 11.7231 70.6747 11.6382C70.7626 11.626 70.8473 11.5965 70.9239 11.5514C70.9721 11.5268 71.0126 11.4893 71.0411 11.4431C71.0697 11.3969 71.0851 11.3438 71.0858 11.2895C71.0887 11.2444 71.0802 11.1994 71.061 11.1587C71.0418 11.1179 71.0125 11.0828 70.9761 11.0565C70.903 11.004 70.7927 10.9785 70.645 10.9785H70.565C70.5352 10.9785 70.5016 10.9785 70.465 10.9834H70.3674C70.3255 10.9834 70.2733 10.9799 70.2114 10.9771C70.215 10.9984 70.217 11.0201 70.2173 11.0418C70.2173 11.0736 70.2207 11.1306 70.2236 11.2124C70.2236 11.3375 70.227 11.4788 70.227 11.6368C70.227 11.7947 70.227 11.9311 70.2236 12.06C70.2207 12.1419 70.2187 12.1988 70.2182 12.2297ZM70.3963 11.0727C70.445 11.0692 70.5026 11.0663 70.5626 11.0658C70.6471 11.0604 70.7311 11.0813 70.8035 11.1256C70.8307 11.1447 70.8527 11.1706 70.8674 11.2006C70.8819 11.2307 70.8886 11.2639 70.8868 11.2973C70.8871 11.3364 70.8772 11.3748 70.8582 11.4088C70.8391 11.4428 70.8115 11.4711 70.7781 11.4911C70.6898 11.5437 70.588 11.5688 70.4854 11.5631C70.4533 11.5631 70.4231 11.5631 70.3943 11.5661L70.3963 11.0727Z" fill="white"/>
<path d="M71.7763 12.0608C71.7783 11.9342 71.7792 11.7936 71.7792 11.6389C71.7792 11.4216 71.7792 11.2352 71.7729 11.0788H71.6675C71.6022 11.0788 71.5374 11.0788 71.4725 11.0842C71.428 11.0855 71.3838 11.0895 71.3398 11.0965C71.3476 11.0528 71.3476 11.0081 71.3398 10.9645C71.413 10.9689 71.4949 10.9733 71.5871 10.9768C71.6793 10.9802 71.7499 10.9822 71.7997 10.9822H71.9046C71.9578 10.9822 72.0309 10.9822 72.123 10.9768C72.2153 10.9714 72.2957 10.9689 72.3669 10.9645C72.3578 11.008 72.3578 11.053 72.3669 11.0965C72.3221 11.0897 72.277 11.0855 72.2318 11.0842C72.1664 11.0808 72.1011 11.0788 72.0367 11.0788H71.9597C71.9558 11.2343 71.9539 11.4222 71.9539 11.637C71.9539 11.7935 71.9539 11.9347 71.9539 12.0598C71.9567 12.1407 71.9582 12.1971 71.9602 12.2285C71.9605 12.2505 71.9624 12.2725 71.966 12.2942C71.9324 12.2905 71.8985 12.2887 71.8646 12.2888C71.8304 12.2887 71.7962 12.2905 71.7622 12.2942C71.766 12.2725 71.7681 12.2506 71.7685 12.2285C71.7685 12.1971 71.7719 12.1407 71.7743 12.0598" fill="white"/>
<path d="M72.7718 12.06C72.7752 12.14 72.7772 12.1954 72.7796 12.2273C72.7804 12.2502 72.7828 12.2729 72.7869 12.2955C72.7385 12.288 72.6891 12.288 72.6406 12.2955C72.6444 12.2738 72.6466 12.2518 72.6469 12.2297C72.6469 12.1984 72.6504 12.1419 72.6523 12.06C72.6523 11.934 72.6557 11.7927 72.6557 11.6372C72.6557 11.4818 72.6557 11.3429 72.6523 11.2184C72.6523 11.1369 72.6484 11.0805 72.6469 11.0486C72.6466 11.0267 72.6445 11.0049 72.6406 10.9834H72.7025C72.8723 11.1668 73.0883 11.392 73.3507 11.6588L73.6774 11.985V11.649C73.6774 11.4876 73.6774 11.3425 73.6731 11.2124C73.6705 11.1303 73.6686 11.0735 73.6672 11.0418C73.6672 11.0109 73.6633 10.9888 73.6614 10.9771C73.6845 10.9814 73.708 10.9835 73.7316 10.9834C73.7552 10.9835 73.7787 10.9814 73.8018 10.9771C73.798 10.9984 73.7958 11.02 73.7955 11.0418C73.7955 11.0736 73.7921 11.1306 73.7901 11.2124C73.7901 11.3415 73.7867 11.4866 73.7867 11.6485C73.7867 11.9149 73.7901 12.139 73.7955 12.3156H73.738C73.5692 12.1318 73.3532 11.9067 73.0898 11.6401L72.761 11.311V11.6377C72.761 11.7951 72.7635 11.9359 72.7679 12.061" fill="white"/>
<path d="M74.1792 12.3048C74.1792 12.2926 74.1831 12.2705 74.1856 12.2391C74.188 12.2077 74.1884 12.1513 74.1914 12.0694C74.1914 11.9414 74.1938 11.7972 74.1938 11.6363C74.1938 11.4754 74.1938 11.3313 74.1914 11.2042C74.1884 11.1227 74.1865 11.0664 74.1856 11.0349C74.1831 11.0036 74.1811 10.9815 74.1792 10.9687C74.218 10.9746 74.2571 10.9782 74.2963 10.9795C74.3509 10.9825 74.4065 10.984 74.4625 10.984H74.6137C74.6742 10.984 74.7283 10.984 74.7766 10.9795C74.8183 10.9773 74.8598 10.9729 74.901 10.9663C74.8932 11.0099 74.8932 11.0546 74.901 11.0982C74.8614 11.0911 74.8212 11.0867 74.781 11.085C74.724 11.0825 74.6679 11.0806 74.6137 11.0806H74.5421C74.4806 11.0806 74.4235 11.0806 74.3699 11.0831L74.364 11.5618H74.5421C74.6001 11.5618 74.6601 11.5618 74.722 11.5569C74.7648 11.5554 74.8074 11.5514 74.8498 11.5446C74.8455 11.5664 74.8434 11.5885 74.8434 11.6108C74.8434 11.6327 74.8455 11.6546 74.8498 11.676C74.8074 11.6693 74.7648 11.6652 74.722 11.6637C74.6601 11.6609 74.6001 11.6589 74.5421 11.6589H74.365C74.365 11.8634 74.365 12.0415 74.3704 12.1921H74.5055H74.5718C74.6327 12.1921 74.6957 12.1921 74.7615 12.1861C74.8081 12.1841 74.8544 12.1795 74.9005 12.1724C74.8963 12.1947 74.8944 12.2174 74.8947 12.2401C74.8945 12.2624 74.8964 12.2845 74.9005 12.3063C74.8727 12.3019 74.8293 12.298 74.7722 12.2946C74.7152 12.2911 74.6616 12.2897 74.6133 12.2897H74.4621C74.4099 12.2897 74.3567 12.2897 74.3031 12.2936C74.2494 12.2975 74.2055 12.3 74.1787 12.3039" fill="white"/>
<path d="M75.2607 12.2302C75.2607 12.2626 75.2564 12.2847 75.2544 12.2959C75.2881 12.2922 75.322 12.2904 75.3558 12.2905C75.39 12.2905 75.4242 12.2923 75.4583 12.2959C75.4545 12.2743 75.4522 12.2523 75.4514 12.2302C75.4514 12.1993 75.448 12.1424 75.446 12.0605C75.4436 11.9389 75.4422 11.8016 75.4422 11.6495H75.5075C75.5758 11.727 75.6539 11.8182 75.7402 11.9237L75.8513 12.0605C75.9045 12.1238 75.943 12.1709 75.966 12.2023C75.9882 12.2321 76.0084 12.2634 76.0264 12.2959C76.0635 12.2925 76.1049 12.2905 76.1517 12.2905C76.1986 12.2905 76.2401 12.2905 76.2771 12.2959C76.2579 12.2783 76.24 12.2592 76.2235 12.2391C76.1951 12.2072 76.1435 12.1483 76.0674 12.0605L75.9601 11.9325C75.866 11.8207 75.785 11.7231 75.7163 11.6382C75.8042 11.6261 75.8889 11.5966 75.9654 11.5514C76.0137 11.5268 76.0544 11.4894 76.083 11.4433C76.1117 11.3971 76.1272 11.3439 76.1278 11.2895C76.1307 11.2444 76.1221 11.1995 76.1029 11.1587C76.0837 11.118 76.0545 11.0828 76.0182 11.0565C75.9445 11.004 75.8343 10.9785 75.687 10.9785H75.607C75.5767 10.9785 75.5431 10.9785 75.5066 10.9834H75.409C75.3671 10.9834 75.3153 10.9799 75.2534 10.9771C75.2534 10.9893 75.2578 11.0104 75.2597 11.0418C75.2617 11.0731 75.2632 11.1306 75.2651 11.2124C75.2651 11.3375 75.2685 11.4788 75.2685 11.6368C75.2685 11.7947 75.2685 11.9311 75.2651 12.06C75.2651 12.1419 75.2607 12.1988 75.2597 12.2297M75.4393 11.0727C75.488 11.0692 75.545 11.0663 75.6065 11.0658C75.6907 11.0605 75.7745 11.0814 75.8465 11.1256C75.8738 11.1447 75.8959 11.1705 75.9106 11.2005C75.9253 11.2306 75.9321 11.2639 75.9304 11.2973C75.9308 11.3364 75.9209 11.3749 75.9018 11.4088C75.8827 11.4429 75.8551 11.4712 75.8216 11.4911C75.7332 11.5436 75.6314 11.5687 75.529 11.5631C75.4973 11.5631 75.467 11.5631 75.4378 11.5661L75.4393 11.0727Z" fill="white"/>
<path d="M21.8988 0.688673C22.0721 0.459926 22.2313 0.219497 22.4171 0C20.6034 3.22387 18.8028 6.45603 16.9929 9.68226C16.5419 10.496 16.0798 11.304 15.6336 12.1201C15.5945 12.0992 15.5591 12.0729 15.5281 12.0413C14.8913 11.3886 14.2511 10.7399 13.6133 10.0882C14.0662 10.0834 14.5187 10.0877 14.9716 10.0858C17.2809 6.95386 19.5901 3.82153 21.8988 0.688673Z" fill="white"/>
<path d="M4.00008 2.66869C9.41269 2.66091 14.8248 2.66918 20.2374 2.66479C18.4372 5.05589 16.6496 7.45682 14.8412 9.84162C11.2288 9.83865 7.61635 9.83967 4.00395 9.84303C3.99572 7.45142 4.00346 5.06027 4.00008 2.66869ZM13.1742 4.42955C12.8233 4.54539 12.5407 4.87293 12.5203 5.25011C12.4928 5.53486 12.5925 5.82829 12.7894 6.03518C13.0933 6.36712 13.5405 6.50241 13.886 6.78027C14.0065 6.87276 14.068 7.05477 13.9871 7.19249C13.9097 7.34586 13.7244 7.39398 13.567 7.4047C13.1974 7.41104 12.8591 7.23193 12.5537 7.04014C12.5664 7.35846 12.5861 7.67631 12.6167 7.99361C13.1442 8.15864 13.7534 8.27006 14.2649 7.99705C14.8195 7.71277 15.014 6.90539 14.6472 6.40014C14.3457 6.03221 13.8898 5.8585 13.4979 5.6117C13.3962 5.5426 13.2893 5.43947 13.3004 5.30465C13.3034 5.12013 13.5042 5.01943 13.6678 5.03015C13.9915 5.03938 14.2837 5.20488 14.5538 5.3703C14.5538 5.08852 14.5567 4.80722 14.5514 4.52543C14.1115 4.38283 13.6256 4.26407 13.1742 4.42955ZM5.76249 4.46556C6.16849 5.0983 6.6016 5.71295 7.00905 6.34372C7.02454 6.91118 7.01099 7.48061 7.01535 8.04862C7.29357 8.04909 7.57187 8.0501 7.8501 8.04815C7.85057 7.47575 7.84481 6.90289 7.85252 6.33104C8.2856 5.69785 8.76424 5.09392 9.20846 4.46703C8.91519 4.46313 8.62193 4.46751 8.32867 4.46459C8.05137 4.83983 7.78094 5.22092 7.51283 5.60293C7.25634 5.22679 7.02164 4.83643 6.76178 4.46264C6.42885 4.46897 6.09591 4.46361 5.76249 4.46556ZM9.5733 8.04956C10.3016 8.04909 11.0299 8.04815 11.7582 8.05057C11.7621 7.79845 11.7601 7.5468 11.7592 7.29523C11.3023 7.28983 10.8455 7.29422 10.3887 7.29375C10.3887 7.05822 10.3897 6.82214 10.3882 6.58661C10.7754 6.58754 11.1625 6.58708 11.5501 6.58755C11.5506 6.34466 11.5472 6.10232 11.5521 5.86045C11.1649 5.8531 10.7773 5.85654 10.3901 5.85803C10.3877 5.64339 10.3892 5.42828 10.3882 5.21309C10.8407 5.18148 11.2951 5.2156 11.7466 5.19752C11.7408 4.9537 11.7452 4.7094 11.7432 4.46556C11.0207 4.46508 10.2982 4.46654 9.57571 4.46459C9.57089 5.65943 9.57525 6.85477 9.5733 8.04956Z" fill="white"/>
<path d="M19.9441 4.75282C20.3346 4.05928 20.6989 3.35017 21.1011 2.66442C26.5664 2.66783 32.0323 2.67026 37.4976 2.66296C37.515 5.05602 37.5024 7.45006 37.5039 9.84362C30.7213 9.83924 23.9392 9.84269 17.1567 9.84222C18.0795 8.14217 19.0169 6.45042 19.9441 4.75282ZM28.5447 4.33767C28.5369 5.57536 28.5422 6.8135 28.5418 8.05164C28.7368 8.0507 28.9323 8.04632 29.1278 8.05508C29.1443 7.2963 29.1283 6.53704 29.1355 5.77881C29.905 6.56819 30.6512 7.38143 31.422 8.16987C31.4361 8.16306 31.4647 8.14992 31.4791 8.14311C31.483 6.98627 31.4777 5.82936 31.4816 4.67252C31.4835 4.60147 31.4758 4.53138 31.4573 4.46275C31.2633 4.46908 31.0697 4.46567 30.8757 4.46617C30.8723 5.22684 30.8757 5.98758 30.8742 6.74824C30.1586 5.98804 29.4365 5.23419 28.7194 4.47492C28.6686 4.42041 28.6172 4.36201 28.5447 4.33767ZM26.0293 4.75088C25.511 5.84986 25.0019 6.95317 24.4803 8.04968C24.6884 8.0507 24.8964 8.04874 25.105 8.05164C25.2081 7.84138 25.301 7.62674 25.3959 7.41312C25.932 7.41312 26.4682 7.41117 27.0044 7.41406C27.0968 7.62823 27.1897 7.84232 27.2904 8.05312C27.5047 8.04772 27.7196 8.05117 27.934 8.04968C27.3721 6.80865 26.8195 5.56362 26.2461 4.32843C26.1507 4.45643 26.1004 4.60925 26.0293 4.75088ZM21.7718 4.46617C21.7694 5.66096 21.7733 6.85583 21.7703 8.0507C22.1493 8.04772 22.5281 8.05555 22.9076 8.04483C23.2608 8.02198 23.6533 7.93825 23.8836 7.64231C24.0907 7.36735 24.1178 6.98479 24.0196 6.66216C23.9363 6.39979 23.7056 6.21051 23.4462 6.13891C23.5812 6.07028 23.7253 6.00557 23.8226 5.88436C24.0457 5.61667 24.0433 5.20837 23.8812 4.91102C23.7292 4.64186 23.4132 4.52554 23.1229 4.49147C22.6743 4.44329 22.2223 4.47638 21.7718 4.46617ZM32.6028 8.05117C32.8046 8.04921 33.0064 8.05117 33.2082 8.04968C33.2106 7.49145 33.2067 6.93369 33.2097 6.37593C33.741 6.93322 34.2718 7.49145 34.8008 8.05164C35.0654 8.04819 35.3296 8.05312 35.5944 8.04772C34.9991 7.43112 34.4117 6.80622 33.8175 6.18805C34.3541 5.61425 34.8937 5.04342 35.426 4.46617C35.1888 4.46665 34.9517 4.46567 34.7151 4.46714C34.2109 5.00007 33.7105 5.53639 33.2087 6.07177C33.2058 5.53639 33.2139 5.00101 33.2058 4.46567C33.0064 4.46665 32.807 4.46762 32.6076 4.4647C32.5941 5.66002 32.6043 6.85583 32.6028 8.05117Z" fill="white"/>
<path d="M22.3643 4.94527C22.6352 4.9531 22.9276 4.90685 23.1787 5.03385C23.4783 5.19301 23.4448 5.69044 23.1618 5.85007C22.9237 5.99757 22.6304 5.94937 22.3653 5.95664C22.3653 5.61939 22.3662 5.28214 22.3643 4.94527Z" fill="white"/>
<path d="M26.1699 5.64824C26.1815 5.63267 26.2052 5.602 26.2168 5.58643C26.4007 6.02494 26.5924 6.46 26.7767 6.89804C26.3925 6.89562 26.0073 6.90923 25.6235 6.8917C25.8133 6.48097 25.987 6.06242 26.1699 5.64824Z" fill="white"/>
<path d="M22.3643 6.43615C22.6638 6.45274 23.0016 6.3734 23.2653 6.55689C23.5649 6.77341 23.5194 7.31857 23.1797 7.47476C22.9252 7.59205 22.6357 7.54244 22.3653 7.55215C22.3647 7.1803 22.3657 6.80799 22.3643 6.43615Z" fill="white"/>
</svg>
