<svg width="147" height="25" viewBox="0 0 147 25" fill="none" xmlns="http://www.w3.org/2000/svg">
<g clip-path="url(#clip0_3_17716)">
<path fill-rule="evenodd" clip-rule="evenodd" d="M26.4604 11.0294C26.4604 10.5392 26.2154 10.2941 25.7254 10.2941H23.2754C22.5404 10.2941 22.2954 10.7843 22.2954 11.2745V15.6862C22.2954 16.4215 22.7854 16.6666 23.2754 16.6666H25.7254C25.9704 16.6666 25.9704 16.6666 26.2154 16.4215C26.4604 16.4215 26.4604 16.1764 26.4604 15.9313V11.0294ZM19.1104 10.5392C19.1104 9.31367 19.3554 8.57838 19.8454 7.84308C20.0904 7.59798 20.5804 7.59798 20.8254 7.35289C21.3154 7.10779 21.5604 7.10779 22.0504 7.10779H26.7054C28.6654 7.10779 29.6454 8.08818 29.6454 10.2941V17.1568C29.6454 17.8921 29.4004 18.6274 28.6654 19.1176C28.1754 19.6078 27.4404 20.098 26.7054 20.098H22.2954V25H19.1104V10.5392Z" fill="white"/>
<path fill-rule="evenodd" clip-rule="evenodd" d="M35.5248 16.1764C35.5248 16.1764 35.5248 16.4215 35.7698 16.4215C35.7698 16.6666 36.0148 16.6666 36.2598 16.6666H38.7098C39.1998 16.6666 39.4448 16.4215 39.6898 16.1764V15.196C39.6898 14.7058 39.1998 14.4607 38.7098 14.4607H36.2598C36.0148 14.4607 35.7698 14.4607 35.5248 14.4607C35.5248 14.7058 35.5248 14.9509 35.5248 15.196V16.1764ZM39.6898 11.0294C39.6898 10.5392 39.1998 10.2941 38.7098 10.2941H32.3398V7.10779H39.4448C41.6498 7.10779 42.6298 8.08818 42.8748 10.049V16.9117C42.6298 17.8921 42.3848 18.6274 41.8948 19.1176C41.4048 19.8529 40.6698 20.098 39.9348 20.098H35.5248C33.3198 20.098 32.3398 19.1176 32.3398 17.1568V14.4607C32.3398 12.4999 33.3198 11.5196 35.2798 11.2745H39.6898V11.0294Z" fill="white"/>
<path fill-rule="evenodd" clip-rule="evenodd" d="M51.6952 21.5686C51.9402 21.5686 52.1852 21.5686 52.4302 21.3235C52.6752 21.0784 52.6752 21.0784 52.6752 20.8333V20.5882V20.098H48.5102C48.0202 20.098 47.5302 19.8529 47.2852 19.8529C47.0402 19.6078 46.5502 19.3627 46.3052 19.1176C46.0602 18.8725 45.8152 18.3823 45.5702 18.1372C45.3252 17.647 45.3252 17.1568 45.3252 16.6666V7.10779H48.5102V15.6862C48.5102 16.4215 48.7552 16.6666 49.4902 16.6666H51.6952C51.9402 16.6666 52.1852 16.6666 52.4302 16.4215C52.4302 16.4215 52.6752 16.1764 52.6752 15.9313V15.6862V7.10779H55.8602V21.3235C55.8602 22.3039 55.6152 23.2843 55.1252 24.0196C54.3902 24.5098 53.6552 25 52.9202 25H45.3252V21.5686H51.6952Z" fill="white"/>
<path fill-rule="evenodd" clip-rule="evenodd" d="M58.3096 16.6666H63.9446C64.4346 16.6666 64.9246 16.4215 64.9246 16.1764V15.9313C64.9246 15.6862 64.9246 15.6862 64.6796 15.4411C64.6796 15.196 64.4346 15.196 64.1896 15.196H63.9446H61.4946C60.5146 15.196 60.0246 14.9509 59.2896 14.2156C58.7996 13.7254 58.3096 13.2352 58.3096 12.4999V10.049C58.3096 8.08818 59.5346 7.10779 61.4946 7.10779H68.1096V10.2941H62.4746C61.7396 10.2941 61.4946 10.5392 61.4946 11.0294V11.2745C61.4946 11.7647 61.7396 11.7647 62.4746 11.7647H65.4146C66.1496 12.0098 66.6396 12.2548 67.3746 12.745C67.8646 13.2352 68.1096 13.9705 68.1096 14.7058V17.1568C68.1096 17.8921 67.8646 18.3823 67.1296 19.1176C66.8846 19.6078 66.6396 19.6078 66.3946 19.8529C65.9046 20.098 65.6596 20.098 64.9246 20.098H58.3096V16.6666Z" fill="white"/>
<path fill-rule="evenodd" clip-rule="evenodd" d="M73.5004 16.1764L73.7454 16.4215C73.9904 16.6666 74.2354 16.6666 74.4804 16.6666H76.9304C77.4204 16.6666 77.6654 16.4215 77.6654 16.1764V15.196C77.6654 14.7058 77.4204 14.4607 76.9304 14.4607H74.4804C73.9904 14.4607 73.9904 14.4607 73.7454 14.4607C73.7454 14.7058 73.5004 14.9509 73.5004 15.196V16.1764ZM77.6654 11.0294C77.6654 10.5392 77.4204 10.2941 76.9304 10.2941H70.3154V7.10779H77.6654C79.8704 7.10779 80.8504 8.08818 80.8504 10.049V16.9117C80.8504 17.8921 80.6054 18.6274 80.1154 19.1176C79.6254 19.8529 78.8904 20.098 77.9104 20.098H73.5004C71.5404 20.098 70.3154 19.1176 70.3154 17.1568V14.4607C70.3154 12.4999 71.5404 11.5196 73.5004 11.2745H77.6654V11.0294Z" fill="white"/>
<path fill-rule="evenodd" clip-rule="evenodd" d="M83.5449 5.14711C83.5449 4.41182 83.7899 3.67652 84.5249 2.94123C85.0149 2.45103 85.9949 2.20593 86.9749 2.20593H88.9349V5.39221H87.7099C86.9749 5.39221 86.7299 5.63731 86.7299 6.3726V7.10789H88.9349V10.2942H86.7299V20.0981H83.5449V5.14711Z" fill="white"/>
<path fill-rule="evenodd" clip-rule="evenodd" d="M97.9995 11.0294V10.7843C97.9995 10.7843 97.9995 10.5392 97.7545 10.5392C97.7545 10.2941 97.5095 10.2941 97.2645 10.2941H95.0595C94.8145 10.2941 94.5695 10.2941 94.3245 10.5392C94.0795 10.7843 94.0795 11.0294 94.0795 11.2745V12.4999L97.9995 11.0294ZM94.0795 15.6862V15.9313C94.0795 16.1764 94.0795 16.4215 94.3245 16.4215C94.3245 16.6666 94.5695 16.6666 94.8145 16.6666H95.0595H101.185V20.098H94.3245C93.5895 20.098 93.0995 19.8529 92.8545 19.8529C92.3645 19.6078 92.1195 19.6078 91.8745 19.1176C91.3845 18.8725 91.1395 18.6274 91.1395 18.1372C90.8945 17.8921 90.8945 17.4019 90.8945 16.6666V10.049C90.8945 8.08818 91.8745 7.10779 94.0795 7.10779H98.2445C100.205 7.10779 101.185 8.08818 101.43 10.2941V12.745L94.0795 15.6862Z" fill="white"/>
<path fill-rule="evenodd" clip-rule="evenodd" d="M108.045 20.0981C107.555 20.0981 107.065 20.0981 106.82 19.853C106.33 19.853 105.84 19.6079 105.595 19.3628C105.105 18.8726 104.86 18.6275 104.615 18.1373C104.37 17.6471 104.37 17.1569 104.37 16.4216V10.2942C104.37 9.80397 104.37 9.31377 104.37 9.06868C104.615 8.57848 104.86 8.33338 105.105 7.84319C105.595 7.59809 105.84 7.35299 106.33 7.10789C106.82 7.10789 107.31 6.86279 107.8 6.86279H112.7V7.84319H107.8C107.065 7.84319 106.33 7.84319 105.84 8.33338C105.35 8.57848 105.105 9.31377 105.105 10.2942V16.4216C105.105 16.6667 105.105 17.1569 105.35 17.6471C105.35 17.8922 105.595 18.3824 105.84 18.6275C106.33 18.8726 106.575 19.1177 107.065 19.1177C107.31 19.1177 107.8 19.3628 108.045 19.3628H112.7V20.0981H108.045Z" fill="white"/>
<path fill-rule="evenodd" clip-rule="evenodd" d="M125.195 12.0099H118.825C118.09 12.0099 117.355 12.255 117.11 12.7451C116.62 13.2353 116.375 13.9706 116.375 14.7059V16.6667C116.375 17.1569 116.375 17.402 116.375 17.6471C116.62 18.1373 116.62 18.3824 117.11 18.6275C117.6 19.1177 118.09 19.3628 118.825 19.3628H122.745C124.46 19.3628 125.195 18.3824 125.195 16.6667V12.0099ZM125.93 16.4216C125.93 16.9118 125.93 17.402 125.93 17.8922C125.685 18.1373 125.685 18.6275 125.195 19.1177C124.46 19.6079 123.725 20.0981 122.745 20.0981H118.825C117.845 20.0981 117.11 19.853 116.62 19.1177C115.885 18.6275 115.64 17.6471 115.64 16.6667V14.7059C115.64 12.5001 116.62 11.2746 118.825 11.2746H125.195V10.5393C125.195 9.80397 124.95 9.06868 124.705 8.57848C124.46 8.33338 123.97 8.08828 123.725 7.84319C123.235 7.84319 122.99 7.84319 122.5 7.84319H115.64V6.86279H122.255C122.745 6.86279 123.235 7.10789 123.725 7.10789C123.97 7.10789 124.215 7.35299 124.46 7.35299C124.705 7.59809 124.95 7.59809 125.195 8.08828C125.685 8.82358 125.93 9.55887 125.93 10.5393V16.4216Z" fill="white"/>
<path fill-rule="evenodd" clip-rule="evenodd" d="M133.28 7.84319C131.32 7.84319 130.585 8.82358 130.585 10.5393V20.0981H129.85V10.5393C129.85 8.08828 130.83 6.86279 133.28 6.86279H134.26V7.84319H133.28Z" fill="white"/>
<path fill-rule="evenodd" clip-rule="evenodd" d="M146.02 7.84311H140.14C139.65 7.84311 139.16 7.84311 138.915 7.84311C138.425 7.84311 138.18 8.0882 137.935 8.5784C137.445 8.8235 137.2 9.31369 137.2 9.55879C137.2 9.80389 136.955 10.2941 136.955 10.7843V16.6666C136.955 17.647 137.445 18.3823 137.935 18.6274C138.18 18.8725 138.67 19.1176 138.915 19.1176C139.16 19.1176 139.65 19.3627 140.14 19.3627H142.835C143.815 19.3627 144.55 19.1176 145.04 18.6274C145.775 18.1372 146.02 17.4019 146.02 16.4215V7.84311ZM147 16.4215C146.755 18.8725 145.53 20.098 142.835 20.098H140.14C139.405 20.098 138.915 20.098 138.425 19.8529C137.935 19.8529 137.445 19.3627 137.2 19.1176C136.71 18.6274 136.465 18.1372 136.465 17.647C136.22 17.4019 136.22 16.9117 136.22 16.1764V10.7843C136.22 8.0882 137.69 6.86271 140.14 6.86271H146.02V2.69604H147V16.4215Z" fill="white"/>
<path fill-rule="evenodd" clip-rule="evenodd" d="M1.47012 6.61765C1.71512 6.37255 1.96012 6.37255 2.20512 6.37255C2.69512 4.16667 4.65512 2.45098 6.86012 2.45098C9.31012 2.45098 11.2701 4.16667 11.5151 6.37255C12.2501 6.37255 12.9851 6.61765 13.4751 7.10784C13.4751 6.61765 13.4751 6.37255 13.4751 5.88235C12.9851 2.69608 10.2901 0 6.86012 0C3.43012 0 0.490117 2.69608 0.245117 6.37255C0.245117 6.61765 0.245117 6.86275 0.245117 7.10784C0.735117 6.86275 0.980117 6.61765 1.47012 6.61765Z" fill="white"/>
<path fill-rule="evenodd" clip-rule="evenodd" d="M10.78 7.10779H2.94C2.45 7.10779 2.205 7.10779 1.715 7.35289C1.225 7.59798 0.98 7.59798 0.735 7.84308C0.245 8.57838 0 9.31367 0 10.5392V16.6666C0 17.647 0.245 18.6274 0.735 19.1176C0.98 19.3627 1.225 19.6078 1.715 19.8529C2.205 19.8529 2.45 20.098 2.94 20.098H10.78C12.74 20.098 13.72 18.8725 13.72 16.6666V10.2941C13.72 8.08818 12.74 7.10779 10.78 7.10779Z" fill="white"/>
</g>
<defs>
<clipPath id="clip0_3_17716">
<rect width="147" height="25" fill="white"/>
</clipPath>
</defs>
</svg>
