<svg width="88" height="25" viewBox="0 0 88 25" fill="none" xmlns="http://www.w3.org/2000/svg">
<path d="M10.5404 16.2971C10.5404 18.0506 9.98527 19.4155 8.87833 20.4049C7.7714 21.3779 6.23018 21.8579 4.25468 21.8579C3.42529 21.8579 2.64489 21.7698 1.90693 21.5706C1.16571 21.3681 0.532243 21.0938 0 20.7216V16.5714C0.626936 16.9926 1.3551 17.3355 2.17142 17.6228C2.98774 17.9036 3.72896 18.0506 4.38855 18.0506C4.94692 18.0506 5.36814 17.9298 5.65549 17.6881C5.93957 17.4465 6.08324 17.0873 6.08324 16.6432C6.08324 16.4375 6.03753 16.2286 5.94936 16.0424C5.85467 15.8498 5.72732 15.6637 5.56406 15.4808C5.39753 15.2881 4.95345 14.88 4.23182 14.2531C3.35019 13.5053 2.71019 12.7445 2.31183 11.9739C1.91346 11.1967 1.71428 10.3478 1.71428 9.42042C1.71428 8.38205 1.95918 7.44818 2.45223 6.62206C2.94529 5.79594 3.6408 5.15921 4.54202 4.6988C5.43998 4.24166 6.44569 4.01636 7.56242 4.01636C9.35833 4.01636 10.9746 4.44085 12.4114 5.29309L10.8832 8.8196C9.5967 8.11757 8.50282 7.77471 7.6016 7.77471C7.1216 7.77471 6.74936 7.88573 6.48814 8.10777C6.23344 8.32654 6.10283 8.64981 6.10283 9.0743C6.10283 9.46287 6.23018 9.82531 6.48161 10.1616C6.73303 10.5012 7.21303 10.9486 7.91834 11.5102C8.80323 12.1992 9.46282 12.9306 9.89057 13.6849C10.3249 14.4424 10.5404 15.3077 10.5404 16.2971Z" fill="white"/>
<path d="M18.3247 21.6293H13.9133L16.5843 8.09795H13.0088L13.7859 4.26123H25.3842L24.5875 8.09795H20.999L18.3247 21.6293Z" fill="white"/>
<path d="M23.4253 21.6294L26.9094 4.26453H31.3893L27.902 21.6294H23.4253Z" fill="white"/>
<path d="M40.294 7.86284C39.4777 7.86284 38.743 8.16978 38.0899 8.78365C37.4369 9.40079 36.9242 10.253 36.5487 11.3371C36.1765 12.4245 35.9904 13.5967 35.9904 14.8669C35.9904 15.9314 36.1993 16.7216 36.6206 17.2506C37.0418 17.7599 37.6459 18.0212 38.4361 18.0212C39.0532 18.0212 39.6965 17.9526 40.3299 17.7926C40.9732 17.6195 41.7242 17.3387 42.583 16.9567V20.8032C41.0548 21.5183 39.3961 21.8546 37.6165 21.8546C35.6638 21.8546 34.1487 21.2669 33.1006 20.1077C32.0459 18.9354 31.5234 17.2734 31.5234 15.1183C31.5234 13.0057 31.9022 11.0759 32.6696 9.31916C33.4304 7.56243 34.472 6.24326 35.7814 5.34204C37.094 4.44735 38.5961 4 40.2907 4C42.2826 4 44.0916 4.51918 45.7177 5.56408L44.0491 9.17875C43.3503 8.74447 42.7071 8.42447 42.1193 8.19917C41.5316 7.9706 40.9275 7.86284 40.294 7.86284Z" fill="white"/>
<path d="M58.0929 9.46614C58.0929 11.4612 57.4529 13.0351 56.1599 14.1616C54.8668 15.3012 53.1003 15.8628 50.8603 15.8628H49.8905L48.7575 21.6294H44.3428L47.8236 4.26453H52.0325C53.9852 4.26453 55.484 4.71514 56.5158 5.61309C57.577 6.51105 58.0929 7.79757 58.0929 9.46614ZM50.684 12.0653H51.3991C52.0815 12.0653 52.6366 11.84 53.0578 11.3698C53.4791 10.9061 53.688 10.3249 53.688 9.60655C53.688 9.13961 53.5476 8.7641 53.2799 8.47675C53.0121 8.19267 52.6431 8.049 52.1632 8.049H51.4938L50.684 12.0653Z" fill="white"/>
<path d="M67.1375 18.3771H62.0795L60.6656 21.6294H56.0942L64.4795 4.26453H70.1546L71.5391 21.6294H67.2485L67.1375 18.3771ZM63.6926 14.671H66.997L66.8011 9.63593L66.7815 8.6139C66.7815 8.01961 66.7946 7.50043 66.8305 7.05635C66.6477 7.73553 66.4224 8.38859 66.1383 9.02859L63.6926 14.671Z" fill="white"/>
<path d="M79.5626 10.6971L83.0826 4.26123H88.0001L81.1005 14.8832L79.7324 21.6293H75.3112L76.6695 14.8898L73.9985 4.26776H78.5471L79.5626 10.6971Z" fill="white"/>
</svg>
