<svg width="75" height="26" viewBox="0 0 75 26" fill="none" xmlns="http://www.w3.org/2000/svg">
<path d="M9.84403 9.10978C8.95932 8.02756 8.17935 7.0726 8.11071 6.98761C8.04208 6.90263 7.99419 6.83313 8.00429 6.83313C8.02072 6.83313 9.31311 7.15108 14.065 8.3242C14.8596 8.52038 15.8238 8.75725 16.2078 8.8506C16.5917 8.94394 16.9183 9.03175 16.9336 9.04571C16.9488 9.05969 16.7068 9.34691 16.3957 9.68401C16.0845 10.0211 15.2413 10.9409 14.5217 11.7279C13.8022 12.515 13.2019 13.1634 13.1878 13.1687C13.1737 13.1741 12.7775 12.7058 12.3073 12.128C11.8372 11.5502 10.7287 10.192 9.84403 9.10978Z" fill="white"/>
<path d="M7.56265 7.33724L7.62771 7.40229C7.6806 7.45514 11.3979 11.9966 12.5281 13.3891L12.8256 13.7556L12.7967 13.9939C12.7578 14.3152 12.5732 16.1048 12.2471 19.3222C12.1721 20.0627 12.1491 20.2433 12.1323 20.2265C12.122 20.2162 11.5245 18.5315 8.88144 11.0612L7.56265 7.33724Z" fill="white"/>
<path d="M14.5707 12.6193C14.6626 12.5125 16.3837 10.6333 17.0758 9.88394L17.6376 9.27584L18.3268 9.76454C18.7059 10.0333 19.0204 10.2651 19.0258 10.2796C19.031 10.2941 18.6658 10.4999 18.2141 10.7369C17.7624 10.974 16.9472 11.4052 16.4026 11.6952C14.6733 12.6161 14.4968 12.7051 14.5707 12.6193Z" fill="white"/>
<path d="M13.6501 13.8731C13.9127 13.7411 16.428 12.4098 17.896 11.6259C18.4406 11.335 18.8977 11.0963 18.9117 11.0954C18.9497 11.0929 18.9185 11.1421 18.3607 11.9632C18.0783 12.3788 17.6282 13.0442 17.3603 13.4417C17.0925 13.8392 16.3638 14.9188 15.741 15.8408C15.1182 16.7628 14.2139 18.1025 13.7312 18.8181C13.2487 19.5336 12.8404 20.1336 12.8241 20.1515C12.806 20.1713 12.8019 20.1078 12.8136 19.9889C12.8985 19.1298 12.9799 18.3227 13.1056 17.0943C13.1861 16.3072 13.2603 15.5755 13.2705 15.4681C13.2807 15.3608 13.3095 15.0827 13.3345 14.8502C13.3595 14.6176 13.3892 14.3286 13.4004 14.2079L13.4208 13.9884L13.6501 13.8731Z" fill="white"/>
<path fill-rule="evenodd" clip-rule="evenodd" d="M13 26C20.1797 26 26 20.1797 26 13C26 5.8203 20.1797 0 13 0C5.8203 0 0 5.8203 0 13C0 20.1797 5.8203 26 13 26ZM16.56 8.05488C15.3065 7.74626 12.091 6.95164 8.79348 6.13563C7.13603 5.72545 6.79463 5.6404 6.64715 5.77225C6.60834 5.80694 6.58296 5.85665 6.55057 5.91941C6.53805 5.94365 6.52311 5.95292 6.51182 5.96547C6.43225 6.0539 6.53393 6.3054 8.94267 13.1102C9.78163 15.4803 10.706 18.0928 10.9969 18.9156C11.9669 21.6604 12.0126 21.8097 12.1117 21.8672C12.1257 21.8753 12.1407 21.8816 12.1596 21.8932C12.4105 22.0464 12.6083 21.9489 12.8883 21.5338C14.6675 18.8964 16.3002 16.4778 16.9016 15.5886C17.3146 14.978 18.0178 13.9362 18.4642 13.2735C18.9106 12.6107 19.5059 11.7293 19.7872 11.3146C20.1321 10.8061 20.3272 10.5565 20.2984 10.3362C20.2643 10.0761 19.9179 9.85688 19.1371 9.30056C18.5555 8.88618 18.0178 8.50533 17.9423 8.45426C17.8313 8.37923 17.5659 8.30254 16.56 8.05488Z" fill="white"/>
<path d="M33.6699 10.8392H32.525V18.3232H33.6699V10.8392Z" fill="white"/>
<path d="M38.7989 7.6691H29.4667V8.81529H38.7989V7.6691Z" fill="white"/>
<path d="M35.738 10.8392H34.5931V18.3232H35.738V10.8392Z" fill="white"/>
<path d="M67.3679 18.331H68.5231V13.8235L67.3679 12.5379V18.331Z" fill="white"/>
<path d="M73.4509 7.66909V16.0256L65.2793 6.93336V18.331H66.4319V9.97182L74.609 19.0667V7.66909H73.4509Z" fill="white"/>
<path d="M57.7985 7.66394C54.8614 7.66394 52.4736 10.0545 52.4736 12.9949C52.4736 15.9353 54.8614 18.3258 57.7985 18.3258C60.7356 18.3258 63.1234 15.9353 63.1234 12.9949C63.1234 10.0571 60.7356 7.66394 57.7985 7.66394ZM57.7985 17.177C55.4958 17.177 53.6211 15.3028 53.6211 12.9949C53.6211 10.687 55.4932 8.81274 57.7985 8.81274C60.1012 8.81274 61.976 10.687 61.976 12.9949C61.976 15.3002 60.1012 17.177 57.7985 17.177Z" fill="white"/>
<path d="M57.7985 12.2282C57.3756 12.2282 57.0327 12.5715 57.0327 12.9949C57.0327 13.4183 57.3756 13.7616 57.7985 13.7616C58.2214 13.7616 58.5644 13.4183 58.5644 12.9949C58.5644 12.5715 58.2214 12.2282 57.7985 12.2282Z" fill="white"/>
<path d="M50.4698 10.94C50.4698 9.13803 49.0155 7.67172 47.2285 7.67172H41.1376V18.3336H42.2749V8.82826H47.2285C48.3759 8.82826 49.3094 9.77573 49.3094 10.94C49.3094 12.0991 48.3888 13.0414 47.2517 13.0543L43.2109 13.0517V18.3336H44.3481V14.2083H47.0119L49.1882 18.331H50.5111L48.2393 14.0456C49.5518 13.6093 50.4698 12.3392 50.4698 10.94Z" fill="white"/>
</svg>
