<svg width="126" height="25" viewBox="0 0 126 25" fill="none" xmlns="http://www.w3.org/2000/svg">
<path fill-rule="evenodd" clip-rule="evenodd" d="M60.0545 4.60411C60.0313 4.62612 60.0122 8.21098 60.0122 12.5706V20.4969H61.8199H63.6278L63.6444 18.0168L63.6609 15.5366L64.8714 15.5204C65.9636 15.5057 66.0916 15.5145 66.1798 15.6105C66.2988 15.7401 66.636 16.1972 67.1451 16.9196C68.2104 18.4303 68.835 19.1179 69.6789 19.7081C70.486 20.2726 71.1732 20.4215 73.2379 20.4794L74.502 20.5148L73.6082 19.589C72.3126 18.2471 71.0922 16.6992 70.3355 15.4379L70.1679 15.1588L70.5014 15.0042C71.1824 14.6885 72.1701 13.8701 72.5437 13.312C73.2674 12.2309 73.5285 11.3781 73.5285 10.0955C73.5285 8.42934 73.06 7.30677 71.9103 6.21744C71.1899 5.53484 70.6613 5.21997 69.7495 4.93059C68.7142 4.60189 68.1083 4.56401 63.8904 4.56401C61.8039 4.56401 60.0778 4.58206 60.0545 4.60411ZM92.3117 6.06612V7.56877L94.7391 7.5845L97.1663 7.60024L97.1825 14.0486L97.1985 20.4969H99.0068H100.815V14.0336V7.57027H103.259H105.703L105.687 6.08213L105.669 4.59408L98.9907 4.57874L92.3117 4.56348V6.06612ZM39.1982 12.5605V20.4969L43.1802 20.4965C46.3992 20.4962 47.2838 20.4788 47.7967 20.4058C49.3529 20.184 50.2485 19.8136 51.0647 19.0539C51.7664 18.4009 52.1463 17.5886 52.2654 16.4872C52.3375 15.8219 52.2829 15.1815 52.1164 14.7364C51.7574 13.7766 50.9265 12.8404 50.0542 12.413L49.5829 12.1822L49.83 12.0556C50.5332 11.6957 51.2152 10.8512 51.4861 10.0052C51.6366 9.53577 51.6354 8.32823 51.4839 7.72706C51.1016 6.20841 50.0464 5.23007 48.3678 4.83764C47.5756 4.65239 46.8724 4.62414 43.0549 4.62414H39.1982V12.5605ZM81.3337 12.5605V20.4969H83.1422H84.9508V12.5605V4.62414H83.1422H81.3337V12.5605ZM112.745 12.5605V20.4969H119.091H125.436V18.9938V17.4906H120.931H116.426V15.8073V14.1237H120.011H123.596V12.6207V11.1175H120.011H116.426V9.34381V7.57027H120.931H125.436V6.09718V4.62414H119.091H112.745V12.5605ZM42.8787 9.21822V10.8771H44.7428C46.7538 10.8771 46.9317 10.8545 47.3592 10.5457C47.4722 10.4639 47.6455 10.2412 47.7441 10.0509C47.9808 9.59446 47.9996 8.88083 47.7853 8.50212C47.6003 8.17541 47.2887 7.90438 46.9083 7.73951C46.6051 7.60803 46.5088 7.60106 44.7348 7.58067L42.8787 7.55933V9.21822ZM63.6293 10.0319V12.5004L65.0728 12.5155C68.0816 12.5468 68.1757 12.5372 68.8295 12.1368C69.5424 11.7003 69.9115 10.9997 69.9115 10.0828C69.9115 9.45039 69.7684 8.94513 69.464 8.50212C69.2022 8.12096 69.0001 7.96348 68.4837 7.73856C68.1743 7.60379 68.1096 7.59983 65.8978 7.58177L63.6293 7.5633V10.0319ZM42.8787 15.6808V17.4906H44.8644C47.0535 17.4906 47.3639 17.4538 47.8495 17.1364C48.1967 16.9096 48.2921 16.8031 48.4977 16.4146C48.7497 15.9385 48.7429 15.4649 48.4768 14.9528C48.2475 14.5116 47.9178 14.2502 47.3343 14.047C47.0006 13.9308 46.8088 13.9188 44.9253 13.8958L42.8787 13.8709V15.6808Z" fill="white"/>
<path d="M0 12.5309L5.02885 7.76584L10.0577 3.00073L15.1002 7.77842L20.1426 12.5559L15.1637 17.2778C12.4253 19.8748 10.1421 21.9999 10.0898 21.9999C10.0375 21.9999 7.7459 19.8695 4.99737 17.2654L0 12.5309Z" fill="white"/>
<path d="M19.3544 7.7813L21.8767 5.39065L24.3993 3L29.425 7.76337C32.1889 10.3833 34.4449 12.5329 34.438 12.5404C34.125 12.881 24.4518 22 24.4036 22C24.3259 22 19.4645 17.4128 19.4258 17.3031C19.4128 17.266 20.5194 16.1769 21.8848 14.8829L24.3675 12.53L21.861 10.1556L19.3544 7.7813Z" fill="white"/>
</svg>
