<svg width="87" height="25" viewBox="0 0 87 25" fill="none" xmlns="http://www.w3.org/2000/svg">
<path fill-rule="evenodd" clip-rule="evenodd" d="M4.5188 11.5431C4.5188 12.0802 4.5188 12.6173 4.5188 13.1544C4.5188 15.3977 4.50912 17.6411 4.52598 19.8843C4.52973 20.3957 4.40138 20.6614 3.82974 20.6459C2.76375 20.6171 1.69619 20.6269 0.629576 20.6424C0.158179 20.6493 -0.00108742 20.4532 5.58142e-06 19.9857C0.0110918 14.9773 0.00984262 9.969 0.00359688 4.96055C0.00266002 4.29511 0.342272 3.8233 0.809766 3.42663C2.12824 2.30769 4.37827 2.6862 5.22191 4.19461C6.378 6.26154 7.41511 8.39093 8.43753 10.5271C8.57072 10.8054 8.72515 11.0734 8.87317 11.3525C9.17937 11.2138 9.04961 10.9738 9.0504 10.7994C9.06117 8.58207 9.05727 6.36486 9.05774 4.14765C9.05805 3.11293 9.05867 3.11261 10.1273 3.11168C10.934 3.11105 11.7448 3.16239 12.546 3.09696C13.3225 3.03356 13.5809 3.26367 13.5662 4.08143C13.5155 6.89771 13.5467 9.71541 13.5467 12.5326C13.5467 14.489 13.5494 16.4455 13.5456 18.4019C13.5433 19.5452 12.9629 20.4402 12.0078 20.7941C10.9877 21.1721 9.97602 20.8772 9.21013 19.9799C8.76684 19.4604 8.44784 18.8623 8.13899 18.2596C6.9879 16.0139 5.84258 13.7652 4.69493 11.5176C4.63622 11.5262 4.57751 11.5347 4.5188 11.5431Z" fill="white"/>
<path fill-rule="evenodd" clip-rule="evenodd" d="M23.4124 10.051C22.2187 9.4338 20.7975 9.80526 20.0659 10.9203C19.1995 12.2412 19.251 14.134 20.188 15.4103C20.9994 16.5154 22.5049 16.8229 23.8338 16.1448C24.645 15.7309 25.2465 15.1005 25.7062 14.3159C26.4127 13.1101 26.2041 13.2621 27.3916 13.8441C28.0681 14.1758 28.7339 14.5301 29.4063 14.8705C29.7528 15.0459 29.9239 15.2548 29.7301 15.6769C28.095 19.2405 24.8253 21.6274 20.493 20.8542C19.2876 20.6393 18.215 20.0768 17.3504 19.2218C15.2075 17.1025 14.1525 14.5537 14.9718 11.5593C15.8271 8.43258 17.9135 6.39773 21.1471 5.86535C23.4816 5.48104 25.5687 6.23024 27.2345 7.98018C27.8297 8.60524 28.2874 9.33518 28.7617 10.0526C29.0141 10.4339 28.9647 10.6847 28.574 10.9541C26.5606 12.3424 24.5557 13.7435 22.5658 15.1653C22.0864 15.5078 21.7821 15.5385 21.4714 14.9674C21.1235 14.3284 20.7269 13.7111 20.3002 13.1218C19.9704 12.6663 20.0837 12.3834 20.5072 12.1064C21.2909 11.5937 22.0679 11.0706 22.8398 10.5402C23.0448 10.3995 23.3192 10.3286 23.4124 10.051Z" fill="white"/>
<path fill-rule="evenodd" clip-rule="evenodd" d="M39.6946 13.4128C39.67 11.6408 38.7652 10.6053 37.2634 10.6308C35.8203 10.6552 34.6722 11.9391 34.6844 13.515C34.6962 15.0586 35.7975 16.2137 37.2436 16.2024C38.3847 16.1935 39.9071 15.328 39.6946 13.4128ZM37.1333 20.9534C33.758 21.3699 29.8342 17.6889 29.8694 13.3553C29.9017 9.36281 33.1401 5.75257 37.2493 5.7989C41.6668 5.84884 44.629 9.56584 44.5556 13.6816C44.4724 18.3564 40.3488 21.2793 37.1333 20.9534Z" fill="white"/>
<path fill-rule="evenodd" clip-rule="evenodd" d="M55.8802 11.1746C55.8802 9.74024 55.8975 8.30557 55.8708 6.87168C55.8613 6.36261 56.0399 6.18259 56.5402 6.19261C57.6584 6.21515 58.7778 6.22095 59.8956 6.19011C60.4557 6.17461 60.5948 6.40378 60.5906 6.93006C60.5701 9.53784 60.5758 12.1459 60.5864 14.7539C60.5898 15.5954 61.0723 16.1618 61.7881 16.2297C62.4801 16.2956 63.0739 15.7778 63.228 14.971C63.2475 14.8688 63.2597 14.7642 63.2638 14.6602C63.2905 13.9577 63.3312 13.2552 63.3351 12.5523C63.3456 10.7008 63.3556 8.84876 63.3308 6.99738C63.3229 6.40973 63.4975 6.15035 64.1212 6.17148C65.1865 6.20748 66.2542 6.19465 67.3205 6.17555C67.8524 6.166 68.112 6.29859 68.105 6.91942C68.0735 9.65743 68.1864 12.4001 68.0671 15.1333C67.9119 18.6916 65.4556 21.116 62.1605 20.9597C61.1999 20.9141 60.2419 20.9658 59.3282 20.5625C57.1456 19.5995 55.906 17.564 55.8412 15.0076C55.8089 13.7307 55.8356 12.4524 55.8356 11.1746H55.8802Z" fill="white"/>
<path fill-rule="evenodd" clip-rule="evenodd" d="M78.1378 12.3128C78.1378 9.94144 78.1331 7.57004 78.1391 5.19864C78.1463 2.25149 80.379 0.0133059 83.3198 0.000313168C84.1514 -0.00328722 84.9838 0.0258289 85.8148 0.00234817C86.2926 -0.0112707 86.5326 0.103785 86.5165 0.648695C86.4837 1.76826 86.4899 2.89001 86.5143 4.00989C86.5243 4.46745 86.3332 4.60489 85.9139 4.59159C85.3687 4.57421 84.8223 4.58642 84.2764 4.59096C83.9596 4.59346 83.6497 4.63197 83.4178 4.88322C83.148 5.17547 83.0687 5.55539 83.1783 5.89978C83.2743 6.2019 83.6292 6.06586 83.8714 6.07197C84.5467 6.08888 85.2236 6.09858 85.8985 6.07416C86.3775 6.05663 86.5305 6.25152 86.5196 6.71973C86.4943 7.81362 86.4965 8.90876 86.5184 10.0028C86.5279 10.4771 86.3486 10.6603 85.8791 10.6457C85.1779 10.6236 84.4732 10.6762 83.7744 10.6296C83.1833 10.5901 83.0154 10.8096 83.0204 11.3854C83.044 14.1475 83.0036 16.9104 83.0479 19.672C83.0606 20.4591 82.8512 20.7327 82.0431 20.6768C80.9824 20.6034 79.9122 20.6361 78.8473 20.6684C78.3225 20.6844 78.0999 20.5371 78.1046 19.9737C78.1252 17.4202 78.1136 14.8665 78.1136 12.3128C78.1216 12.3128 78.1297 12.3128 78.1378 12.3128Z" fill="white"/>
<path fill-rule="evenodd" clip-rule="evenodd" d="M48.0655 20.6381C47.2338 20.638 46.401 20.6137 45.5707 20.6471C45.067 20.6673 44.8637 20.4932 44.8744 19.9827C44.8954 18.9929 44.8954 18.002 44.8746 17.0122C44.8649 16.5425 45.0396 16.3696 45.5121 16.3803C46.6033 16.4049 47.6953 16.3876 48.7871 16.387C48.969 16.3869 49.1512 16.3908 49.3328 16.3822C49.6065 16.3692 49.8759 16.2842 49.9535 16.0055C50.0437 15.6823 49.7625 15.5627 49.5288 15.445C48.741 15.048 47.9377 14.6793 47.1676 14.2509C45.4189 13.278 44.7331 11.6192 45.1163 9.3838C45.3703 7.9017 46.8971 6.49082 48.6236 6.26118C50.3282 6.03451 52.0491 6.19089 53.7629 6.1779C54.1233 6.17524 54.2818 6.35275 54.2811 6.70293C54.2796 7.74532 54.279 8.78755 54.2819 9.82978C54.283 10.249 54.0469 10.342 53.6764 10.3367C52.6629 10.3223 51.649 10.3324 50.6353 10.3324C50.3184 10.3326 49.9511 10.3143 49.8677 10.7C49.7811 11.0993 50.1579 11.2097 50.432 11.3351C51.3777 11.7679 52.3039 12.2362 53.1836 12.7923C54.6881 13.7434 55.4274 15.5035 55.0272 17.1689C54.5547 19.1358 53.2117 20.3526 51.3369 20.5527C50.247 20.6688 49.1568 20.6411 48.0655 20.6381Z" fill="white"/>
<path fill-rule="evenodd" clip-rule="evenodd" d="M73.5571 7.79706C74.5297 6.63758 75.5437 6.06872 76.8806 6.16671C77.4021 6.20491 77.6262 6.34705 77.6098 6.89994C77.5783 7.96706 77.585 9.03622 77.6079 10.1038C77.6181 10.5809 77.4871 10.8031 76.9635 10.8374C74.8818 10.9735 74.1626 11.0452 74.172 14.037C74.1781 15.9648 74.1494 17.8932 74.1903 19.8202C74.2045 20.4895 73.9648 20.6711 73.3357 20.6496C72.1677 20.6097 70.9971 20.6259 69.8281 20.6437C69.3693 20.6507 69.1802 20.4981 69.1816 20.0129C69.1945 15.6102 69.1949 11.2074 69.1818 6.80477C69.1802 6.30259 69.4176 6.17783 69.8476 6.18096C70.7829 6.18753 71.7199 6.21368 72.6535 6.16969C73.3407 6.13744 73.6945 6.3328 73.561 7.08137C73.5343 7.23133 73.5571 7.39038 73.5571 7.79706Z" fill="white"/>
</svg>
