<svg width="88" height="25" viewBox="0 0 88 25" fill="none" xmlns="http://www.w3.org/2000/svg">
<g clip-path="url(#clip0_3_18066)">
<path d="M60.3752 18.1478V13.8088C60.3752 12.7408 59.9747 12.2067 58.9734 12.2067C58.5729 12.2067 58.1056 12.2735 57.8386 12.3403V18.6818C57.8386 18.8821 57.6383 19.0823 57.4381 19.0823H55.9027C55.7025 19.0823 55.5022 18.8821 55.5022 18.6818V11.2722C55.5022 11.0052 55.7025 10.8049 55.9027 10.7382C56.904 10.4044 57.9053 10.2042 58.9734 10.2042C61.3765 10.2042 62.7116 11.4725 62.7116 13.8088V18.7486C62.7116 18.9488 62.5113 19.1491 62.311 19.1491H61.3765C60.7757 19.1491 60.3752 18.6818 60.3752 18.1478V18.1478ZM66.383 15.5444L66.3162 16.1452C66.3162 16.9462 66.8503 17.4135 67.7181 17.4135C68.3856 17.4135 68.9864 17.2132 69.6539 16.8795C69.7206 16.8795 69.7874 16.8127 69.8542 16.8127C69.9877 16.8127 70.0544 16.8795 70.1212 16.9462C70.1879 17.013 70.3214 17.2132 70.3214 17.2132C70.4549 17.4135 70.5884 17.6805 70.5884 17.8808C70.5884 18.2145 70.3882 18.5483 70.1212 18.6818C69.3869 19.0823 68.5191 19.2826 67.5845 19.2826C66.5165 19.2826 65.6487 19.0156 64.9812 18.4816C64.3136 17.8808 63.9131 17.0797 63.9131 16.0784V13.4751C63.9131 11.4057 65.2482 10.1374 67.5178 10.1374C69.7206 10.1374 70.989 11.339 70.989 13.4751V15.0771C70.989 15.2774 70.7887 15.4777 70.5884 15.4777H66.383V15.5444ZM66.3162 14.0758H68.8529V13.4083C68.8529 12.6073 68.3856 12.0732 67.5845 12.0732C66.7835 12.0732 66.3162 12.5405 66.3162 13.4083V14.0758ZM83.3383 15.5444L83.2716 16.1452C83.2716 16.9462 83.8056 17.4135 84.6734 17.4135C85.3409 17.4135 85.9417 17.2132 86.6092 16.8795C86.676 16.8795 86.7427 16.8127 86.8095 16.8127C86.943 16.8127 87.0097 16.8795 87.0765 16.9462C87.1432 17.013 87.2767 17.2132 87.2767 17.2132C87.4102 17.4135 87.5438 17.6805 87.5438 17.8808C87.5438 18.2145 87.3435 18.5483 87.0765 18.6818C86.3422 19.0823 85.4744 19.2826 84.5399 19.2826C83.4718 19.2826 82.604 19.0156 81.9365 18.4816C81.269 17.8808 80.8684 17.0797 80.8684 16.0784V13.4751C80.8684 11.4057 82.2035 10.1374 84.4731 10.1374C86.676 10.1374 87.9443 11.339 87.9443 13.4751V15.0771C87.9443 15.2774 87.744 15.4777 87.5438 15.4777H83.3383V15.5444ZM83.2716 14.0758H85.8082V13.4083C85.8082 12.6073 85.3409 12.0732 84.5399 12.0732C83.7388 12.0732 83.2716 12.5405 83.2716 13.4083V14.0758ZM44.0207 19.1491H44.9552C45.1555 19.1491 45.3557 18.9488 45.3557 18.7486V13.8088C45.3557 11.5392 44.1542 10.2042 42.1516 10.2042C41.5508 10.2042 40.8833 10.3377 40.4827 10.4712V8.0013C40.4827 7.46727 40.0155 7 39.4814 7H38.5469C38.3466 7 38.1464 7.20026 38.1464 7.40052V18.7486C38.1464 18.9488 38.3466 19.1491 38.5469 19.1491H40.0822C40.2825 19.1491 40.4827 18.9488 40.4827 18.7486V12.4738C40.8165 12.3403 41.2838 12.2735 41.6176 12.2735C42.6188 12.2735 43.0194 12.7408 43.0194 13.8756V18.2145C43.0861 18.6818 43.4866 19.1491 44.0207 19.1491V19.1491ZM54.1004 13.5418V16.0117C54.1004 18.081 52.6986 19.3493 50.3622 19.3493C48.0926 19.3493 46.624 18.081 46.624 16.0117V13.5418C46.624 11.4725 48.0259 10.2042 50.3622 10.2042C52.6986 10.2042 54.1004 11.4725 54.1004 13.5418V13.5418ZM51.764 13.5418C51.764 12.7408 51.2968 12.2067 50.429 12.2067C49.5612 12.2067 49.0939 12.674 49.0939 13.5418V16.0117C49.0939 16.8127 49.5612 17.28 50.429 17.28C51.2968 17.28 51.764 16.8127 51.764 16.0117V13.5418ZM36.8781 12.407C36.8781 14.5431 35.276 16.0117 33.1399 16.0117C32.6059 16.0117 32.1386 15.9449 31.6713 15.7447V18.7486C31.6713 18.9488 31.4711 19.1491 31.2708 19.1491H29.7355C29.5352 19.1491 29.335 18.9488 29.335 18.7486V8.1348C29.335 7.86779 29.5352 7.66753 29.7355 7.60078C30.7368 7.26701 31.7381 7.06675 32.8061 7.06675C35.2092 7.06675 36.8781 8.53532 36.8781 10.8049V12.407ZM34.475 10.6714C34.475 9.60337 33.7407 9.06935 32.7394 9.06935C32.1386 9.06935 31.7381 9.26961 31.7381 9.26961V13.6753C32.1386 13.8756 32.3389 13.9423 32.8061 13.9423C33.8074 13.9423 34.5417 13.3416 34.5417 12.3403V10.6714H34.475ZM80.0006 12.407C80.0006 14.5431 78.3986 16.0117 76.2625 16.0117C75.7284 16.0117 75.2612 15.9449 74.7939 15.7447V18.7486C74.7939 18.9488 74.5936 19.1491 74.3934 19.1491H72.858C72.6578 19.1491 72.4575 18.9488 72.4575 18.7486V8.1348C72.4575 7.86779 72.6578 7.66753 72.858 7.60078C73.8593 7.26701 74.8606 7.06675 75.9287 7.06675C78.3318 7.06675 80.0006 8.53532 80.0006 10.8049V12.407ZM77.5975 10.6714C77.5975 9.60337 76.8632 9.06935 75.8619 9.06935C75.2612 9.06935 74.8606 9.26961 74.8606 9.26961V13.6753C75.2612 13.8756 75.4614 13.9423 75.9287 13.9423C76.93 13.9423 77.6643 13.3416 77.6643 12.3403V10.6714H77.5975Z" fill="white"/>
<path fill-rule="evenodd" clip-rule="evenodd" d="M14.6413 1.32249C21.0636 2.83897 25.0405 9.27463 23.524 15.6969C22.0075 22.1192 15.5719 26.0962 9.14958 24.5797C2.72728 23.0632 -1.24966 16.6275 0.266825 10.2052C1.78331 3.78295 8.21896 -0.193997 14.6413 1.32249ZM16.4517 8.9657C16.919 8.9657 17.3195 9.36622 17.3195 9.83349V10.501C17.3195 10.7013 17.186 10.8348 16.9857 10.8348H15.4504V20.3805C15.4504 20.5808 15.2501 20.781 15.0499 20.781H14.1153C13.5145 20.781 13.0473 20.3137 13.0473 19.713V17.5769C12.3797 17.8439 11.8457 17.9106 11.1782 17.9106C9.04208 17.9106 7.77377 16.5088 7.77377 14.1057V10.9015H6.83923C6.37195 10.9015 5.97144 10.501 5.97144 10.0337V9.36622C5.97144 9.16596 6.10494 9.03245 6.3052 9.03245H12.3797L8.37455 5.22752C8.24104 5.09401 8.3078 4.827 8.50806 4.76025L9.77637 4.35973C10.3104 4.22622 10.8444 4.35973 11.1782 4.76025L14.8496 8.9657H16.4517ZM10.1101 14.1057C10.1101 15.3073 10.6442 15.8413 11.7122 15.8413C12.1127 15.8413 12.6468 15.7745 13.0473 15.5743V10.9015H10.1101V14.1057Z" fill="white"/>
</g>
<defs>
<clipPath id="clip0_3_18066">
<rect width="88" height="25" fill="white"/>
</clipPath>
</defs>
</svg>
