<svg width="66" height="25" viewBox="0 0 66 25" fill="none" xmlns="http://www.w3.org/2000/svg">
<g clip-path="url(#clip0_3_17732)">
<path fill-rule="evenodd" clip-rule="evenodd" d="M0 9.04478C0 15.8426 7.91734 15.5027 9.14397 15.9559C10.7051 16.5224 10.5936 19.3548 7.02525 19.3548C5.12955 19.3548 3.56838 19.1282 1.78419 18.5617C1.33814 18.4484 0.892095 18.2219 0.446047 18.1086V23.2069C1.78419 23.8867 6.35618 24 8.25188 24C13.1584 24 17.6189 20.6011 16.3922 15.5027C15.1656 9.95116 8.02885 10.5176 7.02525 9.95116C5.79862 9.38467 5.79862 7.79851 7.13676 7.23202C8.92095 6.43894 12.4893 7.23202 14.2735 7.79851C14.8311 8.02511 15.3886 8.2517 15.8347 8.365V3.49322C15.0541 3.26662 14.6081 3.04003 13.0469 2.70014C10.8166 2.24695 9.92455 2.24695 7.69432 2.24695C3.67989 2.24695 0 4.96608 0 9.04478Z" fill="white"/>
<path fill-rule="evenodd" clip-rule="evenodd" d="M17.9531 3.37992V23.7734H23.7518V17.6554C23.8633 17.882 23.7518 17.7687 23.8633 17.9953L24.4208 19.0149C24.6438 19.4681 24.8669 19.9213 25.0899 20.4878C25.3129 21.0543 25.982 23.0936 25.982 23.7734H33.0073C32.8957 23.5468 32.7842 23.0936 32.6727 22.7537L31.3346 19.6947C28.5468 13.9166 29.1043 16.9756 31.5576 12.1038C32.0036 11.424 33.2303 8.81818 33.3418 7.91181H26.7626C26.5396 9.04478 24.4208 12.7836 23.7518 13.3501V2.24695C22.6366 2.24695 18.8452 3.37992 17.9531 3.37992Z" fill="white"/>
<path fill-rule="evenodd" clip-rule="evenodd" d="M52.6338 3.26662V23.7734H58.2094V2.24695C57.3173 2.24695 53.8604 3.15333 52.6338 3.26662Z" fill="white"/>
<path fill-rule="evenodd" clip-rule="evenodd" d="M60.6621 3.26662V23.7734H66.2377V2.24695C65.5686 2.24695 61.3312 3.26662 60.6621 3.26662Z" fill="white"/>
<path fill-rule="evenodd" clip-rule="evenodd" d="M34.0107 14.7097V23.7734H39.5863V16.9756C39.5863 13.8033 40.0324 12.557 43.1547 12.557V7.79852C42.1511 7.79852 43.0432 7.68523 41.3705 7.79852C39.6978 8.02512 38.4712 8.02512 36.687 9.15809C35.1259 10.1778 34.0107 12.1038 34.0107 14.7097Z" fill="white"/>
<path fill-rule="evenodd" clip-rule="evenodd" d="M44.8281 23.7735H50.4037V8.02515H44.8281V23.7735Z" fill="white"/>
<path fill-rule="evenodd" clip-rule="evenodd" d="M44.9395 3.60651C44.9395 4.51288 45.051 5.07937 45.72 5.75915C48.1733 8.25169 52.0762 4.51288 49.5114 1.79375C47.8388 -0.0190042 44.9395 1.56716 44.9395 3.60651Z" fill="white"/>
</g>
<defs>
<clipPath id="clip0_3_17732">
<rect width="66" height="25" fill="white"/>
</clipPath>
</defs>
</svg>
