<svg width="27" height="25" viewBox="0 0 27 25" fill="none" xmlns="http://www.w3.org/2000/svg">
<path fill-rule="evenodd" clip-rule="evenodd" d="M26 12.5C26 19.4036 20.4036 25 13.5 25C6.59644 25 1 19.4036 1 12.5C1 5.59644 6.59644 0 13.5 0C20.4036 0 26 5.59644 26 12.5ZM25.0425 12.5064C25.0425 18.8844 19.8743 24.0548 13.4989 24.0548C7.12358 24.0548 1.95533 18.8844 1.95533 12.5064C1.95533 6.12835 7.12358 0.957936 13.4989 0.957936C19.8743 0.957936 25.0425 6.12835 25.0425 12.5064Z" fill="white"/>
<path fill-rule="evenodd" clip-rule="evenodd" d="M4.65634 8.46179H9.9409V9.36608H4.65634V8.46179ZM5.66744 11.1565H4.55566L7.03385 16.5H7.47692L9.94433 11.1565H8.8327L7.25495 14.7379L5.66744 11.1565ZM20.694 11.1564V9.79376H19.6597V11.1564L18.8161 11.1565V12.1045L19.6597 12.1045V14.7606L19.6599 14.7943C19.6731 15.902 20.3365 16.5 21.4681 16.5C21.7057 16.5 21.9864 16.4611 22.3281 16.3843L22.4225 16.3631V15.4594L22.2823 15.4817L22.2284 15.4901C21.9977 15.525 21.8053 15.5417 21.6327 15.5417L21.6129 15.5416L21.5935 15.5414C20.9568 15.5324 20.694 15.3004 20.694 14.7093V12.1045L22.2579 12.1045V11.1565L20.694 11.1564ZM12.9336 11.157L12.8925 11.1564L12.8494 11.1566C11.4298 11.1744 10.2349 12.3699 10.2408 13.7822L10.2413 13.823L10.2411 13.8651L10.2416 13.9075C10.2692 15.3073 11.4699 16.4959 12.8827 16.4903L12.9238 16.4897L12.9652 16.4903L13.0082 16.4901C14.4237 16.4716 15.6329 15.2622 15.6272 13.864L15.6266 13.8233L15.6272 13.7823L15.6269 13.7397C15.6088 12.3353 14.4031 11.1605 12.9764 11.1567L12.9336 11.157ZM17.761 16.4777V8.4618H16.7267V16.4777H17.761ZM11.2397 13.8233C11.22 12.9093 11.9947 12.1319 12.9063 12.1358L12.934 12.1362L12.9616 12.136L12.9892 12.1363C13.8888 12.154 14.6477 12.9185 14.6282 13.8233C14.6477 14.7152 13.8824 15.4985 12.9826 15.5107L12.955 15.5109L12.9273 15.5105C12.0038 15.5305 11.2265 14.7334 11.2397 13.8233Z" fill="white"/>
</svg>
