<svg width="94" height="26" viewBox="0 0 94 26" fill="none" xmlns="http://www.w3.org/2000/svg">
<path d="M33.7061 9.40195C35.0014 9.40195 35.9085 10.1139 35.9085 11.4354H37.605C37.605 9.11688 35.8953 7.99999 33.6805 7.99999C30.96 7.99999 29.3797 9.47724 29.3797 12.5991C29.3797 15.7985 30.96 17.1975 33.6805 17.1975C35.9216 17.1975 37.605 16.1099 37.605 13.7906H35.9728C35.9728 15.0858 35.0788 15.7985 33.7069 15.7985C31.9058 15.7985 31.0755 14.8007 31.0755 12.7285V12.4697C31.0769 10.4377 31.9182 9.40195 33.7061 9.40195Z" fill="white"/>
<path d="M41.6309 8.15789L38.172 17.0447H39.8825L40.5944 15.1143H44.6592L45.3901 17.0447H47.178L43.717 8.15789H41.6309ZM41.1126 13.7131L42.0197 11.2768C42.201 10.7981 42.5248 9.76159 42.5899 9.58031H42.6542C42.7193 9.76159 43.0431 10.8105 43.2243 11.2768L44.1307 13.7124L41.1126 13.7131Z" fill="white"/>
<path d="M55.9674 10.8522C55.9674 9.20753 55.0216 8.15789 53.0656 8.15789H48.3758V17.0447H50.0343V13.6093H52.7929L54.4741 17.0447H56.2876L54.3871 13.3527C55.436 12.9383 55.9674 12.0575 55.9674 10.8522ZM52.9355 12.2125H50.0343V9.57008H52.9355C53.8294 9.57008 54.2958 10.0496 54.2958 10.8522C54.2958 11.6949 53.7907 12.2125 52.9355 12.2125Z" fill="white"/>
<path d="M61.3244 8.15789H57.7734V17.0447H61.3229C64.004 17.0447 65.6355 15.6457 65.6355 12.6013C65.6355 9.55692 64.0055 8.15789 61.3244 8.15789ZM63.9411 12.7307C63.928 14.6743 63.0085 15.6326 61.3244 15.6326H59.4334V9.57008H61.3244C63.0055 9.57008 63.9411 10.5291 63.9411 12.4719V12.7307Z" fill="white"/>
<path d="M69.5202 8.15789L66.0599 17.0447H67.7696L68.4823 15.1143H72.55L73.2751 17.0447H75.063L71.6042 8.15789H69.5202ZM69.002 13.7131L69.9076 11.2768C70.0889 10.7981 70.4127 9.76159 70.4778 9.58031H70.5436C70.6079 9.76159 70.9324 10.8105 71.1137 11.2768L72.0201 13.7124L69.002 13.7131Z" fill="white"/>
<path d="M82.1837 13.4434C82.1837 13.6115 82.2093 14.0647 82.2093 14.1429L82.145 14.1685C82.1062 14.1173 81.8467 13.6634 81.7064 13.4565L77.8463 8.15789H76.2637V17.0447H77.8572V11.7205C77.8572 11.5012 77.8309 11.0729 77.8309 11.0079L77.896 10.9691C77.9347 11.021 78.1291 11.3967 78.3345 11.6949L82.221 17.0447H83.775V8.15789H82.1822V13.4434H82.1837Z" fill="white"/>
<path d="M89.4606 8.0029C86.6757 8.0029 84.9916 9.47941 84.9916 12.6013C84.9916 15.7232 86.6728 17.1997 89.4606 17.1997C92.2484 17.1997 93.9428 15.7232 93.9428 12.6013C93.9428 9.47941 92.2455 8.0029 89.4606 8.0029ZM92.2455 12.7438C92.2455 14.7773 91.2741 15.8006 89.4606 15.8006C87.6603 15.8006 86.6888 14.7773 86.6888 12.7438V12.4719C86.6888 10.4377 87.6734 9.40193 89.4606 9.40193C91.2617 9.40193 92.2455 10.4377 92.2455 12.4719V12.7438Z" fill="white"/>
<path fill-rule="evenodd" clip-rule="evenodd" d="M25.6094 13C25.6094 19.9036 20.0129 25.5 13.1094 25.5C6.20582 25.5 0.609375 19.9036 0.609375 13C0.609375 6.09644 6.20582 0.5 13.1094 0.5C20.0129 0.5 25.6094 6.09644 25.6094 13ZM9.15439 12.9388C9.13645 13.2528 9.24327 13.5611 9.45139 13.7959C9.6595 14.0308 9.95189 14.173 10.2643 14.1914H10.3287C10.5588 14.1911 10.7837 14.1232 10.9758 13.9959C11.1679 13.8686 11.3187 13.6876 11.4096 13.4752C11.5006 13.2628 11.5276 13.0283 11.4874 12.8006C11.4473 12.573 11.3416 12.3621 11.1836 12.1941C11.0255 12.026 10.822 11.9082 10.5981 11.8551C10.3741 11.8019 10.1396 11.8159 9.92348 11.8951C9.70734 11.9744 9.51903 12.1155 9.38179 12.3011C9.24454 12.4867 9.16437 12.7086 9.15117 12.9394L9.15439 12.9388ZM4.5465 12.6911C4.6113 12.6527 4.68597 12.6344 4.76108 12.6387C4.81104 12.6414 4.85998 12.654 4.90508 12.6758C4.95017 12.6976 4.99054 12.7281 5.02387 12.7656C5.05719 12.8031 5.08281 12.8469 5.09925 12.8944C5.11569 12.9419 5.12263 12.9922 5.11967 13.0424C5.11536 13.1179 5.08887 13.1903 5.04357 13.2507C4.99826 13.3111 4.93617 13.3566 4.86514 13.3815C4.79411 13.4064 4.71733 13.4095 4.6445 13.3906C4.57167 13.3717 4.50606 13.3315 4.45597 13.2751C4.40587 13.2187 4.37353 13.1486 4.36305 13.0737C4.35256 12.9989 4.36439 12.9226 4.39704 12.8545C4.4297 12.7864 4.48171 12.7295 4.5465 12.6911ZM9.07967 6.06741C9.14657 6.03289 9.20181 5.97925 9.23843 5.91324C9.27506 5.84724 9.29144 5.77182 9.28551 5.69648C9.27957 5.62114 9.2516 5.54925 9.2051 5.48986C9.1586 5.43046 9.09565 5.38622 9.02419 5.3627C8.95272 5.33918 8.87593 5.33743 8.80347 5.35767C8.73102 5.37792 8.66614 5.41925 8.61701 5.47647C8.56788 5.53368 8.5367 5.60423 8.52737 5.67922C8.51805 5.75421 8.53102 5.8303 8.56463 5.8979C8.58723 5.94315 8.61851 5.98346 8.65668 6.0165C8.69485 6.04955 8.73915 6.07467 8.78703 6.09043C8.83491 6.10618 8.88541 6.11226 8.93564 6.10831C8.98586 6.10436 9.03482 6.09046 9.07967 6.06741ZM10.5224 7.92524C10.4651 8.02704 10.3791 8.10948 10.2752 8.16214C10.2062 8.19713 10.131 8.21811 10.0539 8.22388C9.97678 8.22965 9.89931 8.22009 9.82589 8.19576C9.75247 8.17143 9.68454 8.13279 9.62598 8.08206C9.56743 8.03133 9.51939 7.96951 9.48462 7.90011C9.43229 7.79567 9.41195 7.67797 9.42617 7.56191C9.44038 7.44585 9.48852 7.33663 9.5645 7.24806C9.64048 7.15948 9.74088 7.09554 9.85302 7.06431C9.96515 7.03307 10.084 7.03595 10.1945 7.07257C10.305 7.1092 10.4022 7.17793 10.4739 7.27008C10.5455 7.36222 10.5884 7.47365 10.597 7.59026C10.6056 7.70688 10.5797 7.82345 10.5224 7.92524ZM6.25219 9.60301C6.33233 9.65596 6.42629 9.68384 6.5222 9.68312C6.61811 9.68239 6.71165 9.6531 6.79098 9.59893C6.87031 9.54477 6.93188 9.46817 6.96788 9.37884C7.00388 9.2895 7.01271 9.19144 6.99324 9.09706C6.97378 9.00269 6.92689 8.91623 6.85851 8.84864C6.79014 8.78105 6.70335 8.73536 6.60913 8.71735C6.51491 8.69934 6.41749 8.70982 6.3292 8.74747C6.24091 8.78512 6.16572 8.84824 6.11313 8.92884C6.04271 9.0368 6.01779 9.16844 6.04387 9.29484C6.06994 9.42124 6.14487 9.53208 6.25219 9.60301ZM6.63681 12.5041C6.73705 12.4447 6.85255 12.4166 6.96872 12.4232C7.12458 12.4322 7.27051 12.503 7.37444 12.6201C7.47838 12.7371 7.53182 12.8909 7.52303 13.0475C7.51636 13.1642 7.47539 13.2764 7.40531 13.3697C7.33524 13.4631 7.2392 13.5334 7.12933 13.5719C7.01946 13.6104 6.90071 13.6153 6.78807 13.586C6.67543 13.5567 6.57396 13.4945 6.4965 13.4073C6.41904 13.32 6.36905 13.2116 6.35286 13.0958C6.33667 12.9801 6.35501 12.862 6.40555 12.7567C6.45609 12.6514 6.53656 12.5635 6.63681 12.5041ZM6.31646 16.3991C6.2309 16.4425 6.16009 16.5105 6.11296 16.5944C6.06584 16.6783 6.04452 16.7743 6.05171 16.8704C6.05889 16.9665 6.09426 17.0582 6.15333 17.1341C6.21241 17.21 6.29254 17.2665 6.3836 17.2966C6.47466 17.3268 6.57256 17.3291 6.66492 17.3033C6.75728 17.2775 6.83996 17.2247 6.90251 17.1517C6.96505 17.0787 7.00465 16.9887 7.01631 16.8931C7.02796 16.7975 7.01115 16.7005 6.96798 16.6145C6.9393 16.5574 6.89969 16.5064 6.85142 16.4647C6.80315 16.4229 6.74716 16.3911 6.68665 16.3711C6.62614 16.3511 6.5623 16.3433 6.49879 16.3481C6.43527 16.3529 6.37331 16.3702 6.31646 16.3991ZM8.9898 11.3149C8.8528 11.3161 8.71852 11.2765 8.60394 11.201C8.52777 11.151 8.46218 11.0863 8.41091 11.0107C8.35964 10.9352 8.32371 10.8502 8.30518 10.7606C8.28664 10.6711 8.28586 10.5787 8.30288 10.4889C8.31989 10.399 8.35438 10.3134 8.40436 10.237C8.47948 10.1219 8.58689 10.0317 8.71301 9.97793C8.83912 9.92414 8.97827 9.90914 9.11287 9.93482C9.24746 9.9605 9.37146 10.0257 9.46917 10.1222C9.56689 10.2187 9.63394 10.3422 9.66185 10.477C9.68975 10.6118 9.67726 10.7518 9.62595 10.8795C9.57464 11.0071 9.48682 11.1167 9.37358 11.1942C9.26035 11.2717 9.12679 11.3137 8.9898 11.3149ZM15.8608 8.11577C15.9583 8.17973 16.0726 8.21318 16.189 8.2119C16.3055 8.21062 16.419 8.17466 16.5151 8.10857C16.6113 8.04249 16.6858 7.94924 16.7292 7.84062C16.7726 7.73199 16.783 7.61287 16.7591 7.4983C16.7352 7.38374 16.678 7.27888 16.5947 7.19698C16.5115 7.11507 16.406 7.0598 16.2915 7.03816C16.177 7.01651 16.0588 7.02945 15.9516 7.07535C15.8444 7.12126 15.7532 7.19805 15.6895 7.29604C15.6471 7.36113 15.6178 7.43399 15.6035 7.51045C15.5891 7.58692 15.5899 7.66548 15.6058 7.74163C15.6217 7.81778 15.6524 7.89003 15.6962 7.95423C15.7399 8.01844 15.7959 8.07333 15.8608 8.11577ZM17.2809 6.09C17.2055 6.09068 17.1316 6.06887 17.0686 6.02733C16.9841 5.97169 16.9251 5.88463 16.9044 5.78528C16.8838 5.68593 16.9032 5.58241 16.9585 5.49745C16.9997 5.43402 17.0588 5.38432 17.1282 5.35462C17.1975 5.32492 17.2741 5.31658 17.3482 5.33063C17.4223 5.34468 17.4906 5.3805 17.5444 5.43357C17.5982 5.48663 17.6352 5.55454 17.6506 5.62872C17.666 5.70289 17.6592 5.78 17.631 5.85027C17.6028 5.92054 17.5545 5.98083 17.4922 6.02351C17.4298 6.06618 17.3563 6.08932 17.2809 6.09ZM15.9535 11.8118C15.799 11.8029 15.6443 11.8247 15.4981 11.8758C15.352 11.927 15.2173 12.0066 15.1018 12.1101C14.8685 12.3191 14.7273 12.6127 14.7094 12.9263C14.6915 13.2399 14.7982 13.5478 15.0062 13.7822C15.2141 14.0167 15.5063 14.1586 15.8183 14.1766H15.8866C16.1139 14.1765 16.3363 14.1103 16.527 13.986C16.7177 13.8617 16.8686 13.6846 16.9614 13.4761C17.0543 13.2676 17.0851 13.0365 17.0502 12.8108C17.0153 12.5851 16.9161 12.3743 16.7647 12.2039C16.6622 12.0877 16.5376 11.9932 16.3984 11.9259C16.2591 11.8586 16.1079 11.8198 15.9535 11.8118ZM11.0964 11.5955C10.9103 11.4804 10.7599 11.3153 10.6621 11.119C10.5721 10.9385 10.5296 10.738 10.5384 10.5363C10.5472 10.3347 10.6072 10.1387 10.7126 9.96687C10.8179 9.79506 10.9653 9.65315 11.1405 9.55461C11.3158 9.45607 11.5132 9.40417 11.714 9.40382C11.9321 9.40277 12.1461 9.46274 12.3321 9.57701C12.5181 9.69128 12.6688 9.85534 12.7673 10.0508C12.8583 10.2314 12.9017 10.4325 12.8934 10.6348C12.8851 10.837 12.8253 11.0338 12.7198 11.2063C12.6143 11.3787 12.4666 11.5212 12.2907 11.6199C12.1149 11.7187 11.9168 11.7705 11.7153 11.7705C11.4968 11.7712 11.2825 11.7106 11.0964 11.5955ZM19.901 9.60174C19.9866 9.55835 20.0574 9.49043 20.1046 9.40658C20.1518 9.32273 20.1732 9.22671 20.166 9.13065C20.1589 9.03459 20.1236 8.94281 20.0646 8.8669C20.0056 8.79099 19.9256 8.73436 19.8345 8.70417C19.7435 8.67398 19.6456 8.67159 19.5533 8.69729C19.4609 8.72299 19.3782 8.77563 19.3155 8.84856C19.2529 8.92149 19.2132 9.01144 19.2015 9.10704C19.1897 9.20264 19.2064 9.29959 19.2495 9.38565C19.3074 9.50108 19.4086 9.58867 19.5307 9.62919C19.6529 9.66971 19.7861 9.65984 19.901 9.60174ZM16.6215 10.258C16.689 10.1382 16.7904 10.0412 16.9127 9.97923C16.994 9.93802 17.0825 9.91332 17.1732 9.90653C17.264 9.89974 17.3551 9.91099 17.4416 9.93966C17.528 9.96832 17.6079 10.0138 17.6768 10.0736C17.7457 10.1333 17.8022 10.2061 17.843 10.2878C17.9046 10.4108 17.9286 10.5494 17.9119 10.686C17.8951 10.8227 17.8384 10.9513 17.749 11.0556C17.6595 11.1599 17.5413 11.2351 17.4092 11.2719C17.2772 11.3086 17.1373 11.3052 17.0072 11.2621C16.8771 11.2189 16.7626 11.1379 16.6783 11.0294C16.594 10.9209 16.5436 10.7897 16.5335 10.6524C16.5234 10.515 16.554 10.3778 16.6215 10.258ZM13.0641 5.84858C13.1598 5.85406 13.2551 5.83088 13.3377 5.78197C13.4203 5.73306 13.4867 5.66063 13.5283 5.57382C13.57 5.48702 13.5851 5.38975 13.5717 5.29432C13.5584 5.19888 13.5171 5.10958 13.4533 5.03769C13.3894 4.96581 13.3057 4.91458 13.2129 4.89048C13.12 4.86638 13.0222 4.8705 12.9316 4.90231C12.8411 4.93412 12.762 4.9922 12.7044 5.06919C12.6467 5.14619 12.613 5.23865 12.6077 5.33487C12.6004 5.46381 12.6445 5.59034 12.7301 5.68667C12.8157 5.783 12.9358 5.84123 13.0641 5.84858ZM13.4499 8.81935C13.3319 8.88927 13.196 8.92248 13.0592 8.91478C12.8757 8.90426 12.7038 8.82093 12.5814 8.68311C12.459 8.54529 12.396 8.36425 12.4064 8.1798C12.4142 8.04238 12.4625 7.91038 12.5449 7.80049C12.6274 7.6906 12.7405 7.60775 12.8698 7.5624C12.9991 7.51706 13.1389 7.51127 13.2715 7.54575C13.4041 7.58023 13.5236 7.65344 13.6148 7.75613C13.706 7.85882 13.7648 7.98637 13.7839 8.12268C13.803 8.25898 13.7815 8.39791 13.722 8.52191C13.6626 8.64592 13.5679 8.74942 13.4499 8.81935ZM9.30571 16.021C9.42806 15.9591 9.52937 15.862 9.59683 15.7421C9.66428 15.6223 9.69485 15.485 9.68467 15.3477C9.67449 15.2104 9.62401 15.0792 9.53962 14.9707C9.45524 14.8622 9.34073 14.7813 9.21059 14.7382C9.08045 14.6951 8.94052 14.6918 8.80849 14.7287C8.67647 14.7655 8.55828 14.8409 8.46889 14.9452C8.37949 15.0496 8.32289 15.1782 8.30625 15.3149C8.28962 15.4516 8.31369 15.5902 8.37542 15.7131C8.45818 15.8779 8.60267 16.0029 8.77712 16.0606C8.95157 16.1184 9.1417 16.1041 9.30571 16.021ZM13.3176 10.6754C13.2963 10.4129 13.3627 10.1507 13.5064 9.93032C13.6138 9.76583 13.7603 9.63078 13.9326 9.53738C14.1049 9.44397 14.2976 9.39513 14.4933 9.39526C14.7555 9.3956 15.01 9.48378 15.2167 9.64586C15.4233 9.80793 15.5703 10.0346 15.6343 10.2901C15.6983 10.5456 15.6757 10.8152 15.5701 11.0563C15.4645 11.2974 15.2819 11.4962 15.0512 11.6213C14.8205 11.7464 14.5549 11.7905 14.2964 11.7468C14.0379 11.7031 13.8013 11.574 13.624 11.38C13.4467 11.1859 13.3389 10.938 13.3176 10.6754ZM15.5551 14.882C15.4607 14.6939 15.3181 14.5345 15.1419 14.4203C14.9658 14.3061 14.7625 14.2412 14.5531 14.2322C14.3436 14.2233 14.1356 14.2707 13.9505 14.3695C13.7653 14.4683 13.6098 14.615 13.4999 14.7944C13.39 14.9738 13.3297 15.1794 13.3252 15.39C13.3208 15.6007 13.3723 15.8087 13.4746 15.9926C13.5768 16.1765 13.726 16.3297 13.9068 16.4363C14.0877 16.5429 14.2935 16.5991 14.5031 16.5991C14.6875 16.5979 14.8691 16.5536 15.0336 16.4697C15.3118 16.3282 15.5229 16.0817 15.6206 15.7841C15.7184 15.4865 15.6948 15.1622 15.5551 14.882ZM17.2283 14.6854C17.3653 14.6843 17.4996 14.724 17.6141 14.7996C17.7674 14.9011 17.8744 15.0596 17.9117 15.2403C17.949 15.421 17.9135 15.6091 17.813 15.7636C17.7379 15.8787 17.6304 15.9688 17.5042 16.0225C17.3781 16.0762 17.2389 16.0912 17.1043 16.0654C16.9698 16.0396 16.8458 15.9744 16.7481 15.8778C16.6505 15.7812 16.5835 15.6577 16.5557 15.5229C16.5278 15.3881 16.5404 15.248 16.5918 15.1204C16.6432 14.9927 16.7311 14.8833 16.8444 14.8059C16.9577 14.7285 17.0913 14.6865 17.2283 14.6854ZM19.87 13.0205C19.8765 12.9038 19.8485 12.7877 19.7894 12.687C19.7303 12.5862 19.6429 12.5054 19.5381 12.4546C19.4333 12.4038 19.3158 12.3854 19.2006 12.4016C19.0854 12.4179 18.9775 12.4681 18.8907 12.546C18.8039 12.6238 18.742 12.7258 18.7128 12.839C18.6837 12.9522 18.6885 13.0715 18.7268 13.1819C18.7652 13.2924 18.8352 13.3889 18.9281 13.4593C19.021 13.5297 19.1325 13.5709 19.2487 13.5776C19.4046 13.5864 19.5575 13.5327 19.674 13.4283C19.7905 13.3238 19.861 13.1772 19.87 13.0205ZM21.285 12.6513C21.35 12.6129 21.4248 12.5947 21.5001 12.5991C21.601 12.6051 21.6953 12.651 21.7625 12.7268C21.8297 12.8026 21.8643 12.9021 21.8587 13.0035C21.8544 13.0791 21.8278 13.1517 21.7824 13.2122C21.737 13.2727 21.6748 13.3183 21.6036 13.3432C21.5324 13.3681 21.4555 13.3713 21.3825 13.3522C21.3095 13.3332 21.2438 13.2929 21.1937 13.2363C21.1435 13.1798 21.1112 13.1095 21.1007 13.0345C21.0903 12.9595 21.1022 12.883 21.135 12.8148C21.1678 12.7466 21.22 12.6897 21.285 12.6513ZM19.9656 16.3976C19.8854 16.3448 19.7914 16.3171 19.6955 16.318C19.5997 16.3188 19.5062 16.3483 19.427 16.4025C19.3478 16.4567 19.2863 16.5334 19.2504 16.6227C19.2145 16.712 19.2058 16.81 19.2253 16.9044C19.2449 16.9987 19.2918 17.0851 19.3601 17.1526C19.4285 17.2201 19.5153 17.2658 19.6095 17.2837C19.7036 17.3017 19.801 17.2912 19.8893 17.2536C19.9775 17.216 20.0527 17.1529 20.1053 17.0724C20.1402 17.0189 20.1643 16.959 20.1762 16.8961C20.1881 16.8332 20.1875 16.7686 20.1746 16.7059C20.1616 16.6432 20.1365 16.5837 20.1006 16.5308C20.0647 16.4779 20.0189 16.4327 19.9656 16.3976ZM8.93695 19.9103C9.01232 19.9097 9.08619 19.9315 9.1492 19.9731C9.19106 20.0007 9.2271 20.0363 9.25526 20.0779C9.28341 20.1195 9.30314 20.1663 9.3133 20.2156C9.32346 20.2648 9.32387 20.3156 9.31449 20.3651C9.30511 20.4145 9.28614 20.4616 9.25865 20.5036C9.21726 20.5669 9.15813 20.6165 9.08873 20.646C9.01932 20.6755 8.94276 20.6837 8.86872 20.6696C8.79468 20.6554 8.72649 20.6194 8.67277 20.5663C8.61905 20.5132 8.58221 20.4452 8.56691 20.3711C8.55161 20.2969 8.55854 20.2198 8.58681 20.1496C8.61509 20.0794 8.66345 20.0192 8.72577 19.9766C8.78809 19.934 8.86159 19.9109 8.93695 19.9103ZM17.1377 19.9336C17.0704 19.9677 17.0146 20.0211 16.9775 20.0871C16.9404 20.153 16.9235 20.2285 16.9291 20.3041C16.9347 20.3796 16.9625 20.4518 17.0089 20.5115C17.0553 20.5712 17.1183 20.6157 17.1899 20.6394C17.2615 20.6631 17.3385 20.665 17.4111 20.6447C17.4838 20.6245 17.5488 20.583 17.598 20.5256C17.6472 20.4682 17.6783 20.3974 17.6875 20.3222C17.6967 20.247 17.6834 20.1708 17.6495 20.1031C17.627 20.0582 17.5959 20.0181 17.558 19.9853C17.5201 19.9524 17.4761 19.9274 17.4286 19.9116C17.381 19.8959 17.3309 19.8897 17.2809 19.8935C17.231 19.8973 17.1823 19.9109 17.1377 19.9336ZM12.8996 15.3229C12.9209 15.5854 12.8545 15.8477 12.7108 16.068C12.6039 16.2329 12.4577 16.3682 12.2854 16.4617C12.1131 16.5552 11.9203 16.6038 11.7245 16.6031C11.4623 16.6029 11.2077 16.5148 11.001 16.3528C10.7942 16.1909 10.6471 15.9642 10.583 15.7087C10.5189 15.4533 10.5413 15.1836 10.6469 14.9425C10.7524 14.7013 10.935 14.5024 11.1657 14.3772C11.3964 14.2521 11.662 14.2078 11.9206 14.2515C12.1791 14.2951 12.4158 14.4242 12.5931 14.6183C12.7704 14.8123 12.8783 15.0603 12.8996 15.3229ZM10.3564 17.8852C10.259 17.8212 10.145 17.7876 10.0286 17.7888C9.91226 17.7899 9.79886 17.8257 9.70273 17.8915C9.6066 17.9574 9.53207 18.0505 9.48855 18.1589C9.44503 18.2674 9.43448 18.3863 9.45823 18.5008C9.48198 18.6153 9.53897 18.7201 9.62199 18.802C9.70502 18.884 9.81034 18.9393 9.92466 18.9611C10.039 18.9829 10.1572 18.9701 10.2643 18.9244C10.3714 18.8787 10.4626 18.8021 10.5264 18.7043C10.6118 18.573 10.6419 18.413 10.61 18.2594C10.5782 18.1059 10.487 17.9713 10.3564 17.8852ZM12.8297 20.218C12.9124 20.1691 13.0075 20.146 13.1032 20.1514C13.1668 20.1551 13.2291 20.1713 13.2864 20.1991C13.3438 20.2269 13.3951 20.2658 13.4375 20.3136C13.4799 20.3613 13.5125 20.417 13.5335 20.4775C13.5544 20.5379 13.5634 20.6019 13.5597 20.6658C13.5542 20.762 13.5204 20.8544 13.4627 20.9313C13.405 21.0082 13.3258 21.0662 13.2353 21.0979C13.1448 21.1296 13.0469 21.1336 12.9541 21.1094C12.8613 21.0853 12.7777 21.034 12.7139 20.9621C12.6501 20.8902 12.6089 20.8009 12.5956 20.7055C12.5823 20.6101 12.5975 20.5128 12.6391 20.4261C12.6808 20.3393 12.7471 20.2669 12.8297 20.218ZM13.1089 17.0868C12.972 17.0785 12.8357 17.1111 12.7173 17.1806C12.5989 17.2502 12.5037 17.3535 12.4438 17.4774C12.3839 17.6013 12.3619 17.7404 12.3806 17.8769C12.3994 18.0134 12.458 18.1412 12.5491 18.2442C12.6402 18.3472 12.7597 18.4207 12.8924 18.4554C13.0251 18.4901 13.1651 18.4845 13.2946 18.4392C13.4241 18.3939 13.5373 18.3109 13.6199 18.2009C13.7024 18.0909 13.7507 17.9587 13.7584 17.8212C13.769 17.6373 13.7065 17.4567 13.5848 17.319C13.463 17.1813 13.2918 17.0978 13.1089 17.0868ZM15.6952 18.0762C15.7523 17.974 15.8383 17.8912 15.9422 17.8382C16.011 17.8029 16.0861 17.7816 16.1632 17.7755C16.2402 17.7694 16.3177 17.7787 16.3912 17.8027C16.4647 17.8268 16.5328 17.8651 16.5915 17.9156C16.6502 17.9661 16.6984 18.0278 16.7334 18.097C16.7864 18.2014 16.8074 18.3192 16.7938 18.4355C16.7801 18.5518 16.7324 18.6615 16.6567 18.7506C16.581 18.8397 16.4807 18.9042 16.3685 18.936C16.2563 18.9677 16.1373 18.9653 16.0264 18.9291C15.9156 18.8928 15.8179 18.8243 15.7458 18.7323C15.6738 18.6402 15.6305 18.5287 15.6214 18.412C15.6124 18.2952 15.6381 18.1783 15.6952 18.0762Z" fill="white"/>
</svg>
