<svg width="111" height="25" viewBox="0 0 111 25" fill="none" xmlns="http://www.w3.org/2000/svg">
<path d="M97.9833 11.9022C97.4333 12.2698 96.5166 12.4535 95.4166 12.4535H94.8666H94.3166L95.05 7.67545H95.6H95.9666C96.8833 7.67545 97.6166 7.85923 98.1666 8.043C98.5333 8.41054 98.9 8.77809 98.9 9.88072C98.9 10.9834 98.5333 11.5347 97.9833 11.9022ZM28.6833 17.9667H19.7L20.25 14.6588H25.9333L26.4833 11.1671H20.9833L21.5333 8.043H30.5167L28.6833 17.9667ZM102.933 5.28641C101.467 4.36755 99.45 4 96.8833 4H90.1L87.5333 17.9667H78.55L79.1 14.6588H84.4166L85.15 11.1671H79.65L80.3833 8.043H85.8833L86.6166 4H75.25L72.8666 17.2316H68.65L71.2166 4H65.1666L62.7833 17.2316H58.75L61.1333 4H55.2666L52.7 17.9667H43.7166L44.2666 14.6588H49.5833L50.3166 11.1671H44.8166L45.3666 8.043H51.05L51.7833 4H16.4L14.3833 15.0264L10.5333 4H4.3L1 22.0097H6.86666L8.88333 10.6158L12.7333 22.0097H33.8167L36.3833 8.043H39.6833L37.1166 22.0097H92.4833L94.1333 13.1886L96.7 22.0097H102.567L99.8166 14.8426L100.55 14.6588C101.833 14.2913 102.933 13.74 103.667 12.8211C104.4 11.9022 104.767 10.6158 104.767 9.14563C104.767 7.49168 104.217 6.20527 102.933 5.28641Z" fill="white"/>
<path d="M107.7 19.8045H108.433C108.616 19.8045 108.8 19.8045 108.983 19.8045C108.983 19.6207 108.983 19.6207 109.166 19.6207C109.166 19.4369 109.166 19.4369 109.166 19.2532C109.166 19.0694 109.166 19.0694 108.983 18.8856C108.983 18.8856 108.8 18.8856 108.616 18.8856H107.7V19.8045ZM107.333 21.4584V18.7018L108.433 18.5181C108.8 18.5181 108.983 18.5181 109.166 18.5181C109.166 18.7018 109.35 18.7018 109.35 18.8856C109.533 18.8856 109.533 19.0694 109.533 19.2532C109.533 19.4369 109.533 19.6207 109.35 19.8045C109.35 19.9882 108.983 19.9882 108.8 20.172C108.983 20.172 108.983 20.172 108.983 20.172C109.166 20.3558 109.166 20.3558 109.35 20.5396L109.9 21.2747H109.35L108.983 20.7233C108.983 20.5396 108.8 20.5396 108.8 20.3558C108.616 20.3558 108.616 20.172 108.616 20.172C108.433 20.172 108.433 20.172 108.433 20.172C108.25 20.172 108.25 20.172 108.066 20.172H107.7V21.4584H107.333Z" fill="white"/>
<path d="M106.233 19.9882C106.233 19.4369 106.416 18.8856 106.783 18.5181C107.15 18.1505 107.7 17.783 108.25 17.783C109.533 17.783 110.45 18.7018 110.633 19.8045V19.9882C110.633 21.0909 109.716 22.0097 108.433 22.1935C107.333 22.1935 106.233 21.2746 106.233 19.9882ZM108.25 17.4154C107.516 17.4154 106.966 17.5992 106.416 18.1505C105.866 18.7018 105.683 19.4369 105.683 20.172C105.866 21.6422 106.966 22.7448 108.433 22.5611C109.9 22.5611 111 21.2746 111 19.8045C111 18.3343 109.716 17.2317 108.25 17.4154Z" fill="white"/>
</svg>
