<svg width="60" height="25" viewBox="0 0 60 25" fill="none" xmlns="http://www.w3.org/2000/svg">
<path fill-rule="evenodd" clip-rule="evenodd" d="M39.662 12.4619V22.4034H46.1682H52.6744V19.3845V16.3656H49.3953H46.1162V9.44301V2.52039H42.8891H39.662V12.4619ZM0 12.514V22.4034H2.91479H5.82958V19.4366V16.4697L6.53226 16.4687C12.6229 16.4593 14.8991 14.6098 14.9225 9.65121C14.9399 5.94839 13.7527 4.02588 10.8442 3.04671C9.77319 2.68622 8.91832 2.63104 4.34616 2.62771L0 2.62449V12.514ZM53.6113 5.33108V8.03767H56.7864H59.9614V5.33108V2.62449H56.7864H53.6113V5.33108ZM7.56222 6.63992C8.61706 6.9314 8.95112 7.60795 8.95195 9.45488C8.9533 12.0215 8.54887 12.6016 6.6884 12.702L5.82958 12.7483V9.57762V6.40695L6.42816 6.44952C6.75732 6.47284 7.26772 6.55852 7.56222 6.63992ZM53.6113 15.8451V22.4034H56.7343H59.8573V15.8451V9.28687H56.7343H53.6113V15.8451Z" fill="white"/>
<path fill-rule="evenodd" clip-rule="evenodd" d="M27.3591 1.4062C27.2972 1.62959 27.2461 1.88787 27.2458 1.9802C27.2453 2.11001 27.0928 2.16363 26.5718 2.21703C14.6289 3.44051 11.3031 20.3492 22.3742 23.5575C34.415 27.0468 44.2448 8.9248 33.2909 3.43187C32.1506 2.86005 31.8359 2.91627 32.8252 3.51515C34.2613 4.38459 35.6161 5.72082 36.3783 7.01998C36.7762 7.69798 37.2654 8.92324 37.2012 9.08063C37.1667 9.16506 37.1485 9.16027 37.1429 9.06512C37.0532 7.55391 34.4712 4.4152 32.7137 3.68088C32.0053 3.38482 32.1138 3.58021 32.9895 4.17723C33.4659 4.50202 34.1835 5.10757 34.5842 5.52303L35.3129 6.27837L34.5267 5.55488C33.7536 4.84357 32.3221 3.9024 32.1172 3.97069C32.0597 3.98985 32.3702 4.27935 32.8073 4.61413C34.296 5.75434 35.8609 7.68684 36.1446 8.73502C36.1833 8.87816 36.0295 8.6328 35.8026 8.18964C35.065 6.74838 33.8513 5.48972 32.3201 4.57822C31.6863 4.20096 31.8732 4.47807 32.6543 5.07373C34.4155 6.41683 36.0224 8.7318 35.984 9.87044C35.9809 9.96163 35.8959 9.77852 35.795 9.46351C35.2098 7.63511 33.5345 5.63806 32.0741 5.02783C31.5286 4.79995 31.6602 4.96609 32.7246 5.84896C34.5895 7.39599 35.701 9.31246 35.6663 10.9211C35.6608 11.1756 35.6171 11.0657 35.5214 10.5568C35.1561 8.615 34.0324 6.8934 32.4336 5.82575C31.5116 5.21 31.4629 5.31681 32.3032 6.1114C32.709 6.49521 33.2219 7.01998 33.4429 7.27763L33.8448 7.74608L33.3297 7.2617C32.7773 6.74224 31.6476 5.92433 31.4825 5.92433C31.4273 5.92433 31.8729 6.40444 32.4726 6.99135C33.7937 8.28417 34.6577 9.74593 34.6289 10.6395C34.6248 10.7658 34.5407 10.588 34.4419 10.2445C34.0873 9.01005 33.3397 7.96656 32.0453 6.89891C31.0981 6.11754 31.1347 6.28077 32.151 7.37017C33.4375 8.74908 34.2251 10.2279 34.2085 11.2334C34.2034 11.5436 34.1806 11.5072 34.055 10.9883C33.7541 9.74541 32.8062 8.35204 31.5754 7.34352C30.8951 6.78607 30.9833 7.03341 31.7707 7.8914C33.1344 9.37742 33.5865 10.3432 33.6494 11.9044L33.6873 12.847L33.6031 12.0578C33.4248 10.3853 32.8168 9.26406 31.4922 8.16404C30.7376 7.53746 30.737 7.66155 31.4907 8.46717C35.5158 12.7701 30.9046 20.1639 24.8585 19.1014C18.6833 18.0162 19.0677 9.45539 25.3877 7.31718C26.405 6.97303 26.4212 6.97668 26.3442 7.53788C26.2623 8.13541 26.1055 8.18173 28.4244 6.92338C29.5222 6.32772 30.6896 5.70895 31.0188 5.54832C31.7727 5.18064 31.943 5.46702 29.5447 3.07086L27.4719 1L27.3591 1.4062Z" fill="white"/>
</svg>
