<svg width="70" height="25" viewBox="0 0 70 25" fill="none" xmlns="http://www.w3.org/2000/svg">
<path d="M6.32029 9.93921H6.5161L6.33416 10.6993C6.30712 10.812 6.31228 10.897 6.34956 10.9536C6.38677 11.0103 6.45597 11.0386 6.55715 11.0386C6.6577 11.0386 6.74007 11.0103 6.80453 10.9536C6.86899 10.897 6.9147 10.812 6.94174 10.6993L7.12362 9.93921H7.32201L7.1356 10.7181C7.09505 10.8873 7.02292 11.014 6.91951 11.098C6.8161 11.1821 6.68049 11.2241 6.51276 11.2241C6.34482 11.2241 6.2297 11.1822 6.16698 11.0984C6.1042 11.0147 6.09319 10.8879 6.13388 10.7181L6.32029 9.93921Z" fill="white"/>
<path d="M7.29395 11.1887L7.60544 9.88745L8.19734 10.6527C8.21316 10.6742 8.22912 10.6973 8.24494 10.7219C8.26068 10.7464 8.27678 10.774 8.29337 10.8048L8.5011 9.93707H8.68444L8.37316 11.2372L7.76885 10.4584C7.75261 10.4375 7.73756 10.4152 7.72348 10.3918C7.70934 10.3684 7.69652 10.3439 7.68474 10.3183L7.47645 11.1887H7.29395Z" fill="white"/>
<path d="M8.6709 11.1908L8.97047 9.93921H9.16873L8.86915 11.1908H8.6709Z" fill="white"/>
<path d="M9.15234 11.1908L9.45199 9.93921H10.1328L10.0914 10.1118H9.60892L9.53422 10.4239H10.0167L9.974 10.6025H9.49143L9.35067 11.1908H9.15234Z" fill="white"/>
<path d="M10.0513 11.1908L10.3509 9.93921H10.5492L10.2496 11.1908H10.0513Z" fill="white"/>
<path d="M10.5327 11.1908L10.8324 9.93921H11.5132L11.4718 10.1118H10.9893L10.9141 10.4256H11.3967L11.354 10.6043H10.8715L10.7746 11.0087H11.2571L11.2135 11.1908H10.5327Z" fill="white"/>
<path d="M11.6842 11.007H11.8509C11.9425 11.007 12.0128 11.0007 12.0617 10.9882C12.1105 10.9757 12.1553 10.9545 12.1964 10.9249C12.2522 10.8846 12.2988 10.8342 12.3362 10.774C12.3737 10.714 12.402 10.6439 12.4211 10.5641C12.4401 10.4843 12.4454 10.4144 12.4367 10.3544C12.428 10.2941 12.4055 10.2439 12.3691 10.2034C12.3417 10.1738 12.3056 10.1526 12.2606 10.14C12.2153 10.1276 12.1418 10.1213 12.0396 10.1213H11.9679H11.8962L11.6842 11.007ZM11.4419 11.1909L11.7415 9.93921H12.009C12.1829 9.93921 12.3031 9.94806 12.3697 9.96604C12.4362 9.98409 12.4911 10.0142 12.5343 10.0563C12.5916 10.1116 12.6281 10.1826 12.6438 10.2691C12.6594 10.3558 12.6539 10.4547 12.6273 10.5658C12.6008 10.677 12.5589 10.7754 12.5019 10.8612C12.4451 10.9471 12.3746 11.0178 12.2908 11.0737C12.2274 11.1158 12.1594 11.1459 12.0871 11.1639C12.0146 11.1818 11.9066 11.1909 11.7627 11.1909H11.7093H11.4419Z" fill="white"/>
<path d="M13.5943 10.4624H13.6452C13.7551 10.4624 13.8314 10.4501 13.874 10.4256C13.9166 10.4011 13.9452 10.3578 13.9601 10.2956C13.9761 10.229 13.9678 10.1819 13.9351 10.1546C13.9025 10.1272 13.8338 10.1134 13.7288 10.1134H13.6779L13.5943 10.4624ZM13.542 10.629L13.4075 11.1908H13.2217L13.5213 9.93921H13.8213C13.9102 9.93921 13.9744 9.94416 14.0141 9.95412C14.0535 9.96402 14.0861 9.98046 14.1118 10.0033C14.1431 10.0324 14.1637 10.0715 14.1736 10.1208C14.1834 10.1701 14.1813 10.2244 14.1672 10.2836C14.1529 10.343 14.129 10.3977 14.0953 10.4478C14.0617 10.4979 14.0222 10.5373 13.9771 10.5657C13.9405 10.5886 13.9001 10.6048 13.8559 10.6145C13.8116 10.6242 13.745 10.629 13.6562 10.629H13.6171H13.542Z" fill="white"/>
<path d="M14.4121 10.6971H14.7521L14.6953 10.4115C14.6926 10.3933 14.69 10.3724 14.6879 10.3487C14.6859 10.325 14.6844 10.2987 14.6835 10.2696C14.6703 10.297 14.6571 10.3225 14.6439 10.3462C14.6307 10.3698 14.618 10.3916 14.6054 10.4115L14.4121 10.6971ZM14.8428 11.1887L14.7815 10.8664H14.2981L14.0793 11.1887H13.8711L14.7733 9.88745L15.0519 11.1887H14.8428Z" fill="white"/>
<path d="M15.3374 11.1908L15.4744 10.6179L15.2261 9.93921H15.4344L15.5885 10.3641C15.5921 10.3749 15.5963 10.3892 15.6012 10.4069C15.6061 10.4245 15.6109 10.4435 15.6155 10.4641C15.6279 10.4441 15.6407 10.4252 15.6535 10.4076C15.6663 10.3899 15.6792 10.3738 15.6923 10.3589L16.0552 9.93921H16.2536L15.671 10.6179L15.5339 11.1908H15.3374Z" fill="white"/>
<path d="M17.2287 10.5723C17.2288 10.5626 17.2316 10.5359 17.2372 10.492C17.2414 10.4555 17.2447 10.4252 17.2471 10.4013C17.2353 10.4298 17.2213 10.4584 17.2054 10.4868C17.1894 10.5153 17.171 10.5443 17.15 10.574L16.6711 11.241L16.5149 10.5604C16.5083 10.5324 16.5032 10.5053 16.4997 10.4792C16.4963 10.4529 16.494 10.427 16.4929 10.4013C16.4861 10.4275 16.4775 10.455 16.4669 10.4838C16.4564 10.5126 16.4439 10.5427 16.4291 10.574L16.1506 11.1905H15.9683L16.5688 9.88574L16.7397 10.6758C16.7423 10.6883 16.7459 10.7091 16.7503 10.7382C16.7546 10.7673 16.7598 10.8031 16.7658 10.8459C16.786 10.81 16.8151 10.7645 16.8535 10.7091C16.8636 10.6943 16.8714 10.6829 16.8767 10.6749L17.4173 9.88574L17.3999 11.1905H17.2157L17.2287 10.5723Z" fill="white"/>
<path d="M17.5586 11.1908L17.8583 9.93921H18.5391L18.4977 10.1118H18.0152L17.9401 10.4256H18.4226L18.3799 10.6043H17.8973L17.8005 11.0087H18.283L18.2393 11.1908H17.5586Z" fill="white"/>
<path d="M18.4648 11.1887L18.7763 9.88745L19.3682 10.6527C19.3841 10.6742 19.4 10.6973 19.4158 10.7219C19.4315 10.7464 19.4477 10.774 19.4642 10.8048L19.672 9.93707H19.8554L19.5441 11.2372L18.9397 10.4584C18.9235 10.4375 18.9085 10.4152 18.8944 10.3918C18.8802 10.3684 18.8673 10.3439 18.8556 10.3183L18.6473 11.1887H18.4648Z" fill="white"/>
<path d="M20.4888 10.1118L20.2306 11.1908H20.0322L20.2904 10.1118H19.9663L20.0076 9.93921H20.8526L20.8113 10.1118H20.4888Z" fill="white"/>
<path d="M20.6939 10.94L20.8703 10.8648C20.872 10.9207 20.8893 10.9633 20.9222 10.9926C20.9551 11.0221 21.0027 11.0367 21.0651 11.0367C21.1239 11.0367 21.1748 11.0198 21.2175 10.9862C21.2603 10.9526 21.2885 10.9076 21.302 10.8512C21.3196 10.7775 21.2757 10.712 21.1707 10.6545C21.156 10.646 21.1447 10.6397 21.1369 10.6356C21.0185 10.5684 20.9434 10.5076 20.9117 10.4531C20.8802 10.3986 20.8736 10.3322 20.8924 10.2536C20.9168 10.1515 20.9704 10.0689 21.053 10.0056C21.1357 9.94235 21.2317 9.91064 21.3413 9.91064C21.4312 9.91064 21.5023 9.92848 21.5542 9.96409C21.6063 9.99977 21.636 10.0509 21.6433 10.1176L21.4688 10.1997C21.4537 10.1603 21.4337 10.1316 21.4089 10.1133C21.3841 10.095 21.3528 10.0859 21.3151 10.0859C21.2618 10.0859 21.216 10.1003 21.1777 10.1286C21.1397 10.1572 21.1147 10.1954 21.1032 10.2433C21.0852 10.3185 21.1374 10.3885 21.2596 10.4536C21.269 10.4586 21.2763 10.4628 21.2816 10.4655C21.3886 10.5225 21.4582 10.5782 21.49 10.6327C21.522 10.6872 21.5283 10.7552 21.5087 10.8366C21.4804 10.9552 21.4215 11.0494 21.332 11.1192C21.2424 11.1889 21.1357 11.2239 21.0119 11.2239C20.9079 11.2239 20.8287 11.1994 20.7741 11.1503C20.7194 11.1014 20.6926 11.0313 20.6939 10.94Z" fill="white"/>
<path d="M22.1631 11.1908L22.4627 9.93921H22.661L22.3614 11.1908H22.1631Z" fill="white"/>
<path d="M22.6445 11.1887L22.956 9.88745L23.5479 10.6527C23.5637 10.6742 23.5797 10.6973 23.5955 10.7219C23.6112 10.7464 23.6274 10.774 23.6439 10.8048L23.8517 9.93707H24.035L23.7237 11.2372L23.1194 10.4584C23.1032 10.4375 23.0881 10.4152 23.074 10.3918C23.0599 10.3684 23.047 10.3439 23.0353 10.3183L22.827 11.1887H22.6445Z" fill="white"/>
<path d="M24.6685 10.1118L24.4102 11.1908H24.2119L24.4701 10.1118H24.146L24.1873 9.93921H25.0323L24.991 10.1118H24.6685Z" fill="white"/>
<path d="M24.8843 11.1908L25.1839 9.93921H25.8647L25.8235 10.1118H25.3409L25.2658 10.4256H25.7483L25.7055 10.6043H25.223L25.1262 11.0087H25.6087L25.5651 11.1908H24.8843Z" fill="white"/>
<path d="M26.1642 10.4726H26.2001C26.305 10.4726 26.3778 10.4602 26.4183 10.435C26.4587 10.4099 26.4867 10.3655 26.5018 10.3016C26.5183 10.2327 26.5116 10.1841 26.4812 10.1559C26.4511 10.1276 26.3861 10.1135 26.2861 10.1135H26.2502L26.1642 10.4726ZM26.1139 10.6308L25.9798 11.1908H25.7939L26.0937 9.93921H26.3703C26.4514 9.93921 26.513 9.94457 26.5551 9.95545C26.5972 9.96625 26.6311 9.98416 26.6569 10.0093C26.6874 10.0394 26.7072 10.0786 26.7164 10.1265C26.7254 10.1743 26.723 10.2267 26.7095 10.2836C26.6855 10.3839 26.6431 10.4625 26.5822 10.5193C26.5215 10.5759 26.4435 10.61 26.3486 10.6214L26.6324 11.1908H26.4081L26.1364 10.6308H26.1139Z" fill="white"/>
<path d="M26.75 11.1908L27.0496 9.93921H27.7305L27.6891 10.1118H27.2066L27.1319 10.4239H27.6144L27.5717 10.6025H27.0892L26.9483 11.1908H26.75Z" fill="white"/>
<path d="M27.958 10.6971H28.298L28.2412 10.4115C28.2385 10.3933 28.236 10.3724 28.2338 10.3487C28.2317 10.325 28.2304 10.2987 28.2295 10.2696C28.2162 10.297 28.203 10.3225 28.1899 10.3462C28.1767 10.3698 28.1638 10.3916 28.1513 10.4115L27.958 10.6971ZM28.3887 11.1887L28.3274 10.8664H27.844L27.6252 11.1887H27.417L28.3191 9.88745L28.5978 11.1887H28.3887Z" fill="white"/>
<path d="M29.8889 10.2433C29.8445 10.1942 29.794 10.1575 29.7373 10.133C29.6808 10.1086 29.618 10.0962 29.5491 10.0962C29.4158 10.0962 29.2968 10.1401 29.1922 10.2278C29.0875 10.3156 29.0185 10.4293 28.9851 10.5691C28.9527 10.7041 28.9668 10.8155 29.0271 10.9032C29.0876 10.991 29.1798 11.035 29.3035 11.035C29.3759 11.035 29.4477 11.0219 29.5193 10.9956C29.5908 10.9694 29.663 10.9298 29.7356 10.8767L29.6805 11.1068C29.6178 11.1461 29.5526 11.1755 29.4853 11.1948C29.4179 11.2141 29.3475 11.2238 29.2742 11.2238C29.1809 11.2238 29.0983 11.2082 29.0267 11.1768C28.955 11.1455 28.8964 11.0994 28.8511 11.0383C28.806 10.9785 28.7771 10.908 28.7646 10.8267C28.7521 10.7456 28.7568 10.659 28.7787 10.5672C28.8007 10.4755 28.8374 10.3893 28.8887 10.3086C28.9398 10.228 29.0031 10.1572 29.0782 10.0962C29.1536 10.0346 29.2342 9.9881 29.32 9.95639C29.4059 9.92482 29.4945 9.90894 29.5856 9.90894C29.6573 9.90894 29.723 9.91967 29.783 9.94106C29.8428 9.96238 29.8981 9.99465 29.9489 10.0381L29.8889 10.2433Z" fill="white"/>
<path d="M29.9097 11.1908L30.2092 9.93921H30.8901L30.8487 10.1118H30.3663L30.2911 10.4256H30.7736L30.7309 10.6043H30.2483L30.1516 11.0087H30.6341L30.5905 11.1908H29.9097Z" fill="white"/>
<path d="M26.2906 8.84746H24.9272L26.8232 2H28.1866L26.2906 8.84746Z" fill="white"/>
<path d="M25.5843 2.2157C25.4897 2.0854 25.3439 2.01965 25.146 2.01965H17.6495L17.2781 3.36079H18.6422V3.36002H24.0978L23.701 4.7932H18.2451L18.2456 4.79023H16.8822L15.7505 8.87566H17.1147L17.8741 6.13356H24.0069C24.1984 6.13356 24.3787 6.06827 24.5482 5.93759C24.7174 5.80679 24.8288 5.64554 24.8821 5.45295L25.6415 2.7103C25.6969 2.51129 25.6777 2.34613 25.5843 2.2157Z" fill="white"/>
<path d="M14.9564 8.41961C14.881 8.69075 14.6341 8.87835 14.3527 8.87835H7.31895C7.12725 8.87835 6.98481 8.81298 6.89116 8.68253C6.7975 8.55187 6.77743 8.3902 6.83095 8.19773L8.54722 2.01965H9.91179L8.37879 7.53761H13.8371L15.3701 2.01965H16.7343L14.9564 8.41961Z" fill="white"/>
<path d="M30.539 2.01245L32.2651 5.44504L28.6367 8.8767L30.539 2.01245Z" fill="white"/>
<path d="M29.3324 2.01245L31.0571 5.44504L27.4272 8.8767L29.3324 2.01245Z" fill="white"/>
<path d="M26.0062 20.286V18.6333C26.0062 18.2264 25.8537 18.023 25.4725 18.023C25.32 18.023 25.1421 18.0485 25.0404 18.0739V20.4895C25.0404 20.5657 24.9642 20.642 24.888 20.642H24.3035C24.2272 20.642 24.151 20.5657 24.151 20.4895V17.6671C24.151 17.5653 24.2272 17.4891 24.3035 17.4637C24.6847 17.3366 25.0659 17.2603 25.4725 17.2603C26.3875 17.2603 26.8957 17.7434 26.8957 18.6333V20.5149C26.8957 20.5911 26.8195 20.6674 26.7433 20.6674H26.3875C26.1587 20.6674 26.0062 20.4895 26.0062 20.286ZM28.2935 19.2944L28.2681 19.5232C28.2681 19.8284 28.4715 20.0063 28.8018 20.0063C29.056 20.0063 29.2847 19.93 29.5388 19.8029C29.5643 19.8029 29.5897 19.7775 29.6151 19.7775C29.6659 19.7775 29.6913 19.8029 29.7167 19.8284C29.7422 19.8538 29.793 19.93 29.793 19.93C29.8438 20.0063 29.8946 20.1081 29.8946 20.1843C29.8946 20.3115 29.8184 20.4386 29.7167 20.4895C29.4371 20.642 29.1068 20.7183 28.751 20.7183C28.3443 20.7183 28.014 20.6166 27.7598 20.4132C27.5057 20.1843 27.3532 19.8792 27.3532 19.4978V18.5062C27.3532 17.7179 27.8615 17.2348 28.7256 17.2348C29.5643 17.2348 30.0471 17.6925 30.0471 18.5062V19.1164C30.0471 19.1927 29.9709 19.2689 29.8946 19.2689H28.2935V19.2944ZM28.2681 18.735H29.2339V18.4807C29.2339 18.1756 29.056 17.9722 28.751 17.9722C28.446 17.9722 28.2681 18.1502 28.2681 18.4807V18.735ZM34.7488 19.2944L34.7234 19.5232C34.7234 19.8284 34.9267 20.0063 35.2571 20.0063C35.5112 20.0063 35.7399 19.93 35.9941 19.8029C36.0195 19.8029 36.045 19.7775 36.0703 19.7775C36.1212 19.7775 36.1466 19.8029 36.172 19.8284C36.1974 19.8538 36.2482 19.93 36.2482 19.93C36.2991 20.0063 36.3499 20.1081 36.3499 20.1843C36.3499 20.3115 36.2737 20.4386 36.172 20.4895C35.8924 20.642 35.562 20.7183 35.2062 20.7183C34.7996 20.7183 34.4692 20.6166 34.2151 20.4132C33.961 20.1843 33.8085 19.8792 33.8085 19.4978V18.5062C33.8085 17.7179 34.3168 17.2348 35.1809 17.2348C36.0195 17.2348 36.5024 17.6925 36.5024 18.5062V19.1164C36.5024 19.1927 36.4261 19.2689 36.3499 19.2689H34.7488V19.2944ZM34.7234 18.735H35.6891V18.4807C35.6891 18.1756 35.5112 17.9722 35.2062 17.9722C34.9013 17.9722 34.7234 18.1502 34.7234 18.4807V18.735ZM19.7796 20.6674H20.1355C20.2117 20.6674 20.288 20.5911 20.288 20.5149V18.6333C20.288 17.7688 19.8305 17.2603 19.0681 17.2603C18.8393 17.2603 18.5852 17.3111 18.4327 17.3619V16.4212C18.4327 16.2178 18.2548 16.0398 18.0515 16.0398H17.6957C17.6195 16.0398 17.5432 16.116 17.5432 16.1923V20.5149C17.5432 20.5911 17.6195 20.6674 17.6957 20.6674H18.2802C18.3565 20.6674 18.4327 20.5911 18.4327 20.5149V18.1248C18.5598 18.0739 18.7377 18.0485 18.8648 18.0485C19.246 18.0485 19.3985 18.2264 19.3985 18.6587V20.3115C19.4239 20.4895 19.5764 20.6674 19.7796 20.6674ZM23.6173 18.5316V19.4724C23.6173 20.2606 23.0836 20.7437 22.194 20.7437C21.3299 20.7437 20.7708 20.2606 20.7708 19.4724V18.5316C20.7708 17.7434 21.3046 17.2603 22.194 17.2603C23.0836 17.2603 23.6173 17.7434 23.6173 18.5316ZM22.7277 18.5316C22.7277 18.2264 22.5498 18.023 22.2195 18.023C21.8891 18.023 21.7112 18.201 21.7112 18.5316V19.4724C21.7112 19.7775 21.8891 19.9555 22.2195 19.9555C22.5498 19.9555 22.7277 19.7775 22.7277 19.4724V18.5316ZM17.0603 18.0993C17.0603 18.913 16.4504 19.4724 15.6372 19.4724C15.4338 19.4724 15.2559 19.447 15.078 19.3707V20.5149C15.078 20.5911 15.0018 20.6674 14.9255 20.6674H14.341C14.2648 20.6674 14.1885 20.5911 14.1885 20.5149V16.4721C14.1885 16.3703 14.2648 16.294 14.341 16.2686C14.7222 16.1415 15.1034 16.0652 15.5101 16.0652C16.4249 16.0652 17.0603 16.6246 17.0603 17.4891V18.0993ZM16.1454 17.4382C16.1454 17.0314 15.8659 16.828 15.4846 16.828C15.2559 16.828 15.1034 16.9043 15.1034 16.9043V18.5825C15.2559 18.6587 15.3321 18.6841 15.5101 18.6841C15.8913 18.6841 16.1708 18.4553 16.1708 18.0739V17.4382H16.1454ZM33.478 18.0993C33.478 18.913 32.8681 19.4724 32.0549 19.4724C31.8515 19.4724 31.6736 19.447 31.4957 19.3707V20.5149C31.4957 20.5911 31.4195 20.6674 31.3432 20.6674H30.7587C30.6825 20.6674 30.6063 20.5911 30.6063 20.5149V16.4721C30.6063 16.3703 30.6825 16.294 30.7587 16.2686C31.14 16.1415 31.5211 16.0652 31.9278 16.0652C32.8427 16.0652 33.478 16.6246 33.478 17.4891V18.0993ZM32.5631 17.4382C32.5631 17.0314 32.2836 16.828 31.9024 16.828C31.6736 16.828 31.5211 16.9043 31.5211 16.9043V18.5825C31.6736 18.6587 31.7499 18.6841 31.9278 18.6841C32.309 18.6841 32.5886 18.4553 32.5886 18.0739V17.4382H32.5631Z" fill="white"/>
<path fill-rule="evenodd" clip-rule="evenodd" d="M8.59546 14.0192C11.0406 14.5968 12.5547 17.0482 11.9773 19.4945C11.3999 21.9408 8.94974 23.4556 6.50463 22.878C4.05953 22.3004 2.54542 19.849 3.12278 17.4027C3.70014 14.9564 6.15035 13.4415 8.59546 14.0192ZM9.28423 16.931C9.46213 16.931 9.6146 17.0835 9.6146 17.2615V17.5158C9.6146 17.5921 9.5638 17.6429 9.4875 17.6429H8.90298V21.2789C8.90298 21.3552 8.82674 21.4315 8.75051 21.4315H8.3947C8.16599 21.4315 7.98808 21.2535 7.98808 21.0247V20.211C7.73394 20.3127 7.5306 20.3382 7.27646 20.3382C6.46324 20.3382 5.98032 19.8042 5.98032 18.8889V17.6683H5.62454C5.44663 17.6683 5.29415 17.5158 5.29415 17.3378V17.0835C5.29415 17.0072 5.34498 16.9564 5.42122 16.9564H7.73394L6.2091 15.5071C6.15823 15.4563 6.18366 15.3545 6.2599 15.3291L6.74275 15.1765C6.94609 15.1257 7.14943 15.1765 7.27646 15.3291L8.67427 16.931H9.28423ZM6.86985 18.8889C6.86985 19.3465 7.07319 19.5499 7.4798 19.5499C7.63227 19.5499 7.83561 19.5245 7.98808 19.4482V17.6683H6.86985V18.8889Z" fill="white"/>
<path d="M66.0247 4.19947C65.8088 3.58202 65.2206 3.13862 64.5296 3.13862H64.5152C64.066 3.13862 63.6612 3.32565 63.3731 3.6259C63.0844 3.32565 62.6796 3.13862 62.231 3.13862H62.2165C61.8217 3.13862 61.4607 3.28325 61.1836 3.52266V3.40096C61.1741 3.27976 61.0744 3.18451 60.9513 3.18451H59.8914C59.7618 3.18451 59.6571 3.28924 59.6571 3.41941V9.17756C59.6571 9.30774 59.7618 9.41247 59.8914 9.41247H60.9513C61.0695 9.41247 61.1666 9.32418 61.1821 9.20997L61.1816 5.07628C61.1815 5.06246 61.1821 5.04864 61.1836 5.03488C61.2005 4.85034 61.3356 4.69873 61.549 4.67977H61.7444C61.8336 4.68774 61.9089 4.71917 61.9682 4.76655C62.0604 4.83986 62.1118 4.95259 62.1118 5.07628L62.1158 9.18955C62.1158 9.31972 62.221 9.42495 62.3501 9.42495H63.4099C63.535 9.42495 63.6368 9.32516 63.6428 9.20098L63.6422 5.07079C63.6417 4.93513 63.7046 4.81244 63.8148 4.73962C63.869 4.7047 63.9344 4.68127 64.0097 4.67429H64.2051C64.4344 4.69423 64.573 4.8683 64.5724 5.07079L64.5765 9.17854C64.5765 9.30871 64.6816 9.41345 64.8108 9.41345H65.8706C65.9997 9.41345 66.1049 9.30871 66.1049 9.17854V4.76057C66.1049 4.45931 66.071 4.33114 66.0247 4.19947ZM58.8497 3.19951H58.2435V2.21397C58.2435 2.09576 58.1478 2 58.0297 2C58.0157 2 58.0023 2.00198 57.9893 2.00449C57.3173 2.18903 57.4519 3.12021 56.225 3.19951H56.1059C56.088 3.19951 56.071 3.202 56.0546 3.20549H56.0535L56.0546 3.20599C55.9498 3.22944 55.8711 3.3222 55.8711 3.43393V4.49428C55.8711 4.62346 55.9762 4.72869 56.1059 4.72869H56.7455L56.7445 9.22495C56.7445 9.35317 56.8482 9.45693 56.9763 9.45693H58.0241C58.1518 9.45693 58.2555 9.35317 58.2555 9.22495L58.256 4.72869H58.8497C58.9788 4.72869 59.084 4.62346 59.084 4.49428V3.43393C59.084 3.30475 58.9788 3.19952 58.8497 3.19952" fill="white"/>
<path d="M55.0403 3.19862H53.9805C53.8514 3.19862 53.7467 3.30386 53.7467 3.43302V5.62557C53.7442 5.76122 53.6345 5.86996 53.4984 5.86996H53.0547C52.9172 5.86996 52.806 5.75923 52.806 5.62157L52.802 3.43304C52.802 3.30386 52.6968 3.19863 52.5677 3.19863H51.5079C51.3782 3.19863 51.2736 3.30386 51.2736 3.43304V5.83604C51.2736 6.74875 51.9241 7.39968 52.8369 7.39968C52.8369 7.39968 53.5219 7.39968 53.5428 7.40365C53.6664 7.41759 53.7627 7.52135 53.7627 7.64901C53.7627 7.77521 53.6684 7.87841 53.5463 7.89388C53.5403 7.89493 53.5349 7.89639 53.5284 7.89737L51.9784 7.90287C51.8488 7.90287 51.7442 8.0081 51.7442 8.13729V9.19713C51.7442 9.32681 51.8488 9.43155 51.9784 9.43155H53.7113C54.6246 9.43155 55.2746 8.78118 55.2746 7.86796V3.43304C55.2746 3.30386 55.17 3.19863 55.0403 3.19863V3.19862ZM44.7818 5.14153V5.79591C44.7818 5.93304 44.6706 6.04479 44.5335 6.04479L43.861 6.04528V4.73404H44.5335C44.6706 4.73404 44.7818 4.84475 44.7818 4.98242V5.14153ZM44.875 3.19836H42.5584C42.4313 3.19836 42.3286 3.30161 42.3286 3.42829V4.4672C42.3286 4.4692 42.3291 4.47119 42.3291 4.47318C42.3291 4.47818 42.3286 4.48317 42.3286 4.48765V9.18995C42.3286 9.31762 42.4243 9.42186 42.543 9.42486H43.6227C43.7519 9.42486 43.857 9.32013 43.857 9.19044L43.861 7.57891H44.875C45.7235 7.57891 46.3147 6.98993 46.3147 6.13754V4.64178C46.3147 3.7894 45.7235 3.19838 44.875 3.19838V3.19836ZM49.1792 7.63089V7.79646C49.1792 7.80998 49.1773 7.82294 49.1752 7.83542C49.1728 7.84712 49.1694 7.85862 49.1653 7.86984C49.1324 7.96259 49.0396 8.02991 48.9295 8.02991H48.4883C48.3507 8.02991 48.2385 7.92517 48.2385 7.79646V7.59647C48.2385 7.59403 48.238 7.59152 48.238 7.58901L48.2385 7.05683V6.89028L48.239 6.88875C48.2395 6.7606 48.3507 6.65684 48.4883 6.65684H48.9295C49.0676 6.65684 49.1793 6.76108 49.1793 6.89028L49.1792 7.63089ZM49.0108 3.20445H47.5401C47.41 3.20445 47.3048 3.30321 47.3048 3.4244V3.83687C47.3048 3.83936 47.3053 3.84236 47.3053 3.84485C47.3053 3.84785 47.3048 3.85083 47.3048 3.85383V4.41892C47.3048 4.54711 47.4165 4.65185 47.5541 4.65185H48.9544C49.0651 4.6693 49.1529 4.7501 49.1653 4.87629V5.01294C49.1529 5.13315 49.0661 5.22091 48.9604 5.23089H48.267C47.3447 5.23089 46.6877 5.84387 46.6877 6.70471V7.93765C46.6877 8.79352 47.2525 9.40249 48.1683 9.40249H50.0901C50.435 9.40249 50.7147 9.14117 50.7147 8.81944V4.79598C50.7147 3.82042 50.2121 3.20445 49.0108 3.20445Z" fill="white"/>
<path d="M54.0037 18.4154V20.5243H53.335V15.3162H55.1086C55.3203 15.3117 55.5307 15.3493 55.7279 15.4267C55.9249 15.504 56.1048 15.6197 56.257 15.767C56.4108 15.9053 56.5331 16.075 56.6159 16.2646C56.6986 16.4542 56.7398 16.6593 56.7368 16.8662C56.7412 17.0741 56.7005 17.2806 56.6177 17.4714C56.535 17.6622 56.4119 17.8328 56.257 17.9716C55.9469 18.2674 55.564 18.4153 55.1086 18.415H54.0037V18.4154ZM54.0037 15.9573V17.7754H55.1252C55.2481 17.779 55.3705 17.757 55.4844 17.7106C55.5983 17.6643 55.7013 17.5946 55.7868 17.5061C55.8719 17.4234 55.9395 17.3245 55.9856 17.2151C56.0318 17.1058 56.0556 16.9884 56.0556 16.8697C56.0556 16.751 56.0318 16.6335 55.9856 16.5242C55.9395 16.4149 55.8719 16.316 55.7868 16.2333C55.7024 16.1429 55.5998 16.0715 55.4857 16.0239C55.3716 15.9763 55.2487 15.9534 55.1252 15.9569H54.0037V15.9573ZM58.2777 16.8446C58.772 16.8446 59.1622 16.9767 59.4482 17.241C59.7343 17.5053 59.8771 17.8677 59.8768 18.3281V20.5243H59.2372V20.0298H59.2081C58.9312 20.437 58.5629 20.6406 58.1033 20.6406C57.7109 20.6406 57.3826 20.5243 57.1185 20.2916C56.9917 20.1848 56.8904 20.051 56.8218 19.9C56.7532 19.7491 56.7192 19.5847 56.7222 19.4189C56.7222 19.0502 56.8615 18.7569 57.14 18.5392C57.4186 18.3215 57.7905 18.2123 58.2557 18.2117C58.6528 18.2117 58.9799 18.2845 59.2368 18.4299V18.277C59.2376 18.164 59.2132 18.0522 59.1654 17.9498C59.1176 17.8473 59.0477 17.7568 58.9606 17.6848C58.7838 17.5252 58.5532 17.4381 58.3151 17.4408C57.9416 17.4408 57.646 17.5985 57.4283 17.9138L56.8393 17.5427C57.1633 17.0772 57.6428 16.8446 58.2777 16.8446ZM57.4126 19.4335C57.4121 19.5186 57.432 19.6026 57.4706 19.6786C57.5092 19.7545 57.5653 19.82 57.6343 19.8698C57.7823 19.9862 57.9658 20.0479 58.154 20.0443C58.4362 20.0439 58.7066 19.9315 58.9062 19.7318C59.1277 19.5232 59.2385 19.2784 59.2385 18.9975C59.03 18.8313 58.7392 18.7482 58.3662 18.7482C58.0946 18.7482 57.868 18.8137 57.6866 18.9448C57.5035 19.0777 57.4126 19.2394 57.4126 19.4335ZM63.5486 16.9609L61.3157 22.0951H60.6253L61.454 20.2987L59.9857 16.9609H60.7126L61.7738 19.5207H61.7884L62.8205 16.9609H63.5486Z" fill="white"/>
<path d="M51.299 17.9606C51.2992 17.7567 51.282 17.5533 51.2475 17.3523H48.4272V18.5046H50.0425C50.0095 18.6886 49.9395 18.8641 49.8369 19.0204C49.7343 19.1766 49.601 19.3105 49.4453 19.4139V20.1619H50.4093C50.9737 19.6412 51.299 18.8711 51.299 17.9606Z" fill="white"/>
<path d="M48.4283 20.8863C49.2354 20.8863 49.9149 20.6212 50.4104 20.164L49.4464 19.416C49.178 19.598 48.8324 19.7019 48.4283 19.7019C47.6483 19.7019 46.9862 19.1758 46.7494 18.4669H45.7563V19.2378C46.0053 19.7333 46.3869 20.1499 46.8588 20.441C47.3306 20.7321 47.874 20.8862 48.4283 20.8863Z" fill="white"/>
<path d="M46.7501 18.4642C46.6249 18.0927 46.6249 17.6904 46.7501 17.319V16.5481H45.7569C45.5475 16.965 45.4385 17.425 45.4385 17.8916C45.4385 18.3582 45.5475 18.8182 45.7569 19.2351L46.7501 18.4642Z" fill="white"/>
<path d="M48.4283 16.0848C48.8548 16.0779 49.2669 16.239 49.5756 16.5336L50.4291 15.6797C49.8878 15.1711 49.1708 14.8918 48.4283 14.9005C47.874 14.9005 47.3306 15.0547 46.8588 15.3458C46.3869 15.6369 46.0053 16.0535 45.7563 16.549L46.7494 17.3199C46.9862 16.6109 47.6483 16.0848 48.4283 16.0848Z" fill="white"/>
</svg>
