<svg width="88" height="25" viewBox="0 0 88 25" fill="none" xmlns="http://www.w3.org/2000/svg">
<g clip-path="url(#clip0_3_17960)">
<g clip-path="url(#clip1_3_17960)">
<path d="M21.6517 24.1579V1H22.8248V24.1579H21.6517ZM33.9715 4.01087V3.89485H38.6648V15.4738C38.6648 18.6712 36.0382 21.2633 32.7982 21.2633C29.5581 21.2633 26.9315 18.6712 26.9315 15.4738H31.6248C31.6248 16.1132 32.15 16.6317 32.7982 16.6317C33.4461 16.6317 33.9715 16.1132 33.9715 15.4738V4.01087ZM50.9186 10.1108C51.4377 10.6655 51.8383 11.3398 52.1091 12.1154C52.3752 12.8796 52.5101 13.7446 52.5101 14.6864C52.5101 14.9122 52.5014 15.1176 52.4845 15.2968C52.4601 15.5465 52.4371 15.6562 52.3907 15.7491L52.2611 16.0064H44.1438C44.1837 16.1898 44.2428 16.3632 44.321 16.524C44.467 16.8259 44.662 17.0916 44.9004 17.3139C45.1381 17.5355 45.4164 17.7106 45.7278 17.8347C46.0371 17.9584 46.3767 18.0211 46.7371 18.0211C47.4472 18.0211 47.9879 17.8678 48.3436 17.5656L48.534 17.4042L51.9746 18.35L51.6076 18.8833C51.2828 19.3557 50.8759 19.7746 50.3979 20.1285C49.9213 20.4812 49.3712 20.7614 48.763 20.9615C48.1545 21.1618 47.473 21.2632 46.7371 21.2632C45.901 21.2632 45.0937 21.1162 44.3379 20.8262C43.5769 20.5347 42.8994 20.103 42.3245 19.5433C41.7507 18.9856 41.2858 18.2965 40.9427 17.495C40.599 16.693 40.4248 15.7713 40.4248 14.7559C40.4248 13.8036 40.5907 12.9257 40.9181 12.1467C41.245 11.3697 41.6927 10.6928 42.2491 10.1349C42.8058 9.57752 43.4558 9.13868 44.1816 8.83045C44.91 8.52106 45.6753 8.36428 46.4555 8.36428C47.3883 8.36428 48.2411 8.51573 48.9899 8.81493C49.7474 9.11714 50.396 9.55321 50.9186 10.1108ZM44.2527 13.1116H48.7552C48.7294 13.0067 48.6966 12.9037 48.6576 12.8032C48.5647 12.5644 48.4227 12.35 48.2357 12.1654C48.0465 11.9785 47.8063 11.8257 47.5216 11.7106C47.2355 11.5953 46.8847 11.5369 46.479 11.5369C46.1246 11.5369 45.8053 11.5976 45.5305 11.7173C45.2514 11.8391 45.013 11.9998 44.8215 12.1948C44.6247 12.3956 44.4651 12.6253 44.3473 12.8773C44.3107 12.9556 44.279 13.0338 44.2527 13.1116ZM73.3306 10.2044C73.9034 10.7783 74.3559 11.4642 74.6753 12.2432C74.9937 13.0218 75.1551 13.8828 75.1551 14.8022C75.1551 15.7213 74.9937 16.5856 74.6757 17.3708C74.3568 18.1582 73.9039 18.8486 73.3306 19.4229C72.7576 19.9965 72.0752 20.4513 71.3022 20.7748C70.5275 21.0988 69.6684 21.2632 68.7488 21.2632C67.8453 21.2632 66.9909 21.099 66.209 20.7755C65.4261 20.4515 64.7423 19.9958 64.1763 19.4206C63.6117 18.8469 63.1637 18.1573 62.8453 17.3708C62.5273 16.5865 62.3659 15.7222 62.3659 14.8022C62.3659 13.8816 62.5275 13.0209 62.846 12.2432C63.1647 11.4651 63.6122 10.7799 64.1765 10.2067C64.7423 9.63171 65.4261 9.17573 66.209 8.85175C66.9909 8.52824 67.8453 8.36428 68.7488 8.36428C69.6684 8.36428 70.5275 8.52847 71.3019 8.85245C72.0754 9.17596 72.7578 9.63102 73.3306 10.2044ZM71.2433 16.1893C71.3946 15.7961 71.4711 15.3295 71.4711 14.8022C71.4711 14.2756 71.3946 13.8136 71.2442 13.4289C71.0957 13.0496 70.8931 12.7284 70.6418 12.4736C70.3935 12.2222 70.1061 12.0327 69.7876 11.9107C69.4598 11.7856 69.1106 11.7222 68.7488 11.7222C68.3869 11.7222 68.0373 11.7856 67.7099 11.9107C67.3933 12.032 67.1115 12.2198 66.8717 12.4692C66.6241 12.7265 66.4192 13.0514 66.2625 13.4352C66.106 13.818 66.0269 14.2776 66.0269 14.8022C66.0269 15.3274 66.1062 15.7922 66.2634 16.1828C66.4202 16.5735 66.6246 16.9014 66.8717 17.1578C67.1138 17.41 67.3983 17.6029 67.7174 17.731C68.0422 17.862 68.3893 17.9285 68.7488 17.9285C69.108 17.9285 69.4551 17.862 69.7804 17.7312C70.1011 17.602 70.3912 17.4077 70.6418 17.1536C70.8927 16.8996 71.0947 16.5751 71.2433 16.1893ZM87.6648 11.4445C87.8505 12.028 87.9443 12.6589 87.9443 13.32V20.9158H84.2838V13.7832C84.2838 13.1901 84.1355 12.6846 83.8433 12.2807C83.5824 11.9206 83.1123 11.7453 82.4065 11.7453C81.7736 11.7453 81.316 11.9393 81.0081 12.3384C80.6699 12.777 80.5057 13.3024 80.5057 13.9453V20.9158H76.8451V8.7116H80.435V9.3848C80.685 9.17268 80.9602 8.99691 81.2568 8.85958C81.935 8.54625 82.6374 8.38739 83.3451 8.38739C84.1132 8.38739 84.7944 8.51823 85.3698 8.77621C85.9497 9.03651 86.4371 9.40333 86.8189 9.86695C87.1906 10.3197 87.4752 10.8502 87.6648 11.4442V11.4445ZM60.1019 17.712C60.338 17.6828 60.4058 17.6685 60.4211 17.6645L61.0049 17.5193V20.6501L60.7104 20.7665C60.644 20.7929 60.5189 20.836 60.1395 20.9351C59.8309 21.0157 59.4155 21.0549 58.8695 21.0549C57.6837 21.0549 56.7286 20.7144 56.0309 20.0431C55.3295 19.369 54.974 18.4239 54.974 17.2338V12.0233H53.566V8.71169H54.9735L54.974 5.26094H58.6113V8.71169H60.9814V12.0233H58.6113V16.7936C58.6113 17.15 58.6836 17.4073 58.8199 17.5374C58.961 17.6719 59.2297 17.7433 59.5969 17.7433C59.7642 17.7433 59.9339 17.7326 60.1019 17.712ZM1.15152 8.59405C1.05108 8.62045 0.968951 8.51532 1.0187 8.42523C2.13125 6.41142 4.04425 4.83298 6.46694 4.19243C8.88939 3.55212 11.3461 3.97521 13.33 5.17039C13.4187 5.22388 13.4008 5.35542 13.3004 5.38205L1.15152 8.59405ZM16.0464 7.73332C16.5746 8.50795 16.9853 9.37961 17.2439 10.3319C17.5025 11.2841 17.5884 12.2415 17.5236 13.1729C17.5201 13.2224 17.4847 13.2644 17.4361 13.2771L1.5708 17.4717C1.52222 17.4844 1.47036 17.4657 1.4422 17.4247C0.914203 16.6498 0.503538 15.7784 0.244702 14.8261C-0.0136653 13.8739 -0.0997877 12.9165 -0.0350199 11.9849C-0.0314999 11.9356 0.00393462 11.8936 0.0525104 11.8807L15.9178 7.68608C15.9664 7.67334 16.0185 7.6921 16.0464 7.73332ZM16.3372 16.5638C16.4374 16.5374 16.5195 16.6426 16.4698 16.7327C15.3575 18.7465 13.4443 20.3249 11.0218 20.9655C8.59911 21.6058 6.14263 21.1827 4.15876 19.9875C4.07006 19.934 4.08789 19.8025 4.1881 19.7758L16.3372 16.5638Z" fill="white"/>
</g>
</g>
<defs>
<clipPath id="clip0_3_17960">
<rect width="88" height="25" fill="white"/>
</clipPath>
<clipPath id="clip1_3_17960">
<rect width="88" height="23.1579" fill="white" transform="translate(-0.0556641 1)"/>
</clipPath>
</defs>
</svg>
