<svg width="89" height="26" viewBox="0 0 89 26" fill="none" xmlns="http://www.w3.org/2000/svg">
<path fill-rule="evenodd" clip-rule="evenodd" d="M25.0158 13C25.0158 19.9036 19.4159 25.5 12.5079 25.5C5.59999 25.5 0 19.9036 0 13C0 6.09644 5.59999 0.5 12.5079 0.5C19.4159 0.5 25.0158 6.09644 25.0158 13ZM7.00314 15.9622L8.14318 15.5065L7.19857 19.2826H17.2961L17.9801 16.4831H11.9216L12.5405 13.7487L13.648 13.293L14.1691 11.1445L13.0942 11.6003L14.332 6.75H10.3256L8.69692 13.3581L7.55687 13.8138L7.00314 15.9622Z" fill="white"/>
<path fill-rule="evenodd" clip-rule="evenodd" d="M33.1397 16.1431H38.5857V17.8277H31.0391V5.77637H33.1397V16.1431Z" fill="white"/>
<path d="M39.9857 6.57985C39.9598 6.29477 40.0894 5.98376 40.2969 5.77643C40.5044 5.56909 40.8156 5.46542 41.1008 5.49134C41.412 5.46542 41.7232 5.56909 41.9307 5.80234C42.1382 6.00968 42.2419 6.29477 42.2419 6.57985C42.2419 6.86494 42.1382 7.12411 41.9307 7.33144C41.6973 7.53878 41.412 7.64245 41.1008 7.64245C40.7896 7.66836 40.5044 7.5647 40.271 7.33144C40.0894 7.15002 39.9857 6.86494 39.9857 6.57985ZM42.1122 17.8278H40.1154V8.91238H42.1122V17.8278Z" fill="white"/>
<path fill-rule="evenodd" clip-rule="evenodd" d="M46.8068 6.73535V8.88646H48.3628V10.3119H46.8068V15.2879C46.7808 15.5471 46.8586 15.8063 47.0142 16.0395C47.1958 16.221 47.4551 16.2987 47.7144 16.2728C47.9478 16.2728 48.1812 16.2469 48.4146 16.195V17.75C47.9738 17.8796 47.5329 17.9315 47.092 17.9315C45.562 17.9315 44.784 17.1021 44.784 15.3916V10.3896H43.2539V8.96421H44.6802V6.73535H46.8068Z" fill="white"/>
<path d="M53.8349 17.9833C52.6938 18.0351 51.5787 17.5945 50.7488 16.7911C49.9449 15.9359 49.504 14.7696 49.5559 13.6033V13.3701C49.5299 12.5407 49.7115 11.7373 50.0745 10.9857C50.3857 10.3119 50.8785 9.76762 51.5009 9.35295C52.1233 8.9642 52.8494 8.75686 53.5755 8.75686C54.6647 8.67911 55.7021 9.1197 56.4282 9.92312C57.1543 10.8561 57.5174 12.0224 57.4137 13.2146V14.018H51.5787C51.6046 14.6659 51.8639 15.2879 52.3307 15.7803C52.7716 16.2209 53.3421 16.4283 53.9645 16.4283C54.8463 16.4542 55.7021 16.0395 56.2207 15.3138L57.284 16.3505C56.9209 16.8948 56.4282 17.3094 55.8577 17.5945C55.2093 17.8278 54.5091 17.9833 53.8349 17.9833ZM53.5755 10.3378C53.0569 10.3119 52.5901 10.5451 52.2529 10.9339C51.8899 11.4004 51.6565 11.9446 51.6046 12.5148H55.4168V12.3852C55.4168 11.841 55.2353 11.2967 54.8981 10.8561C54.561 10.4933 54.0683 10.3119 53.5755 10.3378Z" fill="white"/>
<path fill-rule="evenodd" clip-rule="evenodd" d="M62.6003 16.3765C63.0671 16.4024 63.508 16.2469 63.8451 15.9618C64.1563 15.6767 64.3378 15.288 64.3638 14.8733H66.231C66.205 15.4176 66.0494 15.9618 65.7123 16.4283C65.3752 16.9208 64.9084 17.3095 64.3897 17.5687C63.8451 17.8538 63.2227 17.9833 62.6003 17.9833C61.4852 18.0352 60.396 17.5946 59.6439 16.7652C58.8659 15.8322 58.4769 14.6401 58.5547 13.4479V13.2405C58.5028 12.0484 58.8918 10.8821 59.6439 9.97501C60.396 9.14567 61.4852 8.70508 62.6262 8.75692C63.5858 8.731 64.4934 9.042 65.2196 9.68992C65.8938 10.3378 66.2569 11.1931 66.2569 12.1261H64.3897C64.3897 11.6596 64.1822 11.219 63.871 10.8821C63.5339 10.5452 63.093 10.3638 62.6262 10.3897C62.0557 10.3897 61.537 10.6489 61.1999 11.0894C60.8109 11.7374 60.6294 12.463 60.6812 13.2146V13.4997C60.5775 14.2772 60.7331 15.0547 61.1221 15.7286C61.4592 16.1951 62.0298 16.4283 62.6003 16.3765Z" fill="white"/>
<path d="M67.4757 13.2665C67.4757 12.4371 67.6313 11.6337 67.9944 10.908C68.3056 10.2342 68.7983 9.68993 69.4207 9.30118C70.069 8.91242 70.8211 8.731 71.5732 8.731C72.6364 8.70509 73.6738 9.11976 74.4258 9.89727C75.2038 10.7266 75.6447 11.841 75.6447 12.9814V13.4479C75.6447 14.2513 75.4891 15.0807 75.152 15.8063C74.8408 16.4543 74.348 17.0244 73.7256 17.4132C73.0514 17.8019 72.2993 17.9833 71.5472 17.9574C70.4062 18.0093 69.291 17.5428 68.539 16.7134C67.761 15.7804 67.346 14.5882 67.3979 13.3701L67.4757 13.2665ZM69.4985 13.4479C69.4466 14.1995 69.6541 14.977 70.069 15.599C70.458 16.0914 71.0286 16.3765 71.651 16.3765C72.2734 16.3765 72.8439 16.0914 73.2329 15.599C73.6478 14.8992 73.8294 14.0958 73.7775 13.2924C73.8294 12.5408 73.6219 11.7892 73.181 11.1672C72.818 10.6748 72.2215 10.3897 71.625 10.3897C71.0026 10.3897 70.4321 10.6748 70.069 11.1672C69.6282 11.841 69.3948 12.6445 69.4207 13.4479H69.4985Z" fill="white"/>
<path d="M77.4336 6.57982C77.4336 6.29474 77.5373 6.00965 77.7448 5.80232C77.9782 5.59498 78.2635 5.49131 78.5747 5.49131C78.8859 5.4654 79.1971 5.56907 79.4045 5.80232C79.612 6.00965 79.7157 6.29474 79.7157 6.57982C79.7157 6.86491 79.612 7.12408 79.4045 7.33142C79.1711 7.53875 78.8859 7.64242 78.5747 7.64242C78.2635 7.66834 77.9523 7.56467 77.7448 7.33142C77.5373 7.15 77.4336 6.86491 77.4336 6.57982ZM79.5861 17.8278H77.5114V8.91235H79.5083L79.5861 17.8278Z" fill="white"/>
<path fill-rule="evenodd" clip-rule="evenodd" d="M83.5542 8.91244V9.94912C84.1766 9.17161 85.162 8.73103 86.1475 8.75694C87.9888 8.75694 89.0002 9.81954 89.0002 11.9447V17.8279H87.0292V12.0484C87.0552 11.6078 86.9255 11.1672 86.6662 10.8044C86.355 10.4934 85.9141 10.3638 85.4732 10.3897C84.6952 10.3638 83.995 10.8044 83.6579 11.4782V17.8279H81.7129V8.91244H83.5542Z" fill="white"/>
</svg>
