<svg width="88" height="25" viewBox="0 0 88 25" fill="none" xmlns="http://www.w3.org/2000/svg">
<path fill-rule="evenodd" clip-rule="evenodd" d="M63.476 0.107342C61.8652 0.353891 59.7679 1.43631 58.5186 2.66577C56.112 5.03426 54.6756 9.62594 55.3419 12.821C55.8732 15.3696 57.1259 17.022 59.2986 18.0409C60.2823 18.5021 60.5936 18.5487 62.6065 18.5363C66.424 18.5125 67.4148 17.8971 71.0439 13.295C74.4337 8.99605 76.4915 7.60235 77.6201 8.8407C78.1826 9.45784 78.2929 10.4263 77.9728 11.938C77.4571 14.3736 76.331 15.8107 74.739 16.0648C73.9818 16.1856 72.9873 15.5937 72.3441 14.6392L71.9284 14.0223L70.0328 16.093C68.9901 17.2319 67.9813 18.3411 67.7908 18.5583C67.5993 18.7769 67.2738 19.7839 67.062 20.8134C66.8514 21.8365 66.623 22.8979 66.5542 23.1718L66.429 23.6703H68.168C69.8104 23.6703 69.9132 23.6462 70.016 23.2356C70.1769 22.5933 71.3014 17.297 71.3014 17.1816C71.3014 17.1271 71.6276 17.3381 72.026 17.6504C73.031 18.4376 74.0297 18.7131 75.4617 18.5983C77.6387 18.4235 79.3827 17.1196 80.5756 14.7745C82.1604 11.6596 81.7013 7.19041 79.6538 5.79922C78.0587 4.71526 75.692 4.75332 73.9764 5.89061C73.5148 6.19667 71.7634 7.97044 70.0847 9.83211C66.7704 13.5081 65.2446 14.8083 63.7112 15.2637C61.0055 16.0671 58.747 14.1614 58.7433 11.0722C58.7394 7.95614 60.6133 4.51257 62.889 3.45295C64.7667 2.57843 66.9567 2.98574 68.1479 4.43084C68.8812 5.32042 69.176 6.28266 69.176 7.7861V8.95702L70.2812 7.76369C72.7514 5.09648 72.551 5.41123 72.3041 4.58715C71.7864 2.85957 69.9012 1.00775 68.0422 0.400843C66.8555 0.0136301 64.907 -0.11177 63.476 0.107342Z" fill="white"/>
<path fill-rule="evenodd" clip-rule="evenodd" d="M17.0431 0.0976878C21.7701 0.10279 22.6112 0.238948 23.6549 1.09938C24.695 1.9567 25.1724 3.02907 25.1852 4.53715C25.1985 6.08678 24.9346 7.03336 24.1128 8.38436C22.813 10.521 21.3324 11.0921 16.6878 11.2485L13.5671 11.3534L13.4513 11.9568C13.3876 12.2888 13.062 13.8426 12.7277 15.4102L12.1198 18.2602H10.3125C8.75858 18.2602 8.50488 18.2152 8.50488 17.9401C8.50488 17.8108 9.31249 13.8496 10.1673 9.7254L10.2701 9.22995C11.0931 5.26379 11.9317 1.28259 12.1129 0.532279L12.218 0.0975342L17.0431 0.0976878ZM15.3285 2.99584L14.8122 5.45939L14.782 5.60392C14.5121 6.89845 14.2973 8.01369 14.2986 8.11617C14.3 8.2145 14.8209 8.26114 15.5295 8.26382L15.6528 8.26386C16.0069 8.26273 16.4007 8.25134 16.7964 8.23057L16.936 8.22286L17.0754 8.21437C17.7482 8.17149 18.4 8.10194 18.8422 8.01009C20.4092 7.68452 21.4485 6.48385 21.4499 4.99779C21.4514 3.41976 20.5918 3.0082 17.2784 3.00047L15.3285 2.99584Z" fill="white"/>
<path fill-rule="evenodd" clip-rule="evenodd" d="M31.1381 4.93053C31.6018 4.83276 32.6438 4.7831 33.4538 4.82039C35.8484 4.93053 37.4079 5.88542 37.8469 7.51079C37.867 7.5851 37.8853 7.65199 37.9015 7.71526L37.912 7.75695C37.9137 7.76383 37.9153 7.77066 37.917 7.77747L37.9264 7.81803C38.0568 8.39548 37.9659 8.83558 37.2595 12.4537C36.8385 14.6103 36.6964 15.8307 36.7478 16.8495L36.8191 18.2602H35.1453C33.3864 18.2602 33.237 18.1833 33.237 17.2783C33.237 16.8226 32.9854 16.8018 32.6326 17.2282C32.4869 17.4046 31.9328 17.7515 31.4014 17.9992C30.1472 18.5838 28.5054 18.6103 27.4329 18.0631C25.44 17.0466 24.8963 13.8729 26.4071 12.0775C27.1239 11.2256 28.1764 10.7524 29.9001 10.5069C34.5132 9.84991 34.2688 9.9187 34.4674 9.22311C34.731 8.29971 34.3919 7.70517 33.4391 7.41978C32.3478 7.09266 31.1976 7.44452 30.7572 8.23981C30.4566 8.78276 30.3793 8.81387 29.5871 8.7103C29.1207 8.64924 28.36 8.5992 27.8964 8.5992C26.8611 8.5992 26.8306 8.39149 27.6819 7.13981C28.382 6.11052 29.779 5.21746 31.1381 4.93053ZM33.687 12.098C33.5989 12.1096 32.8772 12.2373 32.0833 12.3823C29.6684 12.8224 28.9131 13.3143 28.9446 14.4261C29.0026 16.4644 32.1629 16.2973 33.1735 14.2026C33.6468 13.221 33.9287 12.0665 33.687 12.098Z" fill="white"/>
<path fill-rule="evenodd" clip-rule="evenodd" d="M40.774 5.26613C40.7751 5.34593 41.2534 8.14357 41.8367 11.4836C42.4202 14.8234 42.8977 17.7174 42.8977 17.9147C42.8977 18.1118 42.2912 19.3443 41.55 20.6534C39.6523 24.0052 39.6323 23.6955 41.7424 23.6296L43.5324 23.5737L46.4154 18.8398C49.0861 14.4549 54.2977 5.44215 54.2977 5.20894C54.2977 5.1529 53.461 5.13204 52.4387 5.16257L50.5795 5.21783L48.582 8.88901C47.4834 10.9082 46.3963 13.0602 46.1666 13.6712C45.6955 14.9244 45.4095 15.097 45.4095 14.1284C45.4095 13.4907 44.5445 6.71103 44.3281 5.65257L44.2195 5.12122H42.496C41.5478 5.12122 40.773 5.18633 40.774 5.26613Z" fill="white"/>
<path fill-rule="evenodd" clip-rule="evenodd" d="M23.5759 21.4596C15.9775 21.8111 9.26682 22.1044 8.66339 22.1116L7.56609 22.1245L7.34582 23.2355C7.22467 23.8465 7.07995 24.5063 7.02392 24.7015C6.92866 25.0342 7.04092 25.0489 8.82454 24.9376C9.87082 24.8723 16.6828 24.5599 23.9624 24.2436C31.2419 23.9273 37.534 23.6471 37.9445 23.621C38.6575 23.5758 38.7255 23.5107 39.4598 22.1728L40.2286 20.772L38.81 20.7963C38.0296 20.8098 31.1743 21.1082 23.5759 21.4596Z" fill="white"/>
</svg>
