<svg width="62" height="25" viewBox="0 0 62 25" fill="none" xmlns="http://www.w3.org/2000/svg">
<path fill-rule="evenodd" clip-rule="evenodd" d="M56.5556 25H1L5.22223 0H61L56.5556 25ZM19.4282 8.63633C16.9322 8.63633 15.0374 10.5579 15.0374 12.8476C15.0374 14.919 16.5925 16.3635 18.7095 16.3635C21.2055 16.3635 23.0873 14.3875 23.0873 12.098C23.1003 10.0128 21.5453 8.63633 19.4282 8.63633ZM18.8663 14.4148C17.9123 14.4148 17.2459 13.7606 17.2459 12.7521C17.2459 11.6346 18.0691 10.5715 19.2583 10.5715C20.2123 10.5715 20.8787 11.2529 20.8787 12.2615C20.8918 13.3926 20.0555 14.4148 18.8663 14.4148ZM30.0656 12.8476C30.0656 10.5579 31.9473 8.63633 34.4433 8.63633C36.5735 8.63633 38.1285 10.0128 38.1155 12.098C38.1155 14.3875 36.2337 16.3635 33.7377 16.3635C31.6207 16.3635 30.0656 14.919 30.0656 12.8476ZM32.2741 12.7521C32.2741 13.7606 32.9405 14.4148 33.8945 14.4148C35.0837 14.4148 35.9069 13.3926 35.9069 12.2615C35.9069 11.2529 35.2405 10.5715 34.2865 10.5715C33.0973 10.5715 32.2741 11.6346 32.2741 12.7521ZM45.4598 11.0758C45.4598 9.68571 44.4274 8.79991 42.5457 8.79991H39.9059L38.7429 16.2001H40.9643L41.3303 13.8696H41.4349L42.611 16.2001H45.1593L43.5257 13.6107C44.741 13.1746 45.4598 12.2342 45.4598 11.0758ZM41.9053 12.3024H41.5786L41.8269 10.7488H42.1274C42.8201 10.7488 43.1859 10.9668 43.1859 11.4438C43.1859 12.0025 42.6633 12.3024 41.9053 12.3024ZM11.4568 10.9532C11.4568 11.1985 11.6397 11.3075 12.4892 11.7572C13.5738 12.3296 14.2533 12.9156 14.2533 14.006C14.2533 15.3279 13.1948 16.3635 11.2346 16.3635C9.96702 16.3635 9.13066 15.9138 8.55566 15.4777L8.88237 13.4199C9.44429 13.965 10.3852 14.4965 11.1954 14.4965C11.6659 14.4965 12.0187 14.333 12.0187 14.0331C12.0187 13.7606 11.8096 13.6106 10.9602 13.1609C10.0193 12.6566 9.22214 12.0843 9.22214 10.9805C9.22214 9.69933 10.3199 8.63633 12.2147 8.63633C13.1687 8.63633 14.2141 8.97704 15.338 9.64478C14.9199 10.1491 14.5931 10.7215 14.3971 11.362C13.5999 10.5715 12.7897 10.5035 12.2539 10.5035C11.7965 10.5035 11.4568 10.6533 11.4568 10.9532ZM28.9548 12.0434H26.3412L26.5502 10.7488H29.3468C29.7126 9.97194 30.2746 9.30417 30.9672 8.79991H26.3934C25.3741 8.79991 24.5116 9.52221 24.3678 10.5035L23.4793 16.2137H25.7008L26.0668 13.8833H28.7065L28.9025 12.6159C28.9156 12.4115 28.9286 12.2342 28.9548 12.0434ZM46.5575 10.7488C46.4791 9.94467 46.1132 9.2769 45.512 8.79991H53L52.6995 10.7488H50.6347L49.7852 16.2001H47.5638L48.4131 10.7488H46.5575Z" fill="white"/>
</svg>
