<svg width="70" height="25" viewBox="0 0 70 25" fill="none" xmlns="http://www.w3.org/2000/svg">
<path fill-rule="evenodd" clip-rule="evenodd" d="M25.2031 22.7627L28.6438 2.35596H34.2201L30.7794 22.7627H25.2031Z" fill="white"/>
<path fill-rule="evenodd" clip-rule="evenodd" d="M50.8309 2.83051C49.7631 2.47458 48.1021 2 45.8478 2C40.3902 2 36.5936 4.72881 36.4749 8.76271C36.4749 11.6102 39.3224 13.2712 41.3394 14.2203C43.5936 15.2881 44.3055 15.8814 44.3055 16.8305C44.3055 18.1356 42.5258 18.7288 40.9834 18.7288C38.7292 18.7288 37.5427 18.4915 35.7631 17.661L34.9326 17.4237L34.2207 21.9322C35.5258 22.5254 37.8987 23 40.3902 23C46.2038 23 50.0004 20.2712 50.119 16.1186C50.119 13.7458 48.5766 11.9661 45.3733 10.5424C43.4749 9.59322 42.2885 9 42.2885 8.05085C42.2885 7.22034 43.3563 6.27119 45.4919 6.27119C47.2716 6.27119 48.5766 6.62712 49.6444 6.98305L50.119 7.22034L50.8309 2.83051Z" fill="white"/>
<path fill-rule="evenodd" clip-rule="evenodd" d="M65.1859 2.35596H60.7961C59.491 2.35596 58.5419 2.71189 57.9486 4.01697L49.6436 22.7627H55.4571C55.4571 22.7627 56.4063 20.2712 56.6436 19.678C57.3554 19.678 62.9317 19.678 63.7622 19.678C63.9995 20.3899 64.4741 22.7627 64.4741 22.7627H69.5758L65.1859 2.35596ZM58.3046 15.5254C58.7792 14.339 60.4402 9.83053 60.4402 9.83053C60.4402 9.83053 60.9148 8.64409 61.2707 7.81358L61.6266 9.59324C61.6266 9.59324 62.6944 14.4577 62.9317 15.5254H58.3046Z" fill="white"/>
<path fill-rule="evenodd" clip-rule="evenodd" d="M20.4575 2.35596L15.1186 16.2373L14.5253 13.3899C13.4575 10.1865 10.3728 6.62714 6.81348 4.84748L11.7965 22.7627H17.6101L26.3897 2.35596H20.4575Z" fill="white"/>
<path fill-rule="evenodd" clip-rule="evenodd" d="M10.0169 2.35596H1.11864L1 2.83053C8 4.49155 12.6271 8.52545 14.5254 13.3899L12.5085 4.13562C12.2712 2.83053 11.2034 2.35596 10.0169 2.35596Z" fill="white"/>
</svg>
