<svg width="81" height="25" viewBox="0 0 81 25" fill="none" xmlns="http://www.w3.org/2000/svg">
<path d="M17.4758 5.42258C18.4657 5.3987 19.3044 4.68655 19.4884 3.71362C19.5708 3.27994 19.4504 2.83239 19.1614 2.49869C18.8724 2.165 18.4466 1.98182 18.0056 2.00143C17.0126 2.01924 16.1683 2.73135 15.9833 3.70716C15.9006 4.14286 16.0222 4.59243 16.3133 4.927C16.6044 5.26157 17.0328 5.44422 17.4758 5.42258ZM80.0031 6.39175C78.3878 6.30775 76.288 8.27839 76.288 8.27839L75.6257 6.5985H73.7843L72.9023 11.6155C72.8464 11.9597 72.6659 12.2713 72.3951 12.491L69.969 14.4003C69.969 14.4003 68.974 15.1627 67.5978 16.0511C67.0865 16.3298 66.5162 16.4826 65.934 16.4969C64.813 16.4969 64.1249 16.0672 63.7922 15.3242C63.7385 15.1877 63.6953 15.0473 63.663 14.9042L69.8979 10.7045C70.5531 10.2984 70.8633 9.50984 70.6603 8.7662C70.2565 7.42229 69.0451 6.41113 67.0454 6.41113C63.3076 6.41113 60.7393 9.59968 60.7393 14.1257C60.7406 14.4238 60.76 14.7216 60.7975 15.0173L59.0304 16.2611C58.6765 16.4845 58.2745 16.6207 57.8577 16.6584C57.3279 16.6584 57.0985 16.2482 57.2633 15.3468L59.5763 2.40525H56.6688L55.5091 8.84696C55.4599 9.12097 55.3319 9.3747 55.1408 9.57707L51.9587 12.9304C52.0403 12.3481 52.0813 11.7609 52.0815 11.173C52.0815 8.44637 50.8151 6.43051 48.6958 6.43051C46.6477 6.43051 45.1164 8.16209 45.1164 8.16209L44.312 6.61465H42.5029L41.5111 12.2843C41.4644 12.5328 41.3529 12.7645 41.188 12.9562L39.3402 15.1401C38.8265 15.686 38.287 16.3774 38.0189 16.3935C37.5311 16.4775 37.3243 16.2966 37.4858 15.3985L38.2224 11.2828C38.7974 8.02963 37.8283 6.38851 35.0209 6.38851C33.3572 6.38851 31.3995 8.259 31.3995 8.259C30.9827 7.03463 29.9683 6.38851 28.4209 6.38851C26.7346 6.38851 24.8964 8.35915 24.8964 8.35915L24.1404 6.5985H22.3216L21.3525 11.9709C21.3064 12.2206 21.195 12.4536 21.0294 12.6461L18.9166 15.1401C18.403 15.686 17.8635 16.3774 17.5953 16.3935C17.1108 16.4775 16.9008 16.2966 17.0623 15.3985L18.6582 6.60173H15.7507L15.279 9.18617C15.2163 9.52452 15.0647 9.84007 14.8397 10.1004L10.6044 15.027C9.8756 15.7994 8.89497 16.2863 7.83907 16.4H4.83466L11.6608 8.66605L12.0129 6.5662H3.23877L2.8188 8.92127H7.92307L1.32305 16.6584L1 18.852C1 18.852 7.17358 18.8778 7.28019 18.852C9.09253 18.852 10.7013 17.2367 11.3571 16.5906L14.6523 12.7139L14.0547 15.9736C13.6864 18.0993 14.494 19.1007 16.2482 19.0684C17.3272 19.0458 18.0605 18.3286 18.8003 17.5921L20.7839 15.2661L20.1378 19.0135H23.0453L24.3181 11.6705C24.4861 10.7659 25.6459 9.21848 26.8702 9.21848C28.1625 9.21848 28.7795 9.86459 28.4855 11.5832L27.1933 19.0135H30.0782L31.4802 11.1148C31.5642 10.5915 32.5043 9.11187 33.8062 9.11187C35.1663 9.11187 35.6056 9.85166 35.3052 11.5832L34.4976 15.9736C34.1293 18.0993 34.9369 19.1007 36.6911 19.0684C37.7701 19.0458 38.5035 18.3286 39.24 17.5921L40.9328 15.5697L40.3255 19.0167L39.6245 23H42.5319L43.4785 17.5759C43.9084 18.1169 44.4917 18.5155 45.1519 18.7195C45.3124 18.7707 45.4766 18.8096 45.643 18.8358C47.5264 18.9295 49.1966 18.0185 50.6988 16.4646L54.9502 12.084L54.2588 15.9186C53.8841 18.0379 54.6917 19.0103 56.4459 19.0135C57.5831 19.0135 58.6492 18.4514 59.7669 17.7213L61.2498 16.6552C61.2756 16.7134 61.3047 16.7683 61.3337 16.8264C61.9992 18.1186 63.2365 18.9844 65.065 19.0038C66.984 19.0038 68.8642 17.1915 69.9496 16.4194C70.2274 16.2255 71.2838 15.3759 72.4145 14.4584L71.6134 19.0167H74.5209L75.7937 11.6737C75.9617 10.7691 77.1214 9.22171 78.3426 9.22171C78.7383 9.20011 79.1316 9.29562 79.4733 9.4963L80.0128 6.39498L80.0031 6.39175ZM43.8726 15.2984L44.5478 11.4379C44.8515 10.5236 45.9208 9.30247 47.0353 9.2314C47.5406 9.16323 48.0521 9.29926 48.4568 9.60937C48.908 10.1907 49.1319 10.9166 49.0867 11.6511C49.0867 14.397 47.7493 16.3128 45.8562 16.3128C45.0636 16.3425 44.3125 15.9584 43.8726 15.2984ZM63.7534 11.7157C64.0765 10.1941 65.3009 8.90188 66.6868 8.90188C67.4653 8.90188 68.0274 9.48015 67.8272 10.1295L63.5467 13.0693C63.5826 12.6137 63.6517 12.1613 63.7534 11.7157Z" fill="white"/>
</svg>
