<svg width="79" height="26" viewBox="0 0 79 26" fill="none" xmlns="http://www.w3.org/2000/svg">
<g clip-path="url(#clip0_3_18350)">
<path d="M20.6895 5.10221V2.92655C20.6895 1.38584 21.6235 0.5 23.3474 0.5C24.0791 0.5 24.6855 0.701991 25.1576 1.09712C25.6297 1.49226 25.8715 2.07942 25.8715 2.87589V2.97212H24.3711V2.87589C24.3711 2.18252 23.8802 1.86482 23.2543 1.86482C22.5414 1.86482 22.185 2.18274 22.185 2.81836V5.20863C22.185 5.84358 22.5414 6.1615 23.2543 6.16217C23.899 6.16217 24.3711 5.87323 24.3711 5.15044V5.0542H25.8715V5.15044C25.8715 5.95 25.6308 6.54712 25.1594 6.94159C24.6879 7.33628 24.0808 7.52876 23.3494 7.52876C21.6237 7.52876 20.6895 6.64336 20.6895 5.10221Z" fill="white"/>
<path fill-rule="evenodd" clip-rule="evenodd" d="M27.042 7.38423V0.644409H29.9688C31.3557 0.644409 32.0946 1.41454 32.0946 2.76255C32.0946 3.67737 31.7382 4.33202 31.0161 4.70768L32.2873 6.89596V7.38667H30.8354L29.4298 4.88578H28.5345V7.38667L27.042 7.38445V7.38423ZM28.5345 3.6391H29.7188C30.2964 3.6391 30.5854 3.39839 30.5854 2.78202C30.5854 2.1756 30.2964 1.94419 29.7188 1.94419H28.5345V3.6391Z" fill="white"/>
<path d="M35.2745 7.38423V4.71698L33.1079 1.13512V0.644409H34.5811L36.0356 3.32096L37.5668 0.644409H38.9424V1.1349L36.7769 4.65923V7.38401H35.2745V7.38423Z" fill="white"/>
<path fill-rule="evenodd" clip-rule="evenodd" d="M39.8101 7.38423V0.644409H42.834C44.0375 0.644409 44.7596 1.46277 44.7596 2.76255C44.7596 4.06233 44.0375 4.8714 42.834 4.8714H41.3025V7.38423H39.8101ZM41.3025 3.57052H42.5532C42.9282 3.57052 43.2466 3.30105 43.2466 2.76144C43.2466 2.22162 42.9302 1.94419 42.5543 1.94419H41.3039L41.3025 3.57029V3.57052Z" fill="white"/>
<path d="M47.148 7.38423V1.94485H45.2896V0.644409H50.4893V1.94419H48.6404V7.38357L47.148 7.38423Z" fill="white"/>
<path fill-rule="evenodd" clip-rule="evenodd" d="M56.6666 5.09292C56.6666 5.85376 56.4259 6.45089 55.9345 6.88407C55.4429 7.31748 54.7883 7.52876 53.9606 7.52876C53.1327 7.52876 52.4774 7.31748 51.9865 6.88407C51.4958 6.45089 51.2569 5.85376 51.2569 5.09292V2.9458C51.2569 1.40531 52.2949 0.5 53.9606 0.5C55.6263 0.5 56.6666 1.40531 56.6666 2.9458V5.09292ZM55.1741 2.86836C55.1741 2.31991 54.7595 1.86792 53.9606 1.86792C53.1615 1.86792 52.7476 2.32058 52.7476 2.86836V5.1604C52.7476 5.70929 53.1615 6.16084 53.9606 6.16084C54.7595 6.16084 55.1741 5.70819 55.1741 5.1604V2.86836ZM21.0425 16.4763V9.7365H24.0662C25.2699 9.7365 25.992 10.5549 25.992 11.8546C25.992 13.1544 25.2699 13.9635 24.0662 13.9635H22.535V16.4763H21.0425ZM22.535 12.6624H23.7854C24.1606 12.6624 24.479 12.3925 24.479 11.8533C24.479 11.3144 24.1613 11.035 23.7854 11.035H22.535V12.6624ZM27.0418 16.4763V9.7365H29.9686C31.3555 9.7365 32.0945 10.5066 32.0945 11.8546C32.0945 12.7692 31.7381 13.4239 31.0159 13.7998L32.2872 15.9878V16.479H30.8352L29.4296 13.9779H28.5343V16.4788L27.0418 16.4763ZM28.5343 12.7308H29.7186C30.2962 12.7308 30.5852 12.4898 30.5852 11.8741C30.5852 11.2582 30.2962 11.0363 29.7186 11.0363H28.5343V12.7305V12.7308ZM38.6159 14.1847C38.6159 14.9451 38.3752 15.5423 37.8845 15.9754C37.3936 16.4088 36.7383 16.6208 35.9104 16.6208C35.0825 16.6208 34.4274 16.4088 33.9358 15.9754C33.4445 15.5423 33.2044 14.9451 33.2044 14.185V12.0372C33.2044 10.4967 34.2443 9.59204 35.9104 9.59204C37.5768 9.59204 38.6159 10.4967 38.6159 12.0372V14.1847ZM37.1259 11.9604C37.1259 11.4113 36.7122 10.96 35.9131 10.96C35.1139 10.96 34.6993 11.4119 34.6993 11.9604V14.2549C34.6993 14.8031 35.1133 15.2553 35.9131 15.2553C36.7126 15.2553 37.1259 14.8027 37.1259 14.2549V11.9604Z" fill="white"/>
<path d="M39.7139 14.1925V12.0166C39.7139 10.4761 40.6479 9.59009 42.3712 9.59009C43.1035 9.59009 43.7099 9.79208 44.1844 10.1872C44.659 10.5823 44.8966 11.1688 44.8966 11.9684V12.0666H43.3959V11.9704C43.3959 11.277 42.9046 10.9593 42.2787 10.9593C41.5667 10.9593 41.2105 11.277 41.2101 11.9122V14.3005C41.2101 14.9357 41.5663 15.2534 42.2787 15.2534C42.924 15.2534 43.3959 14.9644 43.3959 14.2423V14.1461H44.8966V14.2423C44.8966 15.0414 44.6559 15.6383 44.1844 16.0337C43.713 16.4288 43.1059 16.6206 42.3712 16.6206C40.6479 16.6206 39.7139 15.7348 39.7139 14.1923V14.1925ZM46.0791 16.4764V9.73655H50.5185V11.0363H47.5716V12.4806H50.0725V13.7228H47.5716V15.1764H50.5371V16.4764H46.0791ZM52.0634 16.0142C51.5532 15.6098 51.3026 15.0319 51.3026 14.2905H52.7955C52.7888 14.5108 52.8683 14.725 53.017 14.8877C53.3252 15.1863 53.6909 15.2534 54.1243 15.2534C54.7696 15.2534 55.1066 15.0034 55.1066 14.6082C55.1079 14.519 55.083 14.4313 55.035 14.3561C54.9869 14.2809 54.9179 14.2214 54.8364 14.185C54.6539 14.0786 54.317 13.9441 53.8161 13.7804L53.2771 13.5972C52.7769 13.4339 52.4586 13.2896 52.0634 12.9908C51.6782 12.6925 51.4663 12.2405 51.4663 11.6622C51.4663 11.0368 51.6882 10.5368 52.1404 10.1615C52.5924 9.78633 53.2094 9.59385 53.9893 9.59385C54.7501 9.59385 55.3648 9.78633 55.8382 10.181C56.3114 10.5755 56.5409 11.1438 56.5409 11.8954H55.0402C55.0402 11.2788 54.5683 10.9613 53.9524 10.9613C53.3364 10.9613 52.9794 11.1919 52.9794 11.5865C52.9794 11.7985 53.0758 11.904 53.2201 12.0197C53.292 12.0821 53.4645 12.1452 53.5732 12.1848L53.5953 12.193L54.0862 12.3662L54.5864 12.5392C55.8862 12.9919 56.6185 13.4927 56.6185 14.5326C56.6185 15.7943 55.6937 16.6219 53.9924 16.6219C53.219 16.6208 52.5736 16.4188 52.0634 16.0142ZM58.1446 16.0142C57.6344 15.6098 57.3844 15.0319 57.3844 14.2905H58.8769C58.8701 14.5108 58.9495 14.725 59.0982 14.8877C59.4066 15.1863 59.7723 15.2534 60.2055 15.2534C60.8508 15.2534 61.1878 15.0034 61.1878 14.6082C61.1892 14.5191 61.1644 14.4314 61.1165 14.3562C61.0686 14.281 60.9997 14.2214 60.9183 14.185C60.7351 14.0786 60.3982 13.9441 59.8979 13.7804L59.3583 13.5972C58.8581 13.4339 58.5398 13.2896 58.1453 12.9908C57.7601 12.6925 57.5482 12.2405 57.5482 11.6622C57.5482 11.0368 57.7696 10.5368 58.2223 10.1615C58.6749 9.78633 59.2909 9.59385 60.0712 9.59385C60.8313 9.59385 61.4466 9.78633 61.9201 10.181C62.3933 10.5755 62.6227 11.1438 62.6227 11.8954H61.1223C61.1223 11.2788 60.6508 10.9613 60.0342 10.9613C59.4176 10.9613 59.0619 11.1919 59.0619 11.5865C59.0619 11.7985 59.1583 11.904 59.3026 12.0197C59.3745 12.0821 59.5471 12.1452 59.6557 12.1848L59.6778 12.193L60.1692 12.3662L60.6694 12.5392C61.9694 12.9919 62.701 13.4927 62.701 14.5326C62.701 15.7943 61.7769 16.6219 60.0749 16.6219C59.3001 16.6208 58.655 16.4188 58.1446 16.0142ZM63.9028 16.4764V9.73655H65.3951V16.4764H63.9028ZM66.8782 16.4764V9.73655H68.2457L70.6437 13.6923V9.73655H72.1362V16.4764H70.7687L68.3709 12.5193V16.4764H66.8782ZM74.0906 15.9662C73.6479 15.5228 73.426 14.9359 73.426 14.1941V12.0184C73.426 10.4874 74.4183 9.59208 76.1223 9.59208C76.8831 9.59208 77.4977 9.79407 77.9811 10.2078C78.4643 10.6217 78.7057 11.2 78.7057 11.9416H77.205C77.205 11.3352 76.7431 10.96 76.0402 10.96C75.2986 10.96 74.9229 11.3352 74.9229 11.9516V14.1923C74.9229 14.8089 75.3274 15.2516 76.0209 15.2516C76.2619 15.2565 76.5003 15.202 76.7152 15.093C76.9301 14.984 77.1149 14.8237 77.2532 14.6264V14.029H76.0977V12.7888H78.7057V16.4775H77.9066L77.5984 15.8806C77.2614 16.3332 76.6161 16.6219 75.9227 16.6219C75.1499 16.6208 74.5433 16.3994 74.0906 15.9662Z" fill="white"/>
<path fill-rule="evenodd" clip-rule="evenodd" d="M20.6895 24.3772V20.406H21.4218V21.6326C21.6393 21.4462 21.9186 21.3478 22.2049 21.3567C22.8133 21.3567 23.2529 21.7319 23.2529 22.4385V23.3618C23.2529 24.0664 22.8151 24.4434 22.2049 24.4434C22.0419 24.4444 21.8803 24.4132 21.7294 24.3514C21.5786 24.2896 21.4414 24.1985 21.326 24.0834L21.1122 24.3759L20.6897 24.3772H20.6895ZM21.4218 23.4706C21.6304 23.6788 21.8386 23.7832 22.0532 23.7832C22.1154 23.7846 22.1773 23.7733 22.235 23.75C22.2927 23.7266 22.3451 23.6917 22.3888 23.6474C22.4326 23.6031 22.4668 23.5503 22.4894 23.4923C22.512 23.4342 22.5225 23.3722 22.5202 23.31V22.4972C22.5234 22.4034 22.4978 22.3109 22.4467 22.2322C22.3957 22.1535 22.3217 22.0924 22.2348 22.0571C22.1771 22.0338 22.1153 22.0225 22.0532 22.0239C21.8386 22.0239 21.6306 22.1253 21.4215 22.3334V23.4706H21.4218Z" fill="white"/>
<path d="M24.3279 25.2788V25.0138L24.6043 24.3773L23.5903 21.7689V21.4255H24.266L24.9651 23.3832L25.6242 21.4286H26.2888V21.772L24.9257 25.2819L24.3279 25.2788ZM27.8552 23.0423V21.7689C27.8552 20.868 28.4071 20.3496 29.4045 20.3496C29.8264 20.3496 30.176 20.4678 30.4516 20.6985C30.7275 20.9293 30.8687 21.2731 30.8687 21.7295V21.7857H30.0691V21.7295C30.0691 21.2956 29.7565 21.0817 29.3532 21.0817C28.8861 21.0817 28.6547 21.3124 28.6547 21.7127V23.0987C28.6547 23.4987 28.8861 23.7295 29.3532 23.7295C29.7589 23.7295 30.0691 23.527 30.0691 23.0817V23.0255H30.8687V23.0817C30.8687 23.5381 30.7279 23.887 30.4516 24.1184C30.1753 24.3498 29.8264 24.4616 29.4045 24.4616C28.4071 24.4616 27.8552 23.9458 27.8552 23.0423Z" fill="white"/>
<path fill-rule="evenodd" clip-rule="evenodd" d="M31.3877 23.3517V22.4508C31.3877 21.8026 31.8441 21.3579 32.672 21.3579C33.489 21.3579 33.9512 21.8026 33.9512 22.4508V23.3517C33.9512 23.9995 33.489 24.4446 32.672 24.4446C31.8441 24.446 31.3877 23.9995 31.3877 23.3517ZM33.2184 23.3205V22.4847C33.2184 22.2139 33.0271 22.0225 32.672 22.0225C32.3169 22.0225 32.1198 22.2194 32.1198 22.4847V23.3205C32.1198 23.5856 32.3118 23.7825 32.672 23.7825C33.0322 23.7825 33.2184 23.5887 33.2184 23.3205Z" fill="white"/>
<path d="M34.5811 24.3772V21.4254H35.3127V24.3772H34.5811ZM36.0742 24.3772V21.4254H36.4968L36.7107 21.7181C36.8248 21.6022 36.9612 21.5106 37.1116 21.4487C37.262 21.3869 37.4233 21.356 37.5859 21.3579C38.2224 21.3579 38.6114 21.7856 38.6114 22.5015V24.3772H37.876V22.5464C37.876 22.2026 37.6886 22.0225 37.4202 22.0225C37.1945 22.0225 36.9919 22.1238 36.8056 22.332V24.3772H36.0742ZM39.5556 24.1521C39.4379 24.0572 39.343 23.9369 39.278 23.8004C39.2131 23.6637 39.1798 23.5143 39.1804 23.363H39.9069C39.935 23.628 40.1939 23.78 40.5948 23.78C40.8598 23.78 41.0286 23.6845 41.0286 23.53C41.0286 23.4225 40.9611 23.3548 40.8317 23.3267L40.0145 23.1185C39.5018 22.9891 39.243 22.7128 39.243 22.3015C39.243 21.7156 39.6939 21.3555 40.4428 21.3555C41.2032 21.3555 41.6651 21.7212 41.6877 22.3687H40.953C40.9361 22.1382 40.7441 22.0201 40.3839 22.0201C40.0853 22.0201 39.9501 22.1214 39.9501 22.2564C39.9501 22.3521 40.0346 22.4258 40.2034 22.4652L41.043 22.6734C41.5049 22.786 41.7357 23.0486 41.7357 23.4732C41.7357 24.0765 41.2512 24.4422 40.5023 24.4422C40.1134 24.446 39.7983 24.3491 39.5556 24.1521Z" fill="white"/>
<path fill-rule="evenodd" clip-rule="evenodd" d="M42.4287 24.3772V20.4338H44.1913C44.8953 20.4338 45.3236 20.9128 45.3236 21.6787C45.3236 22.4447 44.8953 22.9179 44.1913 22.9179H43.2292V24.3772H42.4287ZM43.2292 22.2195H44.0455C44.3108 22.2195 44.5132 22.0321 44.5132 21.673C44.5132 21.3141 44.3108 21.1323 44.0455 21.1323H43.2292V22.2195ZM45.8595 24.2139C45.6721 24.0622 45.5783 23.8389 45.5783 23.5664C45.5783 22.9522 45.984 22.6084 46.7723 22.6084H47.38V22.4208C47.38 22.1557 47.2225 22.0208 46.9068 22.0208C46.5911 22.0208 46.4336 22.1557 46.4336 22.3584H45.719C45.719 21.75 46.1247 21.358 46.9068 21.358C47.6889 21.358 48.1128 21.7575 48.1128 22.3714V24.3772H47.6926L47.4783 24.0903C47.2333 24.3242 46.9059 24.452 46.5672 24.446C46.3116 24.4525 46.0616 24.3705 45.8595 24.2139ZM47.38 23.4931V23.1661H46.7719C46.4285 23.1661 46.3097 23.3124 46.3097 23.4706C46.3097 23.6788 46.4453 23.7832 46.7212 23.7832C46.8455 23.7858 46.9689 23.7613 47.0828 23.7112C47.1966 23.661 47.298 23.5866 47.38 23.4931Z" fill="white"/>
<path d="M48.8462 24.3772V21.4254H49.5783V24.3772H48.8462Z" fill="white"/>
<path fill-rule="evenodd" clip-rule="evenodd" d="M52.8198 20.4058V24.3772H52.3946L52.1809 24.0845C52.0656 24.2 51.9285 24.2914 51.7776 24.3535C51.6266 24.4155 51.4649 24.447 51.3017 24.446C50.6942 24.446 50.2563 24.0708 50.2563 23.3631V22.4396C50.2563 21.735 50.6942 21.358 51.3044 21.358C51.5897 21.3492 51.868 21.447 52.0851 21.6323V20.4058H52.8198ZM52.0878 22.3321C51.8789 22.1239 51.6707 22.0226 51.4561 22.0226C51.3939 22.0211 51.3319 22.0324 51.2742 22.0558C51.2165 22.0792 51.1642 22.1142 51.1205 22.1586C51.0769 22.203 51.0427 22.2557 51.0201 22.3137C50.9975 22.3717 50.987 22.4336 50.9891 22.4958V23.3086C50.9869 23.3709 50.9974 23.4329 51.0201 23.4909C51.0427 23.5489 51.0769 23.6017 51.1206 23.646C51.1643 23.6903 51.2166 23.7252 51.2743 23.7486C51.332 23.772 51.3939 23.7834 51.4561 23.7821C51.6707 23.7821 51.8789 23.6808 52.0878 23.4695V22.3323V22.3321Z" fill="white"/>
<path d="M9.56251 5.81146C10.2654 5.10861 11.2166 4.71061 12.2105 4.70349C12.7546 4.70163 13.2975 4.75553 13.8306 4.86433V0.827829C13.3026 0.756807 12.7705 0.721182 12.2377 0.721191H12.1913C10.5575 0.728142 8.94253 1.07012 7.44618 1.72599C5.94982 2.38186 4.6039 3.33768 3.49161 4.53436C2.37932 5.73104 1.5243 7.14315 0.979415 8.68338C0.434527 10.2236 0.211351 11.8593 0.323683 13.4892C0.436014 15.1191 0.881466 16.7086 1.6325 18.1596C2.38353 19.6105 3.42419 20.8919 4.69013 21.9247C5.95607 22.9575 7.4204 23.7196 8.99258 24.164C10.5648 24.6084 12.2114 24.7256 13.8306 24.5084V20.4719C12.5204 20.7393 11.164 20.6725 9.88634 20.2776C8.60872 19.8828 7.45107 19.1727 6.52014 18.2127C5.58921 17.2527 4.91496 16.0738 4.55958 14.7847C4.20419 13.4955 4.1791 12.1376 4.48662 10.8362C4.51206 10.7475 4.57578 10.6769 4.66339 10.6769C4.75299 10.6849 4.80676 10.7327 4.83043 10.8362C5.20872 12.0216 5.86591 13.099 6.7468 13.9778C8.20311 15.4341 10.1782 16.2522 12.2377 16.2522C12.8749 16.2444 13.3528 16.2075 13.8306 16.1455V12.1088C13.3461 12.2077 12.8523 12.2615 12.3559 12.269C12.3165 12.2681 12.2771 12.2668 12.2377 12.2646V12.2699C11.4895 12.2699 10.758 12.048 10.1358 11.6323C9.51361 11.2167 9.02868 10.6258 8.74232 9.93447C8.45597 9.24316 8.38105 8.48245 8.52704 7.74856C8.67303 7.01466 9.03338 6.34055 9.56251 5.81146Z" fill="white"/>
</g>
<defs>
<clipPath id="clip0_3_18350">
<rect width="78.5398" height="25" fill="white" transform="translate(0.291016 0.5)"/>
</clipPath>
</defs>
</svg>
