<svg width="96" height="26" viewBox="0 0 96 26" fill="none" xmlns="http://www.w3.org/2000/svg">
<path d="M30.6836 18.5261V7.18756H34.0356C34.9754 7.15632 35.8839 7.4062 36.6984 7.8435C37.4815 8.2808 38.1081 8.93675 38.5153 9.74887C38.9226 10.6235 39.1419 11.5918 39.1105 12.5601V13.1535C39.1419 14.1219 38.9226 15.0902 38.4527 15.9648C38.0454 16.7769 37.4189 17.4328 36.6357 17.8701C35.7899 18.3074 34.8501 18.5573 33.9103 18.5261H30.6836ZM32.6259 8.74933V16.8393H33.9103C34.8187 16.9018 35.6959 16.527 36.2911 15.871C36.8863 15.0589 37.1996 14.0906 37.1369 13.0911V12.4664C37.1996 11.4668 36.9177 10.4673 36.3538 9.65517C35.7586 8.99922 34.9127 8.62439 34.0356 8.68686L32.6259 8.74933Z" fill="white"/>
<path d="M40.5517 14.2155C40.5203 13.4346 40.7083 12.6537 41.0529 11.9665C41.3662 11.3418 41.8361 10.8108 42.4313 10.436C43.0578 10.0612 43.747 9.905 44.4675 9.905C45.5013 9.87377 46.5038 10.2486 47.2243 10.9982C47.9761 11.7791 48.3834 12.8411 48.3834 13.9032V14.3405C48.3834 15.1213 48.2267 15.871 47.8821 16.5582C47.6002 17.1829 47.099 17.7139 46.5351 18.0887C45.9086 18.4635 45.188 18.651 44.4675 18.6197C43.4024 18.6822 42.3373 18.2449 41.6168 17.4328C40.8649 16.5582 40.489 15.4337 40.5517 14.278V14.2155ZM42.4626 14.4029C42.4313 15.1213 42.6192 15.8398 42.9952 16.4332C43.3398 16.9018 43.9036 17.1829 44.4988 17.1517C45.0941 17.1829 45.6579 16.9018 46.0025 16.402C46.4098 15.7461 46.5977 14.9964 46.5351 14.2155C46.5664 13.4971 46.3785 12.7787 45.9712 12.1852C45.6266 11.7167 45.0627 11.4668 44.4988 11.4668C43.935 11.4668 43.3711 11.7479 43.0265 12.1852C42.5879 12.8724 42.3999 13.622 42.4626 14.4029Z" fill="white"/>
<path d="M49.6678 14.2468C49.6051 13.1223 49.9497 12.0291 50.5763 11.1232C51.1715 10.3736 52.0799 9.93627 53.0198 9.96751C53.8969 9.93627 54.7427 10.3111 55.2753 10.967V10.1237H56.9983V18.1825C57.0296 19.1508 56.6537 20.1191 55.9645 20.775C55.1813 21.431 54.2102 21.7746 53.1764 21.7433C52.5499 21.7433 51.9233 21.6184 51.3594 21.3685C50.8269 21.1498 50.357 20.8062 50.0124 20.3377L50.9209 19.2132C51.4221 19.8692 52.2366 20.244 53.0511 20.244C53.5836 20.2752 54.1162 20.0878 54.5548 19.7442C54.962 19.3382 55.15 18.8072 55.1187 18.2449V17.6827C54.5548 18.3074 53.7716 18.6198 52.9258 18.5885C51.986 18.6198 51.0775 18.1825 50.5136 17.4328C49.8871 16.4957 49.5738 15.3713 49.6678 14.2468ZM51.5474 14.403C51.5161 15.0901 51.704 15.8086 52.0799 16.402C52.3932 16.8706 52.9571 17.1517 53.521 17.1205C54.2102 17.1205 54.8367 16.7456 55.15 16.1521V12.4664C54.8367 11.8729 54.2102 11.498 53.521 11.498C52.9571 11.4668 52.3932 11.7479 52.0486 12.2165C51.6727 12.9037 51.4847 13.6533 51.5474 14.403Z" fill="white"/>
<path d="M62.7623 18.6511C61.6659 18.7135 60.6008 18.2762 59.8489 17.5266C59.0657 16.7145 58.6585 15.6212 58.7211 14.528V14.3093C58.7211 13.5284 58.8778 12.7476 59.2224 12.0604C59.5356 11.4357 60.0055 10.9047 60.5694 10.5298C61.1646 10.155 61.8225 9.96759 62.543 9.96759C63.5455 9.90512 64.5479 10.3112 65.2058 11.0608C65.895 11.9354 66.2083 13.0599 66.1456 14.1532V14.9028H60.6321C60.6634 15.4963 60.914 16.0898 61.3213 16.5271C61.7285 16.9331 62.2924 17.1518 62.8563 17.1205C63.7021 17.1518 64.5166 16.7769 65.0179 16.0898L66.0516 17.0581C65.707 17.5578 65.2371 17.9639 64.7046 18.245C64.078 18.5261 63.4202 18.6823 62.7623 18.6511ZM62.543 11.4669C62.0731 11.4357 61.6032 11.6543 61.2899 11.9979C60.9453 12.4352 60.7261 12.9662 60.6634 13.5284H64.266V13.3723C64.266 12.8413 64.078 12.3415 63.7648 11.9354C63.4515 11.6231 62.9816 11.4357 62.543 11.4669Z" fill="white"/>
<path fill-rule="evenodd" clip-rule="evenodd" d="M71.0644 17.1517C71.5029 17.183 71.9102 17.0268 72.2548 16.7457C72.568 16.4958 72.756 16.121 72.756 15.7149H74.5416C74.5103 16.2459 74.3537 16.7457 74.0404 17.183C73.7271 17.6515 73.2886 18.0263 72.7873 18.2762C72.2861 18.5261 71.7222 18.651 71.1583 18.651C70.0932 18.7135 69.0594 18.3075 68.3702 17.5266C67.6184 16.6207 67.2425 15.465 67.3365 14.3093V14.1219C67.2738 12.9974 67.6497 11.9042 68.3702 11.0608C69.0908 10.2799 70.1245 9.87385 71.1583 9.90509C72.0668 9.87385 72.944 10.1862 73.6332 10.7797C74.2597 11.3732 74.6356 12.2165 74.6356 13.0599H72.85C72.85 12.6226 72.662 12.1853 72.3488 11.8729C72.0355 11.5606 71.5969 11.4044 71.1583 11.4044C70.5945 11.3732 70.0619 11.623 69.7486 12.0603C69.3727 12.6538 69.1847 13.3722 69.2474 14.0907V14.3718C69.1847 15.0902 69.3727 15.8086 69.7486 16.4021C69.9992 16.8706 70.5005 17.1517 71.0644 17.1517Z" fill="white"/>
<path d="M75.5752 14.2156C75.5438 13.4347 75.7318 12.6538 76.0764 11.9666C76.3583 11.3419 76.8596 10.8109 77.4548 10.4361C78.0813 10.0613 78.7705 9.87386 79.491 9.90509C80.5248 9.87386 81.5273 10.2799 82.2478 10.9983C82.9997 11.7792 83.4069 12.8412 83.4069 13.9032V14.3405C83.4069 15.1214 83.2503 15.8711 82.9057 16.5583C82.6237 17.183 82.1538 17.714 81.5586 18.0888C80.9321 18.4636 80.2116 18.6511 79.491 18.6198C78.3946 18.6823 77.3608 18.245 76.609 17.4329C75.8571 16.5583 75.4812 15.4338 75.5438 14.2781L75.5752 14.2156ZM77.4861 14.403C77.4235 15.1214 77.6114 15.8399 77.9873 16.4333C78.3319 16.9019 78.8958 17.183 79.491 17.1517C80.0862 17.183 80.6501 16.9019 80.9947 16.4021C81.402 15.7461 81.5899 14.9965 81.5273 14.2156C81.5586 13.4972 81.3707 12.81 80.9634 12.1853C80.6188 11.7168 80.0549 11.4356 79.4597 11.4356C78.8645 11.4044 78.3319 11.6855 77.9873 12.1541C77.6114 12.8412 77.4235 13.6221 77.4861 14.403Z" fill="white"/>
<path d="M85.036 7.93722C85.0047 7.6561 85.13 7.37498 85.3493 7.18757C85.5686 7.00015 85.8505 6.90645 86.1325 6.93768C86.4144 6.90645 86.7277 7.03139 86.9156 7.2188C87.1036 7.40622 87.1976 7.68734 87.1976 7.93722C87.1976 8.1871 87.1036 8.43699 86.9156 8.6244C86.6963 8.81182 86.4144 8.93676 86.1325 8.90552C85.8505 8.93676 85.5372 8.81182 85.3493 8.6244C85.13 8.43699 85.036 8.1871 85.036 7.93722ZM87.0409 18.5261H85.13V10.1237H87.0409V18.5261Z" fill="white"/>
<path fill-rule="evenodd" clip-rule="evenodd" d="M90.8627 10.1237V11.092C91.4579 10.3423 92.3664 9.93626 93.3062 9.9675C95.0605 9.9675 95.969 10.967 96.0003 12.9661V18.526H94.2147V13.0598C94.246 12.6225 94.1207 12.2165 93.8701 11.8729C93.5568 11.5917 93.1496 11.4668 92.7423 11.498C92.0218 11.4668 91.3639 11.8729 91.0507 12.5288V18.4948H89.1084V10.1237H90.8627Z" fill="white"/>
<path fill-rule="evenodd" clip-rule="evenodd" d="M25.0731 13C25.0731 19.9036 19.4603 25.5 12.5365 25.5C5.6128 25.5 0 19.9036 0 13C0 6.09644 5.6128 0.5 12.5365 0.5C19.4603 0.5 25.0731 6.09644 25.0731 13ZM13.7486 11.9296H10.3547V8.51108H12.5019C13.1945 8.47655 13.9218 8.61467 14.5798 8.85639C15.0992 9.02904 15.5148 9.37434 15.8611 9.78871C16.1728 10.2031 16.3806 10.6865 16.4845 11.2045C16.623 11.7915 16.6576 12.413 16.6576 13C16.6576 13.6216 16.623 14.2086 16.4845 14.7956C16.3806 15.3136 16.1728 15.797 15.8611 16.2114C15.5148 16.6257 15.0646 16.9365 14.5798 17.1437C13.9218 17.3854 13.1945 17.5235 12.5019 17.489H10.3547V13.7252H13.7486V11.9296ZM7.03014 13.7252H8.2076V19.1119H13.333C14.1988 19.1464 15.03 18.9738 15.7919 18.6285C16.4499 18.3177 17.0386 17.8688 17.4888 17.2818C17.939 16.6948 18.2853 16.0387 18.4931 15.3481C18.7009 14.5539 18.8048 13.7597 18.8048 12.931C18.8394 12.1022 18.7009 11.2735 18.4931 10.4793C18.2853 9.78871 17.939 9.0981 17.4888 8.51108C17.0386 7.92407 16.4499 7.47517 15.7919 7.1644C15.03 6.81909 14.1642 6.64644 13.333 6.68097H8.2076V11.9296H7.03014V13.7252Z" fill="white"/>
</svg>
