<svg width="48" height="25" viewBox="0 0 48 25" fill="none" xmlns="http://www.w3.org/2000/svg">
<g clip-path="url(#clip0_3_17802)">
<path fill-rule="evenodd" clip-rule="evenodd" d="M0 3.20006C0.106473 2.97728 0.210627 2.75315 0.319749 2.53173C0.918679 1.31356 2.36558 0.885617 3.47866 1.59593C4.5323 2.26849 4.82721 3.80745 4.10442 4.86124C3.17282 6.2194 1.06771 6.04266 0.320081 4.54298C0.210296 4.32258 0.106638 4.09929 0 3.87719V3.20006Z" fill="white"/>
<path fill-rule="evenodd" clip-rule="evenodd" d="M30.4737 15.536C30.4737 14.4384 30.4839 13.3402 30.4669 12.2426C30.4622 11.9394 30.423 11.6188 30.3167 11.3391C30.1321 10.8536 29.7464 10.5791 29.2289 10.5789C28.7115 10.5787 28.3306 10.853 28.1404 11.3383C28.0407 11.5924 27.9875 11.8827 27.9862 12.1571C27.9743 14.381 27.9764 16.6047 27.9847 18.8286C27.9855 19.0486 28.0303 19.277 28.0986 19.4864C28.2775 20.0329 28.6818 20.3467 29.1862 20.3658C29.7151 20.3858 30.1801 20.0606 30.3597 19.4883C30.4419 19.2269 30.4657 18.9378 30.4689 18.6606C30.4809 17.6194 30.4738 16.5776 30.4737 15.536ZM27.9157 7.88797C28.5595 7.59849 29.1062 7.27398 29.6956 7.10351C31.0736 6.70485 32.3971 7.243 33.0522 8.54936C33.4067 9.25628 33.7015 10.0822 33.7203 10.8624C33.7985 14.0726 33.7824 17.2861 33.745 20.4977C33.7384 21.0657 33.5172 21.6521 33.3052 22.1931C32.5273 24.1776 29.8259 24.204 28.6368 23.2655C28.4426 23.1121 28.2614 22.9413 28.0811 22.7844C28.0152 22.8167 27.9349 22.8313 27.9279 22.8626C27.74 23.7248 27.7413 23.7265 26.8801 23.731C26.3565 23.7337 25.8326 23.7381 25.309 23.7295C24.566 23.7175 24.566 23.7127 24.5516 22.9904C24.5511 22.9623 24.5514 22.934 24.5514 22.9059C24.5514 16.1431 24.5506 9.3802 24.5528 2.61733C24.5529 1.86825 24.5609 1.86216 25.2639 1.85369C25.9253 1.84574 26.5877 1.87232 27.2482 1.84692C27.7236 1.82847 27.8736 2.04245 27.8695 2.50036C27.8561 3.9936 27.8628 5.48719 27.8683 6.98061C27.8695 7.27922 27.8986 7.5775 27.9157 7.88797Z" fill="white"/>
<path fill-rule="evenodd" clip-rule="evenodd" d="M16.8489 12.4301C16.8453 13.7417 16.8453 13.7421 18.1633 13.7406C18.4097 13.7402 18.6616 13.7665 18.9004 13.7218C19.0247 13.6986 19.2228 13.5479 19.2226 13.455C19.2216 12.7594 19.2602 12.0476 19.1281 11.3735C18.9861 10.6496 18.4796 10.3529 17.8757 10.4458C17.2859 10.5367 16.8956 10.9972 16.8516 11.6746C16.8352 11.9255 16.8489 12.1782 16.8489 12.4301ZM13.4191 15.8735C13.4191 14.8583 13.4168 13.8431 13.4196 12.828C13.4229 11.6577 13.6617 10.5357 14.1227 9.46734C14.8105 7.87286 15.9417 6.9435 17.7216 7.0493C18.3505 7.08671 19.0065 7.06673 19.5993 7.24753C21.5109 7.82969 22.6051 9.39336 22.6364 11.4925C22.6582 12.9585 22.6455 14.4251 22.6388 15.8913C22.6355 16.5947 22.6258 16.6116 21.9546 16.6172C20.5203 16.6294 19.086 16.6172 17.6517 16.6235C16.7269 16.6277 16.7146 16.6346 16.7231 17.5547C16.7282 18.116 16.6977 18.698 16.8348 19.2301C16.9286 19.5934 17.2193 19.9979 17.5349 20.1887C18.341 20.6758 19.1153 20.2764 19.2241 19.325C19.2771 18.8619 19.4519 18.7678 19.8404 18.7762C20.5574 18.7925 21.2747 18.7813 21.9919 18.783C22.252 18.7837 22.4569 18.8069 22.5127 19.1646C22.7779 20.8608 21.3519 23.2528 19.7139 23.6699C18.5568 23.9646 17.3543 23.994 16.2165 23.5514C14.4558 22.8666 13.5948 21.4497 13.462 19.5937C13.3739 18.3598 13.4453 17.114 13.4453 15.8735H13.4191Z" fill="white"/>
<path fill-rule="evenodd" clip-rule="evenodd" d="M5.98497 5.43465C6.44928 4.33313 6.56138 3.26478 6.20917 2.17087C6.06958 1.73768 6.31565 1.67436 6.63805 1.72633C9.07533 2.11806 11.1013 3.48637 11.714 6.44629C11.8272 6.99341 11.8928 7.56153 11.8951 8.1205C11.9082 11.3079 11.9188 14.4959 11.88 17.683C11.8642 18.9948 11.4969 20.2434 10.8561 21.3867C9.89532 23.1009 8.42159 23.8407 6.50756 23.733C6.12787 23.7117 5.96096 23.5683 5.96593 23.1728C5.97768 22.2137 5.97752 21.2543 5.96543 20.2954C5.96079 19.9355 6.12075 19.8432 6.45077 19.7775C7.61336 19.5458 8.04852 19.054 8.15483 17.8524C8.21941 17.124 8.22586 16.3888 8.22868 15.6565C8.23762 13.4277 8.23183 11.1991 8.23183 8.9703C8.23183 8.80102 8.23381 8.63174 8.231 8.46245C8.20185 6.63724 7.72728 5.98008 5.98497 5.43465Z" fill="white"/>
<path fill-rule="evenodd" clip-rule="evenodd" d="M41.2755 11.4651C41.2755 9.04151 41.274 6.61771 41.2763 4.19425C41.2771 3.33073 41.2811 3.32853 42.1521 3.32193C42.731 3.31753 43.31 3.31533 43.8888 3.32261C44.7291 3.33344 44.7481 3.35223 44.7541 4.24537C44.7609 5.23162 44.7738 6.21837 44.7508 7.2041C44.7389 7.71416 44.9278 7.9178 45.4276 7.89614C46.0053 7.87108 46.585 7.89901 47.1641 7.89614C47.5075 7.89444 47.6577 8.04798 47.6477 8.40873C47.6317 9.00003 47.6317 9.59252 47.6477 10.184C47.6577 10.548 47.5002 10.6937 47.1598 10.6925C46.5532 10.6903 45.9467 10.7096 45.3406 10.6964C44.9156 10.6869 44.7531 10.8787 44.7553 11.304C44.766 13.5301 44.7452 15.7568 44.7756 17.9825C44.7895 18.994 45.1555 19.7912 46.2615 20.0236C46.3923 20.051 46.5531 20.3381 46.559 20.5099C46.5891 21.3824 46.5648 22.2566 46.5759 23.1301C46.5814 23.5647 46.3807 23.7031 45.974 23.7353C43.7713 23.91 41.901 22.4567 41.4559 20.1568C41.339 19.5537 41.2885 18.9288 41.2834 18.3132C41.2637 16.0307 41.2755 13.7478 41.2755 11.4651Z" fill="white"/>
<path fill-rule="evenodd" clip-rule="evenodd" d="M4.08424 15.8135C4.08424 18.153 4.08573 20.4926 4.08357 22.8321C4.08275 23.6831 4.07861 23.6877 3.28511 23.6962C2.65108 23.7031 2.01671 23.7024 1.38268 23.6965C0.561196 23.6892 0.555566 23.6858 0.554904 22.8624C0.552089 20.1845 0.553745 17.5068 0.553745 14.8291C0.553745 12.7149 0.567985 10.6007 0.543644 8.48707C0.537849 7.97973 0.664854 7.77879 1.18811 7.80807C1.93044 7.84938 2.67658 7.8118 3.42089 7.82043C4.07281 7.82788 4.08142 7.8355 4.08258 8.54107C4.08672 10.9652 4.08424 13.3893 4.08424 15.8135Z" fill="white"/>
<path fill-rule="evenodd" clip-rule="evenodd" d="M35.7732 15.7242C35.7729 13.3578 35.7704 10.9912 35.7744 8.6248C35.7757 7.80919 35.7828 7.80665 36.6011 7.8031C37.3176 7.80005 38.0345 7.81529 38.7505 7.79937C39.1076 7.79142 39.257 7.94089 39.2371 8.29673C39.2292 8.43706 39.2386 8.57841 39.2386 8.71926C39.2388 13.3959 39.2396 18.0727 39.2379 22.7493C39.2376 23.7244 39.2333 23.7262 38.2863 23.731C37.6801 23.7338 37.0735 23.7418 36.4675 23.7274C35.8032 23.7118 35.7787 23.693 35.7765 22.9929C35.7687 20.5699 35.7734 18.1472 35.7732 15.7242Z" fill="white"/>
<path fill-rule="evenodd" clip-rule="evenodd" d="M39.7294 3.50503C39.7392 4.81037 38.8435 5.75751 37.5741 5.78443C36.2554 5.81253 35.3081 4.87961 35.3018 3.54651C35.2955 2.25826 36.3125 1.19787 37.5347 1.21818C38.7619 1.23867 39.7198 2.23693 39.7294 3.50503Z" fill="white"/>
</g>
<defs>
<clipPath id="clip0_3_17802">
<rect width="48" height="25" fill="white"/>
</clipPath>
</defs>
</svg>
