<svg width="60" height="25" viewBox="0 0 60 25" fill="none" xmlns="http://www.w3.org/2000/svg">
<g clip-path="url(#clip0_3_18208)">
<path d="M36.2503 16.2222C36.4253 15.5239 36.587 14.874 36.7598 14.2266C36.7758 14.1948 36.7975 14.1668 36.8238 14.1443C36.85 14.1218 36.8801 14.1053 36.9124 14.0957C36.9868 14.0835 37.0625 14.0835 37.1369 14.0957H46.8339C47.1189 14.0957 47.2424 14.0108 47.3097 13.7077C47.4489 13.0603 47.6285 12.4225 47.8036 11.729H38.5735C38.4751 11.731 38.3768 11.7245 38.2794 11.7096C37.8058 11.6272 37.5836 11.3289 37.6622 10.8149C37.7358 10.4059 37.8287 10.0012 37.9405 9.60245C38.2233 8.4846 38.5241 7.36918 38.7957 6.24891C38.8797 5.89149 39.0717 5.57456 39.3412 5.34835C39.6108 5.12214 39.9426 4.99959 40.2839 5.00012C43.9382 5.02437 47.5926 5.00012 51.2469 5.01225C51.3322 5.01225 51.4197 5.01225 51.5364 5.0268C51.3659 5.69605 51.211 6.33863 51.0292 6.96666C51.0067 7.0491 50.8428 7.13155 50.7441 7.13155H40.9663C40.7014 7.13155 40.5645 7.19702 40.4972 7.49285C40.3468 8.16938 40.1627 8.83378 39.9764 9.55638H49.2581C49.428 9.55206 49.597 9.5825 49.7564 9.6461C50.0729 9.78674 50.2054 10.148 50.1021 10.5821C49.8776 11.4793 49.6532 12.3716 49.4287 13.2688C49.2873 13.8265 49.1324 14.3842 49.0067 14.9468C48.9253 15.3091 48.7338 15.6314 48.4628 15.8622C48.1917 16.093 47.8569 16.2189 47.5118 16.2198C43.8844 16.1956 40.257 16.2198 36.6296 16.2198L36.2503 16.2222ZM18.1335 16.2222L19.4803 10.9216L19.4175 10.8852L14.0011 16.2198C12.899 14.1878 11.8081 12.1825 10.679 10.0995C10.4747 10.8876 10.2929 11.5835 10.1133 12.2819C9.80132 13.4943 9.48482 14.7213 9.17954 15.9434C9.17605 15.9855 9.16454 16.0265 9.14575 16.0636C9.12695 16.1008 9.10127 16.1333 9.07031 16.1593C9.03934 16.1852 9.00376 16.204 8.96579 16.2144C8.92781 16.2248 8.88825 16.2266 8.84958 16.2198C8.27719 16.2053 7.7048 16.2198 7.08302 16.2198L9.95171 5.0171L14.3827 12.939L22.9371 5.14076L22.982 5.17229C22.8182 5.83184 22.6498 6.48897 22.4859 7.1461C21.7407 10.0559 20.9865 12.9657 20.2413 15.8755C20.165 16.1689 20.055 16.2513 19.7923 16.2392C19.2604 16.2053 18.7239 16.2222 18.1335 16.2222ZM22.1448 16.2222C22.2637 15.7591 22.3692 15.3323 22.4792 14.908C22.9079 13.2445 23.3412 11.5763 23.7721 9.90555C23.7772 9.85225 23.7925 9.80064 23.8168 9.75396C23.8412 9.70728 23.8742 9.66652 23.9138 9.63422C23.9534 9.60192 23.9987 9.57877 24.0469 9.56621C24.0952 9.55365 24.1453 9.55196 24.1941 9.56123H33.9719C34.0124 9.56915 34.0539 9.56788 34.0939 9.55751C34.1339 9.54713 34.1715 9.52787 34.2042 9.50096C34.2369 9.47404 34.2641 9.44006 34.284 9.40117C34.3039 9.36229 34.3161 9.31935 34.3198 9.2751C34.4635 8.65677 34.6274 8.04329 34.7822 7.42738C34.8002 7.35463 34.8092 7.27946 34.8294 7.16065H24.4657C24.5914 6.67568 24.6902 6.22466 24.8182 5.78577C24.8832 5.54329 24.8967 5.18926 25.0426 5.07044C25.1885 4.95163 25.532 5.01952 25.7923 5.01952H36.3782C36.8653 5.01952 37.1257 5.22078 37.184 5.67908C37.1975 5.85117 37.1784 6.02442 37.1279 6.18829C36.7688 7.61652 36.4006 9.03989 36.037 10.4657C35.9684 10.8413 35.7752 11.1769 35.4938 11.4095C35.2123 11.6422 34.8619 11.7558 34.5084 11.729H25.6734C25.422 11.729 25.3075 11.7896 25.2244 12.0806C24.9102 13.3803 24.551 14.6703 24.2323 15.9604C24.1852 16.1495 24.1245 16.2319 23.9293 16.2271C23.3479 16.2125 22.7665 16.2222 22.1448 16.2222ZM4.97528 16.2077H2.95508C3.05833 15.7858 3.15485 15.3905 3.25586 14.9953C4.07442 11.8123 4.89298 8.62848 5.71153 5.44387C5.81479 5.02437 5.81479 5.02195 6.23005 5.02437H7.83499L4.97528 16.2077Z" fill="white"/>
<path d="M2.55668 17.884H2.85746L2.2963 19.8772H2L2.55668 17.884ZM5.43434 18.7254C5.4407 18.6812 5.4497 18.6374 5.46128 18.5945L5.42312 18.6575L5.38272 18.723C5.37149 18.7424 5.35578 18.7642 5.34007 18.786C5.32435 18.8078 5.31089 18.8297 5.29517 18.8491L4.4422 19.9548L4.21773 18.8491C4.20882 18.8058 4.20208 18.7621 4.19753 18.7181C4.19753 18.6745 4.18631 18.6332 4.18406 18.592L4.13917 18.723C4.12345 18.77 4.10392 18.8154 4.08081 18.8588L3.63187 19.882H3.3468L4.28283 17.8064L4.53648 19.0964C4.53648 19.1134 4.53648 19.1279 4.5477 19.1449C4.55892 19.1619 4.5477 19.1788 4.5477 19.1958C4.5477 19.2128 4.55892 19.2589 4.56341 19.2904C4.56962 19.3248 4.57337 19.3596 4.57464 19.3946L4.6936 19.2346C4.72727 19.1837 4.76319 19.1328 4.79686 19.0867L5.789 17.804L5.55107 19.882H5.2615L5.40965 18.8636C5.41863 18.8224 5.42537 18.769 5.43434 18.7254ZM8.41751 18.7278C8.42434 18.6837 8.43333 18.64 8.44444 18.5969C8.43304 18.6188 8.42029 18.6398 8.40629 18.6599L8.36588 18.7254C8.35315 18.7475 8.33889 18.7686 8.32323 18.7884L8.27834 18.8539L7.42537 19.9596L7.2009 18.8515C7.1918 18.8091 7.18506 18.7662 7.1807 18.723C7.1807 18.6793 7.16947 18.6357 7.16723 18.5945C7.15152 18.6381 7.13805 18.6817 7.12233 18.7278C7.10659 18.7741 7.08706 18.8187 7.06397 18.8612L6.62626 19.8845H6.33895L7.27497 17.8064L7.52862 19.0964C7.52862 19.1134 7.52862 19.1303 7.53984 19.1449C7.55107 19.1594 7.53984 19.1788 7.53984 19.1958C7.53984 19.2128 7.55107 19.2589 7.55556 19.2904C7.56162 19.3248 7.56537 19.3596 7.56678 19.3946L7.66779 19.237C7.70146 19.1861 7.73737 19.1376 7.77104 19.0891L8.76319 17.8088L8.52525 19.8869H8.24467L8.39282 18.8685C8.4018 18.8224 8.40853 18.7739 8.41751 18.7278V18.7278ZM9.87205 17.8937H10.9203L10.8485 18.175H10.0808L9.94613 18.6745H10.7048L10.6263 18.9485H9.85634L9.67901 19.5959H10.44L10.3569 19.8845H9.31313L9.87205 17.8937ZM11.982 17.8937H12.3816C12.5198 17.893 12.6579 17.9035 12.7946 17.9252C12.9262 17.9466 13.0463 18.0179 13.1336 18.1265C13.208 18.2104 13.2586 18.3156 13.2795 18.4296C13.2997 18.5482 13.2997 18.6698 13.2795 18.7884V18.9C13.2424 19.0575 13.1817 19.2074 13.0999 19.3437C13.0153 19.4815 12.9043 19.5981 12.7744 19.6856C12.6515 19.7767 12.511 19.8364 12.3636 19.8602C12.2245 19.8798 12.0842 19.8895 11.9439 19.8893H11.4276L11.982 17.8937ZM11.8496 19.5911H12.2873C12.4443 19.572 12.5915 19.4989 12.7071 19.3825C12.8219 19.2659 12.9063 19.1187 12.9517 18.9557C12.951 18.9469 12.951 18.9379 12.9517 18.9291C12.953 18.9186 12.953 18.908 12.9517 18.8976V18.8709C12.9528 18.862 12.9528 18.8531 12.9517 18.8442V18.7836C12.9601 18.6955 12.9525 18.6066 12.9293 18.5217C12.9096 18.4483 12.8726 18.3818 12.8218 18.3286C12.771 18.2755 12.7082 18.2375 12.6397 18.2186C12.5766 18.2008 12.5119 18.1903 12.4467 18.1871H12.1684L11.7733 19.608L11.8496 19.5911ZM14.4489 17.8961H14.7497L14.1886 19.8893H13.8967L14.4489 17.8961ZM16.6285 17.8185L16.9899 19.8942H16.6846L16.6083 19.4092H15.8563L15.5376 19.8942H15.2233L16.6285 17.8185ZM16.5701 19.157L16.4983 18.672C16.496 18.6414 16.496 18.6106 16.4983 18.5799V18.4247C16.4909 18.439 16.4826 18.4528 16.4736 18.4659C16.4667 18.4813 16.4585 18.4959 16.4489 18.5096L16.4018 18.5945C16.3872 18.623 16.3699 18.6498 16.3502 18.6745L16.0269 19.1594L16.5701 19.157ZM18.5567 18.1871H18.0471L18.1279 17.9009H19.4141L19.3311 18.1847H18.853L18.3771 19.882H18.0808L18.5567 18.1871ZM20.4534 17.9034H21.4994L21.4276 18.1871H20.6622L20.5275 18.6866H21.2862L21.2076 18.963H20.4467L20.2671 19.6129H21.0281L20.945 19.9014H19.8923L20.4534 17.9034ZM23.6341 19.9014L24.1953 17.9082H24.6712C24.7562 17.9124 24.8406 17.9271 24.9226 17.9519C25.0017 17.9765 25.0696 18.0317 25.1134 18.1071C25.1366 18.1489 25.1525 18.1949 25.1605 18.2428C25.1662 18.2928 25.1662 18.3433 25.1605 18.3932V18.4635C25.1314 18.6012 25.0659 18.7267 24.9719 18.8248C24.8808 18.9314 24.7604 19.0036 24.6285 19.0309H24.1616L23.9214 19.8869L23.6341 19.9014ZM24.2761 18.7642H24.4467C24.5365 18.7617 24.6249 18.7403 24.7071 18.7011C24.7506 18.6787 24.788 18.6447 24.8159 18.6023C24.8438 18.5598 24.8612 18.5104 24.8664 18.4587C24.8822 18.3544 24.8664 18.2841 24.7946 18.2525C24.7244 18.2164 24.6479 18.1965 24.5701 18.1944H24.3906L24.229 18.7666L24.2761 18.7642ZM27.1201 17.8306L27.4837 19.9063H27.1762L27.0999 19.4213H26.3502L26.0314 19.9063H25.7149L27.1201 17.8306ZM27.0617 19.1667L26.9899 18.6817C26.9876 18.6519 26.9876 18.6219 26.9899 18.592C26.9877 18.5605 26.9877 18.5289 26.9899 18.4975C26.9888 18.4878 26.9888 18.478 26.9899 18.4684V18.4368L26.9652 18.4781C26.9583 18.4927 26.95 18.5065 26.9405 18.5193L26.8934 18.6066L26.844 18.6866L26.5185 19.1716L27.0617 19.1667ZM28.9203 17.9131L29.1313 18.5799C29.1326 18.5863 29.1326 18.5929 29.1313 18.5993C29.1324 18.6073 29.1324 18.6155 29.1313 18.6235C29.1323 18.6308 29.1323 18.6381 29.1313 18.6454C29.1326 18.6534 29.1326 18.6616 29.1313 18.6696V18.7133C29.1324 18.7286 29.1324 18.744 29.1313 18.7593L29.1964 18.6648C29.2189 18.6332 29.2435 18.6041 29.2682 18.5751L29.8339 17.9131H30.1728L29.248 19.0188L29.0011 19.9063H28.7116L28.963 19.0091L28.6061 17.9106L28.9203 17.9131ZM32.752 18.7521C32.7588 18.7079 32.7678 18.6642 32.7789 18.6211C32.7789 18.6429 32.7542 18.6648 32.7407 18.6866L32.7003 18.7496C32.6874 18.7716 32.6732 18.7927 32.6577 18.8127L32.6128 18.8782L31.7598 19.9839L31.5354 18.8757C31.5354 18.8345 31.5219 18.7909 31.5174 18.7472C31.5129 18.7036 31.5062 18.6599 31.5039 18.6211C31.4882 18.6623 31.4748 18.706 31.459 18.7521C31.4433 18.7983 31.4238 18.8429 31.4007 18.8854L30.9562 19.9087H30.6622L31.5982 17.8306L31.8541 19.1206V19.2201C31.8541 19.237 31.8541 19.2855 31.8698 19.317C31.8723 19.3509 31.8723 19.385 31.8698 19.4189C31.9035 19.3655 31.9349 19.3146 31.9708 19.2613C32.0067 19.2079 32.0404 19.1619 32.0741 19.1158L33.0662 17.8331L32.8283 19.9111H32.5387L32.6869 18.8903C32.7318 18.8442 32.7385 18.7981 32.752 18.7521V18.7521ZM34.202 17.9179H35.2503L35.1785 18.2016H34.413L34.2783 18.7036H35.037L34.9585 18.98H34.1953L34.0157 19.6274H34.7722L34.6891 19.916H33.6498L34.202 17.9179ZM36.2873 17.9228H36.3659L37.147 19.0915C37.1705 19.121 37.1915 19.1527 37.2099 19.1861C37.2301 19.2176 37.248 19.2516 37.2682 19.2855C37.2718 19.2957 37.2763 19.3054 37.2817 19.3146L37.2952 19.3413L37.3086 19.2637C37.3086 19.237 37.3086 19.2104 37.3266 19.1837C37.3446 19.157 37.3378 19.1328 37.3446 19.1061C37.3513 19.0794 37.3446 19.0527 37.3625 19.0261L37.6902 17.9203H37.9686L37.4052 19.916H37.3356L36.5544 18.7448C36.5277 18.7059 36.503 18.6654 36.4804 18.6235C36.4553 18.5816 36.4328 18.5378 36.413 18.4926C36.413 18.5193 36.3996 18.546 36.3951 18.5702C36.3906 18.5944 36.3816 18.6211 36.3726 18.6478C36.3636 18.6745 36.3614 18.6987 36.3547 18.7254C36.3479 18.7521 36.3412 18.7763 36.3345 18.8006L36.0247 19.9136H35.7508L36.2873 17.9228ZM39.2076 18.2089H38.7003L38.7789 17.9252H40.0651L39.982 18.2113H39.5039L39.0281 19.9087H38.7318L39.2076 18.2089ZM42.4691 19.3946V19.4262C42.4893 19.4839 42.5165 19.5386 42.5499 19.5886C42.5824 19.6408 42.6323 19.6773 42.6891 19.6905H42.7722C42.8639 19.6891 42.9528 19.6559 43.0258 19.5959C43.0701 19.5643 43.1065 19.5215 43.1319 19.4712C43.1573 19.4209 43.171 19.3647 43.1717 19.3074C43.1739 19.2888 43.1739 19.2701 43.1717 19.2516C43.1736 19.2404 43.1736 19.2289 43.1717 19.2176C43.169 19.206 43.1652 19.1946 43.1605 19.1837C43.1382 19.1428 43.1084 19.1073 43.073 19.0794C43.0348 19.0503 42.9944 19.0188 42.9517 18.9921L42.8866 18.9509L42.826 18.9121L42.7991 18.8903L42.7722 18.8709C42.7197 18.8278 42.6793 18.7699 42.6554 18.7036C42.6309 18.6407 42.6195 18.5729 42.6218 18.5047V18.4393C42.6208 18.4264 42.6208 18.4134 42.6218 18.4005V18.3592C42.6523 18.269 42.6997 18.1865 42.7609 18.1168C42.8215 18.0373 42.8983 17.9742 42.9854 17.9325L43.0864 17.9009L43.1874 17.8791H43.3042C43.3946 17.8859 43.4824 17.9158 43.56 17.9664C43.6362 18.0157 43.6971 18.0883 43.7351 18.175L43.5309 18.3471C43.5032 18.2908 43.4658 18.2406 43.4209 18.1992C43.3725 18.1578 43.312 18.1363 43.2503 18.1386C43.1838 18.1384 43.1183 18.1559 43.0595 18.1895C43.001 18.2219 42.9538 18.2737 42.9248 18.3374V18.3835C42.919 18.3933 42.9145 18.4039 42.9113 18.415C42.9103 18.4255 42.9103 18.4361 42.9113 18.4465C42.9036 18.4812 42.905 18.5174 42.9153 18.5513C42.9256 18.5851 42.9444 18.6152 42.9697 18.6381C43.0235 18.6899 43.0822 18.7354 43.1448 18.7739H43.1762L43.2503 18.82C43.2718 18.8341 43.2921 18.8504 43.3109 18.8685C43.3656 18.9197 43.4067 18.9858 43.4299 19.06C43.4539 19.1381 43.463 19.2205 43.4568 19.3025V19.334C43.4555 19.3437 43.4555 19.3535 43.4568 19.3631C43.439 19.4692 43.3991 19.5696 43.3401 19.6565C43.277 19.7503 43.1917 19.824 43.0932 19.8699C43.0552 19.8895 43.0153 19.9041 42.9742 19.9136C42.9327 19.9248 42.8908 19.9337 42.8485 19.9402H42.5477C42.4674 19.9194 42.3952 19.8719 42.3412 19.8044C42.2889 19.7374 42.2493 19.66 42.2245 19.5765L42.4691 19.3946ZM44.8462 17.9276H45.8923L45.8227 18.2089H45.055L44.9203 18.7084H45.6813L45.6027 18.9848H44.8395L44.6599 19.6323H45.4231L45.3378 19.9208H44.2851L44.8462 17.9276ZM46.3816 19.9257L46.9428 17.93H47.3917C47.4573 17.9348 47.5226 17.9445 47.587 17.9591C47.6479 17.9751 47.7047 18.0058 47.7531 18.0489C47.7974 18.0914 47.8307 18.1458 47.8496 18.2065C47.868 18.2674 47.8741 18.3319 47.8676 18.3956C47.8698 18.4027 47.8698 18.4104 47.8676 18.4174V18.4732C47.8491 18.6246 47.7825 18.7644 47.679 18.8685C47.5693 18.9683 47.4367 19.0344 47.2952 19.06L47.679 19.9257H47.3423L46.9809 19.0649H46.9181L46.6689 19.9257H46.3816ZM47.0056 18.8224H47.1358C47.229 18.8178 47.3207 18.7965 47.4074 18.7593C47.4527 18.7363 47.4914 18.7005 47.5195 18.6557C47.5475 18.6109 47.5639 18.5587 47.5668 18.5047C47.5847 18.3786 47.5668 18.301 47.4905 18.2622C47.414 18.2296 47.3325 18.2123 47.2503 18.2113H47.1493L46.9854 18.8224H47.0056ZM49.0572 17.9325L49.1717 19.1231C49.1728 19.1441 49.1728 19.1651 49.1717 19.1861V19.3704L49.1852 19.3437C49.1897 19.3351 49.1949 19.327 49.2009 19.3195V19.2855C49.2166 19.2564 49.2346 19.2273 49.2525 19.2007C49.2684 19.1722 49.2857 19.1447 49.3042 19.1182L50.0898 17.9349H50.4063L48.9719 20.0009L48.7295 17.9325H49.0572ZM51.4568 17.9349H51.7553L51.1964 19.9305H50.8979L51.4568 17.9349ZM54.0135 18.4053C53.9493 18.3332 53.8732 18.2748 53.789 18.2332C53.7013 18.1914 53.6065 18.1699 53.5107 18.1701H53.3535C53.3359 18.1727 53.3185 18.1776 53.3019 18.1847C53.1418 18.2363 53 18.3395 52.8956 18.4805C52.7905 18.6135 52.7138 18.77 52.6712 18.9388V18.9921C52.6416 19.1467 52.6689 19.3076 52.7475 19.4407C52.7865 19.5067 52.8394 19.5619 52.9017 19.6019C52.9641 19.6419 53.0343 19.6656 53.1066 19.6711H53.2076C53.3051 19.6704 53.4017 19.6506 53.4927 19.6129C53.5878 19.573 53.6788 19.5226 53.7643 19.4625L53.6274 19.8748C53.567 19.8962 53.5055 19.914 53.4433 19.9281C53.3805 19.9281 53.3176 19.9524 53.2548 19.9596H52.9877C52.9275 19.9528 52.8682 19.9398 52.8103 19.9208C52.7545 19.904 52.7015 19.8778 52.6532 19.8432C52.5294 19.7639 52.4362 19.6391 52.3906 19.4916C52.346 19.3455 52.336 19.1896 52.3614 19.0382C52.3638 19.0193 52.3676 19.0007 52.3726 18.9824C52.3753 18.9628 52.379 18.9434 52.3838 18.9242C52.4524 18.6656 52.5833 18.4313 52.7632 18.2453C52.9406 18.0435 53.18 17.9185 53.4366 17.8937H53.5758C53.673 17.8934 53.7697 17.9081 53.8631 17.9373C53.9529 17.9667 54.0384 18.01 54.1167 18.0658L54.0135 18.4053ZM55.174 17.9397H56.2222L56.1504 18.221H55.385L55.2503 18.7205H56.009L55.9304 18.9945H55.1672L54.9877 19.642H55.7508L55.6678 19.9305H54.615L55.174 17.9397Z" fill="white"/>
<path d="M52.6006 16.233L54.0405 10.6353L54.7605 7.83646L55.4805 5.0376C55.4805 5.0376 58.017 10.6365 58.0013 10.6365C57.9855 10.6365 52.6006 16.233 52.6006 16.233Z" fill="white"/>
<path d="M50.7466 16.233L53.6265 5.0376C53.6265 5.0376 56.163 10.6365 56.1473 10.6365C56.1315 10.6365 50.7466 16.233 50.7466 16.233Z" fill="white"/>
</g>
<defs>
<clipPath id="clip0_3_18208">
<rect width="56" height="15" fill="white" transform="translate(2 5)"/>
</clipPath>
</defs>
</svg>
