<svg width="46" height="25" viewBox="0 0 46 25" fill="none" xmlns="http://www.w3.org/2000/svg">
<g clip-path="url(#clip0_3_17689)">
<path d="M4.41702 0H41.583C44.0224 0 46 1.93458 46 4.321V20.679C46 23.0654 44.0224 25 41.583 25H4.41702C1.97757 25 0 23.0654 0 20.679L0 4.321C0 1.93458 1.97757 0 4.41702 0V0ZM41.7001 14.6463C41.0983 14.6463 40.6104 15.1279 40.6104 15.722C40.6104 16.316 41.0983 16.7977 41.7001 16.7977C42.3019 16.7977 42.7899 16.316 42.7899 15.722C42.7899 15.1278 42.302 14.6463 41.7001 14.6463ZM38.1149 13.8146C38.1149 14.628 37.4107 15.2874 36.5418 15.2874C35.6729 15.2874 34.9686 14.628 34.9686 13.8146C34.9686 13.0013 35.673 12.342 36.5418 12.342C37.4106 12.342 38.1149 13.0013 38.1149 13.8146ZM38.1207 10.9524V10.9524V11.3186C37.6303 10.9883 37.0382 10.7942 36.3996 10.7942C34.7098 10.7942 33.3398 12.1464 33.3398 13.8146C33.3398 15.4828 34.7098 16.8351 36.3996 16.8351C37.0382 16.8351 37.6302 16.641 38.1207 16.3108V16.6766H39.8569V10.9524H38.1207ZM24.2267 11.6981V10.9525H22.4491V16.6766H24.2307V14.0041C24.2307 13.1024 25.2207 12.6178 25.9076 12.6178C25.9147 12.6178 25.9212 12.6185 25.9283 12.6186V10.953C25.2232 10.953 24.5747 11.251 24.2267 11.6982L24.2267 11.6981ZM19.7988 13.8147C19.7988 14.6281 19.0945 15.2875 18.2256 15.2875C17.3568 15.2875 16.6524 14.6281 16.6524 13.8147C16.6524 13.0013 17.3568 12.3421 18.2256 12.3421C19.0945 12.3421 19.7988 13.0013 19.7988 13.8147ZM19.8046 10.9525V10.9524V11.3186C19.3141 10.9883 18.7221 10.7942 18.0836 10.7942C16.3936 10.7942 15.0236 12.1464 15.0236 13.8146C15.0236 15.4828 16.3936 16.8351 18.0836 16.8351C18.722 16.8351 19.3141 16.641 19.8046 16.3108V16.6767H21.5408V10.9525H19.8046ZM30.2547 10.7985C29.5612 10.7985 28.9048 11.0111 28.466 11.5975V10.9528H26.7373V16.6767H28.4872V13.6686C28.4872 12.7981 29.0785 12.3719 29.7906 12.3719C30.5536 12.3719 30.9923 12.8219 30.9923 13.6568V16.6767H32.7264V13.0366C32.7264 11.7045 31.6535 10.7986 30.2547 10.7986V10.7985ZM12.4947 16.6767H14.3119V8.4016H12.4947V16.6767ZM4.51202 16.679H6.43625V8.40006H4.51202V16.679ZM11.2423 8.40006L11.2423 8.40004H9.35931C9.35931 9.92354 8.64968 11.3219 7.41248 12.2367L6.66646 12.7883L9.5571 16.6793H11.9338L9.27394 13.099C10.5348 11.8597 11.2423 10.1924 11.2423 8.40006Z" fill="white"/>
</g>
<defs>
<clipPath id="clip0_3_17689">
<rect width="46" height="25" fill="white"/>
</clipPath>
</defs>
</svg>
