<svg width="42" height="25" viewBox="0 0 42 25" fill="none" xmlns="http://www.w3.org/2000/svg">
<g clip-path="url(#clip0_3_17662)">
<path fill-rule="evenodd" clip-rule="evenodd" d="M17.9564 12.5619H20.0603C20.1222 11.9431 19.9985 11.448 19.3796 11.3243C18.5133 11.2005 18.0801 11.7574 17.9564 12.5619ZM26.4341 11.448H26.3722C25.6915 11.3861 24.9489 11.1386 24.3301 11.5099C23.9588 11.7574 24.0207 12.0668 24.3301 12.3762C24.9489 12.7475 25.5059 12.6238 26.0628 13.2426C26.9291 14.4802 26.1247 15.9035 24.8252 16.3366C23.897 16.5223 22.4118 16.4604 21.4836 16.151L21.7311 14.8515C22.5356 15.0371 23.0306 15.1609 23.8351 15.099C24.6395 14.9752 24.8252 14.2327 23.9588 13.8614C23.2782 13.6139 22.7831 13.4282 22.4118 12.8713C22.1024 12.1906 22.2262 11.2005 22.6593 10.6436C23.5257 9.77723 25.5059 9.90099 26.6197 10.0866H26.6816H26.7435L26.4341 11.448ZM29.1569 0C36.0876 0 41.6569 5.56931 41.6569 12.5C41.6569 19.4307 36.0876 25 29.1569 25C23.4019 25 18.5752 21.1634 17.09 15.8416C18.2039 16.5223 19.9366 16.7079 21.1123 16.0891L21.3598 14.6658C20.246 15.2847 17.647 15.4084 17.7088 13.7995V13.6757H21.5455C21.9168 11.5718 21.7311 10.1485 19.3796 9.96287C18.5752 9.96287 17.8945 10.0866 17.2138 10.5817L17.09 10.7054L16.9663 10.8292L16.8425 10.953C16.8425 11.0149 16.7806 11.0767 16.7188 11.1386C17.3994 4.88861 22.7212 0 29.1569 0ZM29.8994 16.3985H31.5702L32.1272 13.0569C32.189 12.8094 32.2509 12.5619 32.3747 12.3144C32.6841 11.8193 33.3648 11.6337 33.9217 11.6955H33.9836V11.6337L34.0455 11.5099V11.3861L34.1074 11.2005C34.1692 10.953 34.2311 10.7054 34.3549 10.5198L34.4168 10.396L34.4787 10.2723V10.2104L34.5405 10.1485L34.6024 10.0866H34.5405V10.0248C33.6742 9.90099 33.0554 10.396 32.5603 11.0767L32.6841 10.0866H31.0133L29.8994 16.3985ZM39.1816 10.6436C40.4192 11.6337 40.543 13.4901 39.8623 14.8515C38.7485 17.0792 35.0356 17.1411 33.9836 14.8515C33.3648 13.1807 33.9217 11.0149 35.6544 10.2723C36.7683 9.83911 38.1915 9.90099 39.1816 10.6436ZM35.84 14.047C36.1494 15.2228 37.449 15.0371 38.0059 14.047C38.1915 13.4901 38.3153 12.8713 38.2534 12.2525C37.944 11.0149 36.6445 11.2624 36.0876 12.2525C35.84 12.8094 35.7163 13.4282 35.84 14.047ZM27.7955 8.66337H29.4663L29.1569 10.0866H30.2089L29.9613 11.448L28.9093 11.3861L28.3524 14.6658C28.3524 14.9752 28.4143 15.0371 28.6618 15.099C28.9712 15.1609 29.3425 15.1609 29.59 15.0371H29.6519L29.4663 16.151C28.9712 16.4604 28.1049 16.4604 27.548 16.3985C26.7435 16.2129 26.5579 15.9035 26.6816 15.099L27.7955 8.66337ZM39.6148 16.0891H40.1098V16.151H39.9242V16.5842H39.8004V16.151H39.6148V16.0891ZM40.1717 16.0891H40.2955L40.4811 16.4604L40.6668 16.0891H40.7905V16.5842H40.6668V16.2129L40.543 16.5842H40.4192L40.2955 16.2129V16.5842H40.1717V16.0891Z" fill="white"/>
<path fill-rule="evenodd" clip-rule="evenodd" d="M12.5107 0C16.1617 0 19.4414 1.54703 21.731 4.02228H19.8746L19.3177 4.76485H22.3499C22.5355 5.01238 22.7211 5.2599 22.9068 5.50743H18.7607L18.2657 6.25H23.34C23.4637 6.49752 23.6494 6.74505 23.7731 7.05446H17.8944L17.5231 7.73515H24.0825C24.2063 7.98267 24.2682 8.2302 24.3919 8.5396H17.2756L17.09 9.2203H24.5776C24.6395 9.46782 24.7013 9.71535 24.7632 9.96287C24.5776 9.96287 24.3919 9.96287 24.1444 10.0248H19.6271C19.5652 10.0248 19.5033 9.96287 19.3796 9.96287C19.1939 9.96287 19.0701 9.96287 18.8845 10.0248H16.8424L16.7187 10.7054H17.09L16.9662 10.8292L16.8424 10.953C15.9142 12.0668 15.6048 14.047 16.4711 15.2847C16.6568 15.5322 16.9043 15.7178 17.1518 15.9035L17.3375 16.3985H18.7607C19.1939 16.4604 19.6271 16.4604 20.0602 16.3985H22.9687C23.2781 16.4604 23.6494 16.4604 23.9588 16.3985H24.3919C24.2682 16.7079 24.2063 17.0173 24.0825 17.2649H17.585L17.9563 17.9455H23.7731C23.5875 18.255 23.4637 18.5644 23.2781 18.8119H18.3895L18.8226 19.5545H22.8449C22.6593 19.802 22.4736 20.1114 22.2261 20.3589H19.3796L19.9365 21.0396H21.6692C19.3796 23.453 16.0999 25 12.5107 25C5.58005 25 0.0107422 19.4307 0.0107422 12.5C0.0107422 5.56931 5.58005 0 12.5107 0ZM21.236 10.7054H22.6593C22.4736 10.8911 22.3499 11.2005 22.288 11.448H21.6073C21.5454 11.1386 21.4216 10.8911 21.236 10.7054ZM24.9489 11.3243C24.9489 11.3861 24.9489 11.3861 24.9489 11.448H24.3919C24.5776 11.3861 24.7632 11.3243 24.9489 11.3243ZM19.689 11.448H18.5751C18.7607 11.3243 19.0701 11.2624 19.3796 11.3243C19.5033 11.3243 19.6271 11.3861 19.689 11.448ZM18.0182 12.1287H20.0602C20.0602 12.2525 20.0602 12.4381 20.0602 12.5619H17.9563C17.9563 12.4381 18.0182 12.2525 18.0182 12.1287ZM21.6692 12.1287H22.2261C22.2261 12.3762 22.288 12.6238 22.4117 12.8713H21.6692C21.6692 12.6238 21.6692 12.3762 21.6692 12.1287ZM24.1444 12.1287H25.0107C25.0107 12.2525 25.0107 12.3762 25.0107 12.5C25.0107 12.5619 25.0107 12.6238 25.0107 12.6238C24.8251 12.5619 24.5776 12.5 24.3301 12.3762C24.2682 12.3144 24.2063 12.2525 24.1444 12.1287ZM21.5454 13.552H23.2781C23.4637 13.6757 23.7112 13.7376 23.9588 13.8614C24.2063 13.9851 24.3919 14.1089 24.4538 14.2946H17.7706C17.7088 14.1089 17.7088 13.9851 17.7088 13.7995V13.6757H21.5454C21.5454 13.6757 21.5454 13.6139 21.5454 13.552ZM18.637 14.9752H20.4315C19.8746 15.099 19.132 15.1609 18.637 14.9752ZM21.2979 14.9752H21.6692L21.5454 15.7178H21.1741L21.2979 14.9752ZM22.288 14.9752H24.2682C24.1444 15.0371 24.0206 15.099 23.835 15.099C23.2781 15.1609 22.8449 15.099 22.288 14.9752ZM15.4192 15.099L15.1716 16.3985H13.6865L13.7484 16.2748V16.151V16.0891V15.9653L13.8102 15.9035V15.7797V15.7178L13.7484 15.8416C12.9439 16.5842 11.5825 16.7698 10.6543 16.0891C9.60233 15.099 10.0974 13.552 11.2112 12.8094L11.3969 12.7475C12.2632 12.3762 13.2533 12.4381 14.1815 12.4381L14.2434 12.3762C14.3672 11.8193 14.0578 11.448 13.5008 11.3861C12.9439 11.3861 11.4588 11.448 11.0256 11.6955L11.4588 10.3342C12.2013 9.96287 13.5627 9.96287 14.4291 10.0866C15.4192 10.3342 16.2236 10.8292 16.038 12.005L15.4192 15.099ZM13.9959 13.552C13.9959 13.4901 13.9959 13.4901 13.8721 13.4901C13.3771 13.4282 12.6964 13.552 12.2632 13.8614C11.83 14.2327 11.7063 14.9752 12.3251 15.099C12.882 15.1609 13.439 15.0371 13.7484 14.5421C13.934 14.2327 13.934 13.9233 13.9959 13.552ZM2.98104 16.3985H1.37213L2.73351 8.66337H5.58005L5.82757 13.3045L7.74589 8.66337H10.6543L9.29292 16.3985H7.68401L8.67411 10.6436H8.61223L6.26074 16.3985H4.40431C4.28054 14.4802 4.21866 12.5619 4.0949 10.6436H4.03302L2.98104 16.3985Z" fill="#E6E6E6"/>
<path d="M39.6143 16.0891H40.1093V16.151H39.9237V16.5842H39.7999V16.151H39.6143V16.0891Z" stroke="#FEFEFE" stroke-width="0.474189"/>
<path fill-rule="evenodd" clip-rule="evenodd" d="M40.1719 16.0891H40.2956L40.4813 16.4604L40.6669 16.0891H40.7907V16.5842H40.6669V16.2129L40.5432 16.5842H40.4194L40.2956 16.2129V16.5842H40.1719V16.0891Z" fill="#FEFEFE"/>
</g>
<defs>
<clipPath id="clip0_3_17662">
<rect width="42" height="25" fill="white"/>
</clipPath>
</defs>
</svg>
