<svg width="133" height="25" viewBox="0 0 133 25" fill="none" xmlns="http://www.w3.org/2000/svg">
<path d="M52.9092 2H55.4283L60.4251 13.6435L65.2981 2H67.8171V19.8752H65.1742V8.72371H65.0916L61.251 18.0713H59.5992L55.5934 8.72371H55.5521V19.8752H52.9092V2Z" fill="white"/>
<path d="M74.053 7.12476H71.5752V19.8342H74.053V7.12476Z" fill="white"/>
<path d="M77.7285 2H87.5983V4.54189H80.3715V9.83066H87.5983V12.2086H80.3715V19.8752H77.7285V2Z" fill="white"/>
<path d="M92.678 7.12476H90.2002V19.8342H92.678V7.12476Z" fill="white"/>
<path d="M96.1053 7.12469H98.583V8.47763H98.6243C99.4503 7.45267 100.524 6.96069 101.845 6.96069C102.878 6.96069 103.828 7.32968 104.654 8.06765C105.48 8.80561 105.934 9.91257 105.975 11.3885V19.8341H103.497V12.2905C103.497 11.3885 103.25 10.7325 102.795 10.2406C102.341 9.74857 101.763 9.54358 101.02 9.54358C100.317 9.54358 99.698 9.78957 99.2438 10.2406C98.7895 10.6915 98.5417 11.3885 98.5417 12.2905V19.8751H96.064L96.1053 7.12469Z" fill="white"/>
<path d="M111.757 7.12476H109.279V19.8342H111.757V7.12476Z" fill="white"/>
<path d="M115.473 2.04102H117.951V7.12479H119.768V9.09271H117.951V16.5134C117.951 17.1694 118.24 17.4563 118.818 17.4563H119.768V19.8752H118.488C117.621 19.8752 116.877 19.5883 116.34 19.0553C115.762 18.5223 115.473 17.7433 115.473 16.7594V9.09271H114.234V7.12479H115.473V2.04102Z" fill="white"/>
<path d="M121.42 7.12476H124.063L126.995 16.0214H127.036L129.968 7.12476H132.611L127.284 22.4991C126.954 23.442 126.458 24.098 125.88 24.467C125.26 24.836 124.558 25 123.815 25H122.989V22.5811H123.733C124.063 22.5811 124.352 22.4991 124.641 22.2941C124.93 22.0891 125.095 21.8431 125.219 21.4741L125.88 19.3422L121.42 7.12476Z" fill="white"/>
<path d="M72.8141 5.03387C73.658 5.03387 74.3421 4.35471 74.3421 3.51693C74.3421 2.67915 73.658 2 72.8141 2C71.9702 2 71.2861 2.67915 71.2861 3.51693C71.2861 4.35471 71.9702 5.03387 72.8141 5.03387Z" fill="white"/>
<path d="M91.4386 5.03387C92.2825 5.03387 92.9666 4.35471 92.9666 3.51693C92.9666 2.67915 92.2825 2 91.4386 2C90.5947 2 89.9106 2.67915 89.9106 3.51693C89.9106 4.35471 90.5947 5.03387 91.4386 5.03387Z" fill="white"/>
<path d="M110.518 5.03387C111.362 5.03387 112.046 4.35471 112.046 3.51693C112.046 2.67915 111.362 2 110.518 2C109.674 2 108.99 2.67915 108.99 3.51693C108.99 4.35471 109.674 5.03387 110.518 5.03387Z" fill="white"/>
<path d="M19.9137 8.60069C20.3243 8.60069 20.6571 8.27029 20.6571 7.86272C20.6571 7.45516 20.3243 7.12476 19.9137 7.12476C19.5032 7.12476 19.1704 7.45516 19.1704 7.86272C19.1704 8.27029 19.5032 8.60069 19.9137 8.60069Z" fill="white"/>
<path d="M18.0554 7.12479C18.5116 7.12479 18.8813 6.75768 18.8813 6.30483C18.8813 5.85197 18.5116 5.48486 18.0554 5.48486C17.5993 5.48486 17.2295 5.85197 17.2295 6.30483C17.2295 6.75768 17.5993 7.12479 18.0554 7.12479Z" fill="white"/>
<path d="M15.9077 5.77185C16.3867 5.77185 16.775 5.38639 16.775 4.91089C16.775 4.43539 16.3867 4.04993 15.9077 4.04993C15.4288 4.04993 15.0405 4.43539 15.0405 4.91089C15.0405 5.38639 15.4288 5.77185 15.9077 5.77185Z" fill="white"/>
<path d="M13.3892 4.82886C13.8681 4.82886 14.2564 4.44339 14.2564 3.9679C14.2564 3.4924 13.8681 3.10693 13.3892 3.10693C12.9102 3.10693 12.522 3.4924 12.522 3.9679C12.522 4.44339 12.9102 4.82886 13.3892 4.82886Z" fill="white"/>
<path d="M10.6218 4.70592C11.1919 4.70592 11.6542 4.24703 11.6542 3.68096C11.6542 3.11489 11.1919 2.65601 10.6218 2.65601C10.0516 2.65601 9.58936 3.11489 9.58936 3.68096C9.58936 4.24703 10.0516 4.70592 10.6218 4.70592Z" fill="white"/>
<path d="M7.60747 5.44385C8.24607 5.44385 8.76376 4.92989 8.76376 4.2959C8.76376 3.6619 8.24607 3.14795 7.60747 3.14795C6.96886 3.14795 6.45117 3.6619 6.45117 4.2959C6.45117 4.92989 6.96886 5.44385 7.60747 5.44385Z" fill="white"/>
<path d="M4.71671 7.5757C5.42373 7.5757 5.99689 7.00668 5.99689 6.30476C5.99689 5.60283 5.42373 5.03381 4.71671 5.03381C4.00968 5.03381 3.43652 5.60283 3.43652 6.30476C3.43652 7.00668 4.00968 7.5757 4.71671 7.5757Z" fill="white"/>
<path d="M2.65184 10.5277C3.40448 10.5277 4.01461 9.92193 4.01461 9.17472C4.01461 8.42751 3.40448 7.82178 2.65184 7.82178C1.8992 7.82178 1.28906 8.42751 1.28906 9.17472C1.28906 9.92193 1.8992 10.5277 2.65184 10.5277Z" fill="white"/>
<path d="M2.48666 14.7505C3.30773 14.7505 3.97333 14.0897 3.97333 13.2745C3.97333 12.4594 3.30773 11.7986 2.48666 11.7986C1.6656 11.7986 1 12.4594 1 13.2745C1 14.0897 1.6656 14.7505 2.48666 14.7505Z" fill="white"/>
<path d="M4.84061 18.5633C5.77571 18.5633 6.53375 17.8107 6.53375 16.8823C6.53375 15.954 5.77571 15.2014 4.84061 15.2014C3.90551 15.2014 3.14746 15.954 3.14746 16.8823C3.14746 17.8107 3.90551 18.5633 4.84061 18.5633Z" fill="white"/>
<path d="M22.8871 12.8236C23.7081 12.8236 24.3737 12.1628 24.3737 11.3476C24.3737 10.5325 23.7081 9.8717 22.8871 9.8717C22.066 9.8717 21.4004 10.5325 21.4004 11.3476C21.4004 12.1628 22.066 12.8236 22.8871 12.8236Z" fill="white"/>
<path d="M26.1078 9.62563C26.9745 9.62563 27.6771 8.92812 27.6771 8.0677C27.6771 7.20728 26.9745 6.50977 26.1078 6.50977C25.2412 6.50977 24.5386 7.20728 24.5386 8.0677C24.5386 8.92812 25.2412 9.62563 26.1078 9.62563Z" fill="white"/>
<path d="M19.1704 16.1444C20.0827 16.1444 20.8223 15.4101 20.8223 14.5044C20.8223 13.5987 20.0827 12.8645 19.1704 12.8645C18.2581 12.8645 17.5186 13.5987 17.5186 14.5044C17.5186 15.4101 18.2581 16.1444 19.1704 16.1444Z" fill="white"/>
<path d="M14.9583 19.0553C16.053 19.0553 16.9405 18.1743 16.9405 17.0874C16.9405 16.0006 16.053 15.1195 14.9583 15.1195C13.8635 15.1195 12.9761 16.0006 12.9761 17.0874C12.9761 18.1743 13.8635 19.0553 14.9583 19.0553Z" fill="white"/>
<path d="M9.71368 20.5722C10.9681 20.5722 11.985 19.5626 11.985 18.3173C11.985 17.0719 10.9681 16.0624 9.71368 16.0624C8.45928 16.0624 7.44238 17.0719 7.44238 18.3173C7.44238 19.5626 8.45928 20.5722 9.71368 20.5722Z" fill="white"/>
<path d="M30.4441 7.2888C31.4932 7.2888 32.3437 6.44445 32.3437 5.40289C32.3437 4.36132 31.4932 3.51697 30.4441 3.51697C29.3949 3.51697 28.5444 4.36132 28.5444 5.40289C28.5444 6.44445 29.3949 7.2888 30.4441 7.2888Z" fill="white"/>
<path d="M35.6888 6.09982C36.8292 6.09982 37.7536 5.18205 37.7536 4.04991C37.7536 2.91778 36.8292 2 35.6888 2C34.5485 2 33.624 2.91778 33.624 4.04991C33.624 5.18205 34.5485 6.09982 35.6888 6.09982Z" fill="white"/>
<path d="M40.3553 7.20682C41.2904 7.20682 42.0484 6.45425 42.0484 5.5259C42.0484 4.59755 41.2904 3.84497 40.3553 3.84497C39.4202 3.84497 38.6621 4.59755 38.6621 5.5259C38.6621 6.45425 39.4202 7.20682 40.3553 7.20682Z" fill="white"/>
<path d="M42.7093 10.8967C43.5304 10.8967 44.196 10.2359 44.196 9.42076C44.196 8.60562 43.5304 7.94482 42.7093 7.94482C41.8883 7.94482 41.2227 8.60562 41.2227 9.42076C41.2227 10.2359 41.8883 10.8967 42.7093 10.8967Z" fill="white"/>
<path d="M42.6269 14.7504C43.3339 14.7504 43.907 14.1814 43.907 13.4794C43.907 12.7775 43.3339 12.2085 42.6269 12.2085C41.9198 12.2085 41.3467 12.7775 41.3467 13.4794C41.3467 14.1814 41.9198 14.7504 42.6269 14.7504Z" fill="white"/>
<path d="M40.4791 17.4973C41.1177 17.4973 41.6354 16.9834 41.6354 16.3494C41.6354 15.7154 41.1177 15.2014 40.4791 15.2014C39.8404 15.2014 39.3228 15.7154 39.3228 16.3494C39.3228 16.9834 39.8404 17.4973 40.4791 17.4973Z" fill="white"/>
<path d="M37.7535 19.3423C38.3921 19.3423 38.9098 18.8283 38.9098 18.1943C38.9098 17.5603 38.3921 17.0464 37.7535 17.0464C37.1149 17.0464 36.5972 17.5603 36.5972 18.1943C36.5972 18.8283 37.1149 19.3423 37.7535 19.3423Z" fill="white"/>
<path d="M34.6979 19.8343C35.2681 19.8343 35.7303 19.3754 35.7303 18.8094C35.7303 18.2433 35.2681 17.7844 34.6979 17.7844C34.1278 17.7844 33.6655 18.2433 33.6655 18.8094C33.6655 19.3754 34.1278 19.8343 34.6979 19.8343Z" fill="white"/>
<path d="M31.8072 19.4652C32.2861 19.4652 32.6744 19.0797 32.6744 18.6043C32.6744 18.1288 32.2861 17.7433 31.8072 17.7433C31.3282 17.7433 30.9399 18.1288 30.9399 18.6043C30.9399 19.0797 31.3282 19.4652 31.8072 19.4652Z" fill="white"/>
<path d="M29.4119 18.3992C29.868 18.3992 30.2378 18.0321 30.2378 17.5792C30.2378 17.1264 29.868 16.7593 29.4119 16.7593C28.9557 16.7593 28.5859 17.1264 28.5859 17.5792C28.5859 18.0321 28.9557 18.3992 29.4119 18.3992Z" fill="white"/>
<path d="M27.2228 17.0874C27.6334 17.0874 27.9662 16.757 27.9662 16.3494C27.9662 15.9418 27.6334 15.6115 27.2228 15.6115C26.8123 15.6115 26.4795 15.9418 26.4795 16.3494C26.4795 16.757 26.8123 17.0874 27.2228 17.0874Z" fill="white"/>
</svg>
