<svg width="60" height="25" viewBox="0 0 60 25" fill="white" xmlns="http://www.w3.org/2000/svg">
<path d="M39.7174 9.56596H40.4569L40.0927 8.05396H40.0815L39.7174 9.56596Z" fill="white"/>
<path d="M35.6133 14.0244C35.5311 14.0244 35.4471 14.0338 35.3612 14.0524V14.8364H35.5292C35.9587 14.8364 36.1735 14.6964 36.1735 14.4164C36.1735 14.1551 35.9867 14.0244 35.6133 14.0244Z" fill="white"/>
<path d="M36.2575 16.0404C36.2575 15.7604 36.0521 15.6204 35.6413 15.6204H35.3612V16.5164C35.4471 16.5351 35.5311 16.5444 35.6133 16.5444C35.8374 16.5444 35.9998 16.5034 36.1007 16.4212C36.2052 16.3391 36.2575 16.2122 36.2575 16.0404Z" fill="white"/>
<path d="M39.8414 15.7044H39.1019L39.4661 14.1924H39.4773L39.8414 15.7044Z" fill="white"/>
<path fill-rule="evenodd" clip-rule="evenodd" d="M31.757 4.78976H56.1045C56.3192 4.78976 56.4928 4.96369 56.4928 5.17773V19.8239C56.4928 20.0379 56.3192 20.2119 56.1045 20.2119H31.757C31.5423 20.2119 31.3686 20.0379 31.3686 19.8239V5.17773C31.3686 4.96369 31.5423 4.78976 31.757 4.78976ZM39.5157 10.406L39.3308 11.19H38.1656L39.5101 7.10196H40.6866L42.031 11.19H40.8434L40.6529 10.406H39.5157ZM43.7191 7.10196V10.266H45.3717V11.19H42.5707V7.10196H43.7191ZM47.1985 10.266V7.10196H46.0501V11.19H48.8512V10.266H47.1985ZM37.2939 16.1524C37.2939 16.5743 37.1557 16.886 36.8793 17.0876C36.6067 17.2855 36.166 17.3844 35.5572 17.3844C35.1016 17.3844 34.6721 17.3564 34.2688 17.3004V13.2684C34.6534 13.2124 35.0643 13.1844 35.5012 13.1844C36.6216 13.1844 37.1819 13.5391 37.1819 14.2484C37.1819 14.4874 37.1053 14.6908 36.9522 14.8588C36.799 15.0231 36.5955 15.1258 36.3415 15.1668V15.178C36.6291 15.2154 36.8588 15.3255 37.0306 15.5084C37.2061 15.6914 37.2939 15.906 37.2939 16.1524ZM38.7154 17.3284L38.9003 16.5444H40.0375L40.2279 17.3284H41.4156L40.0711 13.2404H38.8946L37.5501 17.3284H38.7154ZM44.2689 15.4804H44.2801V13.2404H45.3725V17.3284H44.2801L43.0588 15.0884H43.0476V17.3284H41.9552V13.2404H43.0476L44.2689 15.4804ZM47.3212 14.9764H47.31V13.2404H46.1896V17.3284H47.31V15.4244H47.3212L48.4305 17.3284H49.7189L48.3744 15.2004L49.6629 13.2404H48.3744L47.3212 14.9764ZM52.7471 14.3324C52.3699 14.1458 51.9871 14.0524 51.5987 14.0524C51.4232 14.0524 51.2906 14.0842 51.2009 14.1476C51.1113 14.2074 51.0665 14.2876 51.0665 14.3884C51.0665 14.5452 51.1879 14.6572 51.4306 14.7244C52.017 14.8812 52.4297 15.0698 52.6687 15.29C52.9077 15.5066 53.0272 15.7847 53.0272 16.1244C53.0272 16.5351 52.8853 16.8487 52.6015 17.0652C52.3176 17.278 51.89 17.3844 51.3186 17.3844C51.0796 17.3844 50.8219 17.3452 50.5455 17.2668C50.2729 17.1847 50.0544 17.0839 49.8901 16.9644L50.1422 16.0964C50.3326 16.2271 50.538 16.3298 50.7584 16.4044C50.9825 16.4791 51.1879 16.5164 51.3746 16.5164C51.7107 16.5164 51.8788 16.3951 51.8788 16.1524C51.8788 15.9956 51.7294 15.8743 51.4306 15.7884C50.8854 15.6316 50.4969 15.4431 50.2654 15.2228C50.0338 15.0026 49.9181 14.7244 49.9181 14.3884C49.9181 14.0188 50.0581 13.7258 50.3382 13.5092C50.6221 13.2927 51.0235 13.1844 51.5427 13.1844C52.0954 13.1844 52.5623 13.2778 52.9432 13.4644L52.7471 14.3324Z" fill="white"/>
<path d="M6.00646 15.2043C6.15948 15.3545 6.12535 15.6715 5.94701 15.7715C5.85343 15.8131 5.66655 15.855 5.52206 15.855C5.2672 15.855 5.25867 15.8466 5.25867 15.4796V15.1043H5.58151C5.75985 15.1043 5.94701 15.1459 6.00646 15.2043Z" fill="white"/>
<path d="M6.12535 16.8313C6.46526 17.1315 6.19333 17.5239 5.62389 17.5239H5.25838V16.6894H5.61535C5.81958 16.6894 6.03206 16.7478 6.12535 16.8313Z" fill="white"/>
<path d="M9.2352 17.5903C9.49034 17.6322 9.67722 17.4736 9.67722 17.2234C9.67722 17.0064 9.53273 16.9732 9.18429 17.1147C8.9209 17.215 8.95475 17.5571 9.2352 17.5903Z" fill="white"/>
<path d="M26.146 16.3725C26.2734 16.4976 26.2819 17.1402 26.1631 17.3653C26.0695 17.5323 25.7808 17.5739 25.5854 17.4488C25.3985 17.332 25.3558 16.723 25.5174 16.4808C25.6701 16.2555 25.9762 16.2055 26.146 16.3725Z" fill="white"/>
<path fill-rule="evenodd" clip-rule="evenodd" d="M2.29279 2C1.5788 2 1 2.57859 1 3.29231V21.7077C1 22.4214 1.5788 23 2.29279 23H57.9905C58.7045 23 59.2833 22.4214 59.2833 21.7077V3.29231C59.2833 2.57859 58.7045 2 57.9905 2H2.29279ZM30.7335 5.17773C30.7335 4.6127 31.1917 4.15466 31.757 4.15466H56.1045C56.6697 4.15466 57.1279 4.6127 57.1279 5.17773V19.8239C57.1279 20.3889 56.6697 20.847 56.1045 20.847H31.757C31.1917 20.847 30.7335 20.3889 30.7335 19.8239V5.17773ZM4.32369 12.5126L4.32398 5.92158H5.28424L6.23597 5.92996L6.58441 6.40555C6.77129 6.66415 7.37458 7.47347 7.91843 8.19928L8.91282 9.5258V5.92158H10.7822V12.5212L8.95492 12.4709L7.63769 10.7023C6.91521 9.72603 6.28632 8.86673 6.23541 8.7916C6.17596 8.7081 6.15889 9.28367 6.17596 10.5853L6.21009 12.5126H4.32369ZM12.0566 12.5126H16.3903V10.9275H14.096V10.0098H16.1354V8.4244H14.0875L14.1387 7.46484L16.3055 7.41457V5.92105H12.0566V12.5126ZM16.9007 7.41992V5.92668H22.6787V7.42857H20.8094V12.5179H18.7706L18.7535 9.99001L18.7279 7.47019L16.9007 7.41992ZM15.1156 18.358H16.382L16.4332 16.9229L16.7307 17.6155L17.0365 18.3161L18.4473 18.3664L18.0138 17.5738L17.5888 16.7813L17.9629 16.1471C18.1753 15.7966 18.3451 15.4964 18.3451 15.4712C18.3451 15.4461 18.0394 15.4377 17.6568 15.4545L16.9685 15.4796L16.7051 16.1055L16.4332 16.7313L16.4076 15.3713L16.3905 14.0196H15.1156V18.358ZM18.7784 14.9709C18.5574 14.6955 18.5488 14.4869 18.7698 14.2699C18.9823 14.0613 19.5771 14.0445 19.8066 14.245C19.9938 14.4118 20.002 14.829 19.8152 15.0376C19.7216 15.1379 19.56 15.1879 19.3137 15.1879C19.025 15.1879 18.9143 15.146 18.7784 14.9709ZM4.06886 18.3748L5.36903 18.3413C6.47379 18.3161 6.70333 18.2913 6.94965 18.1494C7.3746 17.8992 7.57855 17.5903 7.58708 17.1566C7.59561 16.7394 7.36607 16.414 6.92434 16.2306C6.68626 16.1303 6.68626 16.1222 6.85636 16.0722C7.15388 15.9803 7.46819 15.5383 7.46819 15.2294C7.46819 14.8624 7.14535 14.4952 6.7204 14.3701C6.53352 14.3117 5.8705 14.2698 5.22482 14.2698H4.06886V18.3748ZM8.16458 15.9552C8.19018 15.5631 8.19018 15.5631 8.57246 15.4629C9.07393 15.3213 10.0342 15.3794 10.3144 15.555C10.7478 15.8388 10.8155 16.0474 10.8497 17.2488L10.8838 18.3583H10.2805C9.73667 18.3583 9.67722 18.3416 9.67722 18.1913C9.67722 18.0411 9.66015 18.0411 9.37116 18.2329C8.67458 18.7001 7.89266 18.3164 7.89266 17.5155C7.89266 16.9148 8.30907 16.6059 9.27787 16.4808C9.69429 16.4308 9.74549 16.3722 9.57539 16.2054C9.43943 16.0722 8.9465 16.0887 8.53008 16.2306L8.46834 16.2526C8.30861 16.3097 8.17973 16.3557 8.16458 16.3557C8.14751 16.3557 8.14751 16.1806 8.16458 15.9552ZM13.1104 15.4713C12.9573 15.538 12.7961 15.6547 12.7449 15.7466C12.6683 15.8801 12.6598 15.8717 12.6513 15.6631V15.4378H11.3764V18.3578H12.643L12.6686 17.3898C12.6942 16.5638 12.7195 16.397 12.847 16.3219C12.9491 16.2552 13.0339 16.2552 13.1445 16.3219C13.2634 16.397 13.289 16.5638 13.3146 17.3898L13.3402 18.3578H14.623L14.5889 17.2064C14.5633 16.4638 14.5124 15.9798 14.4358 15.8298C14.2151 15.3961 13.6542 15.2462 13.1104 15.4713ZM21.9827 15.6715C22.1102 15.5548 22.2717 15.438 22.3397 15.4129C22.5693 15.3294 22.9686 15.3545 23.1899 15.4623C23.5895 15.6545 23.6999 16.0298 23.6999 17.248V18.3575H22.4336L22.4079 17.328C22.3824 16.3219 22.3822 16.3135 22.1784 16.2884C21.83 16.2384 21.7449 16.4554 21.7449 17.4566V18.3578H20.5554V15.4378H21.1502C21.7364 15.4378 21.7449 15.4378 21.7449 15.6631V15.8885L21.9827 15.6715ZM24.8714 15.5297C24.0642 15.9469 23.8858 17.4485 24.5571 18.1076C24.965 18.508 25.6789 18.5416 26.0612 18.1827L26.2481 18.0157V18.2327C26.2481 18.3494 26.1545 18.5413 26.0271 18.6667C25.8317 18.8585 25.7637 18.8753 25.2878 18.8418C24.9988 18.8166 24.6931 18.775 24.6166 18.7334C24.4806 18.6834 24.4635 18.725 24.4635 19.1339C24.4635 19.6846 24.523 19.7178 25.3982 19.7097C26.163 19.7097 26.6474 19.5511 27.0212 19.1841C27.4376 18.7753 27.5227 18.3748 27.5227 16.7813V15.4381H26.8852C26.3585 15.4381 26.2478 15.4632 26.2478 15.5715C26.2478 15.6799 26.2054 15.6715 26.0268 15.5299C25.7381 15.3129 25.2878 15.3129 24.8714 15.5297ZM18.6842 18.358V15.438H19.9591V18.358H18.6842Z" fill="white"/>
</svg>
