<svg width="82" height="25" viewBox="0 0 82 25" fill="none" xmlns="http://www.w3.org/2000/svg">
<g clip-path="url(#clip0_3_17778)">
<path fill-rule="evenodd" clip-rule="evenodd" d="M13.2729 0C17.1878 1.65282 21.0665 3.40435 24.977 5.06767C24.9981 6.16186 24.9875 7.25604 24.9875 8.3523C17.2106 8.3481 9.43169 8.35026 1.65265 8.35026C1.64004 7.26444 1.65686 6.18075 1.63379 5.09498C5.50666 3.38755 9.38339 1.66962 13.2729 0Z" fill="white"/>
<path fill-rule="evenodd" clip-rule="evenodd" d="M44.3027 6.51885C44.8134 6.51885 45.3255 6.51675 45.8382 6.51465C46.7728 8.12754 47.6546 9.76985 48.6039 11.3744C48.5936 9.75314 48.6021 8.13391 48.5955 6.51465C49.0282 6.51675 49.4588 6.51885 49.8894 6.51885C49.8997 8.82694 49.8873 11.135 49.8978 13.4431C49.402 13.4409 48.9064 13.4368 48.4127 13.4326C47.4951 11.7755 46.5478 10.1332 45.6028 8.49093C45.6238 10.1416 45.6049 11.7902 45.6216 13.4409H44.2944C44.3051 11.135 44.2923 8.82694 44.3027 6.51885Z" fill="white"/>
<path fill-rule="evenodd" clip-rule="evenodd" d="M51.2589 6.51885C51.7398 6.51885 52.2208 6.51675 52.7038 6.51675C52.6977 7.48701 52.6996 8.45934 52.6996 9.42964C53.5796 8.44889 54.489 7.49542 55.3838 6.52725C55.9989 6.51885 56.6143 6.51465 57.2318 6.51465C56.3037 7.45133 55.2219 8.32083 54.3986 9.3435C55.3397 10.7087 56.3497 12.0318 57.318 13.38C56.7237 13.3423 55.9906 13.4535 55.434 13.2834C54.6948 12.3321 54.0563 11.2925 53.3635 10.3075C53.1218 10.5406 52.8804 10.7758 52.6387 11.009C52.6303 11.7944 52.6303 12.5799 52.6368 13.3675C52.1767 13.3653 51.717 13.3633 51.2589 13.3633C51.2612 11.0825 51.2568 8.79967 51.2589 6.51885Z" fill="white"/>
<path fill-rule="evenodd" clip-rule="evenodd" d="M2.97803 9.21692C4.67078 9.23374 6.36354 9.21271 8.05413 9.22953C8.05618 9.63485 8.05618 10.0402 8.05811 10.4477C7.76006 10.4539 7.46189 10.4603 7.16361 10.4665C7.1552 13.5411 7.15941 16.6137 7.16156 19.6883C7.45769 19.6925 7.75585 19.6967 8.05197 19.7009L8.05811 20.8413C6.36558 20.8602 4.67078 20.8392 2.97803 20.8539C2.98019 20.4612 2.98019 20.0664 2.98019 19.6715C3.29301 19.6821 3.60595 19.6905 3.91684 19.6989C3.92105 16.6157 3.91866 13.5327 3.91866 10.4497C3.60595 10.4539 3.29301 10.4581 2.98019 10.4623C2.98019 10.0465 2.98019 9.63281 2.97803 9.21692Z" fill="white"/>
<path fill-rule="evenodd" clip-rule="evenodd" d="M10.8073 9.2401C12.4811 9.18965 14.1612 9.24635 15.8369 9.21692C15.8369 9.63065 15.8392 10.0465 15.8392 10.4603C15.5536 10.4581 15.2657 10.4539 14.9803 10.4519C14.9676 13.5349 14.9884 16.6179 14.9676 19.7009C15.2593 19.6905 15.5494 19.6799 15.8392 19.6695V20.856C14.1547 20.8455 12.4727 20.8476 10.7905 20.8539C10.7905 20.4675 10.7905 20.081 10.7881 19.6947C11.0758 19.6925 11.3617 19.6905 11.6494 19.6905C11.6557 16.6157 11.6429 13.5391 11.6557 10.4645C11.3679 10.4623 11.0824 10.4581 10.7944 10.4561C10.7905 10.0507 10.7776 9.64326 10.8073 9.2401Z" fill="white"/>
<path fill-rule="evenodd" clip-rule="evenodd" d="M18.5132 9.22533C20.2229 9.22112 21.9303 9.23374 23.6376 9.21692C23.6396 9.63281 23.6396 10.0486 23.6396 10.4645C23.3373 10.4623 23.0369 10.4581 22.7347 10.4561C22.7347 13.5369 22.7324 16.6179 22.7347 19.7009C23.0369 19.6925 23.3393 19.6841 23.6417 19.6757C23.6396 20.0706 23.6396 20.4653 23.6376 20.8581C21.9303 20.8455 20.2206 20.8476 18.5132 20.856C18.511 20.4654 18.509 20.0726 18.5068 19.6799C18.824 19.6863 19.139 19.6925 19.4561 19.6988C19.4437 16.6157 19.4541 13.5349 19.4499 10.4539C19.1369 10.4561 18.8219 10.4603 18.509 10.4645C18.509 10.0507 18.511 9.63906 18.5132 9.22533Z" fill="white"/>
<path fill-rule="evenodd" clip-rule="evenodd" d="M39.1855 10.8056C39.4249 10.1188 39.6663 9.43218 39.8954 8.74119C39.9751 8.49984 40.0568 8.25815 40.1367 8.01657C40.4433 8.94277 40.7186 9.87943 41.0253 10.8056H39.1855ZM40.9286 6.51711C40.3931 6.51501 39.849 6.49191 39.3179 6.54442C38.442 8.78323 37.7026 11.106 36.8774 13.3678C37.3689 13.3657 37.8601 13.3594 38.3516 13.3531C38.5007 12.8931 38.6497 12.4333 38.7968 11.9733C39.6641 11.9691 40.5294 11.9691 41.3968 11.9651C41.5314 12.4585 41.6658 12.9498 41.8045 13.4435C42.3166 13.4413 42.8312 13.4392 43.346 13.4413C42.5183 11.1416 41.7307 8.82516 40.9286 6.51711Z" fill="white"/>
<path fill-rule="evenodd" clip-rule="evenodd" d="M34.0329 12.1052C33.2999 12.3214 32.4472 12.208 31.687 12.2206C31.6828 11.5779 31.6807 10.9374 31.6828 10.2968C32.5271 10.3305 33.6297 10.175 34.392 10.5887C34.8057 11.0403 34.6272 11.8846 34.0329 12.1052ZM34.0372 7.78923C34.6314 7.98877 34.5747 8.95701 34.0077 9.13337C33.2706 9.31813 32.445 9.23836 31.6891 9.24473C31.6848 8.73646 31.6828 8.22614 31.6828 7.71787C32.4534 7.73674 33.2811 7.6297 34.0372 7.78923ZM35.0662 9.70255C35.6941 9.17962 35.9357 8.79736 35.8181 7.94468C35.6963 6.97859 34.7468 6.53758 33.8733 6.46618C32.6907 6.39687 31.4999 6.45988 30.3135 6.43887C30.3409 8.74691 30.324 11.055 30.324 13.363C31.5673 13.3484 32.8148 13.3988 34.0558 13.3421C34.6104 13.319 35.1103 13.1488 35.4715 12.7121C36.2609 11.8321 36.1918 10.28 35.0662 9.70255Z" fill="white"/>
<path fill-rule="evenodd" clip-rule="evenodd" d="M61.841 15.2554C62.448 15.6713 62.5845 16.276 62.7462 16.9502C62.299 16.9523 61.8516 16.9523 61.4042 16.9481C61.192 16.5847 61.087 16.2089 60.6564 16.0514C60.1967 15.9149 59.6359 15.8939 59.1779 16.0492C58.6951 16.2614 58.4661 16.8095 58.7936 17.2611C59.8415 17.8343 61.2131 17.8259 62.2504 18.414C62.9749 18.8697 63.0274 19.7917 62.8471 20.5457C62.6223 21.2786 61.9942 21.7091 61.2846 21.9045C60.1586 22.2006 58.8064 22.0809 57.8634 21.3479C57.3234 20.9153 57.2605 20.3399 57.1367 19.7056C57.6009 19.7036 58.065 19.7036 58.527 19.7098C58.693 20.0606 58.7495 20.5247 59.1526 20.6843C59.747 20.8376 60.4905 20.9007 61.0764 20.6801C61.5827 20.4343 61.7739 19.7581 61.2696 19.4074C60.3101 18.8571 58.7097 18.9979 57.8025 18.2418C56.891 17.4332 57.1766 15.6691 58.2729 15.1336C59.2893 14.5708 60.8853 14.5602 61.841 15.2554Z" fill="white"/>
<path fill-rule="evenodd" clip-rule="evenodd" d="M30.0802 14.8817C31.9724 14.8398 33.8668 14.8713 35.7612 14.8649C35.7612 15.2724 35.7612 15.6799 35.7634 16.0872C35.0638 16.0788 34.3666 16.0768 33.6673 16.0768C33.6651 17.99 33.6693 19.9033 33.6673 21.8165H32.1615C32.1593 19.9033 32.1615 17.99 32.1615 16.0746C31.46 16.0788 30.7586 16.0788 30.0571 16.0788C30.0655 15.6799 30.0718 15.2808 30.0802 14.8817Z" fill="white"/>
<path fill-rule="evenodd" clip-rule="evenodd" d="M50.5506 14.8659C51.0611 14.8637 51.5712 14.8637 52.0795 14.8617C52.9933 16.4725 53.8814 18.098 54.8225 19.692C54.8475 18.0833 54.8246 16.4725 54.8349 14.8637H56.1372C56.1412 17.1824 56.1412 19.4988 56.1391 21.8174C55.6519 21.8174 55.1667 21.8174 54.6816 21.8195C53.7388 20.1709 52.8166 18.5117 51.859 16.8715C51.8319 18.5201 51.8422 20.1688 51.8527 21.8174H50.5444C50.559 19.5009 50.5464 17.1844 50.5506 14.8659Z" fill="white"/>
<path fill-rule="evenodd" clip-rule="evenodd" d="M63.9925 14.8659C65.6201 14.8595 67.2456 14.8659 68.8733 14.8617C68.8797 15.2691 68.8837 15.6765 68.8901 16.084C67.7202 16.0756 66.5507 16.0798 65.3828 16.0777C65.3807 16.609 65.3807 17.1383 65.3788 17.6675C66.3909 17.6696 67.4031 17.6696 68.4157 17.6654C68.4157 18.0581 68.4135 18.4488 68.4135 18.8415C67.4053 18.8184 66.3971 18.8205 65.3891 18.8351C65.3788 19.8012 65.3807 20.7695 65.3828 21.7354C64.9165 21.7354 64.4525 21.7354 63.9883 21.7376C63.9987 19.4463 63.9883 17.1571 63.9925 14.8659Z" fill="white"/>
<path fill-rule="evenodd" clip-rule="evenodd" d="M69.9223 14.8659C71.6004 14.8617 73.2805 14.8659 74.9585 14.8617C74.9607 15.2691 74.9605 15.6744 74.9627 16.0819C73.7404 16.0777 72.5162 16.0777 71.2919 16.0819C71.2937 16.5859 71.2937 17.0878 71.2937 17.5919C72.4152 17.5813 73.5388 17.5813 74.6604 17.5855V18.7554C73.5367 18.7554 72.413 18.7512 71.2895 18.7575C71.2919 19.3581 71.2919 19.9609 71.2895 20.5615C72.5687 20.5552 73.8475 20.5573 75.1265 20.5573C75.1286 20.9773 75.1286 21.3974 75.1308 21.8174H69.916C69.9244 19.5009 69.916 17.1824 69.9223 14.8659Z" fill="white"/>
<path fill-rule="evenodd" clip-rule="evenodd" d="M40.2789 17.9315C39.5522 18.0638 38.7689 17.9714 38.0297 17.9882C38.0317 17.3539 38.0339 16.7176 38.0339 16.0834C38.7311 16.0897 39.4638 16.0183 40.1508 16.1401C40.7787 16.4719 40.9699 17.564 40.2789 17.9315ZM41.8057 19.1306C41.6356 18.8892 41.3519 18.7191 41.1211 18.5363C42.1984 18.0365 42.4628 16.6987 41.8225 15.7473C41.4004 15.0837 40.699 14.924 39.9616 14.8799C38.8569 14.8316 37.748 14.8779 36.6414 14.8611C36.6058 17.1796 36.6498 19.4982 36.6162 21.8167H38.0441C38.0297 20.9033 38.0297 19.9897 38.0357 19.0761C38.6826 19.1517 40.033 18.8241 40.4197 19.471C40.6441 20.1892 40.5286 21.0628 40.6044 21.8167C41.1587 21.8147 41.7131 21.8167 42.2677 21.8294C41.8077 20.9347 42.2152 20.0065 41.8057 19.1306Z" fill="white"/>
<path fill-rule="evenodd" clip-rule="evenodd" d="M79.9779 17.9501C79.2576 18.0445 78.5101 17.9794 77.7832 17.9878C77.7811 17.3536 77.7811 16.7193 77.7832 16.0851C78.4993 16.0935 79.3205 15.9885 80.0075 16.2174C80.5785 16.524 80.6773 17.7295 79.9779 17.9501ZM81.5677 19.2522C81.4627 18.8783 81.0952 18.6935 80.8158 18.4582C81.1225 18.2314 81.4564 18.0571 81.637 17.7085C82.0675 16.8832 81.7798 15.7386 80.9945 15.2283C80.3811 14.8565 79.7197 14.8104 79.0183 14.8062C78.094 14.8062 77.1722 14.8144 76.2479 14.8104C76.2479 17.1184 76.2585 19.4285 76.2417 21.7366C76.7059 21.7345 77.1699 21.7324 77.6344 21.7303C77.6236 20.8125 77.6236 19.8927 77.6299 18.9749C78.3082 19.0295 79.3606 18.8111 79.9254 19.2374C80.3057 19.9284 80.1081 20.9512 80.2595 21.7324C80.8158 21.7324 81.3703 21.7366 81.9269 21.7534C81.5575 20.928 81.801 20.0899 81.5677 19.2522Z" fill="white"/>
<path fill-rule="evenodd" clip-rule="evenodd" d="M45.439 19.1705C45.7644 18.301 46.006 17.4001 46.365 16.5433C46.8208 17.3181 46.9447 18.3305 47.2744 19.1726C46.6612 19.1705 46.0501 19.1705 45.439 19.1705ZM47.1422 14.8547C46.6381 14.8568 46.1278 14.8379 45.626 14.8862C45.4494 15.0794 45.3759 15.3755 45.2793 15.6171C44.5737 17.6899 43.8616 19.7606 43.1099 21.8188C43.6034 21.8168 44.0969 21.8168 44.5905 21.8168C44.748 21.3442 44.9077 20.8738 45.0693 20.4013C45.9303 20.3991 46.7914 20.3991 47.6525 20.4013C47.7847 20.8717 47.9171 21.3421 48.0496 21.8146C48.5639 21.8168 49.0784 21.8168 49.5931 21.8188C48.7488 19.5066 47.9927 17.1649 47.1422 14.8547Z" fill="white"/>
<path fill-rule="evenodd" clip-rule="evenodd" d="M1.64697 21.7963C9.42805 21.8068 17.2091 21.7984 24.99 21.8005C24.99 22.1911 24.99 22.5838 24.9924 22.9745C17.2111 22.9682 9.43021 22.9723 1.64913 22.9723C1.64697 22.5796 1.64697 22.1891 1.64697 21.7963Z" fill="white"/>
<mask id="mask0_3_17778" style="mask-type:alpha" maskUnits="userSpaceOnUse" x="0" y="23" width="27" height="2">
<path d="M0 23.8424H26.6216V25H0V23.8424Z" fill="white"/>
</mask>
<g mask="url(#mask0_3_17778)">
<path fill-rule="evenodd" clip-rule="evenodd" d="M0.00420462 23.8449C8.87739 23.8427 17.7505 23.8406 26.6216 23.8449V24.9977C17.7484 24.9977 8.87318 24.9893 0 24.9999C0.00204535 24.6156 0.00420462 24.2292 0.00420462 23.8449Z" fill="white"/>
</g>
</g>
<defs>
<clipPath id="clip0_3_17778">
<rect width="82" height="25" fill="white"/>
</clipPath>
</defs>
</svg>
