<svg width="113" height="26" viewBox="0 0 113 26" fill="none" xmlns="http://www.w3.org/2000/svg">
<g clip-path="url(#clip0_3_18334)">
<path d="M12.791 25.5C19.6946 25.5 25.291 19.9036 25.291 13C25.291 6.09641 19.6946 0.5 12.791 0.5C5.88743 0.5 0.291016 6.09641 0.291016 13C0.291016 19.9036 5.88743 25.5 12.791 25.5Z" fill="white"/>
<path d="M18.2847 11.4531C18.5301 9.81563 17.2824 8.93516 15.5777 8.34766L16.1308 6.12891L14.7808 5.79297L14.2418 7.95312C13.8871 7.86406 13.523 7.78125 13.1597 7.69844L13.7027 5.52422L12.3527 5.1875L11.7996 7.40547C11.5058 7.33828 11.2168 7.27266 10.9371 7.20234L10.9387 7.19531L9.07618 6.73047L8.7168 8.17266C8.7168 8.17266 9.71914 8.40234 9.69805 8.41641C10.2449 8.55313 10.3433 8.91484 10.3269 9.20234L9.69727 11.7297C9.73477 11.7391 9.78321 11.7531 9.83789 11.7742L9.69493 11.7391L8.81211 15.2797C8.74493 15.4453 8.57539 15.6945 8.19258 15.6C8.20664 15.6195 7.21133 15.3555 7.21133 15.3555L6.54102 16.9008L8.29883 17.3391C8.62539 17.4211 8.94571 17.507 9.26055 17.5875L8.70196 19.8312L10.0512 20.1672L10.6043 17.9484C10.973 18.0477 11.3308 18.1398 11.6808 18.2273L11.1293 20.4367L12.4793 20.7727L13.0379 18.5336C15.341 18.9695 17.0722 18.7937 17.8012 16.7109C18.3887 15.0344 17.7722 14.0664 16.5605 13.4359C17.4433 13.2328 18.1074 12.6523 18.2847 11.4531ZM15.1988 15.7797C14.7824 17.457 11.9582 16.55 11.0426 16.3227L11.7847 13.35C12.7004 13.5789 15.6355 14.0313 15.1988 15.7797ZM15.6168 11.4289C15.2363 12.9547 12.8863 12.1789 12.1246 11.9891L12.7965 9.29375C13.5582 9.48359 16.0137 9.8375 15.6168 11.4289Z" fill="black"/>
<path d="M41.791 25.5C48.6946 25.5 54.291 19.9036 54.291 13C54.291 6.09644 48.6946 0.5 41.791 0.5C34.8874 0.5 29.291 6.09644 29.291 13C29.291 19.9036 34.8874 25.5 41.791 25.5Z" fill="white"/>
<path fill-rule="evenodd" clip-rule="evenodd" d="M37.4372 15.5109L36.3223 15.9438L36.8598 13.7883L37.988 13.3352L39.6138 6.75H43.6208L42.4341 11.5906L43.5356 11.1445L43.0044 13.293L41.8895 13.7391L41.227 16.4602H47.2599L46.5778 19.25H36.5192L37.4372 15.5109Z" fill="black"/>
<path d="M70.791 25.5C77.6946 25.5 83.291 19.9036 83.291 13C83.291 6.09644 77.6946 0.5 70.791 0.5C63.8874 0.5 58.291 6.09644 58.291 13C58.291 19.9036 63.8874 25.5 70.791 25.5Z" fill="white"/>
<path fill-rule="evenodd" clip-rule="evenodd" d="M72.0582 14.2219V14.2203C71.9723 14.2266 71.5293 14.2531 70.541 14.2531C69.7519 14.2531 69.1965 14.2297 69.0012 14.2203V14.2227C65.9637 14.0891 63.6965 13.5602 63.6965 12.9273C63.6965 12.2953 65.9637 11.7664 69.0012 11.6305V13.6961C69.1996 13.7102 69.7683 13.7438 70.5543 13.7438C71.4973 13.7438 71.9699 13.7047 72.0582 13.6969V11.632C75.0894 11.7672 77.3512 12.2961 77.3512 12.9273C77.3512 13.5602 75.0894 14.0875 72.0582 14.2219ZM72.0582 11.4172V9.56875H76.2879V6.75H64.7715V9.56875H69.0012V11.4164C65.5637 11.5742 62.9785 12.2555 62.9785 13.0711C62.9785 13.8867 65.5637 14.5672 69.0012 14.7258V20.6492H72.0582V14.7242C75.4902 14.5664 78.0691 13.8859 78.0691 13.0711C78.0691 12.2563 75.4902 11.5758 72.0582 11.4172Z" fill="black"/>
<path d="M99.791 25.5C106.695 25.5 112.291 19.9036 112.291 13C112.291 6.09644 106.695 0.5 99.791 0.5C92.8874 0.5 87.291 6.09644 87.291 13C87.291 19.9036 92.8874 25.5 99.791 25.5Z" fill="white"/>
<path fill-rule="evenodd" clip-rule="evenodd" d="M97.6411 11.9141H101.011V13.7H97.6411V17.4641H99.7669C100.608 17.4641 101.296 17.3508 101.832 17.1227C102.368 16.8953 102.789 16.5805 103.094 16.1773C103.407 15.7581 103.619 15.2732 103.716 14.7594C103.829 14.1798 103.884 13.5904 103.88 13C103.884 12.4096 103.829 11.8202 103.716 11.2406C103.619 10.7268 103.407 10.2418 103.094 9.82266C102.789 9.41953 102.368 9.10469 101.832 8.87734C101.296 8.64922 100.608 8.53594 99.7669 8.53594H97.6411V11.9148V11.9141ZM95.4802 13.7H94.3223V11.9148H95.4802V6.75H100.596C101.542 6.75 102.36 6.91406 103.051 7.23984C103.743 7.56719 104.307 8.01328 104.745 8.57969C105.182 9.14531 105.508 9.80781 105.721 10.5664C105.935 11.325 106.041 12.1367 106.041 13C106.046 13.8221 105.939 14.6409 105.721 15.4336C105.508 16.1914 105.182 16.8547 104.744 17.4203C104.307 17.9867 103.743 18.4328 103.051 18.7602C102.36 19.0867 101.541 19.25 100.596 19.25H95.4802V13.7Z" fill="black"/>
</g>
<defs>
<clipPath id="clip0_3_18334">
<rect width="112" height="25" fill="white" transform="translate(0.291016 0.5)"/>
</clipPath>
</defs>
</svg>
