<svg width="118" height="25" viewBox="0 0 118 25" fill="none" xmlns="http://www.w3.org/2000/svg">
<path d="M42.4647 7.92285C41.6111 7.92285 40.8889 8.11977 40.298 8.44796C39.7071 8.77615 39.1819 9.23561 38.8536 9.89199H38.7223C38.7879 9.0387 38.8536 8.31668 38.8536 7.59466V3H36.293V20.7223H38.8536V14.4867C38.8536 12.9113 39.1162 11.7955 39.6414 11.0735C40.1667 10.4171 40.9546 10.0889 42.0051 10.0889C42.793 10.0889 43.3839 10.3515 43.7778 10.8109C44.1717 11.2704 44.3687 11.9924 44.3687 12.977V20.7223H46.9293V12.5832C46.8637 9.49817 45.4192 7.92285 42.4647 7.92285Z" fill="white"/>
<path d="M86.5857 7.92285C84.7473 7.92285 83.3685 8.51359 82.3836 9.62944C81.3988 10.8109 80.8735 12.3862 80.8735 14.421C80.8735 15.7338 81.1362 16.9153 81.5958 17.8998C82.0554 18.8844 82.7119 19.6721 83.5655 20.1972C84.419 20.7223 85.4038 20.9848 86.52 20.9848C88.2927 20.9848 89.7372 20.3941 90.722 19.2782C91.7069 18.0967 92.2321 16.5214 92.2321 14.421C92.2321 12.4519 91.7069 10.8766 90.722 9.69508C89.7372 8.51359 88.3584 7.92285 86.5857 7.92285ZM86.5857 18.8188C84.5503 18.8188 83.4998 17.3747 83.4998 14.421C83.4998 13.0426 83.7624 11.9924 84.222 11.2048C84.6816 10.4827 85.4695 10.0889 86.5857 10.0889C88.621 10.0889 89.6715 11.5329 89.6715 14.421C89.6058 17.3747 88.621 18.8188 86.5857 18.8188Z" fill="white"/>
<path d="M22.4395 8.97306C21.6516 8.25104 20.5355 7.92285 18.9597 7.92285C18.3031 7.92285 17.5153 7.98849 16.793 8.1854C16.0052 8.38232 15.2829 8.64487 14.6264 8.97306L15.4799 10.8766C16.0052 10.614 16.5304 10.4171 17.1213 10.2202C17.7122 10.0233 18.3031 9.95763 18.894 9.95763C19.6163 9.95763 20.2072 10.1545 20.5355 10.5484C20.8637 10.9422 21.0607 11.5329 21.0607 12.3862V13.0426L18.9597 13.1083C17.0557 13.1739 15.6769 13.5021 14.7577 14.2241C13.8385 14.8805 13.3789 15.8651 13.3789 17.1778C13.3789 18.4249 13.7072 19.3439 14.3638 20.0003C15.0203 20.6566 15.9395 20.9848 17.1213 20.9848C18.0405 20.9848 18.8284 20.8535 19.3536 20.591C19.9446 20.3284 20.5355 19.8033 21.1264 19.0157H21.192L21.7173 20.7879H23.5557V12.255C23.6213 10.8109 23.2274 9.69508 22.4395 8.97306ZM21.0607 15.8651C21.0607 16.8496 20.7981 17.6373 20.2072 18.1624C19.6163 18.6875 18.894 18.95 17.9749 18.95C17.3183 18.95 16.8587 18.8188 16.5304 18.4906C16.2021 18.1624 16.0708 17.7686 16.0708 17.1778C16.0708 16.3902 16.3334 15.7994 16.9244 15.4712C17.4496 15.0774 18.3688 14.8805 19.5506 14.8148L21.1264 14.7492C21.0607 14.7492 21.0607 15.8651 21.0607 15.8651Z" fill="white"/>
<path d="M8.06048 6.21624C8.71705 6.21624 9.37361 6.34752 9.96452 6.54443C10.5554 6.74134 11.1463 7.0039 11.6716 7.26645L12.5251 4.90348C11.1463 4.18146 9.63624 3.85327 7.99483 3.85327C6.48473 3.85327 5.1716 4.18146 3.98978 4.90348C2.87362 5.6255 1.95443 6.61007 1.36353 7.92283C0.772618 9.23559 0.444336 10.7453 0.444336 12.4519C0.444336 15.2087 1.03524 17.3091 2.34837 18.8187C3.59585 20.3284 5.36857 21.0504 7.7322 21.0504C9.30796 21.0504 10.7524 20.7879 11.9999 20.3284V17.9654C11.3433 18.1624 10.6867 18.3593 10.0302 18.4906C9.37361 18.6218 8.71705 18.6875 8.06048 18.6875C6.48473 18.6875 5.30291 18.1624 4.51504 17.1122C3.6615 16.0619 3.20191 14.4866 3.20191 12.4519C3.20191 10.4827 3.6615 8.97304 4.51504 7.85719C5.36857 6.74134 6.55039 6.21624 8.06048 6.21624Z" fill="white"/>
<path d="M33.0757 14.4867C32.6161 14.1585 31.8938 13.7647 30.909 13.3708C29.7272 12.9114 28.9393 12.5176 28.611 12.255C28.2827 11.9924 28.0858 11.6643 28.0858 11.2704C28.0858 10.4828 28.7423 10.0889 30.1211 10.0889C30.9746 10.0889 32.0908 10.3515 33.4039 10.9422L34.2575 8.90746C33.01 8.31672 31.6312 7.98853 30.2524 7.98853C28.808 7.98853 27.6918 8.31672 26.8383 8.90746C25.9848 9.4982 25.5908 10.3515 25.5908 11.4017C25.5908 12.3206 25.8534 13.0427 26.313 13.5678C26.7726 14.1585 27.7575 14.6836 29.1363 15.2743C29.8585 15.5369 30.3837 15.7995 30.7777 16.062C31.1716 16.2589 31.4342 16.5215 31.6312 16.7184C31.8282 16.9153 31.8938 17.1779 31.8938 17.506C31.8938 18.4906 31.106 19.0157 29.5302 19.0157C28.2827 19.0157 26.9696 18.6875 25.5908 17.9655V20.2628C26.5757 20.7879 27.8231 21.0505 29.4646 21.0505C31.0403 21.0505 32.2878 20.7223 33.1413 20.0659C33.9948 19.4095 34.4544 18.4906 34.4544 17.2435C34.4544 16.6527 34.3231 16.1276 34.1262 15.6682C33.8635 15.2087 33.5353 14.8149 33.0757 14.4867Z" fill="white"/>
<path d="M102.015 7.59466C102.015 8.11977 102.08 8.84179 102.212 9.76072H102.08C101.227 8.5136 100.045 7.92285 98.4692 7.92285C96.9591 7.92285 95.7773 8.5136 94.9237 9.62944C94.0702 10.7453 93.6763 12.3862 93.6763 14.4867C93.6763 16.5214 94.0702 18.1624 94.9237 19.2782C95.7773 20.3941 96.9591 20.9848 98.4692 20.9848C100.045 20.9848 101.227 20.3284 102.08 19.0813H102.212L102.671 20.7223H104.641V3H102.08L102.015 7.59466ZM102.146 14.8805C102.146 16.2589 101.883 17.3091 101.424 17.8998C100.964 18.4906 100.176 18.8188 99.1258 18.8188C98.2066 18.8188 97.4844 18.4249 97.0248 17.7029C96.5652 16.9809 96.3025 15.9307 96.3025 14.4867C96.3025 13.0426 96.5652 11.9924 97.0248 11.2048C97.4844 10.4171 98.2066 10.0889 99.1258 10.0889C100.176 10.0889 100.964 10.4171 101.424 11.0735C101.949 11.7299 102.146 12.8457 102.146 14.4867V14.8805Z" fill="white"/>
<path d="M117.313 13.6334C117.313 11.8611 116.853 10.4827 115.934 9.43253C115.015 8.44796 113.767 7.92285 112.192 7.92285C110.485 7.92285 109.106 8.51359 108.187 9.69508C107.202 10.8766 106.742 12.5175 106.742 14.5523C106.742 16.5871 107.267 18.1624 108.318 19.2782C109.368 20.3941 110.813 20.9848 112.717 20.9848C113.57 20.9848 114.293 20.9192 114.884 20.7879C115.54 20.6566 116.131 20.4597 116.788 20.1315V17.9655C116.065 18.2937 115.409 18.5562 114.818 18.6875C114.227 18.8188 113.57 18.8844 112.848 18.8844C111.798 18.8844 110.944 18.5562 110.353 17.8998C109.762 17.2435 109.434 16.3245 109.434 15.0774H117.444L117.313 13.6334ZM109.303 13.1083C109.368 12.058 109.697 11.2704 110.156 10.7453C110.616 10.2202 111.272 9.95763 112.126 9.95763C112.914 9.95763 113.57 10.2202 114.03 10.7453C114.49 11.2704 114.752 12.058 114.752 13.1083H109.303Z" fill="white"/>
<path d="M60.8482 8.11975C59.2068 8.11975 57.9593 8.71049 56.9745 9.82634C55.9896 10.9422 55.5957 12.5175 55.5957 14.5523C55.5957 15.865 55.7927 16.9809 56.2523 17.9655C56.6462 18.95 57.3028 19.672 58.0907 20.1971C58.8785 20.7223 59.7977 20.9848 60.8482 20.9848C62.4896 20.9848 63.8028 20.3941 64.722 19.2782C65.6411 18.1624 66.1007 16.5871 66.1007 14.5523C66.1007 12.5831 65.6411 11.0078 64.722 9.82634C63.8028 8.71049 62.4896 8.11975 60.8482 8.11975ZM63.8684 18.5562C63.1462 19.5408 62.1614 20.0002 60.8482 20.0002C59.5351 20.0002 58.5502 19.5408 57.828 18.5562C57.1058 17.5716 56.7775 16.2589 56.7775 14.5523C56.7775 12.8457 57.1058 11.5329 57.828 10.5484C58.5502 9.62943 59.5351 9.16996 60.8482 9.16996C62.1614 9.16996 63.1462 9.62943 63.8684 10.614C64.5906 11.5329 64.9189 12.9113 64.9189 14.6179C64.9846 16.2589 64.5906 17.5716 63.8684 18.5562Z" fill="white"/>
<path d="M75.3581 6.21628C76.0147 6.21628 76.6712 6.34755 77.2621 6.54447C77.8531 6.74138 78.444 7.00393 78.9692 7.26648L79.8884 4.96915C78.5096 4.24714 76.9995 3.91895 75.3581 3.91895C73.7824 3.91895 72.4692 4.24714 71.3531 4.96915C70.2369 5.69117 69.3177 6.67574 68.7268 7.9885C68.1359 9.30126 67.8076 10.8109 67.8076 12.5175C67.8076 15.2743 68.3985 17.3747 69.7117 18.8844C70.9591 20.3941 72.7319 21.1161 75.0955 21.1161C76.6712 21.1161 78.1157 20.8536 79.3631 20.3941V18.0311C78.7066 18.228 78.05 18.4249 77.3935 18.5562C76.7369 18.6875 76.0803 18.7531 75.4238 18.7531C73.848 18.7531 72.6662 18.228 71.8783 17.1778C71.0248 16.1276 70.6308 14.5523 70.6308 12.5175C70.6308 10.5484 71.0904 9.03871 71.944 7.92287C72.7319 6.74138 73.9137 6.21628 75.3581 6.21628Z" fill="white"/>
<path d="M51.328 19.3439C50.9997 18.8845 50.8684 18.1625 50.8684 17.2435V9.36696H54.3482V8.38239H50.8684V5.36304H50.3431L49.7522 8.18547L47.9795 8.71058V9.36696H49.7522V17.3748C49.7522 18.6219 50.0148 19.5409 50.4744 20.1316C50.9997 20.7223 51.7219 20.9849 52.7724 20.9849C53.429 20.9849 54.0855 20.9193 54.6108 20.7223V19.8034C54.0855 19.9347 53.4946 20.0003 52.8381 20.0003C52.1815 20.0003 51.6563 19.8034 51.328 19.3439Z" fill="white"/>
</svg>
