<svg width="123" height="25" viewBox="0 0 123 25" fill="none" xmlns="http://www.w3.org/2000/svg">
<path d="M25.0264 7.59254C25.0245 7.15119 25.319 6.76352 25.7444 6.64719C26.9225 6.29958 28.1439 6.12133 29.3721 6.1178C31.4883 6.15561 33.5666 7.32784 33.5666 9.74794V14.0965C33.5666 16.4788 31.4505 17.7645 29.2965 17.7645C28.2404 17.7503 27.1985 17.5186 26.2357 17.0838V21.0921C26.2377 21.2532 26.1747 21.4083 26.0609 21.5222C25.947 21.6361 25.792 21.6992 25.6311 21.6972C25.4701 21.6992 25.3151 21.6361 25.2013 21.5222C25.0875 21.4083 25.0244 21.2532 25.0264 21.0921V7.59254ZM26.2357 15.9494C27.2077 16.3506 28.2454 16.5685 29.2965 16.5923C30.8081 16.5544 32.3196 15.7982 32.3196 14.1722V9.59668C32.3196 8.0085 30.8459 7.25222 29.3721 7.25222C28.3131 7.20747 27.2538 7.33518 26.2357 7.63036V15.9494Z" fill="white"/>
<path d="M42.3341 9.67228C42.3341 8.0841 40.7848 7.25219 39.2355 7.25219C38.3372 7.21866 37.4553 7.49946 36.7415 8.04628C36.5395 8.23551 36.2255 8.23551 36.0235 8.04628L35.9857 7.97066C35.8739 7.87394 35.8128 7.73103 35.8202 7.58329C35.8275 7.43554 35.9026 7.29944 36.0235 7.21438C36.9816 6.46193 38.1689 6.06147 39.3867 6.07996C41.5406 6.07996 43.5812 7.29 43.5812 9.67228V16.1763C43.5925 16.7034 43.2275 17.1639 42.712 17.2729C41.495 17.6119 40.2337 17.7649 38.971 17.7267C36.7793 17.6888 35.041 16.5922 35.041 14.2478C35.0788 11.7142 37.1949 10.7311 39.3489 10.7311C40.3702 10.7368 41.3818 10.929 42.3341 11.2983V9.67228ZM42.3341 12.3571C41.3874 12.0197 40.3916 11.8408 39.3867 11.8277C37.724 11.8277 36.2502 12.3949 36.2502 14.2856C36.2502 15.9872 37.4595 16.63 39.0088 16.6679C40.1276 16.7066 41.2464 16.5921 42.3341 16.3275V12.3571Z" fill="white"/>
<path d="M98.9403 9.67228C98.9403 8.0841 97.391 7.25219 95.8417 7.25219C94.9433 7.21866 94.0614 7.49946 93.3476 8.04628C93.1457 8.23551 92.8316 8.23551 92.6297 8.04628L92.5541 7.97066C92.4422 7.87394 92.3811 7.73103 92.3885 7.58329C92.3959 7.43554 92.4709 7.29944 92.5919 7.21438C93.55 6.46193 94.7372 6.06147 95.955 6.07996C98.109 6.07996 100.15 7.29 100.15 9.67228V16.1763C100.161 16.7034 99.7959 17.1639 99.2804 17.2729C98.0633 17.6119 96.8021 17.7649 95.5394 17.7267C93.3476 17.6888 91.6094 16.5922 91.6094 14.2478C91.6472 11.7142 93.7633 10.7311 95.9172 10.7311C96.9382 10.7405 97.9492 10.9326 98.9025 11.2983V9.67228H98.9403ZM98.9403 12.3571C97.9936 12.0197 96.9977 11.8408 95.9928 11.8277C94.3301 11.8277 92.8564 12.3949 92.8564 14.2856C92.8564 15.9872 94.0656 16.63 95.6149 16.6679C96.7337 16.7066 97.8525 16.5921 98.9403 16.3275V12.3571Z" fill="white"/>
<path d="M46.8684 20.0333C47.0835 19.853 47.3922 19.8375 47.6242 19.9955C48.3691 20.5378 49.273 20.8171 50.1938 20.7896C51.8565 20.7896 53.368 19.8821 53.368 18.067V16.9704C52.4233 17.5754 51.3274 17.6889 50.2316 17.6889C48.0399 17.7267 45.8481 16.3654 45.8481 13.9453V6.87407C45.8561 6.56416 46.1053 6.31481 46.415 6.30686H46.5283C46.838 6.31481 47.0872 6.56416 47.0952 6.87407V14.0209C47.0952 15.6847 48.6445 16.5922 50.1938 16.5922C51.2759 16.5927 52.3455 16.3606 53.3302 15.9116V6.83625C53.3382 6.52634 53.5873 6.27699 53.897 6.26904H53.9726C54.2823 6.27699 54.5315 6.52634 54.5394 6.83625V18.1048C54.5394 20.714 52.4989 21.9998 50.1938 21.9998C48.9895 22.0085 47.8129 21.6381 46.8306 20.9409C46.5971 20.6775 46.6138 20.2764 46.8684 20.0333Z" fill="white"/>
<path d="M112.582 20.0333C112.797 19.853 113.106 19.8375 113.338 19.9955C114.083 20.5378 114.986 20.8171 115.907 20.7896C117.57 20.7896 119.081 19.8821 119.081 18.067V16.9704C118.137 17.5754 117.041 17.6889 115.945 17.6889C113.753 17.7267 111.562 16.3654 111.562 13.9453V6.87407C111.569 6.56416 111.819 6.31481 112.128 6.30686H112.242C112.551 6.31481 112.801 6.56416 112.809 6.87407V14.0209C112.809 15.6847 114.358 16.5922 115.907 16.5922C116.989 16.5927 118.059 16.3606 119.044 15.9116V6.83625C119.052 6.52634 119.301 6.27699 119.61 6.26904H119.686C119.996 6.27699 120.245 6.52634 120.253 6.83625V18.1048C120.253 20.714 118.212 21.9998 115.907 21.9998C114.703 22.0085 113.526 21.6381 112.544 20.9409C112.31 20.6775 112.327 20.2764 112.582 20.0333Z" fill="white"/>
<path d="M64.4771 17.2729C64.2684 17.2729 64.0993 17.1036 64.0993 16.8948V9.67232C64.0993 7.85726 62.4366 7.02535 60.9251 7.02535C59.8341 7.05444 58.7579 7.28521 57.7508 7.706L57.5997 7.78163V16.9704C57.5997 17.1793 57.4305 17.3486 57.2218 17.3486C57.0131 17.3486 56.8439 17.1793 56.8439 16.9704V7.63037C56.8369 7.32737 57.0411 7.06012 57.3352 6.98754C58.4902 6.57916 59.7008 6.34963 60.9251 6.30688C62.89 6.3447 64.855 7.40349 64.855 9.67232V16.8948C64.8618 16.997 64.8242 17.0972 64.7518 17.1696C64.6794 17.242 64.5793 17.2797 64.4771 17.2729Z" fill="white"/>
<path d="M79.9707 17.5377C79.1405 17.5832 78.3344 17.2494 77.779 16.6301C77.2878 16.0629 77.061 15.1932 77.061 14.1344V4.30279C77.072 4.14048 77.2011 4.01125 77.3633 4.00027C77.5186 3.99359 77.6517 4.11012 77.6656 4.26497L77.8168 6.53381H79.9329C80.0999 6.53381 80.2352 6.66925 80.2352 6.83632C80.2352 7.00339 80.0999 7.13883 79.9329 7.13883H77.8168V14.1344C77.8168 15.9495 78.6481 16.9326 80.1597 16.9326H80.2352C80.3212 16.9242 80.4068 16.952 80.4714 17.0095C80.536 17.0669 80.5736 17.1487 80.5753 17.2352C80.582 17.3905 80.4656 17.5237 80.3108 17.5377H79.9707Z" fill="white"/>
<path d="M102.341 15.0797C102.574 14.9249 102.886 14.9742 103.059 15.1932C103.855 16.063 104.98 16.5572 106.158 16.5545C107.405 16.5545 108.652 16.0629 108.652 14.5125C108.652 12.9622 107.254 12.6218 106.082 12.3949C104.269 12.0546 102.19 11.5252 102.19 9.21858C102.19 6.91193 104.382 6.04221 106.158 6.04221C107.096 6.01879 108.019 6.28265 108.803 6.79848C109.062 6.998 109.113 7.36878 108.916 7.63039L108.879 7.6682C108.69 7.89621 108.353 7.92992 108.123 7.74383C107.535 7.37605 106.851 7.19175 106.158 7.21444C105.024 7.21444 103.362 7.66821 103.362 9.21858C103.362 10.7689 105.175 11.0336 106.271 11.2227C108.01 11.563 109.823 12.2815 109.861 14.4747C109.899 16.6679 108.047 17.6511 106.158 17.6889C104.62 17.7583 103.144 17.0827 102.19 15.8738C102.087 15.7549 102.044 15.595 102.073 15.4401C102.103 15.2851 102.201 15.1523 102.341 15.0797Z" fill="white"/>
<path d="M71.0526 17.4998C68.483 17.4998 67.0093 15.8738 67.0093 13.0756V10.542C67.0849 7.85726 68.5586 6.30688 71.0148 6.30688C73.5844 6.30688 75.0582 7.93288 75.0582 10.7311C75.0673 10.9085 75.0546 11.0863 75.0204 11.2605V11.6387C75.0235 11.78 74.9688 11.9165 74.8689 12.0164C74.769 12.1164 74.6326 12.1712 74.4913 12.168H67.7273V12.8109V13.0756C67.765 16.1007 69.5789 16.6679 70.6747 16.7435H71.0148C71.9973 16.7435 73.3577 16.441 74.0001 15.5713C74.0695 15.4935 74.1624 15.4404 74.2646 15.42C74.3062 15.415 74.3478 15.4289 74.378 15.4579L74.4536 15.4957C74.5447 15.5425 74.6129 15.6244 74.6425 15.7226C74.6705 15.812 74.6566 15.9093 74.6047 15.9873C73.8489 16.9704 72.413 17.3864 71.3171 17.462H71.0904C71.0904 17.4829 71.0735 17.4998 71.0526 17.4998ZM71.0526 7.02535C68.9743 7.02535 67.765 8.38665 67.765 10.7689V11.6765H74.3024V10.7311C74.3024 8.38665 73.131 7.02535 71.0526 7.02535Z" fill="white"/>
<path d="M90.3248 10.769C90.3248 7.85733 88.7755 6.08008 86.0547 6.08008C83.4474 6.08008 81.8602 7.78171 81.7847 10.5421V13.0757C81.7847 15.9873 83.334 17.7646 86.0547 17.7646H86.357C87.6796 17.689 89.0778 17.1974 89.7958 16.2142C89.9024 16.0811 89.9389 15.905 89.894 15.7405C89.8492 15.576 89.7284 15.4428 89.569 15.3823L89.4935 15.3445C89.2516 15.2266 88.9598 15.3077 88.8133 15.5336C88.2465 16.2898 87.0372 16.6302 86.017 16.6302H85.7146C84.1653 16.5167 82.9939 15.5336 82.9939 13.1891V12.5084H89.4935C89.9109 12.5084 90.2492 12.1699 90.2492 11.7522V11.374C90.3138 11.1793 90.3395 10.9737 90.3248 10.769ZM83.0317 11.4497V10.769C83.0317 8.27329 84.3543 7.29012 86.0547 7.29012C87.7552 7.29012 89.0778 8.27329 89.0778 10.769V11.4497H83.0317Z" fill="white"/>
<path d="M6.42132 4.51463L16.3596 7.31286L7.36602 16.3126L5.21209 5.68686C5.1366 5.35129 5.24115 5.00059 5.48804 4.76125C5.73493 4.52192 6.08853 4.42848 6.42132 4.51463Z" fill="white"/>
<path d="M2.75544 15.1404L7.3656 16.3126L16.3592 7.31287L2.60428 13.2875C2.21177 13.4489 1.96872 13.8459 2.00325 14.2692C2.03778 14.6924 2.34195 15.0447 2.75544 15.1404Z" fill="white"/>
<path d="M19.1552 17.2201L16.3588 7.27502L7.36523 16.2747L17.9837 18.4301C18.3199 18.5104 18.6734 18.4073 18.9138 18.1589C19.1543 17.9106 19.246 17.5537 19.1552 17.2201Z" fill="white"/>
<path d="M8.49956 20.9259L7.32812 16.3126L16.3217 7.31287L10.3512 21.0771C10.1862 21.4655 9.79116 21.7045 9.37082 21.6702C8.95049 21.6358 8.5994 21.3359 8.49956 20.9259Z" fill="white"/>
<path d="M7.3656 16.3126L6.4209 11.6237L16.3592 7.31287L7.3656 16.3126Z" fill="white"/>
<path d="M7.36523 16.3126L12.051 17.2579L16.3588 7.31287L7.36523 16.3126Z" fill="white"/>
</svg>
