<svg width="75" height="25" viewBox="0 0 75 25" fill="none" xmlns="http://www.w3.org/2000/svg">
<path fill-rule="evenodd" clip-rule="evenodd" d="M71 25H4C1.79 25 0 23.21 0 21V4C0 1.79 1.79 0 4 0H71C73.21 0 75 1.79 75 4V21C75 23.21 73.21 25 71 25ZM27.51 17.5V9.29001H24.55V7.50001H32.42V9.30001H29.46V17.5H27.51ZM32.1999 10.23V17.49H34.0599V14.19C34.0599 12.58 34.8699 12.05 35.7899 12.05H36.4099V10.23H35.6999C35.0699 10.23 34.4799 10.41 34.0099 11.38V10.23H32.1999ZM37.4399 14.87V10.24H39.2999V14.43C39.2999 15.36 39.7799 15.98 40.6299 15.98C41.45 15.98 42.06 15.36 42.06 14.44V10.23H43.92V17.5H42.12V16.58C41.65 17.31 40.93 17.66 40.02 17.66C38.49 17.67 37.4399 16.64 37.4399 14.87ZM46.55 15.08L44.91 15.45C45.01 16.34 45.83 17.64 48.03 17.65C50.05 17.65 51 16.5 51 15.33C51 14.26 50.4 13.53 49.15 13.23L47.55 12.85C47.15 12.75 46.89 12.56 46.89 12.22C46.89 11.83 47.33 11.56 47.92 11.56C48.82 11.56 49.16 12.04 49.24 12.49L50.88 12.13C50.77 11.28 49.95 10.1 47.96 10.1C46.08 10.1 45.05 11.08 45.05 12.31C45.05 13.52 45.7 14.17 47.08 14.49L48.26 14.76C48.95 14.93 49.14 15.14 49.14 15.46C49.14 15.85 48.73 16.15 48.02 16.15C47.15 16.15 46.63 15.72 46.55 15.08ZM54.83 17.5C53.58 17.5 52.79 16.79 52.79 15.46V11.85H51.58V10.23H52.79V8.58003L54.65 8.05003V10.24H56.13V11.86H54.65V15.15C54.65 15.68 54.91 15.89 55.45 15.89H56.26V17.5H54.83ZM57.48 7.50002V17.5H59.34V7.50002H57.48ZM65.5 10.24H67.5L64.43 20.11H62.43L63.28 17.51H62.27L60.2 10.24H62.2L63.78 15.96L65.5 10.24ZM12.17 11.88H7.5V7.5H20.83V11.88H16.68V17.5H12.17V15.6L15.89 11.88L12.17 8.16V11.88Z" fill="white"/>
</svg>
