<svg width="72" height="26" viewBox="0 0 72 26" fill="none" xmlns="http://www.w3.org/2000/svg">
<path fill-rule="evenodd" clip-rule="evenodd" d="M12.8477 25.5C19.7512 25.5 25.3477 19.9036 25.3477 13C25.3477 6.09644 19.7512 0.5 12.8477 0.5C5.9441 0.5 0.347656 6.09644 0.347656 13C0.347656 19.9036 5.9441 25.5 12.8477 25.5ZM12.9578 9.35896C12.9578 8.44015 13.446 7.56884 14.2705 7.08634C14.6569 6.84634 15.1453 6.74759 15.5808 6.75004C16.0186 6.75004 16.5031 6.84634 16.8921 7.08884C17.7191 7.5714 18.2048 8.44271 18.2048 9.36146C18.2048 10.2802 17.7166 11.1515 16.8921 11.634C16.4541 11.8765 15.9195 11.9728 15.4351 11.9728C14.854 11.9728 14.416 12.4066 14.416 12.9878C14.416 13.7141 14.9971 14.0029 15.4351 14.0029C15.9684 14.0029 16.4541 14.0991 16.8921 14.3416C17.7191 14.8254 18.2048 15.6967 18.2048 16.6155C18.2048 17.5343 17.7165 18.4056 16.892 18.8881C16.0674 19.3706 15.0948 19.3706 14.2703 18.8881C13.4421 18.4056 12.9577 17.5356 12.9577 16.6155C12.9577 16.133 13.1032 15.6492 13.3467 15.2129C13.5876 14.7304 13.4421 14.0991 12.9577 13.8104C12.2787 13.4229 11.7441 13.8591 11.5496 14.1979C11.3086 14.6342 10.9686 15.0192 10.5306 15.2617C9.70604 15.7442 8.73343 15.7442 7.90895 15.2617C7.08208 14.7779 6.59766 13.9069 6.59766 12.9878C6.59766 12.0688 7.08459 11.1953 7.90913 10.7128C8.73368 10.2303 9.70629 10.2303 10.5308 10.7128C10.9688 11.0016 11.3088 11.3891 11.5987 11.7766C11.8886 12.2603 12.5224 12.4528 13.0068 12.1641C13.6856 11.8253 13.5903 11.149 13.3958 10.7615C13.1523 10.3277 12.9578 9.84146 12.9578 9.35896Z" fill="white"/>
<path d="M34.5241 10.9593C34.3713 10.9082 34.0487 10.8742 33.726 10.8742C32.758 10.8742 31.722 11.6595 31.722 12.6289V17.252H29.5143V9.00342H31.6371V9.83678C32.1296 9.22452 33.0297 8.83332 34.0316 8.83332C34.2822 8.83511 34.5321 8.85789 34.7789 8.90138L34.5241 10.9593Z" fill="white"/>
<path d="M37.0203 4.66666C37.8185 4.66666 38.4638 5.27892 38.4638 6.07828C38.4638 6.87763 37.8185 7.48985 37.0203 7.48985C36.2221 7.48985 35.5767 6.87763 35.5767 6.07828C35.5767 5.27892 36.2221 4.66666 37.0203 4.66666ZM38.1241 17.252H35.9164V9.00355H38.1241V17.252Z" fill="white"/>
<path d="M44.6455 8.83294C43.7693 8.82184 42.9166 9.1168 42.2341 9.66709V9.0034H40.1107V21.3333H42.3187V16.6739C42.9466 17.1706 43.7265 17.435 44.5266 17.4223C45.7494 17.4223 46.9209 16.8777 47.6512 16.0273C48.2969 15.2788 48.6867 14.2589 48.6867 13.1362C48.6867 10.7042 46.8867 8.83294 44.6455 8.83294ZM44.3771 15.415C43.0057 15.415 42.1044 14.4672 42.1044 13.1434C42.1044 11.8196 43.0057 10.8719 44.3771 10.8719C45.5477 10.8719 46.4969 11.8891 46.4969 13.1434C46.4969 14.3978 45.5477 15.415 44.3771 15.415Z" fill="white"/>
<path d="M62.0867 17.2522H59.8789V5.17696H62.0867V17.2522Z" fill="white"/>
<path d="M71.0877 15.9423C70.2893 16.8948 68.9818 17.422 67.708 17.422C65.2455 17.422 63.3944 15.7213 63.3944 13.1362C63.3944 10.8402 64.9568 8.83332 67.4024 8.83332C69.6782 8.83332 71.2913 10.7551 71.2913 13.0512C71.2928 13.262 71.2755 13.4726 71.2402 13.6805H65.5342C65.6531 14.8369 66.5872 15.6362 67.759 15.6362C68.6931 15.6362 69.4399 15.109 69.8307 14.6839L71.0877 15.9423ZM69.0329 12.0647C68.9645 11.3334 68.3023 10.6191 67.4024 10.6191C66.4852 10.6191 65.738 11.3164 65.6361 12.0647H69.0329Z" fill="white"/>
<path d="M54.53 8.83294C53.6538 8.82184 52.8012 9.1168 52.1186 9.66709V9.0034H49.9953V21.3333H52.2032V16.6739C52.8311 17.1706 53.611 17.435 54.4112 17.4223C55.634 17.4223 56.8055 16.8777 57.5358 16.0273C58.1814 15.2788 58.5713 14.2589 58.5713 13.1362C58.5713 10.7042 56.7712 8.83294 54.53 8.83294ZM54.2617 15.415C52.8903 15.415 51.9889 14.4672 51.9889 13.1434C51.9889 11.8196 52.8903 10.8718 54.2617 10.8718C55.4323 10.8718 56.3814 11.8891 56.3814 13.1434C56.3814 14.3978 55.4323 15.415 54.2617 15.415Z" fill="white"/>
</svg>
