<svg width="171" height="26" viewBox="0 0 171 26" fill="none" xmlns="http://www.w3.org/2000/svg">
<g clip-path="url(#clip0_3_18314)">
<path d="M12.791 25.5C19.6946 25.5 25.291 19.9036 25.291 13C25.291 6.09641 19.6946 0.5 12.791 0.5C5.88743 0.5 0.291016 6.09641 0.291016 13C0.291016 19.9036 5.88743 25.5 12.791 25.5Z" fill="white"/>
<path d="M16.7772 8.72109C16.1858 7.18047 14.7025 7.04141 12.9754 7.38516L12.3603 5.1875L11.0554 5.57109L11.6545 7.71172C11.3115 7.81172 10.9625 7.92266 10.6157 8.03203L10.0135 5.87734L8.70937 6.26016L9.32293 8.45781C9.04245 8.54687 8.76653 8.63437 8.49595 8.71406L8.49367 8.70625L6.69336 9.23516L7.09351 10.6648C7.09351 10.6648 8.05235 10.3617 8.04092 10.3852C8.56988 10.2297 8.82979 10.4938 8.95556 10.7508L9.65678 13.2539C9.6926 13.2438 9.74062 13.2312 9.79702 13.2227L9.65906 13.2633L10.64 16.7711C10.6644 16.9484 10.6431 17.2492 10.2741 17.3586C10.2948 17.3688 9.32446 17.6367 9.32446 17.6367L9.51272 19.3109L11.2109 18.8109C11.5272 18.7195 11.8397 18.6336 12.1454 18.5453L12.7681 20.768L14.0715 20.3852L13.4564 18.1859C13.806 18.0909 14.1546 17.9919 14.5021 17.8891L15.1134 20.0789L16.419 19.6953L15.7986 17.4766C17.9564 16.7023 19.3336 15.6844 18.9335 13.5156C18.6118 11.7703 17.6195 11.2406 16.2879 11.3C16.9343 10.6828 17.2125 9.84844 16.7772 8.72188V8.72109ZM16.2818 14.0102C16.7468 15.6719 13.919 16.2984 13.0349 16.5594L12.2109 13.6141C13.0951 13.3539 15.7963 12.2781 16.2811 14.0109L16.2818 14.0102ZM14.512 10.0336C14.9343 11.5453 12.5707 12.0492 11.8336 12.2656L11.0867 9.59453C11.823 9.37812 14.0707 8.45781 14.512 10.0344V10.0336Z" fill="black"/>
<path d="M41.791 25.5C48.6946 25.5 54.291 19.9036 54.291 13C54.291 6.09641 48.6946 0.5 41.791 0.5C34.8874 0.5 29.291 6.09641 29.291 13C29.291 19.9036 34.8874 25.5 41.791 25.5Z" fill="white"/>
<path d="M41.791 3.625V10.5547L47.5052 13.1719L41.791 3.625Z" fill="black" fill-opacity="0.602"/>
<path d="M42.1701 3.625L36.4551 13.1719L42.1701 10.5547V3.625Z" fill="black"/>
<path d="M41.791 17.9625V22.6711L47.509 14.5625L41.791 17.9625Z" fill="black" fill-opacity="0.602"/>
<path d="M42.1701 22.6711V17.9617L36.4551 14.5625L42.1701 22.6711Z" fill="black"/>
<path d="M41.791 16.6728L47.5052 13.2719L41.791 10.6562V16.6728Z" fill="black" fill-opacity="0.2"/>
<path d="M36.4551 13.2719L42.1701 16.6728V10.6562L36.4551 13.2719Z" fill="black" fill-opacity="0.602"/>
<path d="M70.791 25.5C77.6946 25.5 83.291 19.9036 83.291 13C83.291 6.09641 77.6946 0.5 70.791 0.5C63.8874 0.5 58.291 6.09641 58.291 13C58.291 19.9036 63.8874 25.5 70.791 25.5Z" fill="white"/>
<path d="M76.3144 6.75H78.5722L73.873 11.4039C73.0515 12.2134 71.9444 12.6671 70.791 12.6671C69.6376 12.6671 68.5305 12.2134 67.709 11.4039L63.0058 6.75H65.2676L68.8379 10.2836C69.3578 10.7968 70.0589 11.0845 70.7894 11.0845C71.52 11.0845 72.2211 10.7968 72.741 10.2836L76.3144 6.75ZM65.2402 19.6898H62.9785L67.709 15.0078C68.5305 14.1984 69.6376 13.7446 70.791 13.7446C71.9444 13.7446 73.0515 14.1984 73.873 15.0078L78.6035 19.6891H76.3418L72.7441 16.125C72.2242 15.6118 71.5231 15.3241 70.7926 15.3241C70.062 15.3241 69.3609 15.6118 68.841 16.125L65.2394 19.6898H65.2402Z" fill="black"/>
<path d="M99.791 25.5C106.695 25.5 112.291 19.9036 112.291 13C112.291 6.09644 106.695 0.5 99.791 0.5C92.8874 0.5 87.291 6.09644 87.291 13C87.291 19.9036 92.8874 25.5 99.791 25.5Z" fill="white"/>
<path d="M96.7566 11.7531L99.791 8.71875L102.827 11.7547L104.593 9.98906L99.791 5.1875L94.991 9.9875L96.7566 11.7531ZM91.9785 13L93.7441 11.2344L95.5098 13L93.7441 14.7656L91.9785 13ZM96.7566 14.2469L99.791 17.2812L102.827 14.2453L104.593 16.0102L99.791 20.8125L94.991 16.0125L94.9887 16.0102L96.7566 14.2469ZM104.072 13L105.838 11.2344L107.603 13L105.838 14.7656L104.072 13ZM101.582 12.9984H101.583V13L99.791 14.7922L98.0012 13.0031L97.998 13L98.0012 12.9977L98.3144 12.6836L98.4668 12.5312L99.791 11.2078L101.582 12.9992V12.9984Z" fill="black"/>
<path d="M128.791 25.5C135.695 25.5 141.291 19.9036 141.291 13C141.291 6.09644 135.695 0.5 128.791 0.5C121.887 0.5 116.291 6.09644 116.291 13C116.291 19.9036 121.887 25.5 128.791 25.5Z" fill="white"/>
<g filter="url(#filter0_d_3_18314)">
<path d="M128.576 5.23429C128.95 5.04133 129.407 5.48742 129.209 5.85539C129.092 6.15539 128.654 6.23508 128.431 6.00617C128.194 5.78742 128.271 5.35304 128.576 5.23351V5.23429ZM124.549 5.66086C124.776 5.56867 125.064 5.77336 125.041 6.01789C125.064 6.28195 124.736 6.47726 124.504 6.35148C124.197 6.23429 124.232 5.74367 124.549 5.66086ZM132.797 6.35851C132.442 6.31633 132.385 5.76633 132.727 5.65539C132.992 5.52883 133.236 5.76711 133.275 6.01476C133.219 6.2257 133.039 6.41945 132.797 6.35851ZM125.465 7.34679C125.846 7.11008 126.388 7.46242 126.329 7.89758C126.31 8.33586 125.717 8.59054 125.383 8.29367C125.06 8.06086 125.109 7.52648 125.465 7.34679ZM131.27 7.59836C131.439 7.16867 132.127 7.15461 132.32 7.57336C132.511 7.89914 132.276 8.30304 131.936 8.41398C131.485 8.49679 131.058 8.01711 131.27 7.59836ZM128.091 8.38976C128.087 8.01945 128.429 7.74445 128.786 7.71867C129.024 7.76554 129.282 7.86476 129.383 8.09992C129.573 8.42492 129.404 8.87101 129.063 9.02023C128.907 9.10617 128.721 9.07414 128.55 9.06398C128.29 8.93898 128.071 8.69133 128.091 8.38976ZM122.102 8.92883C122.449 8.71789 122.918 9.1007 122.786 9.47258C122.714 9.79367 122.275 9.92414 122.024 9.71945C121.757 9.52726 121.799 9.06554 122.103 8.92804L122.102 8.92883ZM134.963 8.92726C135.257 8.70226 135.744 8.96086 135.708 9.32648C135.728 9.66008 135.307 9.91242 135.015 9.74054C134.693 9.59758 134.66 9.11008 134.963 8.92804V8.92726ZM129.775 9.59211C130.261 9.42023 130.839 9.6257 131.116 10.053C131.482 10.5741 131.288 11.3678 130.72 11.6671C130.132 12.021 129.274 11.7218 129.056 11.0749C128.81 10.4968 129.169 9.77336 129.774 9.59211H129.775ZM126.921 9.64914C127.46 9.39914 128.186 9.60851 128.446 10.1507C128.753 10.6788 128.516 11.4139 127.968 11.6866C127.42 11.9936 126.646 11.7608 126.381 11.1944C126.083 10.646 126.347 9.90148 126.921 9.64914ZM124.064 10.6093C124.106 10.2679 124.433 10.0452 124.764 10.0218C124.936 10.04 125.097 10.1161 125.22 10.2378C125.344 10.3594 125.422 10.5192 125.443 10.6913C125.42 11.0428 125.144 11.385 124.766 11.3835C124.349 11.4186 123.985 11.0108 124.064 10.6093ZM132.503 10.0968C132.931 9.85226 133.524 10.2077 133.505 10.6905C133.534 11.2022 132.878 11.5624 132.453 11.2624C132.01 11.0124 132.045 10.3093 132.503 10.0968ZM125.761 11.8991C126.26 11.7639 126.832 11.9952 127.076 12.4468C127.344 12.9014 127.235 13.5327 126.818 13.8671C126.283 14.3561 125.298 14.1593 125.014 13.4921C124.686 12.8803 125.084 12.06 125.76 11.8983L125.761 11.8991ZM131.173 11.8968C131.658 11.76 132.228 11.9436 132.489 12.3788C132.835 12.8764 132.67 13.6194 132.157 13.9397C131.617 14.3124 130.785 14.1171 130.488 13.5343C130.128 12.9319 130.49 12.0803 131.173 11.8968ZM122.548 12.4639C122.979 12.3038 123.457 12.7718 123.282 13.1928C123.176 13.5757 122.627 13.7178 122.343 13.435C122.011 13.1694 122.134 12.5796 122.548 12.4639ZM134.242 13.0749C134.234 12.9029 134.294 12.7347 134.41 12.6068C134.525 12.4789 134.686 12.4018 134.858 12.3921C135.153 12.4389 135.441 12.6733 135.417 12.9897C135.445 13.4077 134.933 13.6913 134.571 13.4952C134.401 13.41 134.314 13.2389 134.242 13.0749ZM120.427 12.6718C120.686 12.56 121.007 12.7811 120.948 13.0647C120.934 13.3858 120.452 13.51 120.275 13.2413C120.119 13.0546 120.213 12.7678 120.427 12.671V12.6718ZM136.793 12.6647C136.976 12.5374 137.27 12.6288 137.342 12.8389C137.464 13.0686 137.239 13.3827 136.977 13.3444C136.608 13.3772 136.489 12.8249 136.793 12.6647ZM127.171 14.2061C127.853 14.0319 128.588 14.5921 128.592 15.2843C128.636 15.9835 127.913 16.603 127.214 16.4421C126.674 16.3561 126.249 15.8436 126.267 15.3069C126.266 14.7928 126.66 14.3147 127.171 14.2061ZM129.875 14.2053C130.568 14.0147 131.324 14.585 131.314 15.2928C131.35 15.9788 130.649 16.578 129.965 16.4413C129.321 16.36 128.846 15.6639 129.025 15.0483C129.116 14.6389 129.464 14.3061 129.875 14.2046V14.2053ZM124.66 14.6311C125.139 14.5507 125.589 15.0764 125.395 15.5249C125.253 16.003 124.546 16.1319 124.234 15.7421C123.868 15.3671 124.142 14.6827 124.66 14.6311ZM132.592 14.6522C133.021 14.4757 133.546 14.8397 133.513 15.2968C133.53 15.7991 132.882 16.146 132.464 15.8522C131.989 15.5889 132.076 14.8132 132.592 14.6522ZM134.81 16.8397C134.642 16.5327 134.946 16.1257 135.294 16.1827C135.466 16.1796 135.587 16.3132 135.697 16.4257C135.72 16.6077 135.758 16.8249 135.604 16.9647C135.396 17.2249 134.923 17.1507 134.81 16.8397ZM122.1 16.2678C122.424 16.0561 122.891 16.3725 122.817 16.7444C122.778 17.0749 122.357 17.2632 122.079 17.0757C121.781 16.9061 121.792 16.4225 122.1 16.2678ZM128.501 16.9577C128.925 16.7741 129.466 17.1374 129.425 17.5968C129.457 18.1046 128.789 18.4561 128.374 18.1514C127.913 17.8897 127.99 17.1194 128.501 16.9577ZM125.537 17.6382C125.898 17.4514 126.382 17.7741 126.349 18.1725C126.36 18.4991 126.037 18.7772 125.709 18.7288C125.438 18.7233 125.261 18.4835 125.174 18.2561C125.178 18.0085 125.282 17.7327 125.537 17.6389V17.6382ZM131.542 17.6444C131.914 17.4178 132.442 17.7428 132.407 18.1678C132.416 18.6132 131.819 18.8975 131.473 18.6053C131.139 18.3764 131.179 17.8264 131.542 17.6444ZM132.586 20.1835C132.421 19.9382 132.615 19.6421 132.883 19.5858C133.099 19.6288 133.328 19.7889 133.282 20.0343C133.251 20.3679 132.756 20.4694 132.586 20.1843V20.1835ZM124.296 19.9702C124.362 19.7749 124.521 19.5819 124.755 19.6327C125.095 19.6561 125.196 20.1608 124.898 20.3163C124.631 20.4936 124.32 20.2507 124.296 19.9702ZM128.296 20.1944C128.361 19.9053 128.74 19.7655 128.99 19.9186C129.156 19.9889 129.204 20.1702 129.246 20.3249C129.224 20.4052 129.203 20.486 129.184 20.5671C129.082 20.6858 128.949 20.8054 128.779 20.8014C128.463 20.8382 128.177 20.4858 128.296 20.1944Z" fill="black"/>
</g>
<path d="M128.576 5.23429C128.95 5.04133 129.407 5.48742 129.209 5.85539C129.092 6.15539 128.654 6.23508 128.431 6.00617C128.194 5.78742 128.271 5.35304 128.576 5.23351V5.23429ZM124.549 5.66086C124.776 5.56867 125.064 5.77336 125.041 6.01789C125.064 6.28195 124.736 6.47726 124.504 6.35148C124.197 6.23429 124.232 5.74367 124.549 5.66086ZM132.797 6.35851C132.442 6.31633 132.385 5.76633 132.727 5.65539C132.992 5.52883 133.236 5.76711 133.275 6.01476C133.219 6.2257 133.039 6.41945 132.797 6.35851ZM125.465 7.34679C125.846 7.11008 126.388 7.46242 126.329 7.89758C126.31 8.33586 125.717 8.59054 125.383 8.29367C125.06 8.06086 125.109 7.52648 125.465 7.34679ZM131.27 7.59836C131.439 7.16867 132.127 7.15461 132.32 7.57336C132.511 7.89914 132.276 8.30304 131.936 8.41398C131.485 8.49679 131.058 8.01711 131.27 7.59836ZM128.091 8.38976C128.087 8.01945 128.429 7.74445 128.786 7.71867C129.024 7.76554 129.282 7.86476 129.383 8.09992C129.573 8.42492 129.404 8.87101 129.063 9.02023C128.907 9.10617 128.721 9.07414 128.55 9.06398C128.29 8.93898 128.071 8.69133 128.091 8.38976ZM122.102 8.92883C122.449 8.71789 122.918 9.1007 122.786 9.47258C122.714 9.79367 122.275 9.92414 122.024 9.71945C121.757 9.52726 121.799 9.06554 122.103 8.92804L122.102 8.92883ZM134.963 8.92726C135.257 8.70226 135.744 8.96086 135.708 9.32648C135.728 9.66008 135.307 9.91242 135.015 9.74054C134.693 9.59758 134.66 9.11008 134.963 8.92804V8.92726ZM129.775 9.59211C130.261 9.42023 130.839 9.6257 131.116 10.053C131.482 10.5741 131.288 11.3678 130.72 11.6671C130.132 12.021 129.274 11.7218 129.056 11.0749C128.81 10.4968 129.169 9.77336 129.774 9.59211H129.775ZM126.921 9.64914C127.46 9.39914 128.186 9.60851 128.446 10.1507C128.753 10.6788 128.516 11.4139 127.968 11.6866C127.42 11.9936 126.646 11.7608 126.381 11.1944C126.083 10.646 126.347 9.90148 126.921 9.64914ZM124.064 10.6093C124.106 10.2679 124.433 10.0452 124.764 10.0218C124.936 10.04 125.097 10.1161 125.22 10.2378C125.344 10.3594 125.422 10.5192 125.443 10.6913C125.42 11.0428 125.144 11.385 124.766 11.3835C124.349 11.4186 123.985 11.0108 124.064 10.6093ZM132.503 10.0968C132.931 9.85226 133.524 10.2077 133.505 10.6905C133.534 11.2022 132.878 11.5624 132.453 11.2624C132.01 11.0124 132.045 10.3093 132.503 10.0968ZM125.761 11.8991C126.26 11.7639 126.832 11.9952 127.076 12.4468C127.344 12.9014 127.235 13.5327 126.818 13.8671C126.283 14.3561 125.298 14.1593 125.014 13.4921C124.686 12.8803 125.084 12.06 125.76 11.8983L125.761 11.8991ZM131.173 11.8968C131.658 11.76 132.228 11.9436 132.489 12.3788C132.835 12.8764 132.67 13.6194 132.157 13.9397C131.617 14.3124 130.785 14.1171 130.488 13.5343C130.128 12.9319 130.49 12.0803 131.173 11.8968ZM122.548 12.4639C122.979 12.3038 123.457 12.7718 123.282 13.1928C123.176 13.5757 122.627 13.7178 122.343 13.435C122.011 13.1694 122.134 12.5796 122.548 12.4639ZM134.242 13.0749C134.234 12.9029 134.294 12.7347 134.41 12.6068C134.525 12.4789 134.686 12.4018 134.858 12.3921C135.153 12.4389 135.441 12.6733 135.417 12.9897C135.445 13.4077 134.933 13.6913 134.571 13.4952C134.401 13.41 134.314 13.2389 134.242 13.0749ZM120.427 12.6718C120.686 12.56 121.007 12.7811 120.948 13.0647C120.934 13.3858 120.452 13.51 120.275 13.2413C120.119 13.0546 120.213 12.7678 120.427 12.671V12.6718ZM136.793 12.6647C136.976 12.5374 137.27 12.6288 137.342 12.8389C137.464 13.0686 137.239 13.3827 136.977 13.3444C136.608 13.3772 136.489 12.8249 136.793 12.6647ZM127.171 14.2061C127.853 14.0319 128.588 14.5921 128.592 15.2843C128.636 15.9835 127.913 16.603 127.214 16.4421C126.674 16.3561 126.249 15.8436 126.267 15.3069C126.266 14.7928 126.66 14.3147 127.171 14.2061ZM129.875 14.2053C130.568 14.0147 131.324 14.585 131.314 15.2928C131.35 15.9788 130.649 16.578 129.965 16.4413C129.321 16.36 128.846 15.6639 129.025 15.0483C129.116 14.6389 129.464 14.3061 129.875 14.2046V14.2053ZM124.66 14.6311C125.139 14.5507 125.589 15.0764 125.395 15.5249C125.253 16.003 124.546 16.1319 124.234 15.7421C123.868 15.3671 124.142 14.6827 124.66 14.6311ZM132.592 14.6522C133.021 14.4757 133.546 14.8397 133.513 15.2968C133.53 15.7991 132.882 16.146 132.464 15.8522C131.989 15.5889 132.076 14.8132 132.592 14.6522ZM134.81 16.8397C134.642 16.5327 134.946 16.1257 135.294 16.1827C135.466 16.1796 135.587 16.3132 135.697 16.4257C135.72 16.6077 135.758 16.8249 135.604 16.9647C135.396 17.2249 134.923 17.1507 134.81 16.8397ZM122.1 16.2678C122.424 16.0561 122.891 16.3725 122.817 16.7444C122.778 17.0749 122.357 17.2632 122.079 17.0757C121.781 16.9061 121.792 16.4225 122.1 16.2678ZM128.501 16.9577C128.925 16.7741 129.466 17.1374 129.425 17.5968C129.457 18.1046 128.789 18.4561 128.374 18.1514C127.913 17.8897 127.99 17.1194 128.501 16.9577ZM125.537 17.6382C125.898 17.4514 126.382 17.7741 126.349 18.1725C126.36 18.4991 126.037 18.7772 125.709 18.7288C125.438 18.7233 125.261 18.4835 125.174 18.2561C125.178 18.0085 125.282 17.7327 125.537 17.6389V17.6382ZM131.542 17.6444C131.914 17.4178 132.442 17.7428 132.407 18.1678C132.416 18.6132 131.819 18.8975 131.473 18.6053C131.139 18.3764 131.179 17.8264 131.542 17.6444ZM132.586 20.1835C132.421 19.9382 132.615 19.6421 132.883 19.5858C133.099 19.6288 133.328 19.7889 133.282 20.0343C133.251 20.3679 132.756 20.4694 132.586 20.1843V20.1835ZM124.296 19.9702C124.362 19.7749 124.521 19.5819 124.755 19.6327C125.095 19.6561 125.196 20.1608 124.898 20.3163C124.631 20.4936 124.32 20.2507 124.296 19.9702ZM128.296 20.1944C128.361 19.9053 128.74 19.7655 128.99 19.9186C129.156 19.9889 129.204 20.1702 129.246 20.3249C129.224 20.4052 129.203 20.486 129.184 20.5671C129.082 20.6858 128.949 20.8054 128.779 20.8014C128.463 20.8382 128.177 20.4858 128.296 20.1944Z" fill="black"/>
<path d="M157.791 25.5C164.695 25.5 170.291 19.9036 170.291 13C170.291 6.09644 164.695 0.5 157.791 0.5C150.887 0.5 145.291 6.09644 145.291 13C145.291 19.9036 150.887 25.5 157.791 25.5Z" fill="white"/>
<path d="M162.035 8.04375L150.76 5.96875L156.693 20.9L164.961 10.8266L162.035 8.04375ZM161.854 8.95781L163.579 10.5977L158.861 11.4516L161.854 8.95781ZM157.836 11.2805L152.864 7.15703L160.991 8.65234L157.836 11.2805ZM157.482 12.0102L156.671 18.7133L152.3 7.71094L157.482 12.0094V12.0102ZM158.232 12.3656L163.457 11.4203L157.464 18.7195L158.232 12.3656Z" fill="black"/>
</g>
<defs>
<filter id="filter0_d_3_18314" x="119.197" y="4.68774" width="19.1787" height="17.6163" filterUnits="userSpaceOnUse" color-interpolation-filters="sRGB">
<feFlood flood-opacity="0" result="BackgroundImageFix"/>
<feColorMatrix in="SourceAlpha" type="matrix" values="0 0 0 0 0 0 0 0 0 0 0 0 0 0 0 0 0 0 127 0" result="hardAlpha"/>
<feOffset dy="0.5"/>
<feGaussianBlur stdDeviation="0.5"/>
<feColorMatrix type="matrix" values="0 0 0 0 0 0 0 0 0 0 0 0 0 0 0 0 0 0 0.204257 0"/>
<feBlend mode="normal" in2="BackgroundImageFix" result="effect1_dropShadow_3_18314"/>
<feBlend mode="normal" in="SourceGraphic" in2="effect1_dropShadow_3_18314" result="shape"/>
</filter>
<clipPath id="clip0_3_18314">
<rect width="170" height="25" fill="white" transform="translate(0.291016 0.5)"/>
</clipPath>
</defs>
</svg>
