<svg width="68" height="26" viewBox="0 0 68 26" fill="none" xmlns="http://www.w3.org/2000/svg">
<path d="M30.3215 7.75077H35.7275C37.0692 7.75077 38.0838 8.09521 38.7715 8.78399C39.3036 9.31742 39.5696 9.97857 39.5696 10.7673V10.8006C39.5696 11.1339 39.5284 11.4285 39.4455 11.6839C39.3628 11.9397 39.2524 12.1699 39.1142 12.3755C38.9764 12.5812 38.8163 12.7618 38.6342 12.9171C38.452 13.0728 38.2561 13.2063 38.0464 13.3171C38.7209 13.5729 39.2518 13.9199 39.6389 14.3588C40.0258 14.798 40.2195 15.4063 40.2195 16.1839V16.217C40.2195 16.7505 40.117 17.217 39.9118 17.6172C39.7067 18.017 39.4127 18.3505 39.03 18.6172C38.6472 18.8839 38.187 19.0838 37.6492 19.2172C37.1112 19.3505 36.5152 19.4171 35.8611 19.4171H30.3215V7.75077ZM35.187 12.4673C35.7537 12.4673 36.2037 12.3703 36.5368 12.1757C36.8699 11.9812 37.0365 11.6673 37.0365 11.2341V11.2007C37.0365 10.812 36.892 10.5148 36.6033 10.3091C36.3144 10.1036 35.8977 10.0007 35.3536 10.0007H32.8208V12.4673H35.187ZM35.8703 17.1673C36.4369 17.1673 36.8809 17.0648 37.2033 16.8591C37.5254 16.6535 37.6867 16.334 37.6867 15.9006V15.8674C37.6867 15.4785 37.5366 15.1703 37.2367 14.9423C36.9366 14.7149 36.4535 14.6009 35.7869 14.6009H32.8208V17.1675L35.8703 17.1673Z" fill="white"/>
<path d="M57.4492 7.75078H62.8552C64.197 7.75078 65.2116 8.09522 65.8993 8.784C66.4314 9.31743 66.6974 9.97858 66.6974 10.7674V10.8007C66.6974 11.1339 66.6562 11.4285 66.5733 11.6839C66.4906 11.9397 66.3801 12.1699 66.242 12.3755C66.1042 12.5812 65.9441 12.7618 65.762 12.9171C65.5798 13.0728 65.3839 13.2063 65.1742 13.3171C65.8487 13.5729 66.3796 13.9199 66.7667 14.3588C67.1536 14.798 67.3473 15.4063 67.3473 16.1839V16.217C67.3473 16.7505 67.2448 17.217 67.0396 17.6173C66.8345 18.017 66.5404 18.3505 66.1577 18.6173C65.775 18.8839 65.3148 19.0838 64.7769 19.2172C64.239 19.3505 63.6429 19.4171 62.9889 19.4171H57.4492V7.75078ZM62.3148 12.4673C62.8815 12.4673 63.3314 12.3703 63.6645 12.1757C63.9977 11.9812 64.1643 11.6673 64.1643 11.2341V11.2007C64.1643 10.812 64.0198 10.5148 63.731 10.3092C63.4421 10.1036 63.0255 10.0007 62.4814 10.0007H59.9486V12.4673H62.3148ZM62.9981 17.1673C63.5646 17.1673 64.0087 17.0648 64.3311 16.8591C64.6532 16.6535 64.8145 16.334 64.8145 15.9007V15.8674C64.8145 15.4786 64.6644 15.1703 64.3645 14.9423C64.0644 14.7149 63.5813 14.6009 62.9146 14.6009H59.9486V17.1675L62.9981 17.1673Z" fill="white"/>
<path d="M43.4744 7.75078H45.8403L51.3061 14.9341V7.75078H53.8389V19.4175H51.6562L46.0071 12.0009V19.4175H43.4744V7.75078Z" fill="white"/>
<path fill-rule="evenodd" clip-rule="evenodd" d="M25.9424 13C25.9424 6.09644 20.3459 0.5 13.4424 0.5C6.53882 0.5 0.942383 6.09644 0.942383 13C0.942383 19.9036 6.53882 25.5 13.4424 25.5C20.3459 25.5 25.9424 19.9036 25.9424 13ZM12.1006 9.77081L10.2079 11.6573L8.33291 9.77081L13.4454 4.66662L18.5412 9.77081L16.6662 11.6573L13.4454 8.426L12.1006 9.77081ZM13.4479 11.1141L11.5652 12.9968L13.4479 14.8795L15.3306 12.9968L13.4479 11.1141ZM16.6662 14.3469L13.4444 17.5687L12.1048 16.2292L10.2079 14.3469L8.33291 16.2219L13.4454 21.326L18.5412 16.2219L16.6662 14.3469ZM6.99168 11.1194L5.10899 13.0021L6.99168 14.8848L8.87433 13.0021L6.99168 11.1194ZM18.0111 13.001L19.8937 11.1183L21.7764 13.001L19.8937 14.8837L18.0111 13.001Z" fill="white"/>
</svg>
