<svg width="98" height="25" viewBox="0 0 98 25" fill="none" xmlns="http://www.w3.org/2000/svg">
<path d="M17.6476 2C8.4385 2 1 6.39177 1 11.8401C1 14.1463 2.35079 16.2595 4.6508 17.9684C3.55969 16.6853 2.94086 15.063 2.89841 13.3745C2.89841 7.74238 10.2 3.16685 19.1627 3.16685C24.9401 3.13929 30.0238 5.02279 32.9445 7.89857C30.325 4.42558 24.4472 2 17.6476 2Z" fill="white"/>
<path d="M16.1785 14.6149C16.7546 14.6479 17.3264 14.4967 17.8122 14.1831C18.0436 14.039 18.2326 13.8353 18.3594 13.5929C18.4861 13.3506 18.5462 13.0785 18.5332 12.8049C18.5226 11.6741 18.1336 10.58 17.4289 9.69942C16.721 8.74281 15.7771 7.989 14.6908 7.51272C13.8496 7.17329 12.9501 7.00468 12.0439 7.01658C11.1381 6.98235 10.2352 7.13872 9.39287 7.47569C8.55051 7.81266 7.78726 8.32283 7.15187 8.97358C6.54068 9.57936 6.05807 10.3038 5.73331 11.1029C5.40855 11.9021 5.24841 12.7593 5.26258 13.6226C5.24869 14.4862 5.4182 15.3427 5.75977 16.135C6.10133 16.9273 6.60708 17.6369 7.24314 18.2165C8.58856 19.4589 10.3653 20.1189 12.19 20.0541C13.2228 20.0592 14.2505 19.9074 15.2384 19.6039C16.2139 19.3673 17.0954 18.8388 17.7666 18.0879C18.0368 17.7865 18.1948 17.4001 18.2138 16.9945C18.2138 16.0758 17.6844 15.5704 16.6257 15.5704C15.9942 15.6894 15.3806 15.8901 14.8003 16.1676C14.0284 16.5274 13.1947 16.7333 12.3451 16.774C11.6192 16.7973 10.9032 16.5987 10.2916 16.2044C10.0164 16.0248 9.78601 15.7839 9.61824 15.5003C9.45047 15.2167 9.34982 14.898 9.32409 14.569L16.1785 14.6149ZM10.2368 10.6366C10.7537 10.2223 11.4021 10.0102 12.0622 10.0394C12.6885 10.0337 13.2965 10.2519 13.7781 10.655C14.0142 10.8439 14.2084 11.0805 14.3483 11.3495C14.4882 11.6184 14.5706 11.9139 14.5904 12.2169H9.32409C9.43591 11.5991 9.75877 11.0401 10.2368 10.6366V10.6366Z" fill="white"/>
<path d="M20.7601 18.1981C21.4004 18.8349 22.1649 19.3311 23.0054 19.6553C23.8459 19.9795 24.744 20.1246 25.643 20.0816C26.6774 20.1137 27.7068 19.9259 28.6641 19.5303C29.7867 19.025 30.3434 18.391 30.3434 17.6927C30.3526 17.2768 30.1985 16.8741 29.9145 16.5718C29.77 16.4169 29.5942 16.295 29.399 16.2141C29.2038 16.1333 28.9937 16.0955 28.7827 16.1032C28.3743 16.1251 27.9728 16.2184 27.5962 16.3789C27.0954 16.5585 26.5672 16.6487 26.0355 16.6453C25.62 16.6664 25.2051 16.595 24.8201 16.4362C24.4352 16.2774 24.0898 16.0351 23.8085 15.7265C23.3208 15.1104 23.0741 14.3358 23.1149 13.549C23.0841 12.7765 23.3195 12.017 23.7811 11.3991C24.036 11.0898 24.3597 10.8454 24.7261 10.6857C25.0924 10.5261 25.491 10.4557 25.8895 10.4803C26.4252 10.4608 26.9601 10.5386 27.4684 10.71C27.8579 10.8716 28.2711 10.9678 28.6915 10.9948C28.9097 11.002 29.1271 10.965 29.3309 10.8861C29.5347 10.8072 29.7207 10.6879 29.878 10.5354C30.0307 10.3964 30.152 10.2261 30.2339 10.0359C30.3158 9.84574 30.3562 9.64012 30.3526 9.4329C30.3526 8.57843 29.805 7.94447 28.7188 7.52183C27.8034 7.20397 26.8394 7.05156 25.8712 7.07163C24.958 7.02764 24.0453 7.1675 23.1865 7.48303C22.3277 7.79856 21.54 8.28341 20.8696 8.90919C20.2463 9.51501 19.7568 10.2462 19.4328 11.0551C19.1089 11.864 18.9578 12.7326 18.9895 13.6042C18.9626 14.4512 19.1065 15.2949 19.4123 16.0845C19.7182 16.874 20.1798 17.593 20.7692 18.1981H20.7601Z" fill="white"/>
<path d="M32.2962 18.2165C32.9447 18.8579 33.7161 19.3598 34.5634 19.6915C35.4107 20.0232 36.3162 20.1778 37.2248 20.1459C38.1315 20.1814 39.0358 20.0312 39.883 19.7042C40.7302 19.3773 41.5026 18.8805 42.1534 18.2441C42.7557 17.6348 43.2282 16.9083 43.542 16.1089C43.8559 15.3096 44.0045 14.4542 43.9788 13.595C44.0074 12.7301 43.8602 11.8683 43.5463 11.0626C43.2324 10.2569 42.7584 9.52412 42.1534 8.90926C41.5049 8.28156 40.7353 7.79458 39.8922 7.47849C39.0492 7.16241 38.1506 7.02395 37.2522 7.0717C36.3521 7.03842 35.4546 7.18896 34.6138 7.51424C33.7731 7.83953 33.0064 8.33282 32.3601 8.96439C31.7434 9.57173 31.2574 10.3003 30.9323 11.1049C30.6073 11.9094 30.4502 12.7727 30.4708 13.641C30.4489 14.4914 30.5994 15.3374 30.9133 16.1273C31.2272 16.9172 31.6977 17.6343 32.2962 18.2349V18.2165ZM35.1986 11.4635C35.4386 11.1559 35.7449 10.9072 36.0943 10.7361C36.4437 10.5651 36.8272 10.4763 37.2157 10.4763C37.6042 10.4763 37.9877 10.5651 38.3371 10.7361C38.6865 10.9072 38.9928 11.1559 39.2328 11.4635C39.6708 12.0675 39.8957 12.8016 39.8716 13.5491C39.9015 14.2988 39.6867 15.0378 39.2601 15.6531C39.0365 15.9867 38.7325 16.2578 38.3766 16.4409C38.0207 16.6241 37.6244 16.7134 37.2248 16.7005C36.8336 16.7163 36.4447 16.6329 36.0938 16.4579C35.7429 16.2829 35.4414 16.022 35.2169 15.6991C34.7775 15.0887 34.5527 14.3484 34.578 13.595C34.5508 12.8414 34.7688 12.0995 35.1986 11.4818V11.4635Z" fill="white"/>
<path d="M49.6102 6.71334H51.4356C53.3157 6.71334 54.2558 7.42999 54.2558 8.86329C54.2558 10.3241 53.3431 11.0592 51.4356 11.0592H49.6102V6.71334ZM49.6102 17.3069V14.4862H52.3483C54.02 14.5924 55.6715 14.072 56.9848 13.0254C57.5551 12.505 58.0027 11.8628 58.2949 11.1459C58.587 10.4289 58.7163 9.65535 58.6733 8.88166C58.7185 8.08791 58.5768 7.29464 58.2596 6.56653C57.9423 5.83843 57.4586 5.19613 56.8479 4.69202C55.4777 3.66991 53.7954 3.16283 52.0927 3.25872H48.3415C47.5542 3.17611 46.7637 3.38158 46.1145 3.83756C45.8793 4.12122 45.7032 4.44958 45.5966 4.80314C45.49 5.15669 45.455 5.52821 45.4939 5.89562V17.2977C45.4939 19.0709 46.1784 19.9622 47.5475 19.9622C48.9165 19.9622 49.6102 19.0434 49.6102 17.3069V17.3069Z" fill="white"/>
<path d="M63.6753 11.537C63.9012 11.2367 64.1961 10.9963 64.5348 10.8362C64.8734 10.6762 65.2456 10.6013 65.6194 10.6182C65.9936 10.5973 66.3672 10.6703 66.7065 10.8307C67.0458 10.9911 67.3403 11.2337 67.5634 11.537C67.9754 12.1239 68.1839 12.831 68.1567 13.5491C68.1838 14.2758 67.9756 14.9916 67.5634 15.5888C67.3403 15.892 67.0458 16.1347 66.7065 16.2951C66.3672 16.4554 65.9936 16.5284 65.6194 16.5076C65.2414 16.5266 64.8645 16.4529 64.5211 16.2928C64.1777 16.1328 63.8781 15.8912 63.6479 15.5888C63.2353 14.9923 63.0299 14.2752 63.0638 13.5491C63.0442 12.8249 63.2694 12.1154 63.7027 11.537H63.6753ZM70.2376 19.9622C71.561 19.9622 72.2182 19.0434 72.2182 17.2885V9.93828C72.2182 8.16503 71.561 7.28301 70.2376 7.28301C69.8456 7.27974 69.4602 7.38518 69.1237 7.58776C68.7873 7.79034 68.5127 8.08224 68.3301 8.43148C67.9189 7.99096 67.4184 7.64476 66.8624 7.41646C66.3065 7.18815 65.7082 7.08309 65.1082 7.10844C64.2444 7.08256 63.3858 7.25242 62.5959 7.60546C61.806 7.95851 61.105 8.48572 60.5448 9.14813C59.442 10.3685 58.8388 11.9637 58.8563 13.6134C58.8311 15.2373 59.407 16.8126 60.4717 18.0327C61.0139 18.6881 61.696 19.2119 62.4671 19.565C63.2383 19.9182 64.0787 20.0916 64.9257 20.0724C65.553 20.1043 66.1796 19.9975 66.7615 19.7594C67.3433 19.5213 67.8663 19.1577 68.2936 18.6943C68.4406 19.0808 68.7029 19.412 69.0444 19.6423C69.386 19.8727 69.7901 19.9908 70.2011 19.9806L70.2376 19.9622Z" fill="white"/>
<path d="M81.4996 8.70704L79.0536 14.5505L76.7718 9.03781C76.6177 8.58803 76.3928 8.16613 76.1056 7.78826C75.9259 7.61336 75.7126 7.47745 75.4786 7.38895C75.2447 7.30044 74.9952 7.26123 74.7456 7.27375C74.2289 7.2576 73.7258 7.44178 73.3401 7.78826C73.1619 7.95256 73.0202 8.1529 72.9243 8.37614C72.8283 8.59939 72.7803 8.84052 72.7833 9.08374C72.7878 9.43011 72.8656 9.77153 73.0115 10.0852L77.0456 18.7126L75.3937 22.0018C75.1939 22.3855 75.0816 22.8092 75.0651 23.2422C75.0549 23.4828 75.0989 23.7227 75.1937 23.9438C75.2885 24.1649 75.4318 24.3617 75.6127 24.5193C76.0137 24.8542 76.5253 25.0248 77.0456 24.997C77.7576 24.997 78.3417 24.5009 78.8072 23.527L84.9679 10.269C85.1615 9.87357 85.2704 9.44157 85.2873 9.00105C85.2873 7.8342 84.6302 7.25537 83.3068 7.25537C82.5492 7.25537 81.9651 7.73314 81.5453 8.70704H81.4996Z" fill="white"/>
<path d="M95.0815 16.388H91.1295L96.4414 10.1311C96.8836 9.70206 97.1697 9.13577 97.2537 8.52326C97.276 8.32078 97.2258 8.11693 97.112 7.94846C96.9982 7.78 96.8283 7.658 96.6331 7.60448C96.0091 7.45195 95.3672 7.38702 94.7255 7.41154H88.3366C86.6299 7.41154 85.7811 7.96281 85.7811 9.06535C85.7811 10.1679 86.6207 10.7467 88.3092 10.7467H91.7501L86.2739 17.2425C85.9119 17.6222 85.7008 18.1224 85.6807 18.6482C85.6807 19.4108 86.3834 19.7875 87.7799 19.7875H95.0815C96.7608 19.7875 97.6005 19.2271 97.6005 18.1061C97.6005 16.9577 96.77 16.388 95.1089 16.388H95.0815Z" fill="white"/>
</svg>
