<svg width="180" height="25" viewBox="0 0 180 25" fill="none" xmlns="http://www.w3.org/2000/svg">
<g clip-path="url(#clip0_3_17816)">
<path fill-rule="evenodd" clip-rule="evenodd" d="M52.5271 2.47607C51.3096 9.23316 50.1301 15.779 48.93 22.4385H43.9997C42.7067 18.8211 41.4236 15.2302 40.1404 11.6401C40.0029 11.6464 39.8653 11.6535 39.7278 11.6607C39.0632 15.2225 38.3981 18.7848 37.7139 22.4492H32.9033C34.0909 15.7619 35.2606 9.17094 36.4446 2.50293H41.3302C42.5701 5.93586 43.864 9.51875 45.3414 13.6115C46.7509 9.69557 46.6616 5.9578 47.813 2.47607H52.5271Z" fill="white"/>
<path fill-rule="evenodd" clip-rule="evenodd" d="M143.136 10.3543C144.774 10.3252 146.228 10.8485 147.241 9.43171C147.787 8.66848 147.635 7.74725 147.14 7.16219C146.069 5.89537 144.608 6.5243 143.136 6.56996V10.3543ZM142.946 16.1319C142.904 18.2949 142.948 18.3536 144.626 18.3858C147.294 18.4377 148.196 17.8885 148.19 16.2161C148.186 14.6923 147.494 14.1431 145.518 14.093C142.987 14.028 142.987 14.028 142.946 16.1319ZM137.952 22.5439V2.39798H141.426C143.432 2.39754 145.441 2.47005 147.443 2.37739C149.624 2.27623 151.196 3.163 152.126 5.07933C153.132 7.15234 152.7 9.31308 151.087 11.0163C150.885 11.2303 150.66 11.4241 150.407 11.6632C150.514 11.8476 150.572 12.1104 150.727 12.1927C153.15 13.4927 153.511 15.5992 153.199 18.0854C152.898 20.4915 151.148 22.4414 148.199 22.5229C144.864 22.6151 141.525 22.5439 137.952 22.5439Z" fill="white"/>
<path fill-rule="evenodd" clip-rule="evenodd" d="M107.676 7.06387C107.753 10.7546 107.435 14.3559 107.858 17.89C111.539 18.5337 112.434 17.2673 112.815 14.039C112.928 13.0837 112.907 12.0975 112.82 11.1369C112.507 7.67892 111.234 6.42062 107.676 7.06387ZM102.686 22.5588V2.39636H106.625C107.815 2.39636 109.012 2.47514 110.196 2.38248C115.283 1.98319 117.329 5.93493 117.725 9.21119C117.998 11.4713 117.968 13.8111 117.731 16.0797C117.312 20.0744 114.348 22.5418 110.302 22.557C107.847 22.5664 105.392 22.5588 102.686 22.5588Z" fill="white"/>
<path fill-rule="evenodd" clip-rule="evenodd" d="M126.053 18.0708H134.88V22.4142H120.944V2.5575H134.607V6.54012H126.031V9.9444H134.004V13.9682H126.053V18.0708Z" fill="white"/>
<path fill-rule="evenodd" clip-rule="evenodd" d="M53.2419 15.9475C54.7935 15.8034 56.1915 15.6727 57.6872 15.533C57.9052 16.1991 58.065 16.9171 58.3692 17.5675C58.9864 18.8867 60.5045 19.4879 61.7265 18.7511C62.3593 18.3692 63.0123 17.5805 63.1128 16.8961C63.1887 16.3786 62.5237 15.5514 61.9744 15.1852C60.8712 14.4502 59.6041 13.9681 58.4357 13.3248C55.5296 11.7241 54.6171 9.90665 55.1955 6.97597C55.7622 4.10303 57.6667 2.23683 60.6787 2.03047C62.2749 1.92125 63.969 2.10791 65.5054 2.55376C67.5107 3.13614 68.5429 4.83134 69.0498 6.80318C69.2682 7.65459 68.7988 8.07671 67.9783 8.09372C66.7983 8.11789 65.6175 8.09999 64.4076 8.09999C64.2088 7.58162 64.0802 6.99701 63.7814 6.51938C63.2258 5.63171 61.9601 5.31344 61.0168 5.72706C59.6738 6.31615 59.4741 7.69398 60.7073 8.47376C61.8949 9.22445 63.2088 9.77101 64.4428 10.4514C66.1235 11.3785 67.3799 12.6144 67.8394 14.6162C68.6648 18.2103 66.5232 22.4441 61.9493 22.945C60.5099 23.1021 58.9735 22.9051 57.5514 22.5725C54.4876 21.8554 52.9297 19.3966 53.2419 15.9475Z" fill="white"/>
<path fill-rule="evenodd" clip-rule="evenodd" d="M94.2818 9.45372C94.1165 9.42239 93.9517 9.3906 93.7864 9.35927C92.8874 11.1552 91.8347 12.8884 91.4376 15.1624C92.5694 15.0814 93.4787 15.0161 94.2818 14.9588V9.45372ZM91.9901 2.4679H98.9316V22.4459H94.6042C94.5613 21.6151 94.5136 20.6836 94.4488 19.4298C92.9379 19.4298 91.405 19.3487 89.8905 19.4835C89.4814 19.5197 88.9169 20.1505 88.7901 20.6097C88.3282 22.2781 87.3073 22.8457 85.6614 22.6277C84.9397 22.5319 84.1952 22.6116 83.0576 22.6116C86.1233 15.6983 89.0531 9.09069 91.9901 2.4679Z" fill="white"/>
<path fill-rule="evenodd" clip-rule="evenodd" d="M70.9863 7.37159C71.3075 5.61641 71.5821 4.11459 71.8756 2.50891H87.6227C87.3685 4.14771 87.1363 5.64595 86.8786 7.30534H81.4128C80.5097 12.3963 79.6352 17.3239 78.7339 22.4046H73.5415C74.4182 17.4309 75.2838 12.5181 76.1904 7.37159H70.9863Z" fill="white"/>
<mask id="mask0_3_17816" style="mask-type:alpha" maskUnits="userSpaceOnUse" x="164" y="2" width="16" height="21">
<path d="M164.294 2.49622H179.76V22.425H164.294V2.49622Z" fill="white"/>
</mask>
<g mask="url(#mask0_3_17816)">
<path fill-rule="evenodd" clip-rule="evenodd" d="M174.531 7.23311V22.425H169.606V7.38352H164.294V2.49622H179.76V7.23311H174.531Z" fill="white"/>
</g>
<mask id="mask1_3_17816" style="mask-type:alpha" maskUnits="userSpaceOnUse" x="0" y="2" width="180" height="21">
<path d="M0 23H179.76V2H0V23Z" fill="white"/>
</mask>
<g mask="url(#mask1_3_17816)">
<path fill-rule="evenodd" clip-rule="evenodd" d="M156.339 22.4122H161.423V2.46912H156.339V22.4122Z" fill="white"/>
<path fill-rule="evenodd" clip-rule="evenodd" d="M27.4867 2.48169H32.5979C31.6716 9.20654 30.2741 15.7411 29.2098 22.4391H23.9312C25.129 15.7156 26.3036 9.12239 27.4867 2.48169Z" fill="white"/>
<path fill-rule="evenodd" clip-rule="evenodd" d="M23.5986 2.46423C23.0886 5.28256 22.608 7.93839 22.1082 10.7021H13.6934C14.1958 7.87393 14.6692 5.20691 15.1565 2.46423H23.5986Z" fill="white"/>
<path fill-rule="evenodd" clip-rule="evenodd" d="M21.6441 14.2379C21.134 17.0562 20.6535 19.7121 20.1537 22.4753H11.7393C12.2413 19.6472 12.7151 16.9806 13.202 14.2379H21.6441Z" fill="white"/>
<path fill-rule="evenodd" clip-rule="evenodd" d="M1.46319 14.2379H9.9053C9.39525 17.0562 8.91468 19.7121 8.41491 22.4753H0.000488281" fill="white"/>
</g>
</g>
<defs>
<clipPath id="clip0_3_17816">
<rect width="180" height="25" fill="white"/>
</clipPath>
</defs>
</svg>
