<svg width="72" height="26" viewBox="0 0 72 26" fill="none" xmlns="http://www.w3.org/2000/svg">
<path fill-rule="evenodd" clip-rule="evenodd" d="M25.1072 13C25.1072 6.09133 19.4919 0.5 12.5536 0.5C5.64472 0.5 0 6.09133 0 13C0 19.9087 5.61532 25.5 12.5536 25.5C19.4919 25.5 25.1072 19.9087 25.1072 13ZM14.1118 9.48714V11.3314L14.1706 11.2436C17.6103 11.4778 20.2269 12.0925 20.2269 12.9122C20.2269 13.7319 17.6397 14.4344 14.1706 14.5808V20.6405H11.0836V14.6686C7.61449 14.493 4.99793 13.8197 4.99793 13C4.99793 12.1803 7.61449 11.507 11.0542 11.3314V9.48714H6.7619V6.61829H18.4041V9.48714H14.1118ZM12.6418 14.1124H14.1706C17.2281 13.9368 19.5213 13.4391 19.5213 12.7951C19.5213 12.1511 17.2281 11.6241 14.2 11.4778V13.5855H12.6712H11.0836V11.507C8.02608 11.6534 5.73291 12.2096 5.73291 12.8244C5.73291 13.4391 8.02608 13.9661 11.0836 14.1124H12.6418Z" fill="white"/>
<path d="M36.5526 1.95337H34.6746V7.04087C34.6746 8.58087 33.8322 9.58462 32.5756 9.58462C31.2499 9.58462 30.38 8.58087 30.38 7.04087V1.95337H28.502V7.04087C28.502 9.62587 30.1314 11.3721 32.5756 11.3721C34.9646 11.3721 36.5526 9.62587 36.5526 7.04087V1.95337Z" fill="white"/>
<path d="M41.7998 1.74719C39.6318 1.74719 38.2786 2.90219 38.2786 4.55219C38.2786 6.35344 39.6042 6.95844 40.7089 7.19219L42.6698 7.56344C43.4984 7.72844 43.7469 8.04469 43.7469 8.56719C43.7469 9.22719 43.1807 9.73594 42.1036 9.73594C41.0542 9.73594 40.2809 9.28219 40.0323 8.23719L38.0576 8.63594C38.2924 10.4784 39.9909 11.3722 41.9241 11.3722C44.1198 11.3722 45.5973 10.2584 45.5973 8.47094C45.5973 7.04094 44.6721 6.14719 43.1669 5.83094L41.1784 5.43219C40.4604 5.29469 40.2532 4.96469 40.2532 4.49719C40.2532 3.87844 40.8194 3.35594 41.7584 3.35594C42.6836 3.35594 43.4431 3.91969 43.5812 4.78594L45.4592 4.40094C45.1002 2.76469 43.6779 1.74719 41.7998 1.74719Z" fill="white"/>
<path d="M47.2539 1.95337V11.1659H50.6647C53.7165 11.1659 55.7464 9.30962 55.7464 6.55962C55.7464 3.80962 53.7165 1.95337 50.6647 1.95337H47.2539ZM49.1319 9.47462V3.64462H50.6647C52.5842 3.64462 53.8546 4.77212 53.8546 6.55962C53.8546 8.34712 52.5842 9.47462 50.6647 9.47462H49.1319Z" fill="white"/>
<path d="M64.612 3.64462V1.95337H56.5752V3.64462H59.6546V11.1659H61.5326V3.64462H64.612Z" fill="white"/>
<path d="M35.6137 21.3906H30.463V19.3006H35.1857V17.6369H30.463V15.5606H35.5861V13.8694H28.585V23.0819H35.6137V21.3906Z" fill="white"/>
<path d="M45.5424 23.0819L42.4354 19.6581C44.051 19.4244 45.0867 18.3244 45.0867 16.7844C45.0867 15.0381 43.761 13.8694 41.7725 13.8694H37.3398V23.0819H39.2179V19.6994H40.1983L43.2501 23.0819H45.5424ZM39.2179 18.0081V15.5606H41.7725C42.6425 15.5606 43.2225 16.0556 43.2225 16.7844C43.2225 17.5131 42.6425 18.0081 41.7725 18.0081H39.2179Z" fill="white"/>
<path d="M51.0932 21.5418C49.4361 21.5418 48.1243 20.2218 48.1243 18.4756C48.1243 16.7293 49.4361 15.4231 51.0932 15.4231C52.3774 15.4231 53.4821 16.1243 53.8274 17.7193L55.6501 17.2106C55.1806 14.9968 53.3164 13.6631 51.0932 13.6631C48.3728 13.6631 46.2324 15.7806 46.2324 18.4756C46.2324 21.1843 48.3728 23.2881 51.0932 23.2881C53.3164 23.2881 55.1944 21.9681 55.6501 19.6031L53.8274 19.2318C53.4821 20.8406 52.3774 21.5418 51.0932 21.5418Z" fill="white"/>
<path d="M62.9411 21.3906H59.4474L60.8698 20.0018C62.2231 18.6818 62.8859 17.8156 62.8859 16.5368C62.8859 14.8318 61.6016 13.6631 59.7374 13.6631C57.8594 13.6631 56.5614 14.7906 56.4785 16.6056L58.1908 16.9631C58.2737 15.7943 58.8122 15.2718 59.7098 15.2718C60.5107 15.2718 61.0769 15.8081 61.0769 16.5781C61.0769 17.6093 60.3312 18.2281 59.7651 18.7918L56.6442 21.8718V23.0818H62.9411V21.3906Z" fill="white"/>
<path d="M68.0229 13.6631C65.6477 13.6631 64.0459 15.6156 64.0459 18.4756C64.0459 21.3493 65.6477 23.2881 68.0229 23.2881C70.398 23.2881 71.9999 21.3493 71.9999 18.4756C71.9999 15.6156 70.398 13.6631 68.0229 13.6631ZM68.0229 21.5693C66.7525 21.5693 65.9515 20.3043 65.9515 18.4756C65.9515 16.6468 66.7525 15.3818 68.0229 15.3818C69.2933 15.3818 70.0942 16.6468 70.0942 18.4756C70.0942 20.3043 69.2933 21.5693 68.0229 21.5693Z" fill="white"/>
</svg>
